<svg class="typst-doc" viewBox="0 0 304.51289062500007 88.560546875" xmlns="http://www.w3.org/2000/svg" xmlns:xlink="http://www.w3.org/1999/xlink" xmlns:h5="http://www.w3.org/1999/xhtml">
    <path class="typst-shape" fill="#0d1117" fill-rule="nonzero" d="M 0 0v 88.56055 h 304.51288 v -88.56055 Z "/>
    <g>
        <g class="typst-group">
            <g>
                <g class="typst-text" transform="matrix(1 0 0 -1 37.91015625 26.93359375)">
                    <use xlink:href="#g7768021858DC6CC27188C9B04A05FA6D" x="0" y="0" fill="#9198a1" fill-rule="nonzero"/>
                    <use xlink:href="#g994D6276079A0DA3219124B0E5A6FAD5" x="5.859375" y="0" fill="#9198a1" fill-rule="nonzero"/>
                    <use xlink:href="#g76A692940D3DC8CAF9248006D832662E" x="11.71875" y="0" fill="#9198a1" fill-rule="nonzero"/>
                    <use xlink:href="#g36065F6A4FFDE5CDB4274DF4D8DF9F1" x="17.578125" y="0" fill="#9198a1" fill-rule="nonzero"/>
                    <use xlink:href="#gB60D4DADF14A450667ED6AFD1C4B637B" x="23.4375" y="0" fill="#9198a1" fill-rule="nonzero"/>
                </g>
                <g class="typst-text" transform="matrix(1 0 0 -1 116.37890625 26.93359375)">
                    <use xlink:href="#g540080C9EA821770F3FEC7B86E98F54D" x="0" y="0" fill="#9198a1" fill-rule="nonzero"/>
                    <use xlink:href="#gC1465B326C519C898F44C00173329DC3" x="5.859375" y="0" fill="#9198a1" fill-rule="nonzero"/>
                    <use xlink:href="#g994D6276079A0DA3219124B0E5A6FAD5" x="11.71875" y="0" fill="#9198a1" fill-rule="nonzero"/>
                    <use xlink:href="#g5810FE8677DA0F5C1E82325733F92E62" x="17.578125" y="0" fill="#9198a1" fill-rule="nonzero"/>
                    <use xlink:href="#gFB0F840E5A8BF49BEC8BE6A345CB4AB" x="29.296875" y="0" fill="#9198a1" fill-rule="nonzero"/>
                    <use xlink:href="#g36065F6A4FFDE5CDB4274DF4D8DF9F1" x="35.15625" y="0" fill="#9198a1" fill-rule="nonzero"/>
                    <use xlink:href="#gFB0F840E5A8BF49BEC8BE6A345CB4AB" x="41.015625" y="0" fill="#9198a1" fill-rule="nonzero"/>
                    <use xlink:href="#g994D6276079A0DA3219124B0E5A6FAD5" x="46.875" y="0" fill="#9198a1" fill-rule="nonzero"/>
                    <use xlink:href="#g98FFEDE6332A784EA8065E2CF72B1A4E" x="52.734375" y="0" fill="#9198a1" fill-rule="nonzero"/>
                </g>
                <g class="typst-text" transform="matrix(1 0 0 -1 210.21738281250003 26.93359375)">
                    <use xlink:href="#gD3E1361C62CC1CD092AD44D8CA1FFE12" x="0" y="0" fill="#9198a1" fill-rule="nonzero"/>
                    <use xlink:href="#gC1465B326C519C898F44C00173329DC3" x="5.859375" y="0" fill="#9198a1" fill-rule="nonzero"/>
                    <use xlink:href="#g5810FE8677DA0F5C1E82325733F92E62" x="11.71875" y="0" fill="#9198a1" fill-rule="nonzero"/>
                    <use xlink:href="#g98FFEDE6332A784EA8065E2CF72B1A4E" x="17.578125" y="0" fill="#9198a1" fill-rule="nonzero"/>
                    <use xlink:href="#g994D6276079A0DA3219124B0E5A6FAD5" x="29.296875" y="0" fill="#9198a1" fill-rule="nonzero"/>
                    <use xlink:href="#g36065F6A4FFDE5CDB4274DF4D8DF9F1" x="35.15625" y="0" fill="#9198a1" fill-rule="nonzero"/>
                    <use xlink:href="#gFB0F840E5A8BF49BEC8BE6A345CB4AB" x="41.015625" y="0" fill="#9198a1" fill-rule="nonzero"/>
                    <use xlink:href="#g98FFEDE6332A784EA8065E2CF72B1A4E" x="46.875" y="0" fill="#9198a1" fill-rule="nonzero"/>
                    <use xlink:href="#gF3BC4AD17F032FE82EB1FDABBE59B28D" x="52.734375" y="0" fill="#9198a1" fill-rule="nonzero"/>
                    <use xlink:href="#g76A692940D3DC8CAF9248006D832662E" x="58.59375" y="0" fill="#9198a1" fill-rule="nonzero"/>
                    <use xlink:href="#g994D6276079A0DA3219124B0E5A6FAD5" x="64.453125" y="0" fill="#9198a1" fill-rule="nonzero"/>
                </g>
                <g class="typst-group">
                    <g>
                        <g class="typst-group" transform="matrix(1 0 0 1 20 40.93359375)">
                            <g>
                                <g class="typst-group">
                                    <g>
                                        <path class="typst-shape" fill="#271052" fill-rule="nonzero" stroke="#ab7df8" stroke-width="1.2" stroke-linecap="butt" stroke-linejoin="miter" stroke-miterlimit="4" d="M 0 0m 6 0 c -3.310704 0 -6 2.689296 -6 6 v 15.626953 c 0 3.3107033 2.689296 6 6 6 h 53.117188 c 3.3107033 0 6 -2.6892967 6 -6 v -15.626953 c 0 -3.310704 -2.6892967 -6 -6 -6 h -53.117188 Z "/>
                                        <path class="typst-shape" fill="none" transform="matrix(1 0 0 1 9.999999860186218 10.000000098917324)" d="M 0 0h 45.117188 v 7.626953 h -45.117188 v -7.626953 Z "/>
                                        <g class="typst-group">
                                            <g>
                                                <g class="typst-group" transform="matrix(1 0 0 1 9.999999783464565 10.000000062992127)">
                                                    <g>
                                                        <g class="typst-group">
                                                            <g>
                                                                <g class="typst-text" transform="matrix(1 0 0 -1 0.00000000005000072447069752 7.626953125)">
                                                                    <use xlink:href="#g391847453ACBCB4C4C699ACF63B9C79E" x="0" y="0" fill="#f0f6fc" fill-rule="nonzero"/>
                                                                    <use xlink:href="#g9ED27BF9DD3FD9A08EC498C0FA12CB90" x="6.4453125" y="0" fill="#f0f6fc" fill-rule="nonzero"/>
                                                                    <use xlink:href="#g70D5179DC19D8E8F3CE02D6CAF971164" x="12.890625" y="0" fill="#f0f6fc" fill-rule="nonzero"/>
                                                                    <use xlink:href="#g2CC40367AB557670099CA8DFAC2D1389" x="19.3359375" y="0" fill="#f0f6fc" fill-rule="nonzero"/>
                                                                    <use xlink:href="#g2CC40367AB557670099CA8DFAC2D1389" x="25.78125" y="0" fill="#f0f6fc" fill-rule="nonzero"/>
                                                                    <use xlink:href="#gC88201EF90881CFEFD7EDB658186DAAD" x="32.2265625" y="0" fill="#f0f6fc" fill-rule="nonzero"/>
                                                                    <use xlink:href="#gACE3294BCBE3F84DD4D497E1F529CF36" x="38.671875" y="0" fill="#f0f6fc" fill-rule="nonzero"/>
                                                                </g>
                                                            </g>
                                                        </g>
                                                    </g>
                                                </g>
                                            </g>
                                        </g>
                                    </g>
                                </g>
                            </g>
                        </g>
                        <g class="typst-group" transform="matrix(1 0 0 1 113.1171875 40.93359375)">
                            <g>
                                <g class="typst-group">
                                    <g>
                                        <path class="typst-shape" fill="#271052" fill-rule="nonzero" stroke="#ab7df8" stroke-width="1.2" stroke-linecap="butt" stroke-linejoin="miter" stroke-miterlimit="4" d="M 0 0m 6 0 c -3.310704 0 -6 2.689296 -6 6 v 15.626953 c 0 3.3107033 2.689296 6 6 6 h 53.117188 c 3.3107033 0 6 -2.6892967 6 -6 v -15.626953 c 0 -3.310704 -2.6892967 -6 -6 -6 h -53.117188 Z "/>
                                        <path class="typst-shape" fill="none" transform="matrix(1 0 0 1 9.999999860186218 10.000000098917324)" d="M 0 0h 45.117188 v 7.626953 h -45.117188 v -7.626953 Z "/>
                                        <g class="typst-group">
                                            <g>
                                                <g class="typst-group" transform="matrix(1 0 0 1 9.999999783464565 10.000000062992127)">
                                                    <g>
                                                        <g class="typst-group">
                                                            <g>
                                                                <g class="typst-text" transform="matrix(1 0 0 -1 0.00000000005000072447069752 7.626953125)">
                                                                    <use xlink:href="#g671276076474A6FD5E2B11E6BEE10ABC" x="0" y="0" fill="#f0f6fc" fill-rule="nonzero"/>
                                                                    <use xlink:href="#g1F9462F7007E7136C0B01D5529C92807" x="6.4453125" y="0" fill="#f0f6fc" fill-rule="nonzero"/>
                                                                    <use xlink:href="#gA18CDFE1F62A00B4FEC5E44AFC386BDB" x="12.890625" y="0" fill="#f0f6fc" fill-rule="nonzero"/>
                                                                    <use xlink:href="#gA0024E0682C2E34A93303274D082FDF5" x="19.3359375" y="0" fill="#f0f6fc" fill-rule="nonzero"/>
                                                                    <use xlink:href="#gA0024E0682C2E34A93303274D082FDF5" x="25.78125" y="0" fill="#f0f6fc" fill-rule="nonzero"/>
                                                                    <use xlink:href="#g941F0E91703FDA4F8112D6D8DDFCDA38" x="32.2265625" y="0" fill="#f0f6fc" fill-rule="nonzero"/>
                                                                    <use xlink:href="#g34A87EEC0912CBC85463B8C88B93607F" x="38.671875" y="0" fill="#f0f6fc" fill-rule="nonzero"/>
                                                                </g>
                                                            </g>
                                                        </g>
                                                    </g>
                                                </g>
                                            </g>
                                        </g>
                                    </g>
                                </g>
                            </g>
                        </g>
                        <g class="typst-group" transform="matrix(1 0 0 1 206.234375 41.404101562499996)">
                            <g>
                                <g class="typst-group">
                                    <g>
                                        <path class="typst-shape" fill="#271052" fill-rule="nonzero" stroke="#ab7df8" stroke-width="1.2" stroke-linecap="butt" stroke-linejoin="miter" stroke-miterlimit="4" d="M 0 0m 6 0 c -3.310704 0 -6 2.689296 -6 6 v 14.685938 c 0 3.3107033 2.689296 6 6 6 h 66.27852 c 3.3106995 0 6 -2.6892967 6 -6 v -14.685938 c 0 -3.310704 -2.6893005 -6 -6 -6 h -66.27852 Z "/>
                                        <path class="typst-shape" fill="none" transform="matrix(1 0 0 1 9.999999985678356 10.000000100393699)" d="M 0 0h 58.278515 v 6.6859374 h -58.278515 v -6.6859374 Z "/>
                                        <g class="typst-group">
                                            <g>
                                                <g class="typst-group" transform="matrix(1 0 0 1 9.999999892716552 10.000000062992125)">
                                                    <g>
                                                        <g class="typst-group">
                                                            <g>
                                                                <g class="typst-text" transform="matrix(1 0 0 -1 0.00000000004999714378289526 6.685937500000002)">
                                                                    <use xlink:href="#g5D82E97578C068688E65518C5B145C82" x="0" y="0" fill="#ab7df8" fill-rule="nonzero"/>
                                                                    <use xlink:href="#g34BA1A7010AC1FCFE27F6EE977C8235D" x="5.298046875000001" y="0" fill="#ab7df8" fill-rule="nonzero"/>
                                                                    <use xlink:href="#gFFB9228403D8473BE65C1B1C2F5CD5EE" x="10.596093750000001" y="0" fill="#ab7df8" fill-rule="nonzero"/>
                                                                    <use xlink:href="#g83A1CD45EAE454B67E7AA8D9B5C02D37" x="15.894140625000002" y="0" fill="#ab7df8" fill-rule="nonzero"/>
                                                                    <use xlink:href="#g9AC511737BFC8C52B911A400A139F3C7" x="21.192187500000003" y="0" fill="#ab7df8" fill-rule="nonzero"/>
                                                                    <use xlink:href="#gC81A14FFAD9A17334948B78B7366BB76" x="26.490234375000004" y="0" fill="#ab7df8" fill-rule="nonzero"/>
                                                                    <use xlink:href="#g65FB009F7866A32A194518F7357A74FB" x="31.788281250000004" y="0" fill="#ab7df8" fill-rule="nonzero"/>
                                                                    <use xlink:href="#gA334C4310E154EBE6BDFD4EE7F34E40B" x="37.08632812500001" y="0" fill="#ab7df8" fill-rule="nonzero"/>
                                                                    <use xlink:href="#g4770EF2E1B607C1A21092CD7B2B5FE5D" x="42.384375000000006" y="0" fill="#ab7df8" fill-rule="nonzero"/>
                                                                    <use xlink:href="#gBA936EC3BCBE732A8874606A5AEE741E" x="47.682421875" y="0" fill="#ab7df8" fill-rule="nonzero"/>
                                                                    <use xlink:href="#gC81A14FFAD9A17334948B78B7366BB76" x="52.98046875" y="0" fill="#ab7df8" fill-rule="nonzero"/>
                                                                </g>
                                                            </g>
                                                        </g>
                                                    </g>
                                                </g>
                                            </g>
                                        </g>
                                    </g>
                                </g>
                            </g>
                        </g>
                    </g>
                </g>
            </g>
        </g>
    </g>
    <defs id="glyph">
        <symbol id="g7768021858DC6CC27188C9B04A05FA6D" overflow="visible">
            <path d="M 0 0m 0.7324219 0 v 6.9335938 h 2.0898438 q 1.3037109 0 1.9995117 -0.60058594 q 0.6958008 -0.60058594 0.6958008 -1.7236328 q 0 -1.2353516 -0.6958008 -1.8969727 q -0.6958008 -0.6616211 -1.9995117 -0.6616211 h -0.91308594 v -2.0507813 h -1.1767578 Z m 1.1767578 3.1347656 h 0.91308594 q 0.703125 0 1.0766602 0.37109375 q 0.37353516 0.37109375 0.37353516 1.0546875 q 0 0.625 -0.37353516 0.95703125 q -0.37353516 0.33203125 -1.0766602 0.33203125 h -0.91308594 v -2.7148438 Z "/>
        </symbol>
        <symbol id="g994D6276079A0DA3219124B0E5A6FAD5" overflow="visible">
            <path d="M 0 0m 0.7324219 0 v 6.9335938 h 1.1767578 v -5.8496094 h 3.5107422 v -1.0839844 h -4.6875 Z "/>
        </symbol>
        <symbol id="g76A692940D3DC8CAF9248006D832662E" overflow="visible">
            <path d="M 0 0m 0.17089844 0 l 2.0019531 6.9335938 h 1.5136719 l 2.0019531 -6.9335938 h -1.2451172 l -0.3857422 1.4648438 h -2.2558594 l -0.3857422 -1.4648438 h -1.2451172 Z m 1.9140625 2.5488281 h 1.6894531 l -0.80078125 3.0322266 h -0.087890625 l -0.80078125 -3.0322266 Z "/>
        </symbol>
        <symbol id="g36065F6A4FFDE5CDB4274DF4D8DF9F1" overflow="visible">
            <path d="M 0 0m 0.7714844 0 v 1.0693359 h 1.5625 v 4.7998047 h -1.5625 v 1.0644531 h 4.3164063 v -1.0644531 h -1.5722656 v -4.7998047 h 1.5722656 v -1.0693359 h -4.3164063 Z "/>
        </symbol>
        <symbol id="gB60D4DADF14A450667ED6AFD1C4B637B" overflow="visible">
            <path d="M 0 0m 3.5009766 0 l -1.5283203 5.361328 h -0.15136719 v -5.361328 h -1.1474609 v 6.9335938 h 1.6845703 l 1.5283203 -5.361328 h 0.15136719 v 5.361328 h 1.1474609 v -6.9335938 h -1.6845703 Z "/>
        </symbol>
        <symbol id="g540080C9EA821770F3FEC7B86E98F54D" overflow="visible">
            <path d="M 0 0m 0.7324219 0 v 6.9335938 h 2.109375 q 1.0791016 0 1.6674805 -0.45166016 q 0.5883789 -0.45166016 0.5883789 -1.2817383 q 0 -0.6542969 -0.4248047 -1.0375977 q -0.4248047 -0.38330078 -1.2109375 -0.43701172 v -0.1171875 h 0.11230469 q 0.96191406 0 1.4868164 -0.44433594 q 0.52490234 -0.44433594 0.52490234 -1.2597656 q 0 -0.9082031 -0.55908203 -1.40625 q -0.55908203 -0.49804688 -1.5893555 -0.49804688 h -2.7050781 Z m 1.1767578 1.0839844 h 1.2451172 q 0.5761719 0 0.8935547 0.26611328 q 0.3173828 0.26611328 0.3173828 0.7495117 q 0 0.48339844 -0.33447266 0.7519531 q -0.33447266 0.2685547 -0.9448242 0.2685547 h -1.1767578 v -2.0361328 Z m 0 3.1201172 h 0.95214844 q 1.015625 0 1.015625 0.8496094 q 0 0.79589844 -1.0839844 0.79589844 h -0.88378906 v -1.6455078 Z "/>
        </symbol>
        <symbol id="gC1465B326C519C898F44C00173329DC3" overflow="visible">
            <path d="M 0 0m 2.9296875 -0.09765625 q -2.6074219 0 -2.6074219 3.515625 q 0 3.6132813 2.6074219 3.6132813 q 2.6074219 0 2.6074219 -3.6132813 q 0 -3.515625 -2.6074219 -3.515625 Z m 0 1.0986328 q 1.3769531 0 1.3769531 2.4169922 q 0 2.5146484 -1.3769531 2.5146484 q -1.3769531 0 -1.3769531 -2.5146484 q 0 -2.4169922 1.3769531 -2.4169922 Z "/>
        </symbol>
        <symbol id="g5810FE8677DA0F5C1E82325733F92E62" overflow="visible">
            <path d="M 0 0m 0.6347656 0 v 6.9335938 h 1.7285156 q 3.2226563 0 3.2226563 -3.5644531 q 0 -3.3691406 -3.2226563 -3.3691406 h -1.7285156 Z m 1.1767578 1.1083984 h 0.5517578 q 2.0019531 0 2.0019531 2.2607422 q 0 2.4560547 -2.0019531 2.4560547 h -0.5517578 v -4.716797 Z "/>
        </symbol>
        <symbol id="gFB0F840E5A8BF49BEC8BE6A345CB4AB" overflow="visible">
            <path d="M 0 0m 2.3388672 0 v 5.8496094 h -1.9970703 v 1.0839844 h 5.1757813 v -1.0839844 h -1.9970703 v -5.8496094 h -1.1816406 Z "/>
        </symbol>
        <symbol id="g98FFEDE6332A784EA8065E2CF72B1A4E" overflow="visible">
            <path d="M 0 0m 0.7324219 0 v 6.9335938 h 4.6875 v -1.0839844 h -3.5107422 v -1.8359375 h 2.631836 v -1.0839844 h -2.631836 v -1.8457031 h 3.5107422 v -1.0839844 h -4.6875 Z "/>
        </symbol>
        <symbol id="gD3E1361C62CC1CD092AD44D8CA1FFE12" overflow="visible">
            <path d="M 0 0m 3.6523438 -0.09765625 q -3.28125 0 -3.28125 3.5742188 q 0 1.6943359 0.8251953 2.6245117 q 0.8251953 0.9301758 2.3388672 0.9301758 q 0.6982422 0 1.2304688 -0.22460938 q 0.53222656 -0.22460938 0.79589844 -0.63964844 l -0.72265625 -0.8544922 q -0.21972656 0.29785156 -0.55908203 0.45898438 q -0.33935547 0.16113281 -0.7348633 0.16113281 q -0.88378906 0 -1.4135742 -0.6274414 q -0.52978516 -0.6274414 -0.52978516 -1.7797852 q 0 -2.524414 2.2167969 -2.524414 q 0.7080078 0 1.3964844 0.29296875 l 0.22460938 -1.0595703 q -0.8496094 -0.33203125 -1.7871094 -0.33203125 Z "/>
        </symbol>
        <symbol id="gF3BC4AD17F032FE82EB1FDABBE59B28D" overflow="visible">
            <path d="M 0 0m 0.6347656 0 v 6.9335938 h 2.4316406 q 1.1035156 0 1.7041016 -0.546875 q 0.60058594 -0.546875 0.60058594 -1.5527344 q 0 -1.4746094 -1.09375 -2.006836 l 1.3476563 -2.8271484 h -1.3916016 l -1.1132813 2.578125 q -0.024414063 0 -0.053710938 0 h -1.2548828 v -2.578125 h -1.1767578 Z m 1.1767578 3.6621094 h 1.2548828 q 0.5029297 0 0.78125 0.28320313 q 0.2783203 0.28320313 0.2783203 0.7910156 q 0 0.5371094 -0.2783203 0.8251953 q -0.2783203 0.28808594 -0.78125 0.28808594 h -1.2548828 v -2.1875 Z "/>
        </symbol>
        <symbol id="g391847453ACBCB4C4C699ACF63B9C79E" overflow="visible">
            <path d="M 0 0m 0.90234375 -2.4707031 v 8.1640625 h 1.03125 l 0.091308594 -1.03125 h 0.06982422 q 0.07519531 0.5371094 0.48608398 0.8378906 q 0.41088867 0.30078125 1.0769043 0.30078125 q 1.1225586 0 1.6972656 -0.7626953 q 0.57470703 -0.7626953 0.57470703 -2.2451172 q 0 -1.4287109 -0.57470703 -2.1645508 q -0.57470703 -0.73583984 -1.6972656 -0.73583984 q -0.65527344 0 -1.0554199 0.30078125 q -0.40014648 0.30078125 -0.45385742 0.8378906 h -0.107421875 v -3.5019531 h -1.1386719 Z m 1.1386719 5.1240234 q 0 -1.7939453 1.3642578 -1.7939453 q 1.3964844 0 1.3964844 1.9335938 q 0 2.0410156 -1.3964844 2.0410156 q -1.3642578 0 -1.3642578 -1.7939453 v -0.38671875 Z "/>
        </symbol>
        <symbol id="g9ED27BF9DD3FD9A08EC498C0FA12CB90" overflow="visible">
            <path d="M 0 0m 4.071289 -0.107421875 q -0.98828125 0 -1.4287109 0.5371094 q -0.4404297 0.5371094 -0.4404297 1.71875 v 4.9091797 h -1.6757813 v 0.99902344 h 2.8144531 v -5.854492 q 0 -0.45117188 0.0859375 -0.73583984 q 0.0859375 -0.28466797 0.33569336 -0.4189453 q 0.24975586 -0.13427734 0.7385254 -0.13427734 q 0.44580078 0 1.1386719 0.20410156 l 0.12890625 -0.99902344 q -0.4350586 -0.11816406 -0.8352051 -0.171875 q -0.40014648 -0.053710938 -0.86206055 -0.053710938 Z "/>
        </symbol>
        <symbol id="g70D5179DC19D8E8F3CE02D6CAF971164" overflow="visible">
            <path d="M 0 0m 4.3935547 -0.053710938 l -0.053710938 1.2568359 h -0.11279297 q -0.064453125 -0.65527344 -0.5559082 -0.98291016 q -0.49145508 -0.32763672 -1.286377 -0.32763672 q -0.89160156 0 -1.3803711 0.4296875 q -0.48876953 0.4296875 -0.48876953 1.2138672 q 0 0.90234375 0.67407227 1.3857422 q 0.67407227 0.48339844 1.9040527 0.48339844 q 0.6123047 0 1.0742188 -0.091308594 v 0.2631836 q 0 0.56933594 -0.40014648 0.8352051 q -0.40014648 0.26586914 -1.1896973 0.28735352 l -1.3642578 0.037597656 l 0.107421875 1.0097656 l 1.1494141 -0.016113281 q 1.4125977 -0.021484375 2.097412 -0.60961914 q 0.68481445 -0.58813477 0.68481445 -1.7160645 v -2.3740234 l 0.9667969 -0.11816406 v -0.91308594 l -1.8261719 -0.053710938 Z m -0.22558594 2.4921875 q -0.27392578 0.04296875 -0.545166 0.048339844 q -0.27124023 0.0053710938 -0.5505371 0.0053710938 q -1.4824219 0 -1.4824219 -0.90234375 q 0 -0.37597656 0.25512695 -0.5800781 q 0.25512695 -0.20410156 0.7224121 -0.20410156 q 0.5317383 0 0.888916 0.18261719 q 0.35717773 0.18261719 0.5344238 0.46728516 q 0.1772461 0.28466797 0.1772461 0.5854492 v 0.39746094 Z "/>
        </symbol>
        <symbol id="g2CC40367AB557670099CA8DFAC2D1389" overflow="visible">
            <path d="M 0 0m 4.404297 0 v 3.7060547 q 0 0.515625 -0.2685547 0.7949219 q -0.2685547 0.27929688 -0.7519531 0.27929688 q -1.3427734 0 -1.3427734 -1.5791016 v -3.2011719 h -1.1386719 v 5.6933594 h 1.03125 l 0.091308594 -1.03125 h 0.123535156 q 0.09667969 1.1386719 1.5039063 1.1386719 q 0.90234375 0 1.3964844 -0.54785156 q 0.49414063 -0.54785156 0.49414063 -1.546875 v -3.7060547 h -1.1386719 Z "/>
        </symbol>
        <symbol id="gC88201EF90881CFEFD7EDB658186DAAD" overflow="visible">
            <path d="M 0 0m 3.7167969 -0.107421875 q -1.4555664 0 -2.2478027 0.76538086 q -0.7922363 0.76538086 -0.7922363 2.199463 q 0 1.3964844 0.6713867 2.1699219 q 0.6713867 0.7734375 1.8959961 0.7734375 q 1.1547852 0 1.7858887 -0.6982422 q 0.6311035 -0.6982422 0.6311035 -2.0302734 q 0 -0.39208984 -0.032226563 -0.73046875 h -3.8457031 q 0.15039063 -0.71435547 0.6767578 -1.0822754 q 0.5263672 -0.36791992 1.3857422 -0.36791992 q 0.3544922 0 0.6982422 0.040283203 q 0.34375 0.040283203 0.6982422 0.11010742 l 0.13964844 -0.99902344 q -0.5048828 -0.09667969 -0.9238281 -0.123535156 q -0.4189453 -0.026855469 -0.74121094 -0.026855469 Z m -1.9765625 3.319336 h 2.8896484 q 0 0.7680664 -0.36523438 1.1789551 q -0.36523438 0.41088867 -1.0097656 0.41088867 q -0.66064453 0 -1.0527344 -0.41357422 q -0.39208984 -0.41357422 -0.46191406 -1.1762695 Z "/>
        </symbol>
        <symbol id="gACE3294BCBE3F84DD4D497E1F529CF36" overflow="visible">
            <path d="M 0 0m 2.8359375 2.4492188 v -1.4501953 h 1.3964844 v -0.99902344 h -3.8027344 v 0.99902344 h 1.2675781 v 3.6953125 h -1.0527344 v 0.99902344 h 1.9765625 l 0.19335938 -1.4609375 h 0.12890625 q 0.09667969 1.5683594 1.5683594 1.5683594 q 0.8808594 0 1.2783203 -0.5048828 q 0.39746094 -0.5048828 0.39746094 -1.6328125 h -1.1279297 q 0 0.6230469 -0.18530273 0.89697266 q -0.18530273 0.27392578 -0.59887695 0.27392578 q -0.72509766 0 -1.0822754 -0.6203613 q -0.35717773 -0.6203613 -0.35717773 -1.7644043 Z "/>
        </symbol>
        <symbol id="g671276076474A6FD5E2B11E6BEE10ABC" overflow="visible">
            <path d="M 0 0m 0.8486328 -2.4707031 v 8.1640625 h 1.2192383 l 0.091308594 -1.03125 h 0.091308594 q 0.18261719 1.1386719 1.4770508 1.1386719 q 1.090332 0 1.6730957 -0.7680664 q 0.5827637 -0.7680664 0.5827637 -2.2128906 q 0 -1.4233398 -0.5827637 -2.175293 q -0.5827637 -0.7519531 -1.6677246 -0.7519531 q -0.6176758 0 -0.99365234 0.2927246 q -0.37597656 0.2927246 -0.45117188 0.84594727 h -0.11279297 v -3.5019531 h -1.3266602 Z m 1.3266602 5.2368164 q 0 -0.8486328 0.28735352 -1.2568359 q 0.28735352 -0.40820313 0.9265137 -0.40820313 q 1.2514648 0 1.2514648 1.71875 q 0 0.859375 -0.32226563 1.315918 q -0.32226563 0.45654297 -0.9291992 0.45654297 q -1.2138672 0 -1.2138672 -1.6704102 v -0.15576172 Z "/>
        </symbol>
        <symbol id="g1F9462F7007E7136C0B01D5529C92807" overflow="visible">
            <path d="M 0 0m 4.071289 -0.107421875 q -1.0419922 0 -1.5012207 0.56933594 q -0.45922852 0.56933594 -0.45922852 1.8208008 v 4.570801 h -1.6381836 v 1.203125 h 2.9594727 v -5.720215 q 0 -0.5908203 0.19604492 -0.859375 q 0.19604492 -0.2685547 0.87280273 -0.2685547 q 0.46191406 0 1.1708984 0.20410156 l 0.15039063 -1.2944336 q -0.44580078 -0.11816406 -0.859375 -0.171875 q -0.41357422 -0.053710938 -0.89160156 -0.053710938 Z "/>
        </symbol>
        <symbol id="gA18CDFE1F62A00B4FEC5E44AFC386BDB" overflow="visible">
            <path d="M 0 0m 4.3183594 -0.053710938 l -0.07519531 1.2568359 h -0.123535156 q -0.06982422 -0.65527344 -0.5344238 -0.98291016 q -0.4645996 -0.32763672 -1.2272949 -0.32763672 q -0.90234375 0 -1.3991699 0.43774414 q -0.49682617 0.43774414 -0.49682617 1.2487793 q 0 0.9345703 0.6660156 1.434082 q 0.6660156 0.49951172 1.8852539 0.49951172 q 0.64990234 0 1.1279297 -0.10205078 v 0.11279297 q 0 0.49951172 -0.39208984 0.7331543 q -0.39208984 0.23364258 -1.1708984 0.25512695 l -1.4179688 0.037597656 l 0.107421875 1.1977539 l 1.203125 -0.016113281 q 1.4931641 -0.021484375 2.2182617 -0.60961914 q 0.72509766 -0.58813477 0.72509766 -1.7160645 v -2.2128906 l 0.859375 -0.11816406 v -1.0742188 l -1.9550781 -0.053710938 Z m -0.1772461 2.3955078 q -0.29003906 0.053710938 -0.5505371 0.061767578 q -0.26049805 0.008056641 -0.545166 0.008056641 q -1.2675781 0 -1.2675781 -0.74658203 q 0 -0.6713867 0.8701172 -0.6713867 q 0.49951172 0 0.829834 0.17993164 q 0.33032227 0.17993164 0.49682617 0.45654297 q 0.1665039 0.27661133 0.1665039 0.5720215 v 0.13964844 Z "/>
        </symbol>
        <symbol id="gA0024E0682C2E34A93303274D082FDF5" overflow="visible">
            <path d="M 0 0m 4.2700195 0 v 3.491211 q 0 0.515625 -0.23364258 0.7949219 q -0.23364258 0.27929688 -0.6633301 0.27929688 q -1.1977539 0 -1.1977539 -1.5791016 v -2.9863281 h -1.3266602 v 5.6933594 h 1.1923828 l 0.11279297 -1.03125 h 0.15039063 q 0.06982422 0.57470703 0.40283203 0.85668945 q 0.3330078 0.28198242 0.99902344 0.28198242 q 0.90234375 0 1.3964844 -0.54785156 q 0.49414063 -0.54785156 0.49414063 -1.546875 v -3.7060547 h -1.3266602 Z "/>
        </symbol>
        <symbol id="g941F0E91703FDA4F8112D6D8DDFCDA38" overflow="visible">
            <path d="M 0 0m 3.6899414 -0.107421875 q -1.4716797 0 -2.269287 0.76538086 q -0.7976074 0.76538086 -0.7976074 2.199463 q 0 1.3964844 0.67944336 2.1699219 q 0.67944336 0.7734375 1.9147949 0.7734375 q 1.1923828 0 1.8449707 -0.7089844 q 0.6525879 -0.7089844 0.6525879 -2.057129 q 0 -0.38671875 -0.032226563 -0.73583984 h -3.7060547 q 0.32226563 -1.1816406 1.8422852 -1.1816406 q 0.37597656 0 0.7385254 0.040283203 q 0.36254883 0.040283203 0.7385254 0.11010742 l 0.13964844 -1.2246094 q -0.5317383 -0.09667969 -0.9694824 -0.123535156 q -0.43774414 -0.026855469 -0.77612305 -0.026855469 Z m -1.7724609 3.3623047 h 2.5297852 q 0 0.65527344 -0.32226563 1.001709 q -0.32226563 0.34643555 -0.89697266 0.34643555 q -0.55859375 0 -0.89697266 -0.3491211 q -0.3383789 -0.3491211 -0.41357422 -0.99902344 Z "/>
        </symbol>
        <symbol id="g34A87EEC0912CBC85463B8C88B93607F" overflow="visible">
            <path d="M 0 0m 2.927246 2.4492188 v -1.2998047 h 1.3588867 v -1.1494141 h -3.9101563 v 1.1494141 h 1.2299805 v 3.3945313 h -1.0151367 v 1.1494141 h 2.121582 l 0.1772461 -1.3535156 h 0.1772461 q 0.0859375 1.4609375 1.4985352 1.4609375 q 1.6757813 0 1.6757813 -2.2451172 h -1.3212891 q 0 0.55322266 -0.18530273 0.7949219 q -0.18530273 0.24169922 -0.59350586 0.24169922 q -0.6069336 0 -0.9104004 -0.55859375 q -0.3034668 -0.55859375 -0.3034668 -1.5844727 Z "/>
        </symbol>
        <symbol id="g5D82E97578C068688E65518C5B145C82" overflow="visible">
            <path d="M 0 0m 4.610547 0.22773439 q -0.33085966 -0.17617188 -0.67890644 -0.26425782 q -0.34804678 -0.08808594 -0.73906255 -0.08808594 q -1.233203 0 -1.9142578 0.8722657 q -0.68105465 0.87226564 -0.68105465 2.4535155 q 0 1.5726562 0.68535155 2.4513674 q 0.6853516 0.87871075 1.9099609 0.87871075 q 0.39101577 0 0.73906255 -0.08808565 q 0.34804678 -0.08808613 0.67890644 -0.2642579 v -0.8894534 q -0.31796885 0.26210976 -0.6832032 0.39960957 q -0.36523438 0.13749981 -0.73476577 0.13749981 q -0.8464842 0 -1.267578 -0.6531248 q -0.42109382 -0.6531248 -0.42109382 -1.9722657 q 0 -1.3148437 0.42109382 -1.9679687 q 0.42109382 -0.65312505 1.267578 -0.65312505 q 0.3781252 0 0.7412112 0.13749999 q 0.36308575 0.13750005 0.6767578 0.3996094 v -0.8894531 Z "/>
        </symbol>
        <symbol id="g34BA1A7010AC1FCFE27F6EE977C8235D" overflow="visible">
            <path d="M 0 0m 4.5160155 2.9820313 v -2.9820313 h -0.79492164 v 2.9820313 q 0 0.648828 -0.22773433 0.9539063 q -0.22773457 0.30507827 -0.7132814 0.30507827 q -0.554297 0 -0.8529297 -0.39316416 q -0.29863286 -0.39316416 -0.29863286 -1.1279299 v -2.7199218 h -0.790625 v 6.685938 h 0.790625 v -2.5953126 q 0.21054697 0.4124999 0.57148445 0.625195 q 0.3609376 0.2126956 0.8550782 0.2126956 q 0.7347655 0 1.0978515 -0.48339844 q 0.36308575 -0.48339868 0.36308575 -1.4630861 Z "/>
        </symbol>
        <symbol id="gFFB9228403D8473BE65C1B1C2F5CD5EE" overflow="visible">
            <path d="M 0 0m 3.0164063 2.4191406 h -0.26210928 q -0.691797 0 -1.0419923 -0.2427733 q -0.3501953 -0.24277353 -0.3501953 -0.72402346 q 0 -0.4339844 0.2621094 -0.6746094 q 0.2621094 -0.24062502 0.72617185 -0.24062502 q 0.65312505 0 1.0269532 0.45332032 q 0.37382817 0.45332032 0.37812495 1.2525392 v 0.17617178 h -0.73906255 Z m 1.5339844 0.32656264 v -2.7457032 h -0.7949219 v 0.7132813 q -0.25351572 -0.42968753 -0.6380861 -0.63378906 q -0.38457012 -0.20410156 -0.9345703 -0.20410156 q -0.7347655 0 -1.1730468 0.41464844 q -0.43828124 0.41464847 -0.43828124 1.1107422 q 0 0.80351555 0.5392578 1.2203125 q 0.5392579 0.41679692 1.5833985 0.41679692 h 1.0613282 v 0.12460947 q -0.0042967796 0.5757811 -0.29218745 0.83574224 q -0.28789067 0.25996065 -0.91953135 0.25996065 q -0.40390635 0 -0.81640625 -0.116015434 q -0.41250002 -0.116015434 -0.8035157 -0.33945322 v 0.7906251 q 0.4382813 0.16757822 0.84003913 0.2513671 q 0.40175784 0.08378935 0.7798828 0.08378935 q 0.5972657 0 1.0205078 -0.17617226 q 0.42324233 -0.17617178 0.6853516 -0.52851534 q 0.16328144 -0.21484375 0.23203135 -0.5306642 q 0.068749905 -0.31582022 0.068749905 -0.9474609 Z "/>
        </symbol>
        <symbol id="g83A1CD45EAE454B67E7AA8D9B5C02D37" overflow="visible">
            <path d="M 0 0m 2.6382813 6.1789064 v -1.3664064 h 1.796094 v -0.61445284 h -1.796094 v -2.6125002 q 0 -0.5328125 0.20195317 -0.7433593 q 0.20195293 -0.21054691 0.70468736 -0.21054691 h 0.8894534 v -0.6316406 h -0.9667971 q -0.8894532 0 -1.2546875 0.35664064 q -0.36523438 0.35664064 -0.36523438 1.2289062 v 2.6125002 h -1.2847656 v 0.61445284 h 1.2847656 v 1.3664064 h 0.7906251 Z "/>
        </symbol>
        <symbol id="g9AC511737BFC8C52B911A400A139F3C7" overflow="visible">
            <path d="M 0 0m 4.348438 6.196094 v -0.8808594 q -0.3953128 0.25351524 -0.7927737 0.3824215 q -0.39746094 0.12890625 -0.80136704 0.12890625 q -0.6144533 0 -0.9710939 -0.2857418 q -0.35664058 -0.28574228 -0.35664058 -0.77128935 q 0 -0.42539072 0.23417974 -0.648828 q 0.23417962 -0.22343755 0.87441397 -0.37382817 l 0.4554689 -0.10312486 q 0.90234375 -0.21054697 1.3148439 -0.66171885 q 0.4124999 -0.45117188 0.4124999 -1.2289063 q 0 -0.91523445 -0.5671878 -1.3964844 q -0.5671873 -0.48125002 -1.6499999 -0.48125002 q -0.45117188 0 -0.90664065 0.096679695 q -0.45546877 0.09667969 -0.9152344 0.29003906 v 0.9238281 q 0.49414068 -0.3136719 0.9345704 -0.4597656 q 0.44042957 -0.14609379 0.88730466 -0.14609379 q 0.6574218 0 1.0226562 0.29433596 q 0.36523438 0.29433596 0.36523438 0.82285154 q 0 0.48125005 -0.2513671 0.73476577 q -0.2513671 0.25351548 -0.8744142 0.39101553 l -0.46406245 0.107421875 q -0.89374995 0.20195317 -1.2976562 0.6101563 q -0.4039063 0.40820313 -0.4039063 1.0957031 q 0 0.859375 0.5779297 1.3771486 q 0.57792974 0.51777315 1.5361329 0.51777315 q 0.36953115 0 0.7777343 -0.08378887 q 0.40820313 -0.08378935 0.85937524 -0.2513671 Z "/>
        </symbol>
        <symbol id="gC81A14FFAD9A17334948B78B7366BB76" overflow="visible">
            <path d="M 0 0m 4.7781253 2.6039064 v -0.38671875 h -3.4246097 v -0.025781393 q 0 -0.7863281 0.41035163 -1.2160156 q 0.41035163 -0.42968756 1.1580077 -0.42968756 q 0.3781252 0 0.7906251 0.12031251 q 0.4124999 0.12031251 0.8808594 0.36523438 v -0.78632814 q -0.45117188 -0.18476562 -0.8701172 -0.27714843 q -0.4189453 -0.09238282 -0.8099611 -0.09238282 q -1.1214843 0 -1.753125 0.6724609 q -0.6316406 0.6724609 -0.6316406 1.8541017 q 0 1.1515625 0.61875004 1.8390627 q 0.61875 0.6875 1.6500001 0.6875 q 0.9195311 0 1.4501951 -0.6230469 q 0.53066444 -0.6230471 0.53066444 -1.7015626 Z m -0.7906251 0.2320311 q -0.017187595 0.6960938 -0.32871103 1.0591798 q -0.31152344 0.36308575 -0.8958986 0.36308575 q -0.5714843 0 -0.9410155 -0.3781247 q -0.36953127 -0.3781252 -0.4382813 -1.0484376 l 2.6039064 0.0042967796 Z "/>
        </symbol>
        <symbol id="g65FB009F7866A32A194518F7357A74FB" overflow="visible">
            <path d="M 0 0m 4.9628906 3.819922 q -0.25351572 0.19765615 -0.515625 0.28789043 q -0.26210928 0.09023476 -0.5757811 0.09023476 q -0.73906255 0 -1.1300783 -0.4640627 q -0.39101553 -0.46406245 -0.39101553 -1.340625 v -2.3933594 h -0.7949219 v 4.8125 h 0.7949219 v -0.9410155 q 0.19765615 0.511328 0.6080079 0.78417945 q 0.4103515 0.27285194 0.97324204 0.27285194 q 0.2921877 0 0.5457034 -0.07304716 q 0.25351524 -0.073046684 0.4855466 -0.22773409 v -0.8078127 Z "/>
        </symbol>
        <symbol id="gA334C4310E154EBE6BDFD4EE7F34E40B" overflow="visible">
            <path d="M 0 0m 0.4296875 4.8125 h 0.82070315 l 1.3964845 -4.0390625 l 1.4007814 4.0390625 h 0.820703 l -1.7101564 -4.8125 h -1.0183594 l -1.7101562 4.8125 Z "/>
        </symbol>
        <symbol id="g4770EF2E1B607C1A21092CD7B2B5FE5D" overflow="visible">
            <path d="M 0 0m 1.1 4.8125 h 2.023828 v -4.1980467 h 1.5683596 v -0.61445314 h -3.927344 v 0.61445314 h 1.5683594 v 3.583594 h -1.233203 v 0.61445284 Z m 1.233203 1.8734379 h 0.7906251 v -1.0011721 h -0.7906251 v 1.0011721 Z "/>
        </symbol>
        <symbol id="gBA936EC3BCBE732A8874606A5AEE741E" overflow="visible">
            <path d="M 0 0m 4.5589843 0.24492188 q -0.31796837 -0.18476562 -0.6552732 -0.27714843 q -0.33730483 -0.09238282 -0.6896486 -0.09238282 q -1.1171875 0 -1.7466797 0.6703125 q -0.62949216 0.6703126 -0.62949216 1.85625 q 0 1.1859374 0.62949216 1.8562498 q 0.62949216 0.6703129 1.7466797 0.6703129 q 0.34804702 0 0.67890644 -0.09023476 q 0.33085942 -0.09023428 0.6660154 -0.27929688 v -0.8292966 q -0.3136716 0.27929688 -0.62949204 0.40390635 q -0.31582022 0.12460899 -0.7154298 0.12460899 q -0.7433593 0 -1.1429687 -0.4812498 q -0.39960933 -0.48125005 -0.39960933 -1.375 q 0 -0.8894532 0.40175772 -1.3728516 q 0.40175796 -0.4833985 1.1408203 -0.4833985 q 0.41250014 0 0.73906255 0.12675786 q 0.3265624 0.1267578 0.6058593 0.3931641 v -0.8207032 Z "/>
        </symbol>
    </defs>
</svg>
