<svg class="typst-doc" viewBox="0 0 311.78125 99.80078125" xmlns="http://www.w3.org/2000/svg" xmlns:xlink="http://www.w3.org/1999/xlink" xmlns:h5="http://www.w3.org/1999/xhtml">
    <path class="typst-shape" fill="#0d1117" fill-rule="nonzero" d="M 0 0v 99.80078 h 311.78125 v -99.80078 Z "/>
    <g>
        <g class="typst-group">
            <g>
                <g class="typst-text" transform="matrix(1 0 0 -1 23.84765625 26.93359375)">
                    <use xlink:href="#g7768021858DC6CC27188C9B04A05FA6D" x="0" y="0" fill="#9198a1" fill-rule="nonzero"/>
                    <use xlink:href="#g766123E928FE6255CD435CFDB6E78D87" x="5.859375" y="0" fill="#9198a1" fill-rule="nonzero"/>
                    <use xlink:href="#gF3BC4AD17F032FE82EB1FDABBE59B28D" x="11.71875" y="0" fill="#9198a1" fill-rule="nonzero"/>
                    <use xlink:href="#g7768021858DC6CC27188C9B04A05FA6D" x="17.578125" y="0" fill="#9198a1" fill-rule="nonzero"/>
                    <use xlink:href="#g994D6276079A0DA3219124B0E5A6FAD5" x="23.4375" y="0" fill="#9198a1" fill-rule="nonzero"/>
                    <use xlink:href="#g98FFEDE6332A784EA8065E2CF72B1A4E" x="29.296875" y="0" fill="#9198a1" fill-rule="nonzero"/>
                    <use xlink:href="#gEF5E08E9333EE0223EE53DEB8A5CB72B" x="41.015625" y="0" fill="#9198a1" fill-rule="nonzero"/>
                    <use xlink:href="#gF3BC4AD17F032FE82EB1FDABBE59B28D" x="46.875" y="0" fill="#9198a1" fill-rule="nonzero"/>
                    <use xlink:href="#gC1465B326C519C898F44C00173329DC3" x="52.734375" y="0" fill="#9198a1" fill-rule="nonzero"/>
                    <use xlink:href="#g766123E928FE6255CD435CFDB6E78D87" x="58.59375" y="0" fill="#9198a1" fill-rule="nonzero"/>
                    <use xlink:href="#g7768021858DC6CC27188C9B04A05FA6D" x="64.453125" y="0" fill="#9198a1" fill-rule="nonzero"/>
                </g>
                <g class="typst-text" transform="matrix(1 0 0 -1 130.44140625 26.93359375)">
                    <use xlink:href="#g540080C9EA821770F3FEC7B86E98F54D" x="0" y="0" fill="#9198a1" fill-rule="nonzero"/>
                    <use xlink:href="#g994D6276079A0DA3219124B0E5A6FAD5" x="5.859375" y="0" fill="#9198a1" fill-rule="nonzero"/>
                    <use xlink:href="#g766123E928FE6255CD435CFDB6E78D87" x="11.71875" y="0" fill="#9198a1" fill-rule="nonzero"/>
                    <use xlink:href="#g98FFEDE6332A784EA8065E2CF72B1A4E" x="17.578125" y="0" fill="#9198a1" fill-rule="nonzero"/>
                    <use xlink:href="#gEF5E08E9333EE0223EE53DEB8A5CB72B" x="29.296875" y="0" fill="#9198a1" fill-rule="nonzero"/>
                    <use xlink:href="#gF3BC4AD17F032FE82EB1FDABBE59B28D" x="35.15625" y="0" fill="#9198a1" fill-rule="nonzero"/>
                    <use xlink:href="#gC1465B326C519C898F44C00173329DC3" x="41.015625" y="0" fill="#9198a1" fill-rule="nonzero"/>
                    <use xlink:href="#g766123E928FE6255CD435CFDB6E78D87" x="46.875" y="0" fill="#9198a1" fill-rule="nonzero"/>
                    <use xlink:href="#g7768021858DC6CC27188C9B04A05FA6D" x="52.734375" y="0" fill="#9198a1" fill-rule="nonzero"/>
                </g>
                <g class="typst-text" transform="matrix(1 0 0 -1 221.46875 26.93359375)">
                    <use xlink:href="#gC1465B326C519C898F44C00173329DC3" x="0" y="0" fill="#9198a1" fill-rule="nonzero"/>
                    <use xlink:href="#gF3BC4AD17F032FE82EB1FDABBE59B28D" x="5.859375" y="0" fill="#9198a1" fill-rule="nonzero"/>
                    <use xlink:href="#g76A692940D3DC8CAF9248006D832662E" x="11.71875" y="0" fill="#9198a1" fill-rule="nonzero"/>
                    <use xlink:href="#gB60D4DADF14A450667ED6AFD1C4B637B" x="17.578125" y="0" fill="#9198a1" fill-rule="nonzero"/>
                    <use xlink:href="#gEF5E08E9333EE0223EE53DEB8A5CB72B" x="23.4375" y="0" fill="#9198a1" fill-rule="nonzero"/>
                    <use xlink:href="#g98FFEDE6332A784EA8065E2CF72B1A4E" x="29.296875" y="0" fill="#9198a1" fill-rule="nonzero"/>
                    <use xlink:href="#gEF5E08E9333EE0223EE53DEB8A5CB72B" x="41.015625" y="0" fill="#9198a1" fill-rule="nonzero"/>
                    <use xlink:href="#gF3BC4AD17F032FE82EB1FDABBE59B28D" x="46.875" y="0" fill="#9198a1" fill-rule="nonzero"/>
                    <use xlink:href="#gC1465B326C519C898F44C00173329DC3" x="52.734375" y="0" fill="#9198a1" fill-rule="nonzero"/>
                    <use xlink:href="#g766123E928FE6255CD435CFDB6E78D87" x="58.59375" y="0" fill="#9198a1" fill-rule="nonzero"/>
                    <use xlink:href="#g7768021858DC6CC27188C9B04A05FA6D" x="64.453125" y="0" fill="#9198a1" fill-rule="nonzero"/>
                </g>
                <g class="typst-group">
                    <g>
                        <g class="typst-group" transform="matrix(1 0 0 1 20 40.93359375)">
                            <g>
                                <g class="typst-group">
                                    <g>
                                        <path class="typst-shape" fill="#271052" fill-rule="nonzero" stroke="#ab7df8" stroke-width="1.2" stroke-linecap="butt" stroke-linejoin="miter" stroke-miterlimit="4" d="M 0 0m 6 0 c -3.310704 0 -6 2.689296 -6 6 v 26.867188 c 0 3.3107033 2.689296 6 6 6 h 66.00781 c 3.310707 0 6 -2.6892967 6 -6 v -26.867188 c 0 -3.310704 -2.689293 -6 -6 -6 h -66.00781 Z "/>
                                        <path class="typst-shape" fill="none" transform="matrix(1 0 0 1 9.99999991924134 9.9999999507874)" d="M 0 0h 58.007813 v 18.867188 h -58.007813 v -18.867188 Z "/>
                                        <g class="typst-group">
                                            <g>
                                                <g class="typst-group" transform="matrix(1 0 0 1 9.999999901574801 9.99999992125984)">
                                                    <g>
                                                        <g class="typst-group">
                                                            <g>
                                                                <g class="typst-group">
                                                                    <g>
                                                                        <g class="typst-text" transform="matrix(1 0 0 -1 6.445312500050001 7.626953125)">
                                                                            <use xlink:href="#g2C561BEE0AC47CC88F192B176B7B42E0" x="0" y="0" fill="#f0f6fc" fill-rule="nonzero"/>
                                                                            <use xlink:href="#g941F0E91703FDA4F8112D6D8DDFCDA38" x="6.4453125" y="0" fill="#f0f6fc" fill-rule="nonzero"/>
                                                                            <use xlink:href="#gFA60D3504847AEE5E3CF6CFB1382320C" x="12.890625" y="0" fill="#f0f6fc" fill-rule="nonzero"/>
                                                                            <use xlink:href="#gC8E3E634AA710C19DE4C79C9220A4A9E" x="19.3359375" y="0" fill="#f0f6fc" fill-rule="nonzero"/>
                                                                            <use xlink:href="#g941F0E91703FDA4F8112D6D8DDFCDA38" x="25.78125" y="0" fill="#f0f6fc" fill-rule="nonzero"/>
                                                                            <use xlink:href="#g988934665B9D033BE8FC5C94E274603B" x="32.2265625" y="0" fill="#f0f6fc" fill-rule="nonzero"/>
                                                                            <use xlink:href="#g66FE86C3D6200946DA59DA9A03B61B42" x="38.671875" y="0" fill="#f0f6fc" fill-rule="nonzero"/>
                                                                        </g>
                                                                        <g class="typst-text" transform="matrix(1 0 0 -1 0.00000000005000072447069752 18.8671875)">
                                                                            <use xlink:href="#gE0E12823E218B78D2E538FA71A22EB8B" x="0" y="0" fill="#d8b9ff" fill-rule="nonzero"/>
                                                                            <use xlink:href="#gF888D67D89DE0EABD22AD76521DF2B19" x="5.2734375" y="0" fill="#d8b9ff" fill-rule="nonzero"/>
                                                                            <use xlink:href="#gA7AAD71C6DD1791DD1272CE78BBDF2B0" x="10.546875" y="0" fill="#d8b9ff" fill-rule="nonzero"/>
                                                                            <use xlink:href="#g7B7E93BDFB0CFD6A246036C676E33732" x="15.8203125" y="0" fill="#d8b9ff" fill-rule="nonzero"/>
                                                                            <use xlink:href="#g1845A4AECCD66EEAAD5BCF6194D2F543" x="21.09375" y="0" fill="#d8b9ff" fill-rule="nonzero"/>
                                                                            <use xlink:href="#g76D0C6CEEFB0FF9A00CE32A4E4BBF9F7" x="26.3671875" y="0" fill="#d8b9ff" fill-rule="nonzero"/>
                                                                            <use xlink:href="#gA7AAD71C6DD1791DD1272CE78BBDF2B0" x="31.640625" y="0" fill="#d8b9ff" fill-rule="nonzero"/>
                                                                            <use xlink:href="#g1845A4AECCD66EEAAD5BCF6194D2F543" x="36.9140625" y="0" fill="#d8b9ff" fill-rule="nonzero"/>
                                                                            <use xlink:href="#g7B7E93BDFB0CFD6A246036C676E33732" x="42.1875" y="0" fill="#d8b9ff" fill-rule="nonzero"/>
                                                                            <use xlink:href="#g9D2E4F7E5709569433E7CF2B02C985D1" x="47.4609375" y="0" fill="#d8b9ff" fill-rule="nonzero"/>
                                                                            <use xlink:href="#g1A69AD2CE0F425B64739F9F7589ABF2C" x="52.734375" y="0" fill="#d8b9ff" fill-rule="nonzero"/>
                                                                        </g>
                                                                    </g>
                                                                </g>
                                                            </g>
                                                        </g>
                                                    </g>
                                                </g>
                                            </g>
                                        </g>
                                    </g>
                                </g>
                            </g>
                        </g>
                        <g class="typst-group" transform="matrix(1 0 0 1 126.0078125 40.93359375)">
                            <g>
                                <g class="typst-group">
                                    <g>
                                        <path class="typst-shape" fill="#051d4d" fill-rule="nonzero" stroke="#388bfd" stroke-width="1.2" stroke-linecap="butt" stroke-linejoin="miter" stroke-miterlimit="4" d="M 0 0m 6 0 c -3.310704 0 -6 2.689296 -6 6 v 26.867188 c 0 3.3107033 2.689296 6 6 6 h 55.460938 c 3.310707 0 6 -2.6892967 6 -6 v -26.867188 c 0 -3.310704 -2.689293 -6 -6 -6 h -55.460938 Z "/>
                                        <path class="typst-shape" fill="none" transform="matrix(1 0 0 1 10.000000025540555 9.9999999507874)" d="M 0 0h 47.460938 v 18.867188 h -47.460938 v -18.867188 Z "/>
                                        <g class="typst-group">
                                            <g>
                                                <g class="typst-group" transform="matrix(1 0 0 1 9.999999972440946 9.99999992125984)">
                                                    <g>
                                                        <g class="typst-group">
                                                            <g>
                                                                <g class="typst-group">
                                                                    <g>
                                                                        <g class="typst-text" transform="matrix(1 0 0 -1 14.062500000050001 7.626953125)">
                                                                            <use xlink:href="#gA18CDFE1F62A00B4FEC5E44AFC386BDB" x="0" y="0" fill="#f0f6fc" fill-rule="nonzero"/>
                                                                            <use xlink:href="#g671276076474A6FD5E2B11E6BEE10ABC" x="6.4453125" y="0" fill="#f0f6fc" fill-rule="nonzero"/>
                                                                            <use xlink:href="#g3886D710B7AABFD372757D2B30542D74" x="12.890625" y="0" fill="#f0f6fc" fill-rule="nonzero"/>
                                                                        </g>
                                                                        <g class="typst-text" transform="matrix(1 0 0 -1 0.00000000005000072447069752 18.8671875)">
                                                                            <use xlink:href="#gE0E12823E218B78D2E538FA71A22EB8B" x="0" y="0" fill="#80ccff" fill-rule="nonzero"/>
                                                                            <use xlink:href="#g76D0C6CEEFB0FF9A00CE32A4E4BBF9F7" x="5.2734375" y="0" fill="#80ccff" fill-rule="nonzero"/>
                                                                            <use xlink:href="#gB42704BEBBE1FE92C991C9C123C18594" x="10.546875" y="0" fill="#80ccff" fill-rule="nonzero"/>
                                                                            <use xlink:href="#g450E794631A8688DF35B57E076332A74" x="15.8203125" y="0" fill="#80ccff" fill-rule="nonzero"/>
                                                                            <use xlink:href="#g390517E79D4F7866AD58BD1517CE551A" x="21.09375" y="0" fill="#80ccff" fill-rule="nonzero"/>
                                                                            <use xlink:href="#g1845A4AECCD66EEAAD5BCF6194D2F543" x="26.3671875" y="0" fill="#80ccff" fill-rule="nonzero"/>
                                                                            <use xlink:href="#gA7AAD71C6DD1791DD1272CE78BBDF2B0" x="31.640625" y="0" fill="#80ccff" fill-rule="nonzero"/>
                                                                            <use xlink:href="#g9D2E4F7E5709569433E7CF2B02C985D1" x="36.9140625" y="0" fill="#80ccff" fill-rule="nonzero"/>
                                                                            <use xlink:href="#g1A69AD2CE0F425B64739F9F7589ABF2C" x="42.1875" y="0" fill="#80ccff" fill-rule="nonzero"/>
                                                                        </g>
                                                                    </g>
                                                                </g>
                                                            </g>
                                                        </g>
                                                    </g>
                                                </g>
                                            </g>
                                        </g>
                                    </g>
                                </g>
                            </g>
                        </g>
                        <g class="typst-group" transform="matrix(1 0 0 1 224.06640625 40.93359375)">
                            <g>
                                <g class="typst-group">
                                    <g>
                                        <path class="typst-shape" fill="#3d1300" fill-rule="nonzero" stroke="#db6d28" stroke-width="1.2" stroke-linecap="butt" stroke-linejoin="miter" stroke-miterlimit="4" d="M 0 0m 6 0 c -3.310704 0 -6 2.689296 -6 6 v 26.867188 c 0 3.3107033 2.689296 6 6 6 h 53.117188 c 3.3107033 0 6 -2.6892967 6 -6 v -26.867188 c 0 -3.310704 -2.6892967 -6 -6 -6 h -53.117188 Z "/>
                                        <path class="typst-shape" fill="none" transform="matrix(1 0 0 1 9.999999860186218 9.9999999507874)" d="M 0 0h 45.117188 v 18.867188 h -45.117188 v -18.867188 Z "/>
                                        <g class="typst-group">
                                            <g>
                                                <g class="typst-group" transform="matrix(1 0 0 1 9.999999783464565 9.99999992125984)">
                                                    <g>
                                                        <g class="typst-group">
                                                            <g>
                                                                <g class="typst-group">
                                                                    <g>
                                                                        <g class="typst-text" transform="matrix(1 0 0 -1 0.00000000005000072447069752 7.626953125)">
                                                                            <use xlink:href="#g671276076474A6FD5E2B11E6BEE10ABC" x="0" y="0" fill="#f0f6fc" fill-rule="nonzero"/>
                                                                            <use xlink:href="#g1F9462F7007E7136C0B01D5529C92807" x="6.4453125" y="0" fill="#f0f6fc" fill-rule="nonzero"/>
                                                                            <use xlink:href="#gA18CDFE1F62A00B4FEC5E44AFC386BDB" x="12.890625" y="0" fill="#f0f6fc" fill-rule="nonzero"/>
                                                                            <use xlink:href="#gA0024E0682C2E34A93303274D082FDF5" x="19.3359375" y="0" fill="#f0f6fc" fill-rule="nonzero"/>
                                                                            <use xlink:href="#gA0024E0682C2E34A93303274D082FDF5" x="25.78125" y="0" fill="#f0f6fc" fill-rule="nonzero"/>
                                                                            <use xlink:href="#g941F0E91703FDA4F8112D6D8DDFCDA38" x="32.2265625" y="0" fill="#f0f6fc" fill-rule="nonzero"/>
                                                                            <use xlink:href="#g34A87EEC0912CBC85463B8C88B93607F" x="38.671875" y="0" fill="#f0f6fc" fill-rule="nonzero"/>
                                                                        </g>
                                                                        <g class="typst-text" transform="matrix(1 0 0 -1 4.101562500050001 18.8671875)">
                                                                            <use xlink:href="#gE0E12823E218B78D2E538FA71A22EB8B" x="0" y="0" fill="#ffb77c" fill-rule="nonzero"/>
                                                                            <use xlink:href="#g4B4E79E89B53CB9979714C1F7CCBCD28" x="5.2734375" y="0" fill="#ffb77c" fill-rule="nonzero"/>
                                                                            <use xlink:href="#g45C2EBAB1DDF551A1B3FA5B560D0958E" x="10.546875" y="0" fill="#ffb77c" fill-rule="nonzero"/>
                                                                            <use xlink:href="#g9D2E4F7E5709569433E7CF2B02C985D1" x="15.8203125" y="0" fill="#ffb77c" fill-rule="nonzero"/>
                                                                            <use xlink:href="#gD9BEE5C611170ECF1F95857B661842D4" x="21.09375" y="0" fill="#ffb77c" fill-rule="nonzero"/>
                                                                            <use xlink:href="#gA7AAD71C6DD1791DD1272CE78BBDF2B0" x="26.3671875" y="0" fill="#ffb77c" fill-rule="nonzero"/>
                                                                            <use xlink:href="#g1A69AD2CE0F425B64739F9F7589ABF2C" x="31.640625" y="0" fill="#ffb77c" fill-rule="nonzero"/>
                                                                        </g>
                                                                    </g>
                                                                </g>
                                                            </g>
                                                        </g>
                                                    </g>
                                                </g>
                                            </g>
                                        </g>
                                    </g>
                                </g>
                            </g>
                        </g>
                    </g>
                </g>
            </g>
        </g>
    </g>
    <defs id="glyph">
        <symbol id="g7768021858DC6CC27188C9B04A05FA6D" overflow="visible">
            <path d="M 0 0m 0.7324219 0 v 6.9335938 h 2.0898438 q 1.3037109 0 1.9995117 -0.60058594 q 0.6958008 -0.60058594 0.6958008 -1.7236328 q 0 -1.2353516 -0.6958008 -1.8969727 q -0.6958008 -0.6616211 -1.9995117 -0.6616211 h -0.91308594 v -2.0507813 h -1.1767578 Z m 1.1767578 3.1347656 h 0.91308594 q 0.703125 0 1.0766602 0.37109375 q 0.37353516 0.37109375 0.37353516 1.0546875 q 0 0.625 -0.37353516 0.95703125 q -0.37353516 0.33203125 -1.0766602 0.33203125 h -0.91308594 v -2.7148438 Z "/>
        </symbol>
        <symbol id="g766123E928FE6255CD435CFDB6E78D87" overflow="visible">
            <path d="M 0 0m 2.9101563 -0.09765625 q -2.2753906 0 -2.2753906 2.3242188 v 4.7070313 h 1.1767578 v -4.7070313 q 0 -0.60546875 0.2709961 -0.9082031 q 0.2709961 -0.30273438 0.84716797 -0.30273438 q 1.1181641 0 1.1181641 1.2109375 v 4.7070313 h 1.1767578 v -4.7070313 q 0 -1.1621094 -0.5883789 -1.7431641 q -0.5883789 -0.5810547 -1.7260742 -0.5810547 Z "/>
        </symbol>
        <symbol id="gF3BC4AD17F032FE82EB1FDABBE59B28D" overflow="visible">
            <path d="M 0 0m 0.6347656 0 v 6.9335938 h 2.4316406 q 1.1035156 0 1.7041016 -0.546875 q 0.60058594 -0.546875 0.60058594 -1.5527344 q 0 -1.4746094 -1.09375 -2.006836 l 1.3476563 -2.8271484 h -1.3916016 l -1.1132813 2.578125 q -0.024414063 0 -0.053710938 0 h -1.2548828 v -2.578125 h -1.1767578 Z m 1.1767578 3.6621094 h 1.2548828 q 0.5029297 0 0.78125 0.28320313 q 0.2783203 0.28320313 0.2783203 0.7910156 q 0 0.5371094 -0.2783203 0.8251953 q -0.2783203 0.28808594 -0.78125 0.28808594 h -1.2548828 v -2.1875 Z "/>
        </symbol>
        <symbol id="g994D6276079A0DA3219124B0E5A6FAD5" overflow="visible">
            <path d="M 0 0m 0.7324219 0 v 6.9335938 h 1.1767578 v -5.8496094 h 3.5107422 v -1.0839844 h -4.6875 Z "/>
        </symbol>
        <symbol id="g98FFEDE6332A784EA8065E2CF72B1A4E" overflow="visible">
            <path d="M 0 0m 0.7324219 0 v 6.9335938 h 4.6875 v -1.0839844 h -3.5107422 v -1.8359375 h 2.631836 v -1.0839844 h -2.631836 v -1.8457031 h 3.5107422 v -1.0839844 h -4.6875 Z "/>
        </symbol>
        <symbol id="gEF5E08E9333EE0223EE53DEB8A5CB72B" overflow="visible">
            <path d="M 0 0m 3.4277344 -0.09765625 q -3.1542969 0 -3.1542969 3.5742188 q 0 1.6943359 0.8154297 2.6245117 q 0.8154297 0.9301758 2.2998047 0.9301758 q 0.7470703 0 1.2939453 -0.234375 q 0.546875 -0.234375 0.83496094 -0.6591797 l -0.7763672 -0.8496094 q -0.22460938 0.3076172 -0.56396484 0.47851563 q -0.33935547 0.17089844 -0.72998047 0.17089844 q -0.92285156 0 -1.4331055 -0.6298828 q -0.5102539 -0.6298828 -0.5102539 -1.7822266 q 0 -2.524414 2.0410156 -2.524414 q 0.18554688 0 0.3540039 0.017089844 q 0.16845703 0.017089844 0.31982422 0.04638672 v 1.3916016 h -1.2402344 v 1.0839844 h 2.3925781 v -3.3447266 q -0.20996094 -0.06347656 -0.7373047 -0.17822266 q -0.52734375 -0.114746094 -1.2060547 -0.114746094 Z "/>
        </symbol>
        <symbol id="gC1465B326C519C898F44C00173329DC3" overflow="visible">
            <path d="M 0 0m 2.9296875 -0.09765625 q -2.6074219 0 -2.6074219 3.515625 q 0 3.6132813 2.6074219 3.6132813 q 2.6074219 0 2.6074219 -3.6132813 q 0 -3.515625 -2.6074219 -3.515625 Z m 0 1.0986328 q 1.3769531 0 1.3769531 2.4169922 q 0 2.5146484 -1.3769531 2.5146484 q -1.3769531 0 -1.3769531 -2.5146484 q 0 -2.4169922 1.3769531 -2.4169922 Z "/>
        </symbol>
        <symbol id="g540080C9EA821770F3FEC7B86E98F54D" overflow="visible">
            <path d="M 0 0m 0.7324219 0 v 6.9335938 h 2.109375 q 1.0791016 0 1.6674805 -0.45166016 q 0.5883789 -0.45166016 0.5883789 -1.2817383 q 0 -0.6542969 -0.4248047 -1.0375977 q -0.4248047 -0.38330078 -1.2109375 -0.43701172 v -0.1171875 h 0.11230469 q 0.96191406 0 1.4868164 -0.44433594 q 0.52490234 -0.44433594 0.52490234 -1.2597656 q 0 -0.9082031 -0.55908203 -1.40625 q -0.55908203 -0.49804688 -1.5893555 -0.49804688 h -2.7050781 Z m 1.1767578 1.0839844 h 1.2451172 q 0.5761719 0 0.8935547 0.26611328 q 0.3173828 0.26611328 0.3173828 0.7495117 q 0 0.48339844 -0.33447266 0.7519531 q -0.33447266 0.2685547 -0.9448242 0.2685547 h -1.1767578 v -2.0361328 Z m 0 3.1201172 h 0.95214844 q 1.015625 0 1.015625 0.8496094 q 0 0.79589844 -1.0839844 0.79589844 h -0.88378906 v -1.6455078 Z "/>
        </symbol>
        <symbol id="g76A692940D3DC8CAF9248006D832662E" overflow="visible">
            <path d="M 0 0m 0.17089844 0 l 2.0019531 6.9335938 h 1.5136719 l 2.0019531 -6.9335938 h -1.2451172 l -0.3857422 1.4648438 h -2.2558594 l -0.3857422 -1.4648438 h -1.2451172 Z m 1.9140625 2.5488281 h 1.6894531 l -0.80078125 3.0322266 h -0.087890625 l -0.80078125 -3.0322266 Z "/>
        </symbol>
        <symbol id="gB60D4DADF14A450667ED6AFD1C4B637B" overflow="visible">
            <path d="M 0 0m 3.5009766 0 l -1.5283203 5.361328 h -0.15136719 v -5.361328 h -1.1474609 v 6.9335938 h 1.6845703 l 1.5283203 -5.361328 h 0.15136719 v 5.361328 h 1.1474609 v -6.9335938 h -1.6845703 Z "/>
        </symbol>
        <symbol id="g2C561BEE0AC47CC88F192B176B7B42E0" overflow="visible">
            <path d="M 0 0m 0.6982422 0 v 7.626953 h 2.6748047 q 1.2138672 0 1.8745117 -0.6015625 q 0.66064453 -0.6015625 0.66064453 -1.7080078 q 0 -1.6220703 -1.203125 -2.2075195 l 1.4824219 -3.1098633 h -1.5307617 l -1.2246094 2.8359375 q -0.026855469 0 -0.05908203 0 h -1.3803711 v -2.8359375 h -1.2944336 Z m 1.2944336 4.0283203 h 1.3803711 q 0.55322266 0 0.859375 0.31152344 q 0.30615234 0.31152344 0.30615234 0.8701172 q 0 0.5908203 -0.30615234 0.90771484 q -0.30615234 0.31689453 -0.859375 0.31689453 h -1.3803711 v -2.40625 Z "/>
        </symbol>
        <symbol id="g941F0E91703FDA4F8112D6D8DDFCDA38" overflow="visible">
            <path d="M 0 0m 3.6899414 -0.107421875 q -1.4716797 0 -2.269287 0.76538086 q -0.7976074 0.76538086 -0.7976074 2.199463 q 0 1.3964844 0.67944336 2.1699219 q 0.67944336 0.7734375 1.9147949 0.7734375 q 1.1923828 0 1.8449707 -0.7089844 q 0.6525879 -0.7089844 0.6525879 -2.057129 q 0 -0.38671875 -0.032226563 -0.73583984 h -3.7060547 q 0.32226563 -1.1816406 1.8422852 -1.1816406 q 0.37597656 0 0.7385254 0.040283203 q 0.36254883 0.040283203 0.7385254 0.11010742 l 0.13964844 -1.2246094 q -0.5317383 -0.09667969 -0.9694824 -0.123535156 q -0.43774414 -0.026855469 -0.77612305 -0.026855469 Z m -1.7724609 3.3623047 h 2.5297852 q 0 0.65527344 -0.32226563 1.001709 q -0.32226563 0.34643555 -0.89697266 0.34643555 q -0.55859375 0 -0.89697266 -0.3491211 q -0.3383789 -0.3491211 -0.41357422 -0.99902344 Z "/>
        </symbol>
        <symbol id="gFA60D3504847AEE5E3CF6CFB1382320C" overflow="visible">
            <path d="M 0 0m 2.6748047 -0.107421875 q -1.0527344 0 -1.6328125 0.7492676 q -0.5800781 0.7492676 -0.5800781 2.151123 q 0 1.434082 0.5827637 2.2209473 q 0.5827637 0.78686523 1.6408691 0.78686523 q 0.6660156 0 1.0178223 -0.28198242 q 0.35180664 -0.28198242 0.43774414 -0.85668945 h 0.14501953 l 0.091308594 1.03125 h 1.2192383 v -8.1640625 h -1.3266602 v 3.3515625 h -0.12890625 q -0.07519531 -0.48876953 -0.45922852 -0.7385254 q -0.3840332 -0.24975586 -1.0070801 -0.24975586 Z m 1.5952148 3.2280273 q 0 1.4716797 -1.203125 1.4716797 q -0.6015625 0 -0.93188477 -0.4699707 q -0.33032227 -0.4699707 -0.33032227 -1.3293457 q 0 -1.6918945 1.2675781 -1.6918945 q 1.1977539 0 1.1977539 1.1816406 v 0.8378906 Z "/>
        </symbol>
        <symbol id="gC8E3E634AA710C19DE4C79C9220A4A9E" overflow="visible">
            <path d="M 0 0m 2.5029297 -0.107421875 q -0.8432617 0 -1.3078613 0.5344238 q -0.4645996 0.5344238 -0.4645996 1.5065918 v 3.7597656 h 1.3266602 v -3.5449219 q 0 -0.48876953 0.24438477 -0.7546387 q 0.24438477 -0.26586914 0.68481445 -0.26586914 q 0.55859375 0 0.8405762 0.3947754 q 0.28198242 0.3947754 0.28198242 1.3239746 v 2.8466797 h 1.3266602 v -4.5009766 l 0.7841797 -0.11816406 v -1.0742188 l -2.0141602 -0.053710938 l -0.080566406 1.1494141 h -0.13964844 q -0.13427734 -0.5800781 -0.52368164 -0.89160156 q -0.3894043 -0.31152344 -0.95874023 -0.31152344 Z "/>
        </symbol>
        <symbol id="g988934665B9D033BE8FC5C94E274603B" overflow="visible">
            <path d="M 0 0m 2.7822266 -0.107421875 q -1.2783203 0 -1.9980469 0.16113281 l 0.15576172 1.2460938 q 0.62841797 -0.0859375 1.0795898 -0.12890625 q 0.45117188 -0.04296875 0.7626953 -0.04296875 q 0.7841797 0 1.1359863 0.12890625 q 0.35180664 0.12890625 0.35180664 0.40820313 q 0 0.18261719 -0.10205078 0.27661133 q -0.10205078 0.09399414 -0.32226563 0.15307617 l -1.6381836 0.45654297 q -0.6821289 0.18798828 -1.0097656 0.51831055 q -0.32763672 0.33032227 -0.32763672 0.93188477 q 0 0.9291992 0.7492676 1.3642578 q 0.7492676 0.4350586 2.3337402 0.4350586 q 0.38134766 0 0.7626953 -0.026855469 q 0.38134766 -0.026855469 0.7949219 -0.080566406 l -0.13964844 -1.203125 q -0.46728516 0.04296875 -0.8190918 0.05908203 q -0.35180664 0.016113281 -0.6311035 0.016113281 q -0.89160156 0 -1.2890625 -0.123535156 q -0.39746094 -0.123535156 -0.39746094 -0.39746094 q 0 -0.18261719 0.11816406 -0.2685547 q 0.11816406 -0.0859375 0.36523438 -0.15039063 l 1.375 -0.37060547 q 0.80029297 -0.20410156 1.1843262 -0.57470703 q 0.3840332 -0.37060547 0.3840332 -1.0097656 q 0 -0.90771484 -0.70092773 -1.3427734 q -0.70092773 -0.4350586 -2.1779785 -0.4350586 Z "/>
        </symbol>
        <symbol id="g66FE86C3D6200946DA59DA9A03B61B42" overflow="visible">
            <path d="M 0 0m 4.361328 -0.107421875 q -1.4072266 0 -2.027588 0.56933594 q -0.6203613 0.56933594 -0.6203613 1.8208008 v 2.2075195 h -1.3911133 v 1.203125 h 1.3911133 v 1.71875 h 1.3212891 v -1.71875 h 2.5512695 v -1.203125 h -2.5512695 v -2.1000977 q 0 -0.6660156 0.33569336 -0.9641113 q 0.33569336 -0.2980957 1.0983887 -0.2980957 q 0.2524414 0 0.54248047 0.029541016 q 0.29003906 0.029541016 0.66064453 0.07788086 l 0.12890625 -1.2138672 q -0.35986328 -0.064453125 -0.7036133 -0.09667969 q -0.34375 -0.032226563 -0.73583984 -0.032226563 Z "/>
        </symbol>
        <symbol id="gE0E12823E218B78D2E538FA71A22EB8B" overflow="visible">
            <path d="M 0 0m 5.1591797 7.123535 l -0.092285156 -0.52734375 h -0.13183594 q -0.7558594 0 -1.3623047 -0.41748047 q -0.6064453 -0.41748047 -1.0151367 -1.199707 q -0.4086914 -0.78222656 -0.5800781 -1.8808594 q -0.087890625 -0.5756836 -0.087890625 -1.0634766 q 0 -0.8833008 0.2944336 -1.472168 q 0.45703125 -0.90966797 1.5205078 -0.90966797 h 0.13623047 l -0.092285156 -0.52734375 h -0.16259766 q -0.8964844 0 -1.4567871 0.48339844 q -0.56030273 0.48339844 -0.7536621 1.3930664 q -0.092285156 0.43945313 -0.092285156 0.9667969 q 0 0.55810547 0.10546875 1.2172852 q 0.20214844 1.2392578 0.69873047 2.1203613 q 0.49658203 0.8811035 1.2348633 1.3491211 q 0.73828125 0.46801758 1.6699219 0.46801758 h 0.16699219 Z "/>
        </symbol>
        <symbol id="gF888D67D89DE0EABD22AD76521DF2B19" overflow="visible">
            <path d="M 0 0m 1.9511719 -0.087890625 q -1.0239258 0 -1.5864258 0.17578125 l 0.17138672 0.55810547 q 0.8964844 -0.18457031 1.5117188 -0.18457031 q 0.80859375 0 1.2524414 0.23071289 q 0.44384766 0.23071289 0.44384766 0.64819336 q 0 0.21533203 -0.16040039 0.3779297 q -0.16040039 0.16259766 -0.45043945 0.24609375 l -1.3007813 0.3779297 q -0.3955078 0.11425781 -0.6130371 0.3581543 q -0.2175293 0.24389648 -0.2175293 0.5690918 q 0 0.703125 0.66137695 1.0898438 q 0.66137695 0.38671875 1.8654785 0.38671875 q 0.29882813 0 0.63061523 -0.026367188 q 0.3317871 -0.026367188 0.6437988 -0.07470703 l -0.1538086 -0.5229492 q -0.7558594 0.07470703 -1.2304688 0.07470703 q -0.86572266 0 -1.3425293 -0.22631836 q -0.47680664 -0.22631836 -0.47680664 -0.6437988 q 0 -0.3647461 0.5053711 -0.5053711 l 1.2919922 -0.36035156 q 0.45263672 -0.123046875 0.6965332 -0.40649414 q 0.24389648 -0.28344727 0.24389648 -0.6789551 q 0 -0.69873047 -0.62402344 -1.0810547 q -0.62402344 -0.38232422 -1.762207 -0.38232422 Z "/>
        </symbol>
        <symbol id="gA7AAD71C6DD1791DD1272CE78BBDF2B0" overflow="visible">
            <path d="M 0 0m 2.9794922 -0.087890625 q -1.40625 0 -1.40625 1.3623047 q 0 0.28564453 0.03955078 0.55810547 q 0.03955078 0.27246094 0.123046875 0.75146484 l 0.2680664 1.5380859 h -1.3095703 l 0.092285156 0.5361328 h 1.3139648 l 0.24609375 1.4106445 h 0.5932617 l -0.24609375 -1.4106445 h 2.1269531 l -0.092285156 -0.5361328 h -2.1313477 l -0.2680664 -1.5380859 q -0.083496094 -0.47021484 -0.123046875 -0.72509766 q -0.03955078 -0.2548828 -0.03955078 -0.52734375 q 0 -0.8701172 0.8964844 -0.8701172 q 0.34277344 0 0.60424805 0.061523438 q 0.2614746 0.061523438 0.61743164 0.21533203 l 0.11425781 -0.50097656 q -0.30322266 -0.13623047 -0.64160156 -0.23071289 q -0.3383789 -0.09448242 -0.77783203 -0.09448242 Z "/>
        </symbol>
        <symbol id="g7B7E93BDFB0CFD6A246036C676E33732" overflow="visible">
            <path d="M 0 0m 0.0087890625 0 l 0.09667969 0.5361328 h 1.1381836 l 0.49658203 2.8256836 q 0.026367188 0.14501953 0.026367188 0.2680664 q 0 0.57128906 -0.57128906 0.57128906 q -0.16699219 0 -0.32958984 -0.021972656 q -0.16259766 -0.021972656 -0.3251953 -0.0703125 l -0.07470703 0.5317383 q 0.18896484 0.061523438 0.39331055 0.083496094 q 0.2043457 0.021972656 0.41967773 0.021972656 q 0.63720703 0 0.8964844 -0.32958984 q 0.19335938 -0.24609375 0.19335938 -0.6855469 q 0 -0.15820313 -0.026367188 -0.3383789 h 0.06591797 q 0.16699219 0.6459961 0.5734863 0.99975586 q 0.40649414 0.35375977 1.017334 0.35375977 q 0.68115234 0 0.9711914 -0.44384766 q 0.1977539 -0.31201172 0.1977539 -0.8129883 q 0 -0.21533203 -0.03515625 -0.47021484 h -0.5932617 q 0.021972656 0.18896484 0.021972656 0.34716797 q 0 0.34277344 -0.10986328 0.54052734 q -0.16699219 0.29003906 -0.59765625 0.29003906 q -0.3955078 0 -0.7404785 -0.23071289 q -0.3449707 -0.23071289 -0.6152344 -0.7624512 q -0.27026367 -0.5317383 -0.4416504 -1.4370117 l -0.21972656 -1.2304688 h 1.3095703 l -0.09667969 -0.5361328 h -3.0410156 Z "/>
        </symbol>
        <symbol id="g1845A4AECCD66EEAAD5BCF6194D2F543" overflow="visible">
            <path d="M 0 0m 1.7841797 -0.092285156 q -0.6503906 0 -0.99316406 0.3581543 q -0.34277344 0.3581543 -0.34277344 1.0393066 q 0 0.7163086 0.23950195 1.5314941 q 0.23950195 0.81518555 0.6833496 1.9094238 l 0.5756836 -0.11425781 q -0.45263672 -1.1645508 -0.6789551 -1.9423828 q -0.22631836 -0.77783203 -0.22631836 -1.331543 q 0 -0.9008789 0.86572266 -0.9008789 q 0.7338867 0 1.2194824 0.64160156 q 0.4855957 0.64160156 0.7404785 1.9731445 l 0.28564453 1.5864258 h 0.5932617 l -0.62402344 -3.5200195 q -0.017578125 -0.10546875 -0.017578125 -0.18896484 q 0 -0.1977539 0.092285156 -0.29882813 q 0.1274414 -0.14941406 0.51416016 -0.16699219 h 0.118652344 l -0.09667969 -0.52734375 h -0.10107422 q -0.703125 0 -0.90966797 0.3383789 q -0.1274414 0.20214844 -0.1274414 0.51416016 q 0 0.1977539 0.052734375 0.43945313 h -0.087890625 q -0.16259766 -0.38232422 -0.38452148 -0.6855469 q -0.22192383 -0.30322266 -0.5559082 -0.4790039 q -0.33398438 -0.17578125 -0.83496094 -0.17578125 Z "/>
        </symbol>
        <symbol id="g76D0C6CEEFB0FF9A00CE32A4E4BBF9F7" overflow="visible">
            <path d="M 0 0m 2.3950195 0.46142578 q 0.45703125 0 0.9206543 0.15820313 q 0.46362305 0.15820313 0.84594727 0.421875 l 0.21972656 -0.47460938 q -0.42626953 -0.2944336 -0.9711914 -0.47460938 q -0.5449219 -0.18017578 -1.1162109 -0.18017578 q -0.8305664 0 -1.2919922 0.4658203 q -0.46142578 0.4658203 -0.46142578 1.3007813 q 0 0.9272461 0.3251953 1.6149902 q 0.3251953 0.68774414 0.9140625 1.0700684 q 0.5888672 0.38232422 1.3798828 0.38232422 q 1.3183594 0 1.7226563 -0.9667969 l -0.45263672 -0.3515625 q -0.19335938 0.41308594 -0.5229492 0.59106445 q -0.32958984 0.17797852 -0.8129883 0.17797852 q -0.5888672 0 -1.0283203 -0.30541992 q -0.43945313 -0.30541992 -0.6833496 -0.8547363 q -0.24389648 -0.5493164 -0.24829102 -1.2875977 q 0.0087890625 -0.61083984 0.3383789 -0.94921875 q 0.32958984 -0.3383789 0.92285156 -0.3383789 Z "/>
        </symbol>
        <symbol id="g9D2E4F7E5709569433E7CF2B02C985D1" overflow="visible">
            <path d="M 0 0m 2.6279297 0.46142578 q 0.36035156 0 0.77124023 0.11645508 q 0.41088867 0.11645508 0.7932129 0.32299805 l 0.20214844 -0.47460938 q -0.41748047 -0.24169922 -0.8942871 -0.3779297 q -0.47680664 -0.13623047 -0.91186523 -0.13623047 q -0.8876953 0 -1.3820801 0.4987793 q -0.49438477 0.4987793 -0.49438477 1.3864746 q 0 0.9140625 0.31420898 1.5732422 q 0.31420898 0.6591797 0.8964844 1.017334 q 0.5822754 0.3581543 1.3864746 0.3581543 q 0.6767578 0 1.0546875 -0.3251953 q 0.3779297 -0.3251953 0.3779297 -0.90527344 q 0 -0.8569336 -0.9140625 -1.3095703 q -0.9140625 -0.45263672 -2.5444336 -0.48779297 q 0.030761719 -0.5932617 0.38452148 -0.9250488 q 0.35375977 -0.3317871 0.9602051 -0.3317871 Z m -1.3271484 1.7578125 q 1.3666992 0.03515625 2.1071777 0.35375977 q 0.7404785 0.31860352 0.7404785 0.91625977 q 0 0.32958984 -0.23730469 0.5185547 q -0.23730469 0.18896484 -0.66796875 0.18896484 q -0.82177734 0 -1.3337402 -0.5251465 q -0.5119629 -0.5251465 -0.6086426 -1.4523926 Z "/>
        </symbol>
        <symbol id="g1A69AD2CE0F425B64739F9F7589ABF2C" overflow="visible">
            <path d="M 0 0m 0.39111328 -0.87890625 l 0.092285156 0.52734375 h 0.123046875 q 0.76464844 0 1.373291 0.41748047 q 0.6086426 0.41748047 1.0195313 1.199707 q 0.41088867 0.78222656 0.57788086 1.8808594 q 0.092285156 0.5800781 0.092285156 1.0678711 q 0 0.8833008 -0.29882813 1.4677734 q -0.46142578 0.90966797 -1.5380859 0.90966797 h -0.123046875 l 0.092285156 0.52734375 h 0.14941406 q 0.8964844 0 1.4567871 -0.4790039 q 0.56030273 -0.4790039 0.7624512 -1.3798828 q 0.09667969 -0.4482422 0.09667969 -0.984375 q 0 -0.5449219 -0.10107422 -1.1865234 q -0.19335938 -1.2480469 -0.6899414 -2.1357422 q -0.49658203 -0.8876953 -1.2414551 -1.3601074 q -0.74487305 -0.4724121 -1.6896973 -0.4724121 h -0.1538086 Z "/>
        </symbol>
        <symbol id="gA18CDFE1F62A00B4FEC5E44AFC386BDB" overflow="visible">
            <path d="M 0 0m 4.3183594 -0.053710938 l -0.07519531 1.2568359 h -0.123535156 q -0.06982422 -0.65527344 -0.5344238 -0.98291016 q -0.4645996 -0.32763672 -1.2272949 -0.32763672 q -0.90234375 0 -1.3991699 0.43774414 q -0.49682617 0.43774414 -0.49682617 1.2487793 q 0 0.9345703 0.6660156 1.434082 q 0.6660156 0.49951172 1.8852539 0.49951172 q 0.64990234 0 1.1279297 -0.10205078 v 0.11279297 q 0 0.49951172 -0.39208984 0.7331543 q -0.39208984 0.23364258 -1.1708984 0.25512695 l -1.4179688 0.037597656 l 0.107421875 1.1977539 l 1.203125 -0.016113281 q 1.4931641 -0.021484375 2.2182617 -0.60961914 q 0.72509766 -0.58813477 0.72509766 -1.7160645 v -2.2128906 l 0.859375 -0.11816406 v -1.0742188 l -1.9550781 -0.053710938 Z m -0.1772461 2.3955078 q -0.29003906 0.053710938 -0.5505371 0.061767578 q -0.26049805 0.008056641 -0.545166 0.008056641 q -1.2675781 0 -1.2675781 -0.74658203 q 0 -0.6713867 0.8701172 -0.6713867 q 0.49951172 0 0.829834 0.17993164 q 0.33032227 0.17993164 0.49682617 0.45654297 q 0.1665039 0.27661133 0.1665039 0.5720215 v 0.13964844 Z "/>
        </symbol>
        <symbol id="g671276076474A6FD5E2B11E6BEE10ABC" overflow="visible">
            <path d="M 0 0m 0.8486328 -2.4707031 v 8.1640625 h 1.2192383 l 0.091308594 -1.03125 h 0.091308594 q 0.18261719 1.1386719 1.4770508 1.1386719 q 1.090332 0 1.6730957 -0.7680664 q 0.5827637 -0.7680664 0.5827637 -2.2128906 q 0 -1.4233398 -0.5827637 -2.175293 q -0.5827637 -0.7519531 -1.6677246 -0.7519531 q -0.6176758 0 -0.99365234 0.2927246 q -0.37597656 0.2927246 -0.45117188 0.84594727 h -0.11279297 v -3.5019531 h -1.3266602 Z m 1.3266602 5.2368164 q 0 -0.8486328 0.28735352 -1.2568359 q 0.28735352 -0.40820313 0.9265137 -0.40820313 q 1.2514648 0 1.2514648 1.71875 q 0 0.859375 -0.32226563 1.315918 q -0.32226563 0.45654297 -0.9291992 0.45654297 q -1.2138672 0 -1.2138672 -1.6704102 v -0.15576172 Z "/>
        </symbol>
        <symbol id="g3886D710B7AABFD372757D2B30542D74" overflow="visible">
            <path d="M 0 0m 0.80566406 0 v 1.203125 h 2.1323242 v 3.2871094 h -1.8100586 v 1.203125 h 3.1313477 v -4.4902344 h 1.7133789 v -1.203125 h -5.166992 Z m 2.7392578 6.5151367 q -0.38134766 0 -0.62841797 0.24707031 q -0.24707031 0.24707031 -0.24707031 0.62841797 q 0 0.38134766 0.24707031 0.62841797 q 0.24707031 0.24707031 0.62841797 0.24707031 q 0.38134766 0 0.62841797 -0.24707031 q 0.24707031 -0.24707031 0.24707031 -0.62841797 q 0 -0.38134766 -0.24707031 -0.62841797 q -0.24707031 -0.24707031 -0.62841797 -0.24707031 Z "/>
        </symbol>
        <symbol id="gB42704BEBBE1FE92C991C9C123C18594" overflow="visible">
            <path d="M 0 0m 2.2060547 -0.087890625 q -0.7558594 0 -1.1799316 0.46142578 q -0.42407227 0.46142578 -0.42407227 1.2832031 q 0 1.4589844 0.6503906 2.27417 q 0.6503906 0.81518555 1.8061523 0.81518555 q 0.7558594 0 1.1799316 -0.4724121 q 0.42407227 -0.4724121 0.42407227 -1.3161621 q 0 -1.4370117 -0.6503906 -2.241211 q -0.6503906 -0.8041992 -1.8061523 -0.8041992 Z m 0.11425781 0.5449219 q 0.8261719 0 1.2875977 0.64160156 q 0.46142578 0.64160156 0.46142578 1.7841797 q 0 0.6196289 -0.28564453 0.9667969 q -0.28564453 0.34716797 -0.8041992 0.34716797 q -0.83496094 0 -1.307373 -0.6394043 q -0.4724121 -0.6394043 -0.4724121 -1.7819824 q 0 -0.6196289 0.2944336 -0.96899414 q 0.2944336 -0.34936523 0.8261719 -0.34936523 Z "/>
        </symbol>
        <symbol id="g450E794631A8688DF35B57E076332A74" overflow="visible">
            <path d="M 0 0m 1.472168 4.658203 l -0.07910156 -0.85253906 h 0.061523438 q 0.25927734 0.9404297 0.984375 0.9404297 q 0.7470703 0 0.72509766 -0.85253906 h 0.061523438 q 0.27685547 0.85253906 1.0107422 0.85253906 q 0.72509766 0 0.72509766 -0.7998047 q 0 -0.19335938 -0.03955078 -0.43066406 l -0.6196289 -3.515625 h -0.5932617 l 0.62402344 3.5507813 q 0.026367188 0.140625 0.026367188 0.25048828 q 0 0.42626953 -0.36035156 0.42626953 q -0.34277344 0 -0.6086426 -0.43066406 q -0.26586914 -0.43066406 -0.43725586 -1.2524414 l -0.45263672 -2.5444336 h -0.5449219 l 0.62841797 3.5507813 q 0.026367188 0.140625 0.026367188 0.25048828 q 0 0.42626953 -0.3647461 0.42626953 q -0.36914063 0 -0.64819336 -0.5229492 q -0.27905273 -0.5229492 -0.45922852 -1.5205078 v 0.013183594 l -0.38671875 -2.1972656 h -0.59765625 l 0.82177734 4.658203 h 0.49658203 Z "/>
        </symbol>
        <symbol id="g390517E79D4F7866AD58BD1517CE551A" overflow="visible">
            <path d="M 0 0m 0.64160156 -2.0214844 h -0.5932617 l 0.35595703 2.025879 h -0.0043945313 l 0.0087890625 0.013183594 l 0.8173828 4.640625 h 0.50097656 l -0.118652344 -1.2216797 l -0.0087890625 -0.043945313 h 0.06591797 q 0.22851563 0.6196289 0.703125 0.98657227 q 0.47460938 0.36694336 1.199707 0.36694336 q 0.6152344 0 0.9580078 -0.38232422 q 0.34277344 -0.38232422 0.34277344 -1.0810547 q 0 -0.7207031 -0.24609375 -1.3337402 q -0.24609375 -0.6130371 -0.68774414 -1.0700684 q -0.4416504 -0.45703125 -1.0349121 -0.71191406 q -0.5932617 -0.2548828 -1.2875977 -0.2548828 q -0.29882813 0 -0.62402344 0.026367188 l -0.34716797 -1.9599609 Z m 0.4482422 2.522461 q 0.27246094 -0.03955078 0.6196289 -0.03955078 q 0.7294922 0 1.3095703 0.3581543 q 0.5800781 0.3581543 0.91625977 0.9777832 q 0.33618164 0.6196289 0.33618164 1.3974609 q 0 0.4790039 -0.23950195 0.7404785 q -0.23950195 0.2614746 -0.670166 0.2614746 q -0.39111328 0 -0.7910156 -0.24169922 q -0.39990234 -0.24169922 -0.7294922 -0.7536621 q -0.32958984 -0.5119629 -0.5097656 -1.3293457 l -0.24169922 -1.3710938 Z "/>
        </symbol>
        <symbol id="g1F9462F7007E7136C0B01D5529C92807" overflow="visible">
            <path d="M 0 0m 4.071289 -0.107421875 q -1.0419922 0 -1.5012207 0.56933594 q -0.45922852 0.56933594 -0.45922852 1.8208008 v 4.570801 h -1.6381836 v 1.203125 h 2.9594727 v -5.720215 q 0 -0.5908203 0.19604492 -0.859375 q 0.19604492 -0.2685547 0.87280273 -0.2685547 q 0.46191406 0 1.1708984 0.20410156 l 0.15039063 -1.2944336 q -0.44580078 -0.11816406 -0.859375 -0.171875 q -0.41357422 -0.053710938 -0.89160156 -0.053710938 Z "/>
        </symbol>
        <symbol id="gA0024E0682C2E34A93303274D082FDF5" overflow="visible">
            <path d="M 0 0m 4.2700195 0 v 3.491211 q 0 0.515625 -0.23364258 0.7949219 q -0.23364258 0.27929688 -0.6633301 0.27929688 q -1.1977539 0 -1.1977539 -1.5791016 v -2.9863281 h -1.3266602 v 5.6933594 h 1.1923828 l 0.11279297 -1.03125 h 0.15039063 q 0.06982422 0.57470703 0.40283203 0.85668945 q 0.3330078 0.28198242 0.99902344 0.28198242 q 0.90234375 0 1.3964844 -0.54785156 q 0.49414063 -0.54785156 0.49414063 -1.546875 v -3.7060547 h -1.3266602 Z "/>
        </symbol>
        <symbol id="g34A87EEC0912CBC85463B8C88B93607F" overflow="visible">
            <path d="M 0 0m 2.927246 2.4492188 v -1.2998047 h 1.3588867 v -1.1494141 h -3.9101563 v 1.1494141 h 1.2299805 v 3.3945313 h -1.0151367 v 1.1494141 h 2.121582 l 0.1772461 -1.3535156 h 0.1772461 q 0.0859375 1.4609375 1.4985352 1.4609375 q 1.6757813 0 1.6757813 -2.2451172 h -1.3212891 q 0 0.55322266 -0.18530273 0.7949219 q -0.18530273 0.24169922 -0.59350586 0.24169922 q -0.6069336 0 -0.9104004 -0.55859375 q -0.3034668 -0.55859375 -0.3034668 -1.5844727 Z "/>
        </symbol>
        <symbol id="g4B4E79E89B53CB9979714C1F7CCBCD28" overflow="visible">
            <path d="M 0 0m 1.5996094 -0.092285156 q -0.62402344 0 -0.9667969 0.34277344 q -0.34277344 0.34277344 -0.34277344 0.9667969 q 0 0.7910156 0.32299805 1.4348145 q 0.32299805 0.6437988 0.9074707 1.1008301 q 0.58447266 0.45703125 1.3710938 0.703125 q 0.7866211 0.24609375 1.7094727 0.24609375 h 0.083496094 l -0.6152344 -3.4804688 q -0.021972656 -0.118652344 -0.021972656 -0.21972656 q 0 -0.5185547 0.55810547 -0.5185547 h 0.26367188 l -0.087890625 -0.52734375 h -0.24169922 q -0.62402344 0 -0.84375 0.2944336 q -0.15820313 0.20214844 -0.15820313 0.58447266 q 0 0.16699219 0.030761719 0.3647461 h -0.07910156 q -0.29003906 -0.62402344 -0.7800293 -0.9580078 q -0.48999023 -0.33398438 -1.1096191 -0.33398438 Z m 0.13623047 0.5493164 q 0.7294922 0 1.2744141 0.6152344 q 0.5449219 0.6152344 0.7426758 1.7402344 l 0.23291016 1.3095703 q -0.9272461 -0.10107422 -1.6259766 -0.48999023 q -0.69873047 -0.38891602 -1.0854492 -0.9953613 q -0.38671875 -0.6064453 -0.38671875 -1.3666992 q 0 -0.38671875 0.2241211 -0.5998535 q 0.2241211 -0.21313477 0.62402344 -0.21313477 Z "/>
        </symbol>
        <symbol id="g45C2EBAB1DDF551A1B3FA5B560D0958E" overflow="visible">
            <path d="M 0 0m 0.20214844 -2.109375 l -0.026367188 0.54052734 l 0.90527344 0.048339844 q 0.62841797 0.030761719 1.0656738 0.23071289 q 0.43725586 0.19995117 0.7207031 0.5185547 q 0.28344727 0.31860352 0.44384766 0.7097168 q 0.16040039 0.39111328 0.23071289 0.8041992 l 0.083496094 0.4790039 h -0.0703125 q -0.25048828 -0.62841797 -0.7338867 -0.9711914 q -0.48339844 -0.34277344 -1.1645508 -0.34277344 q -0.6196289 0 -0.9448242 0.33618164 q -0.3251953 0.33618164 -0.3251953 0.9733887 q 0 0.7910156 0.32958984 1.4348145 q 0.32958984 0.6437988 0.9206543 1.1008301 q 0.59106445 0.45703125 1.3864746 0.703125 q 0.79541016 0.24609375 1.7314453 0.24609375 h 0.083496094 l -0.6767578 -3.8188477 q -0.10986328 -0.6196289 -0.31640625 -1.1425781 q -0.20654297 -0.5229492 -0.56469727 -0.91845703 q -0.3581543 -0.3955078 -0.91625977 -0.62841797 q -0.55810547 -0.23291016 -1.3710938 -0.2680664 l -0.7910156 -0.03515625 Z m 3.9375 6.23584 q -0.9008789 -0.10546875 -1.6149902 -0.49658203 q -0.7141113 -0.39111328 -1.1293945 -0.99316406 q -0.4152832 -0.6020508 -0.4152832 -1.340332 q 0 -0.83935547 0.8129883 -0.83935547 q 0.5449219 0 0.9777832 0.33618164 q 0.43286133 0.33618164 0.736084 0.9404297 q 0.30322266 0.60424805 0.45703125 1.4040527 l 0.030761719 0.17578125 v -0.0043945313 l 0.14501953 0.8173828 Z "/>
        </symbol>
        <symbol id="gD9BEE5C611170ECF1F95857B661842D4" overflow="visible">
            <path d="M 0 0m 0.39990234 0 l 0.82177734 4.658203 h 0.48779297 l -0.118652344 -1.265625 h 0.0703125 q 0.17578125 0.6459961 0.61743164 0.99975586 q 0.4416504 0.35375977 1.092041 0.35375977 q 1.2700195 0 1.2700195 -1.1821289 q 0 -0.22851563 -0.048339844 -0.50097656 l -0.54052734 -3.0629883 h -0.59765625 l 0.5449219 3.0981445 q 0.030761719 0.18457031 0.030761719 0.33398438 q 0 0.3076172 -0.1274414 0.4921875 q -0.19335938 0.27246094 -0.70751953 0.27246094 q -0.41748047 0 -0.7800293 -0.23291016 q -0.36254883 -0.23291016 -0.6459961 -0.77563477 q -0.28344727 -0.5427246 -0.46801758 -1.4611816 l -0.30322266 -1.7270508 h -0.59765625 Z "/>
        </symbol>
    </defs>
</svg>
