<svg class="typst-doc" viewBox="0 0 479.0078124192913 194.88085920374013" xmlns="http://www.w3.org/2000/svg" xmlns:xlink="http://www.w3.org/1999/xlink" xmlns:h5="http://www.w3.org/1999/xhtml">
    <path class="typst-shape" fill="#ffffff" fill-rule="nonzero" d="M 0 0v 194.88086 h 479.0078 v -194.88086 Z "/>
    <g>
        <g class="typst-group" transform="matrix(1 0 0 1 20 20)">
            <g>
                <g class="typst-group">
                    <g>
                        <path class="typst-shape" fill="none" stroke="#59636e" stroke-width="1.2" stroke-linecap="round" stroke-linejoin="miter" stroke-miterlimit="4" transform="matrix(1 0 0 1 210.5468750590551 27.62695312500007)" d="M 0 0l 0.000000000000025176711 99.026955 "/>
                        <path class="typst-shape" fill="none" stroke="#59636e" stroke-width="1.2" stroke-linecap="round" stroke-linejoin="miter" stroke-miterlimit="4" transform="matrix(1 0 0 1 204.6331737240656 121.94150361072086)" d="M 0 0m 5.9137015 4.7124023 c -1.112802 -2.419405 -3.3069265 -4.1678185 -5.9137015 -4.7124023 "/>
                        <path class="typst-shape" fill="none" stroke="#59636e" stroke-width="1.2" stroke-linecap="round" stroke-linejoin="miter" stroke-miterlimit="4" transform="matrix(1 0 0 1 210.54687511417325 121.94150361072086)" d="M 0 0m 0 4.7124023 c 1.1128019 -2.419405 3.3069263 -4.1678185 5.9137015 -4.7124023 "/>
                        <path class="typst-shape" fill="none" transform="matrix(1 0 0 1 214.94687505905512 70.8800780392436)" d="M 0 0h 43.364845 v 13.120703 h -43.364845 v -13.120703 Z "/>
                        <g class="typst-group">
                            <g>
                                <g class="typst-group" transform="matrix(1 0 0 1 214.94687493405516 70.88007802694047)">
                                    <g>
                                        <g class="typst-group">
                                            <g>
                                                <g class="typst-group">
                                                    <g>
                                                        <g class="typst-text" transform="matrix(1 0 0 -1 2.2 8.786914062500001)">
                                                            <use xlink:href="#g9A3079D0EB07433B1F451EE264376FDF" x="0" y="0" fill="#59636e" fill-rule="nonzero"/>
                                                            <use xlink:href="#g3A3BE159F5489E2307670563D268F7CD" x="5.56640625" y="0" fill="#59636e" fill-rule="nonzero"/>
                                                            <use xlink:href="#g4CD2688201906680AD6AD5790AF34B02" x="11.1328125" y="0" fill="#59636e" fill-rule="nonzero"/>
                                                            <use xlink:href="#g9D776A698D8377F2861D00166CCB3E40" x="16.69921875" y="0" fill="#59636e" fill-rule="nonzero"/>
                                                            <use xlink:href="#gEECE9D2125BF48F2CBEEFB34C6DFCBB" x="22.265625" y="0" fill="#59636e" fill-rule="nonzero"/>
                                                            <use xlink:href="#g384B68DE188FC27CDD202B502C59974D" x="27.83203125" y="0" fill="#59636e" fill-rule="nonzero"/>
                                                            <use xlink:href="#g537F97E4E8462D1BCA7DBEE2797D1453" x="33.3984375" y="0" fill="#59636e" fill-rule="nonzero"/>
                                                        </g>
                                                    </g>
                                                </g>
                                            </g>
                                        </g>
                                    </g>
                                </g>
                            </g>
                        </g>
                        <path class="typst-shape" fill="none" stroke="#59636e" stroke-width="1.2" stroke-linecap="round" stroke-linejoin="miter" stroke-miterlimit="4" transform="matrix(1 0 0 1 301.1640625590551 13.81347661614175)" d="M 0 0c 0.66304123 0 1.298926 0.2633921 1.767767 0.73223305 c 0.46884084 0.46884096 0.73223305 1.1047257 0.73223305 1.767767 "/>
                        <path class="typst-shape" fill="none" stroke="#59636e" stroke-width="1.2" stroke-linecap="round" stroke-linejoin="miter" stroke-miterlimit="4" transform="matrix(1 0 0 1 236.66015636417328 13.813476490157488)" d="M 0 0m 0 0.000000000000050353422 l 64.50391 -0.000000000000050353422 "/>
                        <path class="typst-shape" fill="none" stroke="#59636e" stroke-width="1.2" stroke-linecap="round" stroke-linejoin="miter" stroke-miterlimit="4" transform="matrix(1 0 0 1 303.66406255905514 16.313476490157488)" d="M 0 0v 61.126953 "/>
                        <path class="typst-shape" fill="none" transform="matrix(1 0 0 1 255.89921880905504 40.31660149015749)" d="M 0 0h 43.364845 v 13.120703 h -43.364845 v -13.120703 Z "/>
                        <g class="typst-group">
                            <g>
                                <g class="typst-group" transform="matrix(1 0 0 1 255.89921868405509 40.316601477854334)">
                                    <g>
                                        <g class="typst-group">
                                            <g>
                                                <g class="typst-group">
                                                    <g>
                                                        <g class="typst-text" transform="matrix(1 0 0 -1 2.2 8.786914062500001)">
                                                            <use xlink:href="#g9A3079D0EB07433B1F451EE264376FDF" x="0" y="0" fill="#59636e" fill-rule="nonzero"/>
                                                            <use xlink:href="#g3A3BE159F5489E2307670563D268F7CD" x="5.56640625" y="0" fill="#59636e" fill-rule="nonzero"/>
                                                            <use xlink:href="#g4CD2688201906680AD6AD5790AF34B02" x="11.1328125" y="0" fill="#59636e" fill-rule="nonzero"/>
                                                            <use xlink:href="#g9D776A698D8377F2861D00166CCB3E40" x="16.69921875" y="0" fill="#59636e" fill-rule="nonzero"/>
                                                            <use xlink:href="#gEECE9D2125BF48F2CBEEFB34C6DFCBB" x="22.265625" y="0" fill="#59636e" fill-rule="nonzero"/>
                                                            <use xlink:href="#g384B68DE188FC27CDD202B502C59974D" x="27.83203125" y="0" fill="#59636e" fill-rule="nonzero"/>
                                                            <use xlink:href="#g537F97E4E8462D1BCA7DBEE2797D1453" x="33.3984375" y="0" fill="#59636e" fill-rule="nonzero"/>
                                                        </g>
                                                    </g>
                                                </g>
                                            </g>
                                        </g>
                                    </g>
                                </g>
                            </g>
                        </g>
                        <path class="typst-shape" fill="none" stroke="#59636e" stroke-width="1.2" stroke-linecap="round" stroke-linejoin="miter" stroke-miterlimit="4" transform="matrix(1 0 0 1 303.66406255905514 77.44042961515748)" d="M 0 0v 49.213478 "/>
                        <path class="typst-shape" fill="none" stroke="#59636e" stroke-width="1.2" stroke-linecap="round" stroke-linejoin="miter" stroke-miterlimit="4" transform="matrix(1 0 0 1 297.7503612831208 121.94150361072086)" d="M 0 0m 5.9137015 4.7124023 c -1.112802 -2.419405 -3.3069265 -4.1678185 -5.9137015 -4.7124023 "/>
                        <path class="typst-shape" fill="none" stroke="#59636e" stroke-width="1.2" stroke-linecap="round" stroke-linejoin="miter" stroke-miterlimit="4" transform="matrix(1 0 0 1 303.66406267322833 121.94150361072086)" d="M 0 0m 0 4.7124023 c 1.1128019 -2.419405 3.3069263 -4.1678185 5.9137015 -4.7124023 "/>
                        <path class="typst-shape" fill="none" transform="matrix(1 0 0 1 0 4.3466796875000115)" d="M 0 0v 18.933594 h 146.76563 v -18.933594 h -146.76563 Z "/>
                        <path class="typst-shape" fill="none" transform="matrix(1 0 0 1 6.000000059005129 10.346679615157482)" d="M 0 0h 134.76563 v 6.9335938 h -134.76563 v -6.9335938 Z "/>
                        <g class="typst-group">
                            <g>
                                <g class="typst-group" transform="matrix(1 0 0 1 5.999999929133863 10.346679608267726)">
                                    <g>
                                        <g class="typst-group">
                                            <g>
                                                <g class="typst-text" transform="matrix(1 0 0 -1 0.00000000010000144894139504 6.93359375)">
                                                    <use xlink:href="#gCF983EFCF09B053D63D2B9EEF425E430" x="0" y="0" fill="#59636e" fill-rule="nonzero"/>
                                                    <use xlink:href="#gE0012936CC5F5757AD8F894FC05A4FF1" x="5.859375" y="0" fill="#59636e" fill-rule="nonzero"/>
                                                    <use xlink:href="#gA5A2F38C093B0637FD09CD519226A09A" x="11.71875" y="0" fill="#59636e" fill-rule="nonzero"/>
                                                    <use xlink:href="#gE0012936CC5F5757AD8F894FC05A4FF1" x="17.578125" y="0" fill="#59636e" fill-rule="nonzero"/>
                                                    <use xlink:href="#gCF983EFCF09B053D63D2B9EEF425E430" x="23.4375" y="0" fill="#59636e" fill-rule="nonzero"/>
                                                    <use xlink:href="#g8B678CACF5F8EC82749DA09DF0AAF807" x="35.15625" y="0" fill="#59636e" fill-rule="nonzero"/>
                                                    <use xlink:href="#gB5F235184AB9EA4D9F779552217E8E34" x="46.875" y="0" fill="#59636e" fill-rule="nonzero"/>
                                                    <use xlink:href="#gC94473E4C620F10546ED4D4C1DE8ECD7" x="58.59375" y="0" fill="#59636e" fill-rule="nonzero"/>
                                                    <use xlink:href="#g5EBFD0DBA43924C1445425BE3C249155" x="64.453125" y="0" fill="#59636e" fill-rule="nonzero"/>
                                                    <use xlink:href="#gDDB5F0B037A4D680F673F078458979DF" x="70.3125" y="0" fill="#59636e" fill-rule="nonzero"/>
                                                    <use xlink:href="#gE0012936CC5F5757AD8F894FC05A4FF1" x="76.171875" y="0" fill="#59636e" fill-rule="nonzero"/>
                                                    <use xlink:href="#gCF983EFCF09B053D63D2B9EEF425E430" x="82.03125" y="0" fill="#59636e" fill-rule="nonzero"/>
                                                    <use xlink:href="#g33A095036FF32BAABF39FB4195848DFC" x="93.75" y="0" fill="#59636e" fill-rule="nonzero"/>
                                                    <use xlink:href="#gA79D00E61467FB4B13726C0C1E862804" x="99.609375" y="0" fill="#59636e" fill-rule="nonzero"/>
                                                    <use xlink:href="#gBD467C115229D3E06CCD144C4091756F" x="105.46875" y="0" fill="#59636e" fill-rule="nonzero"/>
                                                    <use xlink:href="#g3C0EAE5578B2F211443C77A466DF37" x="111.328125" y="0" fill="#59636e" fill-rule="nonzero"/>
                                                    <use xlink:href="#gA8AB9A625F0D1567C6D9DDB8AEA747C4" x="117.1875" y="0" fill="#59636e" fill-rule="nonzero"/>
                                                    <use xlink:href="#gC94473E4C620F10546ED4D4C1DE8ECD7" x="123.046875" y="0" fill="#59636e" fill-rule="nonzero"/>
                                                    <use xlink:href="#gE0012936CC5F5757AD8F894FC05A4FF1" x="128.90625" y="0" fill="#59636e" fill-rule="nonzero"/>
                                                </g>
                                            </g>
                                        </g>
                                    </g>
                                </g>
                            </g>
                        </g>
                        <path class="typst-shape" fill="#ddf4ff" fill-rule="nonzero" stroke="#0969da" stroke-width="2" stroke-linecap="butt" stroke-linejoin="miter" stroke-miterlimit="4" transform="matrix(1 0 0 1 184.43359386417325 0)" d="M 0 0m 6 0 c -3.310704 0 -6 2.689296 -6 6 v 15.626953 c 0 3.3107033 2.689296 6 6 6 h 40.226563 c 3.3107033 0 6 -2.6892967 6 -6 v -15.626953 c 0 -3.310704 -2.6892967 -6 -6 -6 h -40.226563 Z "/>
                        <path class="typst-shape" fill="none" transform="matrix(1 0 0 1 194.43359380900512 9.999999927657491)" d="M 0 0h 32.226563 v 7.626953 h -32.226563 v -7.626953 Z "/>
                        <g class="typst-group">
                            <g>
                                <g class="typst-group" transform="matrix(1 0 0 1 194.43359367322833 9.999999891732292)">
                                    <g>
                                        <g class="typst-group">
                                            <g>
                                                <g class="typst-text" transform="matrix(1 0 0 -1 0.00000000005000072447069752 7.626953125)">
                                                    <use xlink:href="#gF06B0D376A11B19955968AFBD175C95E" x="0" y="0" fill="#033d8b" fill-rule="nonzero"/>
                                                    <use xlink:href="#g3BFDD386CC015A8144C3AF06CF21CED0" x="6.4453125" y="0" fill="#033d8b" fill-rule="nonzero"/>
                                                    <use xlink:href="#gBA4B98411E028F457BC3718924D576E4" x="12.890625" y="0" fill="#033d8b" fill-rule="nonzero"/>
                                                    <use xlink:href="#g941F0E91703FDA4F8112D6D8DDFCDA38" x="19.3359375" y="0" fill="#033d8b" fill-rule="nonzero"/>
                                                    <use xlink:href="#g1F9462F7007E7136C0B01D5529C92807" x="25.78125" y="0" fill="#033d8b" fill-rule="nonzero"/>
                                                </g>
                                            </g>
                                        </g>
                                    </g>
                                </g>
                            </g>
                        </g>
                        <path class="typst-shape" fill="#ddf4ff" fill-rule="nonzero" stroke="#0969da" stroke-width="1.2" stroke-linecap="butt" stroke-linejoin="miter" stroke-miterlimit="4" transform="matrix(1 0 0 1 360.9999999192913 0)" d="M 0 0m 6 0 c -3.310704 0 -6 2.689296 -6 6 v 15.626953 c 0 3.3107033 2.689296 6 6 6 h 66.00781 c 3.310707 0 6 -2.6892967 6 -6 v -15.626953 c 0 -3.310704 -2.689293 -6 -6 -6 h -66.00781 Z "/>
                        <path class="typst-shape" fill="none" transform="matrix(1 0 0 1 371.0000000590052 9.999999927657491)" d="M 0 0h 58.007813 v 7.626953 h -58.007813 v -7.626953 Z "/>
                        <g class="typst-group">
                            <g>
                                <g class="typst-group" transform="matrix(1 0 0 1 371.0000000413386 9.999999891732292)">
                                    <g>
                                        <g class="typst-group">
                                            <g>
                                                <g class="typst-text" transform="matrix(1 0 0 -1 0.00000000005000072447069752 7.626953125)">
                                                    <use xlink:href="#g988934665B9D033BE8FC5C94E274603B" x="0" y="0" fill="#033d8b" fill-rule="nonzero"/>
                                                    <use xlink:href="#g66FE86C3D6200946DA59DA9A03B61B42" x="6.4453125" y="0" fill="#033d8b" fill-rule="nonzero"/>
                                                    <use xlink:href="#g34A87EEC0912CBC85463B8C88B93607F" x="12.890625" y="0" fill="#033d8b" fill-rule="nonzero"/>
                                                    <use xlink:href="#g941F0E91703FDA4F8112D6D8DDFCDA38" x="19.3359375" y="0" fill="#033d8b" fill-rule="nonzero"/>
                                                    <use xlink:href="#gA18CDFE1F62A00B4FEC5E44AFC386BDB" x="25.78125" y="0" fill="#033d8b" fill-rule="nonzero"/>
                                                    <use xlink:href="#gF06B0D376A11B19955968AFBD175C95E" x="32.2265625" y="0" fill="#033d8b" fill-rule="nonzero"/>
                                                    <use xlink:href="#g3886D710B7AABFD372757D2B30542D74" x="38.671875" y="0" fill="#033d8b" fill-rule="nonzero"/>
                                                    <use xlink:href="#gA0024E0682C2E34A93303274D082FDF5" x="45.1171875" y="0" fill="#033d8b" fill-rule="nonzero"/>
                                                    <use xlink:href="#g38E8B94295A507DC4B3FE4A7B71023D1" x="51.5625" y="0" fill="#033d8b" fill-rule="nonzero"/>
                                                </g>
                                            </g>
                                        </g>
                                    </g>
                                </g>
                            </g>
                        </g>
                        <path class="typst-shape" fill="none" transform="matrix(1 0 0 1 0 67.97363272687006)" d="M 0 0v 18.933594 h 146.76563 v -18.933594 h -146.76563 Z "/>
                        <path class="typst-shape" fill="none" transform="matrix(1 0 0 1 6.000000059005129 73.97363274015747)" d="M 0 0h 134.76563 v 6.9335938 h -134.76563 v -6.9335938 Z "/>
                        <g class="typst-group">
                            <g>
                                <g class="typst-group" transform="matrix(1 0 0 1 5.999999929133863 73.97363273326773)">
                                    <g>
                                        <g class="typst-group">
                                            <g>
                                                <g class="typst-text" transform="matrix(1 0 0 -1 0.00000000010000144894139504 6.93359375)">
                                                    <use xlink:href="#gCF983EFCF09B053D63D2B9EEF425E430" x="0" y="0" fill="#59636e" fill-rule="nonzero"/>
                                                    <use xlink:href="#gE0012936CC5F5757AD8F894FC05A4FF1" x="5.859375" y="0" fill="#59636e" fill-rule="nonzero"/>
                                                    <use xlink:href="#gA5A2F38C093B0637FD09CD519226A09A" x="11.71875" y="0" fill="#59636e" fill-rule="nonzero"/>
                                                    <use xlink:href="#gE0012936CC5F5757AD8F894FC05A4FF1" x="17.578125" y="0" fill="#59636e" fill-rule="nonzero"/>
                                                    <use xlink:href="#gCF983EFCF09B053D63D2B9EEF425E430" x="23.4375" y="0" fill="#59636e" fill-rule="nonzero"/>
                                                    <use xlink:href="#g6BD92D1792004AD49C519ED276059C4" x="35.15625" y="0" fill="#59636e" fill-rule="nonzero"/>
                                                    <use xlink:href="#gB5F235184AB9EA4D9F779552217E8E34" x="46.875" y="0" fill="#59636e" fill-rule="nonzero"/>
                                                    <use xlink:href="#g5EBFD0DBA43924C1445425BE3C249155" x="58.59375" y="0" fill="#59636e" fill-rule="nonzero"/>
                                                    <use xlink:href="#gA79D00E61467FB4B13726C0C1E862804" x="64.453125" y="0" fill="#59636e" fill-rule="nonzero"/>
                                                    <use xlink:href="#g3C0EAE5578B2F211443C77A466DF37" x="70.3125" y="0" fill="#59636e" fill-rule="nonzero"/>
                                                    <use xlink:href="#gBF014681FD329ADABB4EA513DD2271D8" x="76.171875" y="0" fill="#59636e" fill-rule="nonzero"/>
                                                    <use xlink:href="#gA79D00E61467FB4B13726C0C1E862804" x="82.03125" y="0" fill="#59636e" fill-rule="nonzero"/>
                                                    <use xlink:href="#g3C0EAE5578B2F211443C77A466DF37" x="87.890625" y="0" fill="#59636e" fill-rule="nonzero"/>
                                                    <use xlink:href="#g2C15759D6E7CB5709283FB1A75F9F73" x="99.609375" y="0" fill="#59636e" fill-rule="nonzero"/>
                                                    <use xlink:href="#g12F9DDDCE2452318C1B4DC9B36075B66" x="105.46875" y="0" fill="#59636e" fill-rule="nonzero"/>
                                                    <use xlink:href="#g4CE31182D788FB38E94C1F1A79B13005" x="111.328125" y="0" fill="#59636e" fill-rule="nonzero"/>
                                                    <use xlink:href="#gBF014681FD329ADABB4EA513DD2271D8" x="117.1875" y="0" fill="#59636e" fill-rule="nonzero"/>
                                                    <use xlink:href="#gE0012936CC5F5757AD8F894FC05A4FF1" x="123.046875" y="0" fill="#59636e" fill-rule="nonzero"/>
                                                    <use xlink:href="#g2C15759D6E7CB5709283FB1A75F9F73" x="128.90625" y="0" fill="#59636e" fill-rule="nonzero"/>
                                                </g>
                                            </g>
                                        </g>
                                    </g>
                                </g>
                            </g>
                        </g>
                        <path class="typst-shape" fill="#ddf4ff" fill-rule="nonzero" stroke="#0969da" stroke-width="1.2" stroke-linecap="butt" stroke-linejoin="miter" stroke-miterlimit="4" transform="matrix(1 0 0 1 364.2226561692913 63.62695303937008)" d="M 0 0m 6 0 c -3.310704 0 -6 2.689296 -6 6 v 15.626953 c 0 3.3107033 2.689296 6 6 6 h 59.5625 c 3.310707 0 6 -2.6892967 6 -6 v -15.626953 c 0 -3.310704 -2.689293 -6 -6 -6 h -59.5625 Z "/>
                        <path class="typst-shape" fill="none" transform="matrix(1 0 0 1 374.2226563090051 73.62695305265748)" d="M 0 0h 51.5625 v 7.626953 h -51.5625 v -7.626953 Z "/>
                        <g class="typst-group">
                            <g>
                                <g class="typst-group" transform="matrix(1 0 0 1 374.222656261811 73.62695301673229)">
                                    <g>
                                        <g class="typst-group">
                                            <g>
                                                <g class="typst-text" transform="matrix(1 0 0 -1 0.00000000005000072447069752 7.626953125)">
                                                    <use xlink:href="#g34A87EEC0912CBC85463B8C88B93607F" x="0" y="0" fill="#033d8b" fill-rule="nonzero"/>
                                                    <use xlink:href="#g941F0E91703FDA4F8112D6D8DDFCDA38" x="6.4453125" y="0" fill="#033d8b" fill-rule="nonzero"/>
                                                    <use xlink:href="#g988934665B9D033BE8FC5C94E274603B" x="12.890625" y="0" fill="#033d8b" fill-rule="nonzero"/>
                                                    <use xlink:href="#g671276076474A6FD5E2B11E6BEE10ABC" x="19.3359375" y="0" fill="#033d8b" fill-rule="nonzero"/>
                                                    <use xlink:href="#g3BFDD386CC015A8144C3AF06CF21CED0" x="25.78125" y="0" fill="#033d8b" fill-rule="nonzero"/>
                                                    <use xlink:href="#gA0024E0682C2E34A93303274D082FDF5" x="32.2265625" y="0" fill="#033d8b" fill-rule="nonzero"/>
                                                    <use xlink:href="#g988934665B9D033BE8FC5C94E274603B" x="38.671875" y="0" fill="#033d8b" fill-rule="nonzero"/>
                                                    <use xlink:href="#g941F0E91703FDA4F8112D6D8DDFCDA38" x="45.1171875" y="0" fill="#033d8b" fill-rule="nonzero"/>
                                                </g>
                                            </g>
                                        </g>
                                    </g>
                                </g>
                            </g>
                        </g>
                        <path class="typst-shape" fill="none" transform="matrix(1 0 0 1 8.7890625 131.60058576624016)" d="M 0 0v 18.933594 h 129.1875 v -18.933594 h -129.1875 Z "/>
                        <path class="typst-shape" fill="none" transform="matrix(1 0 0 1 14.789062559005128 137.60058586515748)" d="M 0 0h 117.1875 v 6.9335938 h -117.1875 v -6.9335938 Z "/>
                        <g class="typst-group">
                            <g>
                                <g class="typst-group" transform="matrix(1 0 0 1 14.789062464566932 137.60058585826772)">
                                    <g>
                                        <g class="typst-group">
                                            <g>
                                                <g class="typst-text" transform="matrix(1 0 0 -1 0.00000000010000144894139504 6.93359375)">
                                                    <use xlink:href="#gCF983EFCF09B053D63D2B9EEF425E430" x="0" y="0" fill="#59636e" fill-rule="nonzero"/>
                                                    <use xlink:href="#gE0012936CC5F5757AD8F894FC05A4FF1" x="5.859375" y="0" fill="#59636e" fill-rule="nonzero"/>
                                                    <use xlink:href="#gA5A2F38C093B0637FD09CD519226A09A" x="11.71875" y="0" fill="#59636e" fill-rule="nonzero"/>
                                                    <use xlink:href="#gE0012936CC5F5757AD8F894FC05A4FF1" x="17.578125" y="0" fill="#59636e" fill-rule="nonzero"/>
                                                    <use xlink:href="#gCF983EFCF09B053D63D2B9EEF425E430" x="23.4375" y="0" fill="#59636e" fill-rule="nonzero"/>
                                                    <use xlink:href="#g9AE0048DA25A54C07C35396690D8968B" x="35.15625" y="0" fill="#59636e" fill-rule="nonzero"/>
                                                    <use xlink:href="#gB5F235184AB9EA4D9F779552217E8E34" x="46.875" y="0" fill="#59636e" fill-rule="nonzero"/>
                                                    <use xlink:href="#gBF014681FD329ADABB4EA513DD2271D8" x="58.59375" y="0" fill="#59636e" fill-rule="nonzero"/>
                                                    <use xlink:href="#g33A095036FF32BAABF39FB4195848DFC" x="64.453125" y="0" fill="#59636e" fill-rule="nonzero"/>
                                                    <use xlink:href="#gA8AB9A625F0D1567C6D9DDB8AEA747C4" x="70.3125" y="0" fill="#59636e" fill-rule="nonzero"/>
                                                    <use xlink:href="#gC94473E4C620F10546ED4D4C1DE8ECD7" x="76.171875" y="0" fill="#59636e" fill-rule="nonzero"/>
                                                    <use xlink:href="#gA8AB9A625F0D1567C6D9DDB8AEA747C4" x="82.03125" y="0" fill="#59636e" fill-rule="nonzero"/>
                                                    <use xlink:href="#g3C0EAE5578B2F211443C77A466DF37" x="87.890625" y="0" fill="#59636e" fill-rule="nonzero"/>
                                                    <use xlink:href="#gA8AB9A625F0D1567C6D9DDB8AEA747C4" x="93.75" y="0" fill="#59636e" fill-rule="nonzero"/>
                                                    <use xlink:href="#gA5A2F38C093B0637FD09CD519226A09A" x="99.609375" y="0" fill="#59636e" fill-rule="nonzero"/>
                                                    <use xlink:href="#gE0012936CC5F5757AD8F894FC05A4FF1" x="105.46875" y="0" fill="#59636e" fill-rule="nonzero"/>
                                                    <use xlink:href="#g2C15759D6E7CB5709283FB1A75F9F73" x="111.328125" y="0" fill="#59636e" fill-rule="nonzero"/>
                                                </g>
                                            </g>
                                        </g>
                                    </g>
                                </g>
                            </g>
                        </g>
                        <path class="typst-shape" fill="#ddf4ff" fill-rule="nonzero" stroke="#0969da" stroke-width="1.2" stroke-linecap="butt" stroke-linejoin="miter" stroke-miterlimit="4" transform="matrix(1 0 0 1 174.76562511417325 127.25390607874016)" d="M 0 0m 6 0 c -3.310704 0 -6 2.689296 -6 6 v 15.626953 c 0 3.3107033 2.689296 6 6 6 h 59.5625 c 3.310707 0 6 -2.6892967 6 -6 v -15.626953 c 0 -3.310704 -2.689293 -6 -6 -6 h -59.5625 Z "/>
                        <path class="typst-shape" fill="none" transform="matrix(1 0 0 1 184.76562505900512 137.25390617765748)" d="M 0 0h 51.5625 v 7.626953 h -51.5625 v -7.626953 Z "/>
                        <g class="typst-group">
                            <g>
                                <g class="typst-group" transform="matrix(1 0 0 1 184.76562501181104 137.2539061417323)">
                                    <g>
                                        <g class="typst-group">
                                            <g>
                                                <g class="typst-text" transform="matrix(1 0 0 -1 0.00000000005000072447069752 7.626953125)">
                                                    <use xlink:href="#g671276076474A6FD5E2B11E6BEE10ABC" x="0" y="0" fill="#033d8b" fill-rule="nonzero"/>
                                                    <use xlink:href="#g34A87EEC0912CBC85463B8C88B93607F" x="6.4453125" y="0" fill="#033d8b" fill-rule="nonzero"/>
                                                    <use xlink:href="#g3BFDD386CC015A8144C3AF06CF21CED0" x="12.890625" y="0" fill="#033d8b" fill-rule="nonzero"/>
                                                    <use xlink:href="#g66FE86C3D6200946DA59DA9A03B61B42" x="19.3359375" y="0" fill="#033d8b" fill-rule="nonzero"/>
                                                    <use xlink:href="#g3BFDD386CC015A8144C3AF06CF21CED0" x="25.78125" y="0" fill="#033d8b" fill-rule="nonzero"/>
                                                    <use xlink:href="#gA6AAF1EC543FC0A970359525B5995095" x="32.2265625" y="0" fill="#033d8b" fill-rule="nonzero"/>
                                                    <use xlink:href="#g3BFDD386CC015A8144C3AF06CF21CED0" x="38.671875" y="0" fill="#033d8b" fill-rule="nonzero"/>
                                                    <use xlink:href="#g1F9462F7007E7136C0B01D5529C92807" x="45.1171875" y="0" fill="#033d8b" fill-rule="nonzero"/>
                                                </g>
                                            </g>
                                        </g>
                                    </g>
                                </g>
                            </g>
                        </g>
                        <path class="typst-shape" fill="#ddf4ff" fill-rule="nonzero" stroke="#0969da" stroke-width="1.2" stroke-linecap="butt" stroke-linejoin="miter" stroke-miterlimit="4" transform="matrix(1 0 0 1 274.32812517322833 127.25390607874016)" d="M 0 0m 6 0 c -3.310704 0 -6 2.689296 -6 6 v 15.626953 c 0 3.3107033 2.689296 6 6 6 h 46.671875 c 3.3107033 0 6 -2.6892967 6 -6 v -15.626953 c 0 -3.310704 -2.6892967 -6 -6 -6 h -46.671875 Z "/>
                        <path class="typst-shape" fill="none" transform="matrix(1 0 0 1 284.3281250590051 137.25390617765748)" d="M 0 0h 38.671875 v 7.626953 h -38.671875 v -7.626953 Z "/>
                        <g class="typst-group">
                            <g>
                                <g class="typst-group" transform="matrix(1 0 0 1 284.32812495275596 137.2539061417323)">
                                    <g>
                                        <g class="typst-group">
                                            <g>
                                                <g class="typst-text" transform="matrix(1 0 0 -1 0.00000000005000072447069752 7.626953125)">
                                                    <use xlink:href="#gA6AAF1EC543FC0A970359525B5995095" x="0" y="0" fill="#033d8b" fill-rule="nonzero"/>
                                                    <use xlink:href="#g3BFDD386CC015A8144C3AF06CF21CED0" x="6.4453125" y="0" fill="#033d8b" fill-rule="nonzero"/>
                                                    <use xlink:href="#gA0024E0682C2E34A93303274D082FDF5" x="12.890625" y="0" fill="#033d8b" fill-rule="nonzero"/>
                                                    <use xlink:href="#g5BB53F752C619686E8CCA338658A8C48" x="19.3359375" y="0" fill="#033d8b" fill-rule="nonzero"/>
                                                    <use xlink:href="#g3886D710B7AABFD372757D2B30542D74" x="25.78125" y="0" fill="#033d8b" fill-rule="nonzero"/>
                                                    <use xlink:href="#g38E8B94295A507DC4B3FE4A7B71023D1" x="32.2265625" y="0" fill="#033d8b" fill-rule="nonzero"/>
                                                </g>
                                            </g>
                                        </g>
                                    </g>
                                </g>
                            </g>
                        </g>
                        <path class="typst-shape" fill="#ddf4ff" fill-rule="nonzero" stroke="#0969da" stroke-width="1.2" stroke-linecap="butt" stroke-linejoin="miter" stroke-miterlimit="4" transform="matrix(1 0 0 1 367.4453124192914 127.25390607874016)" d="M 0 0m 6 0 c -3.310704 0 -6 2.689296 -6 6 v 15.626953 c 0 3.3107033 2.689296 6 6 6 h 53.117188 c 3.3107033 0 6 -2.6892967 6 -6 v -15.626953 c 0 -3.310704 -2.6892967 -6 -6 -6 h -53.117188 Z "/>
                        <path class="typst-shape" fill="none" transform="matrix(1 0 0 1 377.4453125590052 137.25390617765748)" d="M 0 0h 45.117188 v 7.626953 h -45.117188 v -7.626953 Z "/>
                        <g class="typst-group">
                            <g>
                                <g class="typst-group" transform="matrix(1 0 0 1 377.44531248228344 137.2539061417323)">
                                    <g>
                                        <g class="typst-group">
                                            <g>
                                                <g class="typst-text" transform="matrix(1 0 0 -1 0.00000000005000072447069752 7.626953125)">
                                                    <use xlink:href="#gF06B0D376A11B19955968AFBD175C95E" x="0" y="0" fill="#033d8b" fill-rule="nonzero"/>
                                                    <use xlink:href="#g941F0E91703FDA4F8112D6D8DDFCDA38" x="6.4453125" y="0" fill="#033d8b" fill-rule="nonzero"/>
                                                    <use xlink:href="#g988934665B9D033BE8FC5C94E274603B" x="12.890625" y="0" fill="#033d8b" fill-rule="nonzero"/>
                                                    <use xlink:href="#g988934665B9D033BE8FC5C94E274603B" x="19.3359375" y="0" fill="#033d8b" fill-rule="nonzero"/>
                                                    <use xlink:href="#gA18CDFE1F62A00B4FEC5E44AFC386BDB" x="25.78125" y="0" fill="#033d8b" fill-rule="nonzero"/>
                                                    <use xlink:href="#g38E8B94295A507DC4B3FE4A7B71023D1" x="32.2265625" y="0" fill="#033d8b" fill-rule="nonzero"/>
                                                    <use xlink:href="#g941F0E91703FDA4F8112D6D8DDFCDA38" x="38.671875" y="0" fill="#033d8b" fill-rule="nonzero"/>
                                                </g>
                                            </g>
                                        </g>
                                    </g>
                                </g>
                            </g>
                        </g>
                    </g>
                </g>
            </g>
        </g>
    </g>
    <defs id="glyph">
        <symbol id="g9A3079D0EB07433B1F451EE264376FDF" overflow="visible">
            <path d="M 0 0m 4.6293945 0.77001953 l 0.20410156 -0.47314453 q -0.2644043 -0.16235352 -0.5566406 -0.27600098 q -0.29223633 -0.11364746 -0.6726074 -0.11364746 q -0.80249023 0 -1.1967773 0.3942871 q -0.35253906 0.35253906 -0.35253906 0.99731445 q 0 0.07885742 0.004638672 0.15771484 q 0.02319336 0.3479004 0.13452148 0.6772461 q 0.111328125 0.3293457 0.24584961 0.6401367 q 0.12988281 0.31079102 0.19946289 0.5983887 q 0.05102539 0.19018555 0.05102539 0.35253906 q 0 0.26904297 -0.1484375 0.44067383 q -0.2319336 0.26904297 -0.7885742 0.26904297 q -0.44067383 0 -0.84887695 -0.10668945 l -0.09741211 0.55200195 q 0.27368164 0.07885742 0.5473633 0.10437012 q 0.27368164 0.025512695 0.5473633 0.025512695 q 0.8442383 0 1.201416 -0.44067383 q 0.22265625 -0.2783203 0.22265625 -0.71899414 q 0 -0.25512695 -0.07885742 -0.57055664 q -0.07885742 -0.3293457 -0.19946289 -0.6123047 q -0.12524414 -0.28759766 -0.22961426 -0.56591797 q -0.10437012 -0.2783203 -0.12756348 -0.60302734 q -0.004638672 -0.064941406 -0.004638672 -0.12524414 q 0 -0.8859863 0.9741211 -0.8859863 q 0.27368164 0 0.48010254 0.064941406 q 0.2064209 0.064941406 0.48937988 0.21801758 Z m -1.1086426 5.218506 q -0.22265625 0 -0.3803711 0.15771484 q -0.15771484 0.15771484 -0.15771484 0.3803711 q 0 0.22265625 0.15771484 0.3803711 q 0.15771484 0.15771484 0.3803711 0.15771484 q 0.22265625 0 0.3803711 -0.15771484 q 0.15771484 -0.15771484 0.15771484 -0.3803711 q 0 -0.22265625 -0.15771484 -0.3803711 q -0.15771484 -0.15771484 -0.3803711 -0.15771484 Z "/>
        </symbol>
        <symbol id="g3A3BE159F5489E2307670563D268F7CD" overflow="visible">
            <path d="M 0 0m 1.5539551 4.916992 l -0.083496094 -0.89990234 h 0.064941406 q 0.27368164 0.9926758 1.0390625 0.9926758 q 0.7885742 0 0.76538086 -0.89990234 h 0.064941406 q 0.29223633 0.89990234 1.0668945 0.89990234 q 0.76538086 0 0.76538086 -0.8442383 q 0 -0.20410156 -0.041748047 -0.45458984 l -0.65405273 -3.7109375 h -0.6262207 l 0.6586914 3.7480469 q 0.027832031 0.1484375 0.027832031 0.2644043 q 0 0.44995117 -0.3803711 0.44995117 q -0.3618164 0 -0.64245605 -0.45458984 q -0.28063965 -0.45458984 -0.46154785 -1.3220215 l -0.4777832 -2.685791 h -0.5751953 l 0.6633301 3.7480469 q 0.027832031 0.1484375 0.027832031 0.2644043 q 0 0.44995117 -0.38500977 0.44995117 q -0.38964844 0 -0.6842041 -0.55200195 q -0.29455566 -0.55200195 -0.4847412 -1.6049805 v 0.013916016 l -0.40820313 -2.319336 h -0.6308594 l 0.86743164 4.916992 h 0.5241699 Z "/>
        </symbol>
        <symbol id="g4CD2688201906680AD6AD5790AF34B02" overflow="visible">
            <path d="M 0 0m 0.6772461 -2.133789 h -0.6262207 l 0.37573242 2.1384277 h -0.004638672 l 0.009277344 0.013916016 l 0.86279297 4.8984375 h 0.5288086 l -0.12524414 -1.2895508 l -0.009277344 -0.04638672 h 0.06958008 q 0.24121094 0.65405273 0.7421875 1.0413818 q 0.50097656 0.3873291 1.2663574 0.3873291 q 0.64941406 0 1.0112305 -0.40356445 q 0.3618164 -0.40356445 0.3618164 -1.1411133 q 0 -0.7607422 -0.25976563 -1.4078369 q -0.25976563 -0.6470947 -0.72595215 -1.1295166 q -0.46618652 -0.48242188 -1.0924072 -0.75146484 q -0.6262207 -0.26904297 -1.3591309 -0.26904297 q -0.3154297 0 -0.6586914 0.027832031 l -0.36645508 -2.0688477 Z m 0.47314453 2.6625977 q 0.28759766 -0.041748047 0.65405273 -0.041748047 q 0.77001953 0 1.3823242 0.37805176 q 0.6123047 0.37805176 0.9671631 1.0321045 q 0.3548584 0.65405273 0.3548584 1.4750977 q 0 0.50561523 -0.25280762 0.7816162 q -0.25280762 0.27600098 -0.70739746 0.27600098 q -0.4128418 0 -0.83496094 -0.25512695 q -0.42211914 -0.25512695 -0.77001953 -0.7955322 q -0.3479004 -0.5404053 -0.53808594 -1.4031982 l -0.25512695 -1.4472656 Z "/>
        </symbol>
        <symbol id="g9D776A698D8377F2861D00166CCB3E40" overflow="visible">
            <path d="M 0 0m 2.3286133 -0.09277344 q -0.79785156 0 -1.2454834 0.48706055 q -0.44763184 0.48706055 -0.44763184 1.3544922 q 0 1.5400391 0.68652344 2.4005127 q 0.68652344 0.86047363 1.9064941 0.86047363 q 0.79785156 0 1.2454834 -0.49865723 q 0.44763184 -0.49865723 0.44763184 -1.3892822 q 0 -1.5168457 -0.68652344 -2.3657227 q -0.68652344 -0.84887695 -1.9064941 -0.84887695 Z m 0.12060547 0.5751953 q 0.8720703 0 1.3591309 0.6772461 q 0.48706055 0.6772461 0.48706055 1.8833008 q 0 0.65405273 -0.30151367 1.0205078 q -0.30151367 0.36645508 -0.84887695 0.36645508 q -0.88134766 0 -1.3800049 -0.67492676 q -0.49865723 -0.67492676 -0.49865723 -1.8809814 q 0 -0.65405273 0.31079102 -1.0228271 q 0.31079102 -0.3687744 0.8720703 -0.3687744 Z "/>
        </symbol>
        <symbol id="gEECE9D2125BF48F2CBEEFB34C6DFCBB" overflow="visible">
            <path d="M 0 0m 0.009277344 0 l 0.10205078 0.56591797 h 1.201416 l 0.5241699 2.982666 q 0.027832031 0.15307617 0.027832031 0.28295898 q 0 0.60302734 -0.60302734 0.60302734 q -0.17626953 0 -0.3479004 -0.02319336 q -0.17163086 -0.02319336 -0.34326172 -0.07421875 l -0.07885742 0.5612793 q 0.19946289 0.064941406 0.41516113 0.088134766 q 0.21569824 0.02319336 0.44299316 0.02319336 q 0.6726074 0 0.94628906 -0.3479004 q 0.20410156 -0.25976563 0.20410156 -0.7236328 q 0 -0.16699219 -0.027832031 -0.35717773 h 0.06958008 q 0.17626953 0.68188477 0.6053467 1.0552979 q 0.42907715 0.3734131 1.0738525 0.3734131 q 0.71899414 0 1.0251465 -0.46850586 q 0.20874023 -0.3293457 0.20874023 -0.8581543 q 0 -0.22729492 -0.037109375 -0.4963379 h -0.6262207 q 0.02319336 0.19946289 0.02319336 0.36645508 q 0 0.3618164 -0.1159668 0.57055664 q -0.17626953 0.30615234 -0.6308594 0.30615234 q -0.41748047 0 -0.7816162 -0.24353027 q -0.36413574 -0.24353027 -0.64941406 -0.8048096 q -0.28527832 -0.5612793 -0.46618652 -1.5168457 l -0.2319336 -1.2988281 h 1.3823242 l -0.10205078 -0.56591797 h -3.209961 Z "/>
        </symbol>
        <symbol id="g384B68DE188FC27CDD202B502C59974D" overflow="visible">
            <path d="M 0 0m 3.1450195 -0.09277344 q -1.484375 0 -1.484375 1.4379883 q 0 0.30151367 0.041748047 0.5891113 q 0.041748047 0.28759766 0.12988281 0.7932129 l 0.28295898 1.6235352 h -1.3823242 l 0.09741211 0.56591797 h 1.3869629 l 0.25976563 1.4890137 h 0.6262207 l -0.25976563 -1.4890137 h 2.2451172 l -0.09741211 -0.56591797 h -2.2497559 l -0.28295898 -1.6235352 q -0.088134766 -0.4963379 -0.12988281 -0.76538086 q -0.041748047 -0.26904297 -0.041748047 -0.5566406 q 0 -0.91845703 0.94628906 -0.91845703 q 0.3618164 0 0.6378174 0.064941406 q 0.27600098 0.064941406 0.6517334 0.22729492 l 0.12060547 -0.5288086 q -0.32006836 -0.14379883 -0.6772461 -0.24353027 q -0.35717773 -0.099731445 -0.8210449 -0.099731445 Z "/>
        </symbol>
        <symbol id="g537F97E4E8462D1BCA7DBEE2797D1453" overflow="visible">
            <path d="M 0 0m 2.0595703 -0.09277344 q -1.0808105 0 -1.6745605 0.18554688 l 0.1809082 0.5891113 q 0.94628906 -0.19482422 1.5957031 -0.19482422 q 0.8535156 0 1.3220215 0.24353027 q 0.46850586 0.24353027 0.46850586 0.6842041 q 0 0.22729492 -0.16931152 0.39892578 q -0.16931152 0.17163086 -0.47546387 0.25976563 l -1.3730469 0.39892578 q -0.41748047 0.12060547 -0.6470947 0.37805176 q -0.22961426 0.2574463 -0.22961426 0.600708 q 0 0.7421875 0.6981201 1.1503906 q 0.6981201 0.40820313 1.9691162 0.40820313 q 0.3154297 0 0.6656494 -0.027832031 q 0.35021973 -0.027832031 0.6795654 -0.07885742 l -0.16235352 -0.55200195 q -0.79785156 0.07885742 -1.2988281 0.07885742 q -0.91381836 0 -1.4171143 -0.2388916 q -0.5032959 -0.2388916 -0.5032959 -0.6795654 q 0 -0.38500977 0.53344727 -0.53344727 l 1.3637695 -0.3803711 q 0.4777832 -0.12988281 0.7352295 -0.42907715 q 0.2574463 -0.29919434 0.2574463 -0.7166748 q 0 -0.7375488 -0.6586914 -1.1411133 q -0.6586914 -0.40356445 -1.8601074 -0.40356445 Z "/>
        </symbol>
        <symbol id="gCF983EFCF09B053D63D2B9EEF425E430" overflow="visible">
            <path d="M 0 0m 3.5449219 -0.09765625 q -1.5380859 0 -1.5380859 1.4794922 q 0 0.20019531 0.036621094 0.52978516 q 0.036621094 0.32958984 0.17822266 0.8618164 l 0.72753906 2.7783203 q 0.078125 0.28808594 0.078125 0.5078125 q 0 0.2783203 -0.12207031 0.44921875 q -0.21972656 0.3076172 -0.8935547 0.3076172 q -0.17578125 0 -0.3564453 -0.021972656 q -0.18066406 -0.021972656 -0.36132813 -0.075683594 l -0.1171875 0.5761719 q 0.24414063 0.068359375 0.49316406 0.09765625 q 0.24902344 0.029296875 0.49804688 0.029296875 q 0.9326172 0 1.3085938 -0.49316406 q 0.22460938 -0.29296875 0.22460938 -0.7519531 q 0 -0.3173828 -0.107421875 -0.7080078 l -0.7080078 -2.6953125 q -0.15136719 -0.56152344 -0.18554688 -0.88134766 q -0.034179688 -0.31982422 -0.034179688 -0.47607422 q -0.0048828125 -0.9033203 0.9716797 -0.9033203 q 0.49316406 0 1.0693359 0.3515625 l 0.22949219 -0.5371094 q -0.32714844 -0.20019531 -0.6665039 -0.3125 q -0.33935547 -0.11230469 -0.72509766 -0.11230469 Z "/>
        </symbol>
        <symbol id="gE0012936CC5F5757AD8F894FC05A4FF1" overflow="visible">
            <path d="M 0 0m 2.9199219 0.5126953 q 0.40039063 0 0.8569336 0.12939453 q 0.45654297 0.12939453 0.88134766 0.35888672 l 0.22460938 -0.52734375 q -0.4638672 -0.2685547 -0.99365234 -0.41992188 q -0.52978516 -0.15136719 -1.0131836 -0.15136719 q -0.9863281 0 -1.5356445 0.5541992 q -0.5493164 0.5541992 -0.5493164 1.5405273 q 0 1.015625 0.3491211 1.7480469 q 0.3491211 0.7324219 0.99609375 1.1303711 q 0.64697266 0.39794922 1.5405273 0.39794922 q 0.7519531 0 1.171875 -0.36132813 q 0.41992188 -0.36132813 0.41992188 -1.0058594 q 0 -0.95214844 -1.015625 -1.4550781 q -1.015625 -0.5029297 -2.8271484 -0.5419922 q 0.034179688 -0.6591797 0.4272461 -1.027832 q 0.3930664 -0.36865234 1.0668945 -0.36865234 Z m -1.4746094 1.953125 q 1.5185547 0.0390625 2.3413086 0.3930664 q 0.8227539 0.3540039 0.8227539 1.0180664 q 0 0.36621094 -0.26367188 0.5761719 q -0.26367188 0.20996094 -0.7421875 0.20996094 q -0.91308594 0 -1.4819336 -0.5834961 q -0.56884766 -0.5834961 -0.67626953 -1.6137695 Z "/>
        </symbol>
        <symbol id="gA5A2F38C093B0637FD09CD519226A09A" overflow="visible">
            <path d="M 0 0m 1.5185547 0 l -0.7080078 5.1757813 l 0.6738281 0.06347656 l 0.625 -4.6435547 h 0.087890625 q 1.2158203 0.859375 1.8603516 1.9995117 q 0.64453125 1.1401367 0.6982422 2.5805664 h 0.6640625 q -0.14648438 -3.3691406 -3.0419922 -5.1757813 h -0.859375 Z "/>
        </symbol>
        <symbol id="g8B678CACF5F8EC82749DA09DF0AAF807" overflow="visible">
            <path d="M 0 0m 0.5126953 0 l -0.07324219 0.7861328 q 2.0410156 1.0205078 3.1420898 2.1826172 q 1.1010742 1.1621094 1.1010742 2.3095703 q 0 0.5517578 -0.3125 0.8569336 q -0.3125 0.30517578 -0.8935547 0.30517578 q -0.45898438 0 -0.9765625 -0.234375 q -0.5175781 -0.234375 -0.9667969 -0.64453125 l -0.3564453 0.4248047 q 0.44921875 0.48339844 1.0864258 0.76416016 q 0.63720703 0.28076172 1.2963867 0.28076172 q 0.8642578 0 1.328125 -0.42236328 q 0.4638672 -0.42236328 0.4638672 -1.2036133 q 0 -1.3378906 -1.0473633 -2.5268555 q -1.0473633 -1.1889648 -2.9760742 -2.2094727 v -0.068359375 h 3.4960938 l -0.10253906 -0.60058594 h -4.2089844 Z "/>
        </symbol>
        <symbol id="gB5F235184AB9EA4D9F779552217E8E34" overflow="visible">
            <path d="M 0 0m 0.29785156 3.1640625 l 0.107421875 0.5957031 h 5.463867 l -0.107421875 -0.5957031 h -5.463867 Z "/>
        </symbol>
        <symbol id="gC94473E4C620F10546ED4D4C1DE8ECD7" overflow="visible">
            <path d="M 0 0m 1.6357422 5.1757813 l -0.087890625 -0.9472656 h 0.068359375 q 0.28808594 1.0449219 1.09375 1.0449219 q 0.8300781 0 0.80566406 -0.9472656 h 0.068359375 q 0.3076172 0.9472656 1.1230469 0.9472656 q 0.80566406 0 0.80566406 -0.8886719 q 0 -0.21484375 -0.043945313 -0.47851563 l -0.68847656 -3.90625 h -0.6591797 l 0.6933594 3.9453125 q 0.029296875 0.15625 0.029296875 0.2783203 q 0 0.4736328 -0.40039063 0.4736328 q -0.38085938 0 -0.67626953 -0.47851563 q -0.29541016 -0.47851563 -0.48583984 -1.3916016 l -0.5029297 -2.8271484 h -0.60546875 l 0.6982422 3.9453125 q 0.029296875 0.15625 0.029296875 0.2783203 q 0 0.4736328 -0.40527344 0.4736328 q -0.41015625 0 -0.72021484 -0.5810547 q -0.3100586 -0.5810547 -0.5102539 -1.6894531 v 0.0146484375 l -0.4296875 -2.4414063 h -0.6640625 l 0.91308594 5.1757813 h 0.5517578 Z "/>
        </symbol>
        <symbol id="g5EBFD0DBA43924C1445425BE3C249155" overflow="visible">
            <path d="M 0 0m 2.4511719 -0.09765625 q -0.83984375 0 -1.3110352 0.5126953 q -0.4711914 0.5126953 -0.4711914 1.4257813 q 0 1.6210938 0.72265625 2.5268555 q 0.72265625 0.9057617 2.006836 0.9057617 q 0.83984375 0 1.3110352 -0.52490234 q 0.4711914 -0.52490234 0.4711914 -1.4624023 q 0 -1.5966797 -0.72265625 -2.4902344 q -0.72265625 -0.8935547 -2.006836 -0.8935547 Z m 0.12695313 0.60546875 q 0.91796875 0 1.4306641 0.7128906 q 0.5126953 0.7128906 0.5126953 1.9824219 q 0 0.68847656 -0.3173828 1.0742188 q -0.3173828 0.3857422 -0.8935547 0.3857422 q -0.9277344 0 -1.4526367 -0.7104492 q -0.52490234 -0.7104492 -0.52490234 -1.9799805 q 0 -0.68847656 0.32714844 -1.0766602 q 0.32714844 -0.3881836 0.91796875 -0.3881836 Z "/>
        </symbol>
        <symbol id="gDDB5F0B037A4D680F673F078458979DF" overflow="visible">
            <path d="M 0 0m 1.8212891 -0.10253906 q -0.7080078 0 -1.0986328 0.38085938 q -0.390625 0.38085938 -0.390625 1.0742188 q 0 1.09375 0.5566406 1.9287109 q 0.5566406 0.83496094 1.5258789 1.3354492 q 0.9692383 0.5004883 2.2094727 0.59814453 l 0.13183594 0.76171875 q 0.034179688 0.19042969 0.034179688 0.33691406 q 0 0.1953125 -0.05859375 0.3173828 q -0.107421875 0.20996094 -0.44921875 0.20996094 q -0.12695313 0 -0.25878906 -0.012207031 q -0.13183594 -0.012207031 -0.25878906 -0.041503906 l -0.07324219 0.56152344 q 0.16113281 0.043945313 0.32226563 0.061035156 q 0.16113281 0.017089844 0.32226563 0.017089844 q 0.7080078 0 0.96191406 -0.3564453 q 0.16601563 -0.234375 0.16601563 -0.64453125 q 0 -0.20996094 -0.043945313 -0.46875 l -0.80566406 -4.5654297 q -0.029296875 -0.15136719 -0.029296875 -0.2734375 q 0 -0.5810547 0.61035156 -0.5810547 h 0.30273438 l -0.10253906 -0.5859375 h -0.28808594 q -0.71777344 0 -0.9326172 0.36621094 q -0.15136719 0.25390625 -0.15136719 0.64453125 q 0 0.17089844 0.029296875 0.37109375 h -0.087890625 q -0.3125 -0.67871094 -0.8666992 -1.0571289 q -0.5541992 -0.37841797 -1.2768555 -0.37841797 Z m 2.4560547 3.3447266 v 0.009765625 l 0.23925781 1.3476563 q -1.0546875 -0.1171875 -1.8481445 -0.5517578 q -0.79345703 -0.4345703 -1.2353516 -1.1132813 q -0.44189453 -0.67871094 -0.44189453 -1.5234375 q 0 -0.4296875 0.25878906 -0.6665039 q 0.25878906 -0.2368164 0.72753906 -0.2368164 q 0.87890625 0 1.4477539 0.6958008 q 0.56884766 0.6958008 0.8520508 2.0385742 Z "/>
        </symbol>
        <symbol id="g33A095036FF32BAABF39FB4195848DFC" overflow="visible">
            <path d="M 0 0m 0.009765625 0 l 0.107421875 0.5957031 h 1.2646484 l 0.5517578 3.1396484 q 0.029296875 0.16113281 0.029296875 0.29785156 q 0 0.6347656 -0.6347656 0.6347656 q -0.18554688 0 -0.36621094 -0.024414063 q -0.18066406 -0.024414063 -0.36132813 -0.078125 l -0.08300781 0.5908203 q 0.20996094 0.068359375 0.43701172 0.09277344 q 0.22705078 0.024414063 0.4663086 0.024414063 q 0.7080078 0 0.99609375 -0.36621094 q 0.21484375 -0.2734375 0.21484375 -0.76171875 q 0 -0.17578125 -0.029296875 -0.37597656 h 0.07324219 q 0.18554688 0.71777344 0.63720703 1.1108398 q 0.45166016 0.3930664 1.1303711 0.3930664 q 0.75683594 0 1.0791016 -0.49316406 q 0.21972656 -0.3466797 0.21972656 -0.9033203 q 0 -0.23925781 -0.0390625 -0.52246094 h -0.6591797 q 0.024414063 0.20996094 0.024414063 0.3857422 q 0 0.38085938 -0.12207031 0.60058594 q -0.18554688 0.32226563 -0.6640625 0.32226563 q -0.43945313 0 -0.8227539 -0.25634766 q -0.38330078 -0.25634766 -0.68359375 -0.84716797 q -0.30029297 -0.5908203 -0.49072266 -1.5966797 l -0.24414063 -1.3671875 h 1.4550781 l -0.107421875 -0.5957031 h -3.3789063 Z "/>
        </symbol>
        <symbol id="gA79D00E61467FB4B13726C0C1E862804" overflow="visible">
            <path d="M 0 0m 1.9824219 -0.10253906 q -0.72265625 0 -1.1035156 0.39794922 q -0.38085938 0.39794922 -0.38085938 1.1547852 q 0 0.79589844 0.26611328 1.7016602 q 0.26611328 0.9057617 0.75927734 2.121582 l 0.63964844 -0.12695313 q -0.5029297 -1.2939453 -0.75439453 -2.1582031 q -0.25146484 -0.8642578 -0.25146484 -1.4794922 q 0 -1.0009766 0.96191406 -1.0009766 q 0.8154297 0 1.3549805 0.7128906 q 0.5395508 0.7128906 0.8227539 2.1923828 l 0.3173828 1.7626953 h 0.6591797 l -0.6933594 -3.9111328 q -0.01953125 -0.1171875 -0.01953125 -0.20996094 q 0 -0.21972656 0.10253906 -0.33203125 q 0.14160156 -0.16601563 0.57128906 -0.18554688 h 0.13183594 l -0.107421875 -0.5859375 h -0.11230469 q -0.78125 0 -1.0107422 0.37597656 q -0.14160156 0.22460938 -0.14160156 0.57128906 q 0 0.21972656 0.05859375 0.48828125 h -0.09765625 q -0.18066406 -0.4248047 -0.4272461 -0.76171875 q -0.24658203 -0.33691406 -0.6176758 -0.53222656 q -0.37109375 -0.1953125 -0.9277344 -0.1953125 Z "/>
        </symbol>
        <symbol id="gBD467C115229D3E06CCD144C4091756F" overflow="visible">
            <path d="M 0 0m 0.44433594 0 l 0.91308594 5.1757813 h 0.5419922 l -0.13183594 -1.40625 h 0.078125 q 0.1953125 0.71777344 0.68603516 1.1108398 q 0.49072266 0.3930664 1.2133789 0.3930664 q 1.4111328 0 1.4111328 -1.3134766 q 0 -0.25390625 -0.053710938 -0.5566406 l -0.60058594 -3.4033203 h -0.6640625 l 0.60546875 3.4423828 q 0.034179688 0.20507813 0.034179688 0.37109375 q 0 0.34179688 -0.14160156 0.546875 q -0.21484375 0.30273438 -0.7861328 0.30273438 q -0.4638672 0 -0.8666992 -0.25878906 q -0.40283203 -0.25878906 -0.71777344 -0.8618164 q -0.3149414 -0.60302734 -0.52001953 -1.6235352 l -0.33691406 -1.9189453 h -0.6640625 Z "/>
        </symbol>
        <symbol id="g3C0EAE5578B2F211443C77A466DF37" overflow="visible">
            <path d="M 0 0m 3.3105469 -0.09765625 q -1.5625 0 -1.5625 1.5136719 q 0 0.3173828 0.043945313 0.6201172 q 0.043945313 0.30273438 0.13671875 0.83496094 l 0.29785156 1.7089844 h -1.4550781 l 0.10253906 0.5957031 h 1.4599609 l 0.2734375 1.5673828 h 0.6591797 l -0.2734375 -1.5673828 h 2.3632813 l -0.10253906 -0.5957031 h -2.368164 l -0.29785156 -1.7089844 q -0.09277344 -0.52246094 -0.13671875 -0.80566406 q -0.043945313 -0.28320313 -0.043945313 -0.5859375 q 0 -0.9667969 0.99609375 -0.9667969 q 0.38085938 0 0.6713867 0.068359375 q 0.29052734 0.068359375 0.68603516 0.23925781 l 0.12695313 -0.5566406 q -0.33691406 -0.15136719 -0.7128906 -0.25634766 q -0.37597656 -0.10498047 -0.8642578 -0.10498047 Z "/>
        </symbol>
        <symbol id="gA8AB9A625F0D1567C6D9DDB8AEA747C4" overflow="visible">
            <path d="M 0 0m 4.873047 0.8105469 l 0.21484375 -0.49804688 q -0.2783203 -0.17089844 -0.5859375 -0.29052734 q -0.3076172 -0.119628906 -0.7080078 -0.119628906 q -0.84472656 0 -1.2597656 0.41503906 q -0.37109375 0.37109375 -0.37109375 1.0498047 q 0 0.08300781 0.0048828125 0.16601563 q 0.024414063 0.36621094 0.14160156 0.7128906 q 0.1171875 0.3466797 0.25878906 0.6738281 q 0.13671875 0.32714844 0.20996094 0.6298828 q 0.053710938 0.20019531 0.053710938 0.37109375 q 0 0.28320313 -0.15625 0.4638672 q -0.24414063 0.28320313 -0.8300781 0.28320313 q -0.4638672 0 -0.8935547 -0.11230469 l -0.10253906 0.5810547 q 0.28808594 0.08300781 0.5761719 0.10986328 q 0.28808594 0.026855469 0.5761719 0.026855469 q 0.8886719 0 1.2646484 -0.4638672 q 0.234375 -0.29296875 0.234375 -0.75683594 q 0 -0.2685547 -0.08300781 -0.60058594 q -0.08300781 -0.3466797 -0.20996094 -0.64453125 q -0.13183594 -0.30273438 -0.24169922 -0.5957031 q -0.10986328 -0.29296875 -0.13427734 -0.6347656 q -0.0048828125 -0.068359375 -0.0048828125 -0.13183594 q 0 -0.9326172 1.0253906 -0.9326172 q 0.28808594 0 0.5053711 0.068359375 q 0.21728516 0.068359375 0.5151367 0.22949219 Z m -1.1669922 5.493164 q -0.234375 0 -0.40039063 0.16601563 q -0.16601563 0.16601563 -0.16601563 0.40039063 q 0 0.234375 0.16601563 0.40039063 q 0.16601563 0.16601563 0.40039063 0.16601563 q 0.234375 0 0.40039063 -0.16601563 q 0.16601563 -0.16601563 0.16601563 -0.40039063 q 0 -0.234375 -0.16601563 -0.40039063 q -0.16601563 -0.16601563 -0.40039063 -0.16601563 Z "/>
        </symbol>
        <symbol id="gF06B0D376A11B19955968AFBD175C95E" overflow="visible">
            <path d="M 0 0m 4.586914 0 v 4.055176 q 0 0.5908203 -0.38134766 0.5908203 q -0.45654297 0 -0.45654297 -0.6928711 v -3.953125 h -1.0366211 v 4.1625977 q 0 0.48339844 -0.38671875 0.48339844 q -0.46191406 0 -0.46191406 -0.6928711 v -3.953125 h -1.315918 v 5.6933594 h 1.1870117 l 0.07519531 -0.7089844 h 0.11279297 q 0.091308594 0.81640625 0.90771484 0.81640625 q 0.73046875 0 0.8808594 -0.81640625 h 0.11816406 q 0.037597656 0.36523438 0.28466797 0.5908203 q 0.24707031 0.22558594 0.6713867 0.22558594 q 0.5800781 0 0.84594727 -0.31689453 q 0.26586914 -0.31689453 0.26586914 -1.0258789 v -4.458008 h -1.3105469 Z "/>
        </symbol>
        <symbol id="g3BFDD386CC015A8144C3AF06CF21CED0" overflow="visible">
            <path d="M 0 0m 3.2226563 -0.107421875 q -1.2138672 0 -1.8798828 0.7734375 q -0.6660156 0.7734375 -0.6660156 2.180664 q 0 1.4125977 0.6660156 2.1833496 q 0.6660156 0.77075195 1.8798828 0.77075195 q 1.2138672 0 1.8798828 -0.77075195 q 0.6660156 -0.77075195 0.6660156 -2.1833496 q 0 -1.4072266 -0.6660156 -2.180664 q -0.6660156 -0.7734375 -1.8798828 -0.7734375 Z m 0 1.2353516 q 0.56396484 0 0.87280273 0.44848633 q 0.3088379 0.44848633 0.3088379 1.2702637 q 0 0.82714844 -0.3088379 1.2729492 q -0.3088379 0.44580078 -0.87280273 0.44580078 q -0.56396484 0 -0.87280273 -0.44580078 q -0.3088379 -0.44580078 -0.3088379 -1.2729492 q 0 -0.82177734 0.3088379 -1.2702637 q 0.3088379 -0.44848633 0.87280273 -0.44848633 Z "/>
        </symbol>
        <symbol id="gBA4B98411E028F457BC3718924D576E4" overflow="visible">
            <path d="M 0 0m 2.7124023 -0.107421875 q -1.0849609 0 -1.6677246 0.7519531 q -0.5827637 0.7519531 -0.5827637 2.175293 q 0 1.4448242 0.5854492 2.2128906 q 0.5854492 0.7680664 1.6704102 0.7680664 q 1.2514648 0 1.4233398 -1.1386719 h 0.12890625 v 3.3945313 h 1.3266602 v -8.056641 l -1.1547852 -0.053710938 l -0.1665039 1.0849609 h -0.11816406 q -0.06982422 -0.55322266 -0.44580078 -0.84594727 q -0.37597656 -0.2927246 -0.99902344 -0.2927246 Z m 1.5576172 2.8735352 v 0.15576172 q 0 1.6704102 -1.2138672 1.6704102 q -0.6069336 0 -0.9291992 -0.45654297 q -0.32226563 -0.45654297 -0.32226563 -1.315918 q 0 -1.71875 1.2514648 -1.71875 q 0.63916016 0 0.9265137 0.40820313 q 0.28735352 0.40820313 0.28735352 1.2568359 Z "/>
        </symbol>
        <symbol id="g941F0E91703FDA4F8112D6D8DDFCDA38" overflow="visible">
            <path d="M 0 0m 3.6899414 -0.107421875 q -1.4716797 0 -2.269287 0.76538086 q -0.7976074 0.76538086 -0.7976074 2.199463 q 0 1.3964844 0.67944336 2.1699219 q 0.67944336 0.7734375 1.9147949 0.7734375 q 1.1923828 0 1.8449707 -0.7089844 q 0.6525879 -0.7089844 0.6525879 -2.057129 q 0 -0.38671875 -0.032226563 -0.73583984 h -3.7060547 q 0.32226563 -1.1816406 1.8422852 -1.1816406 q 0.37597656 0 0.7385254 0.040283203 q 0.36254883 0.040283203 0.7385254 0.11010742 l 0.13964844 -1.2246094 q -0.5317383 -0.09667969 -0.9694824 -0.123535156 q -0.43774414 -0.026855469 -0.77612305 -0.026855469 Z m -1.7724609 3.3623047 h 2.5297852 q 0 0.65527344 -0.32226563 1.001709 q -0.32226563 0.34643555 -0.89697266 0.34643555 q -0.55859375 0 -0.89697266 -0.3491211 q -0.3383789 -0.3491211 -0.41357422 -0.99902344 Z "/>
        </symbol>
        <symbol id="g1F9462F7007E7136C0B01D5529C92807" overflow="visible">
            <path d="M 0 0m 4.071289 -0.107421875 q -1.0419922 0 -1.5012207 0.56933594 q -0.45922852 0.56933594 -0.45922852 1.8208008 v 4.570801 h -1.6381836 v 1.203125 h 2.9594727 v -5.720215 q 0 -0.5908203 0.19604492 -0.859375 q 0.19604492 -0.2685547 0.87280273 -0.2685547 q 0.46191406 0 1.1708984 0.20410156 l 0.15039063 -1.2944336 q -0.44580078 -0.11816406 -0.859375 -0.171875 q -0.41357422 -0.053710938 -0.89160156 -0.053710938 Z "/>
        </symbol>
        <symbol id="g988934665B9D033BE8FC5C94E274603B" overflow="visible">
            <path d="M 0 0m 2.7822266 -0.107421875 q -1.2783203 0 -1.9980469 0.16113281 l 0.15576172 1.2460938 q 0.62841797 -0.0859375 1.0795898 -0.12890625 q 0.45117188 -0.04296875 0.7626953 -0.04296875 q 0.7841797 0 1.1359863 0.12890625 q 0.35180664 0.12890625 0.35180664 0.40820313 q 0 0.18261719 -0.10205078 0.27661133 q -0.10205078 0.09399414 -0.32226563 0.15307617 l -1.6381836 0.45654297 q -0.6821289 0.18798828 -1.0097656 0.51831055 q -0.32763672 0.33032227 -0.32763672 0.93188477 q 0 0.9291992 0.7492676 1.3642578 q 0.7492676 0.4350586 2.3337402 0.4350586 q 0.38134766 0 0.7626953 -0.026855469 q 0.38134766 -0.026855469 0.7949219 -0.080566406 l -0.13964844 -1.203125 q -0.46728516 0.04296875 -0.8190918 0.05908203 q -0.35180664 0.016113281 -0.6311035 0.016113281 q -0.89160156 0 -1.2890625 -0.123535156 q -0.39746094 -0.123535156 -0.39746094 -0.39746094 q 0 -0.18261719 0.11816406 -0.2685547 q 0.11816406 -0.0859375 0.36523438 -0.15039063 l 1.375 -0.37060547 q 0.80029297 -0.20410156 1.1843262 -0.57470703 q 0.3840332 -0.37060547 0.3840332 -1.0097656 q 0 -0.90771484 -0.70092773 -1.3427734 q -0.70092773 -0.4350586 -2.1779785 -0.4350586 Z "/>
        </symbol>
        <symbol id="g66FE86C3D6200946DA59DA9A03B61B42" overflow="visible">
            <path d="M 0 0m 4.361328 -0.107421875 q -1.4072266 0 -2.027588 0.56933594 q -0.6203613 0.56933594 -0.6203613 1.8208008 v 2.2075195 h -1.3911133 v 1.203125 h 1.3911133 v 1.71875 h 1.3212891 v -1.71875 h 2.5512695 v -1.203125 h -2.5512695 v -2.1000977 q 0 -0.6660156 0.33569336 -0.9641113 q 0.33569336 -0.2980957 1.0983887 -0.2980957 q 0.2524414 0 0.54248047 0.029541016 q 0.29003906 0.029541016 0.66064453 0.07788086 l 0.12890625 -1.2138672 q -0.35986328 -0.064453125 -0.7036133 -0.09667969 q -0.34375 -0.032226563 -0.73583984 -0.032226563 Z "/>
        </symbol>
        <symbol id="g34A87EEC0912CBC85463B8C88B93607F" overflow="visible">
            <path d="M 0 0m 2.927246 2.4492188 v -1.2998047 h 1.3588867 v -1.1494141 h -3.9101563 v 1.1494141 h 1.2299805 v 3.3945313 h -1.0151367 v 1.1494141 h 2.121582 l 0.1772461 -1.3535156 h 0.1772461 q 0.0859375 1.4609375 1.4985352 1.4609375 q 1.6757813 0 1.6757813 -2.2451172 h -1.3212891 q 0 0.55322266 -0.18530273 0.7949219 q -0.18530273 0.24169922 -0.59350586 0.24169922 q -0.6069336 0 -0.9104004 -0.55859375 q -0.3034668 -0.55859375 -0.3034668 -1.5844727 Z "/>
        </symbol>
        <symbol id="gA18CDFE1F62A00B4FEC5E44AFC386BDB" overflow="visible">
            <path d="M 0 0m 4.3183594 -0.053710938 l -0.07519531 1.2568359 h -0.123535156 q -0.06982422 -0.65527344 -0.5344238 -0.98291016 q -0.4645996 -0.32763672 -1.2272949 -0.32763672 q -0.90234375 0 -1.3991699 0.43774414 q -0.49682617 0.43774414 -0.49682617 1.2487793 q 0 0.9345703 0.6660156 1.434082 q 0.6660156 0.49951172 1.8852539 0.49951172 q 0.64990234 0 1.1279297 -0.10205078 v 0.11279297 q 0 0.49951172 -0.39208984 0.7331543 q -0.39208984 0.23364258 -1.1708984 0.25512695 l -1.4179688 0.037597656 l 0.107421875 1.1977539 l 1.203125 -0.016113281 q 1.4931641 -0.021484375 2.2182617 -0.60961914 q 0.72509766 -0.58813477 0.72509766 -1.7160645 v -2.2128906 l 0.859375 -0.11816406 v -1.0742188 l -1.9550781 -0.053710938 Z m -0.1772461 2.3955078 q -0.29003906 0.053710938 -0.5505371 0.061767578 q -0.26049805 0.008056641 -0.545166 0.008056641 q -1.2675781 0 -1.2675781 -0.74658203 q 0 -0.6713867 0.8701172 -0.6713867 q 0.49951172 0 0.829834 0.17993164 q 0.33032227 0.17993164 0.49682617 0.45654297 q 0.1665039 0.27661133 0.1665039 0.5720215 v 0.13964844 Z "/>
        </symbol>
        <symbol id="g3886D710B7AABFD372757D2B30542D74" overflow="visible">
            <path d="M 0 0m 0.80566406 0 v 1.203125 h 2.1323242 v 3.2871094 h -1.8100586 v 1.203125 h 3.1313477 v -4.4902344 h 1.7133789 v -1.203125 h -5.166992 Z m 2.7392578 6.5151367 q -0.38134766 0 -0.62841797 0.24707031 q -0.24707031 0.24707031 -0.24707031 0.62841797 q 0 0.38134766 0.24707031 0.62841797 q 0.24707031 0.24707031 0.62841797 0.24707031 q 0.38134766 0 0.62841797 -0.24707031 q 0.24707031 -0.24707031 0.24707031 -0.62841797 q 0 -0.38134766 -0.24707031 -0.62841797 q -0.24707031 -0.24707031 -0.62841797 -0.24707031 Z "/>
        </symbol>
        <symbol id="gA0024E0682C2E34A93303274D082FDF5" overflow="visible">
            <path d="M 0 0m 4.2700195 0 v 3.491211 q 0 0.515625 -0.23364258 0.7949219 q -0.23364258 0.27929688 -0.6633301 0.27929688 q -1.1977539 0 -1.1977539 -1.5791016 v -2.9863281 h -1.3266602 v 5.6933594 h 1.1923828 l 0.11279297 -1.03125 h 0.15039063 q 0.06982422 0.57470703 0.40283203 0.85668945 q 0.3330078 0.28198242 0.99902344 0.28198242 q 0.90234375 0 1.3964844 -0.54785156 q 0.49414063 -0.54785156 0.49414063 -1.546875 v -3.7060547 h -1.3266602 Z "/>
        </symbol>
        <symbol id="g38E8B94295A507DC4B3FE4A7B71023D1" overflow="visible">
            <path d="M 0 0m 0.97753906 -2.5673828 l -0.053710938 1.1762695 l 1.8261719 0.053710938 q 0.7949219 0.026855469 1.1547852 0.44311523 q 0.35986328 0.41625977 0.36523438 1.2272949 v 0.6982422 h -0.11279297 q -0.06982422 -0.55322266 -0.44580078 -0.84594727 q -0.37597656 -0.2927246 -0.99902344 -0.2927246 q -1.0849609 0 -1.6677246 0.7519531 q -0.5827637 0.7519531 -0.5827637 2.175293 q 0 1.4448242 0.5854492 2.2128906 q 0.5854492 0.7680664 1.6704102 0.7680664 q 1.2944336 0 1.4770508 -1.1386719 h 0.091308594 l 0.091308594 1.03125 h 1.2192383 v -5.1884766 q 0 -1.5200195 -0.7062988 -2.2424316 q -0.7062988 -0.7224121 -2.2478027 -0.77612305 l -1.6650391 -0.053710938 Z m 3.2924805 5.489258 q 0 1.6704102 -1.2138672 1.6704102 q -0.6069336 0 -0.9291992 -0.45654297 q -0.32226563 -0.45654297 -0.32226563 -1.315918 q 0 -1.71875 1.2514648 -1.71875 q 0.63916016 0 0.9265137 0.40820313 q 0.28735352 0.40820313 0.28735352 1.2568359 v 0.15576172 Z "/>
        </symbol>
        <symbol id="g6BD92D1792004AD49C519ED276059C4" overflow="visible">
            <path d="M 0 0m 0.45410156 0 l 0.10253906 0.60058594 h 1.8359375 l 0.99121094 5.649414 l -1.8310547 -0.56152344 l 0.1171875 0.6591797 l 1.8359375 0.5859375 h 0.6591797 l -1.1132813 -6.333008 h 1.6552734 l -0.10253906 -0.60058594 h -4.1503906 Z "/>
        </symbol>
        <symbol id="gBF014681FD329ADABB4EA513DD2271D8" overflow="visible">
            <path d="M 0 0m 0.7128906 -2.2460938 h -0.6591797 l 0.3955078 2.2509766 h -0.0048828125 l 0.009765625 0.0146484375 l 0.9082031 5.15625 h 0.5566406 l -0.13183594 -1.3574219 l -0.009765625 -0.048828125 h 0.07324219 q 0.25390625 0.68847656 0.78125 1.0961914 q 0.52734375 0.40771484 1.3330078 0.40771484 q 0.68359375 0 1.0644531 -0.4248047 q 0.38085938 -0.4248047 0.38085938 -1.2011719 q 0 -0.80078125 -0.2734375 -1.4819336 q -0.2734375 -0.68115234 -0.76416016 -1.1889648 q -0.49072266 -0.5078125 -1.1499023 -0.7910156 q -0.6591797 -0.28320313 -1.4306641 -0.28320313 q -0.33203125 0 -0.6933594 0.029296875 l -0.3857422 -2.1777344 Z m 0.49804688 2.8027344 q 0.30273438 -0.043945313 0.68847656 -0.043945313 q 0.8105469 0 1.4550781 0.39794922 q 0.64453125 0.39794922 1.0180664 1.0864258 q 0.37353516 0.68847656 0.37353516 1.5527344 q 0 0.53222656 -0.26611328 0.8227539 q -0.26611328 0.29052734 -0.7446289 0.29052734 q -0.4345703 0 -0.87890625 -0.2685547 q -0.44433594 -0.2685547 -0.8105469 -0.83740234 q -0.36621094 -0.56884766 -0.56640625 -1.4770508 l -0.2685547 -1.5234375 Z "/>
        </symbol>
        <symbol id="g2C15759D6E7CB5709283FB1A75F9F73" overflow="visible">
            <path d="M 0 0m 2.1679688 -0.09765625 q -1.1376953 0 -1.7626953 0.1953125 l 0.19042969 0.6201172 q 0.99609375 -0.20507813 1.6796875 -0.20507813 q 0.8984375 0 1.3916016 0.25634766 q 0.49316406 0.25634766 0.49316406 0.72021484 q 0 0.23925781 -0.17822266 0.41992188 q -0.17822266 0.18066406 -0.5004883 0.2734375 l -1.4453125 0.41992188 q -0.43945313 0.12695313 -0.68115234 0.39794922 q -0.24169922 0.2709961 -0.24169922 0.6323242 q 0 0.78125 0.7348633 1.2109375 q 0.7348633 0.4296875 2.072754 0.4296875 q 0.33203125 0 0.7006836 -0.029296875 q 0.36865234 -0.029296875 0.71533203 -0.08300781 l -0.17089844 -0.5810547 q -0.83984375 0.08300781 -1.3671875 0.08300781 q -0.96191406 0 -1.4916992 -0.25146484 q -0.52978516 -0.25146484 -0.52978516 -0.71533203 q 0 -0.40527344 0.56152344 -0.56152344 l 1.4355469 -0.40039063 q 0.5029297 -0.13671875 0.7739258 -0.45166016 q 0.2709961 -0.3149414 0.2709961 -0.75439453 q 0 -0.7763672 -0.6933594 -1.2011719 q -0.6933594 -0.4248047 -1.9580078 -0.4248047 Z "/>
        </symbol>
        <symbol id="g12F9DDDCE2452318C1B4DC9B36075B66" overflow="visible">
            <path d="M 0 0m 3.8378906 0 l 0.60546875 3.4423828 q 0.034179688 0.20507813 0.034179688 0.37109375 q 0 0.34179688 -0.14160156 0.546875 q -0.21484375 0.30273438 -0.7861328 0.30273438 q -0.47851563 0 -0.8959961 -0.28076172 q -0.41748047 -0.28076172 -0.7397461 -0.9350586 q -0.32226563 -0.6542969 -0.52246094 -1.7724609 l 0.0146484375 0.107421875 l -0.3173828 -1.7822266 h -0.6640625 l 1.0498047 5.9570313 q 0.034179688 0.1953125 0.034179688 0.34179688 q 0 0.1953125 -0.05859375 0.3125 q -0.107421875 0.20996094 -0.44921875 0.20996094 q -0.12695313 0 -0.25634766 -0.012207031 q -0.12939453 -0.012207031 -0.25634766 -0.041503906 l -0.07324219 0.5810547 q 0.16113281 0.043945313 0.32226563 0.061035156 q 0.16113281 0.017089844 0.32226563 0.017089844 q 0.7080078 0 0.96191406 -0.3564453 q 0.16601563 -0.234375 0.16601563 -0.64453125 q 0 -0.20996094 -0.043945313 -0.46875 l -0.3857422 -2.1875 h 0.08300781 q 0.1953125 0.71777344 0.68603516 1.1108398 q 0.49072266 0.3930664 1.2182617 0.3930664 q 1.4111328 0 1.4111328 -1.3134766 q 0 -0.25390625 -0.053710938 -0.5566406 l -0.60058594 -3.4033203 h -0.6640625 Z "/>
        </symbol>
        <symbol id="g4CE31182D788FB38E94C1F1A79B13005" overflow="visible">
            <path d="M 0 0m 1.7773438 -0.10253906 q -0.6933594 0 -1.0742188 0.38085938 q -0.38085938 0.38085938 -0.38085938 1.0742188 q 0 0.87890625 0.35888672 1.5942383 q 0.35888672 0.71533203 1.0083008 1.2231445 q 0.64941406 0.5078125 1.5234375 0.78125 q 0.87402344 0.2734375 1.8994141 0.2734375 h 0.09277344 l -0.68359375 -3.8671875 q -0.024414063 -0.13183594 -0.024414063 -0.24414063 q 0 -0.5761719 0.6201172 -0.5761719 h 0.29296875 l -0.09765625 -0.5859375 h -0.2685547 q -0.6933594 0 -0.9375 0.32714844 q -0.17578125 0.22460938 -0.17578125 0.64941406 q 0 0.18554688 0.034179688 0.40527344 h -0.087890625 q -0.32226563 -0.6933594 -0.8666992 -1.0644531 q -0.5444336 -0.37109375 -1.2329102 -0.37109375 Z m 0.15136719 0.61035156 q 0.8105469 0 1.4160156 0.68359375 q 0.60546875 0.68359375 0.8251953 1.9335938 l 0.25878906 1.4550781 q -1.0302734 -0.11230469 -1.8066406 -0.5444336 q -0.7763672 -0.4321289 -1.2060547 -1.105957 q -0.4296875 -0.6738281 -0.4296875 -1.5185547 q 0 -0.4296875 0.24902344 -0.6665039 q 0.24902344 -0.2368164 0.6933594 -0.2368164 Z "/>
        </symbol>
        <symbol id="g671276076474A6FD5E2B11E6BEE10ABC" overflow="visible">
            <path d="M 0 0m 0.8486328 -2.4707031 v 8.1640625 h 1.2192383 l 0.091308594 -1.03125 h 0.091308594 q 0.18261719 1.1386719 1.4770508 1.1386719 q 1.090332 0 1.6730957 -0.7680664 q 0.5827637 -0.7680664 0.5827637 -2.2128906 q 0 -1.4233398 -0.5827637 -2.175293 q -0.5827637 -0.7519531 -1.6677246 -0.7519531 q -0.6176758 0 -0.99365234 0.2927246 q -0.37597656 0.2927246 -0.45117188 0.84594727 h -0.11279297 v -3.5019531 h -1.3266602 Z m 1.3266602 5.2368164 q 0 -0.8486328 0.28735352 -1.2568359 q 0.28735352 -0.40820313 0.9265137 -0.40820313 q 1.2514648 0 1.2514648 1.71875 q 0 0.859375 -0.32226563 1.315918 q -0.32226563 0.45654297 -0.9291992 0.45654297 q -1.2138672 0 -1.2138672 -1.6704102 v -0.15576172 Z "/>
        </symbol>
        <symbol id="g9AE0048DA25A54C07C35396690D8968B" overflow="visible">
            <path d="M 0 0m 2.4707031 -0.09765625 q -0.84472656 0 -1.3183594 0.5932617 q -0.4736328 0.5932617 -0.4736328 1.6479492 q 0 1.5380859 0.36132813 2.631836 q 0.36132813 1.09375 1.0424805 1.6748047 q 0.68115234 0.5810547 1.6381836 0.5810547 q 0.83984375 0 1.3085938 -0.5786133 q 0.46875 -0.5786133 0.46875 -1.6088867 q 0 -1.5527344 -0.35888672 -2.6586914 q -0.35888672 -1.105957 -1.0375977 -1.6943359 q -0.67871094 -0.5883789 -1.6308594 -0.5883789 Z m 0.107421875 0.5908203 q 0.7128906 0 1.2182617 0.5126953 q 0.5053711 0.5126953 0.7739258 1.4746094 q 0.2685547 0.96191406 0.2685547 2.3095703 q 0 0.7763672 -0.32226563 1.2133789 q -0.32226563 0.43701172 -0.8935547 0.43701172 q -0.71777344 0 -1.2280273 -0.5078125 q -0.5102539 -0.5078125 -0.7836914 -1.4648438 q -0.2734375 -0.95703125 -0.2734375 -2.2998047 q 0 -0.7861328 0.32714844 -1.2304688 q 0.32714844 -0.44433594 0.91308594 -0.44433594 Z m 0.5029297 2.3535156 q -0.24414063 0 -0.40771484 0.16357422 q -0.16357422 0.16357422 -0.16357422 0.40283203 q 0 0.24414063 0.16357422 0.40771484 q 0.16357422 0.16357422 0.40771484 0.16357422 q 0.24414063 0 0.40527344 -0.16357422 q 0.16113281 -0.16357422 0.16113281 -0.40771484 q 0 -0.23925781 -0.16113281 -0.40283203 q -0.16113281 -0.16357422 -0.40527344 -0.16357422 Z "/>
        </symbol>
        <symbol id="gA6AAF1EC543FC0A970359525B5995095" overflow="visible">
            <path d="M 0 0m 3.840332 -0.107421875 q -1.5146484 0 -2.3391113 0.76538086 q -0.8244629 0.76538086 -0.8244629 2.199463 q 0 1.3964844 0.7626953 2.1699219 q 0.7626953 0.7734375 2.180664 0.7734375 q 0.8647461 0 1.4770508 -0.32763672 q 0.6123047 -0.32763672 0.8754883 -0.9345703 l -0.98291016 -0.7680664 q -0.23632813 0.38134766 -0.60424805 0.58813477 q -0.36791992 0.20678711 -0.8083496 0.20678711 q -0.73046875 0 -1.1386719 -0.4296875 q -0.40820313 -0.4296875 -0.40820313 -1.2246094 q 0 -0.8701172 0.5048828 -1.3266602 q 0.5048828 -0.45654297 1.434082 -0.45654297 q 0.39208984 0 0.78149414 0.037597656 q 0.3894043 0.037597656 0.76000977 0.10205078 l 0.13964844 -1.2138672 q -0.4404297 -0.09667969 -0.90234375 -0.12890625 q -0.46191406 -0.032226563 -0.90771484 -0.032226563 Z "/>
        </symbol>
        <symbol id="g5BB53F752C619686E8CCA338658A8C48" overflow="visible">
            <path d="M 0 0m 2.067871 0 v 3.3623047 h -1.7563477 v 1.1494141 h 1.7563477 v 0.6982422 q 0 2.9541016 2.7875977 2.9541016 q 0.64453125 0 1.2353516 -0.107421875 l -0.12890625 -1.203125 q -0.3491211 0.04296875 -0.6176758 0.05908203 q -0.2685547 0.016113281 -0.5209961 0.016113281 q -1.434082 0 -1.434082 -1.6650391 v -0.7519531 h 2.293457 v -1.1494141 h -2.293457 v -3.3623047 h -1.3212891 Z "/>
        </symbol>
    </defs>
</svg>
