<svg class="typst-doc" viewBox="0 0 750.1875000004 70.173828125" xmlns="http://www.w3.org/2000/svg" xmlns:xlink="http://www.w3.org/1999/xlink" xmlns:h5="http://www.w3.org/1999/xhtml">
    <path class="typst-shape" fill="#0d1117" fill-rule="nonzero" d="M 0 0v 70.17383 h 750.1875 v -70.17383 Z "/>
    <g>
        <g class="typst-group">
            <g>
                <g class="typst-group" transform="matrix(1 0 0 1 20 20)">
                    <g>
                        <g class="typst-text" transform="matrix(1 0 0 -1 37.25781250005 6.93359375)">
                            <use xlink:href="#g30AB84D2E55B358E4B715A429A54F0E7" x="0" y="0" fill="#9198a1" fill-rule="nonzero"/>
                            <use xlink:href="#gFB0F840E5A8BF49BEC8BE6A345CB4AB" x="5.859375" y="0" fill="#9198a1" fill-rule="nonzero"/>
                            <use xlink:href="#g98FFEDE6332A784EA8065E2CF72B1A4E" x="11.71875" y="0" fill="#9198a1" fill-rule="nonzero"/>
                            <use xlink:href="#g76A692940D3DC8CAF9248006D832662E" x="17.578125" y="0" fill="#9198a1" fill-rule="nonzero"/>
                            <use xlink:href="#g994D6276079A0DA3219124B0E5A6FAD5" x="23.4375" y="0" fill="#9198a1" fill-rule="nonzero"/>
                            <use xlink:href="#gFB0F840E5A8BF49BEC8BE6A345CB4AB" x="29.296875" y="0" fill="#9198a1" fill-rule="nonzero"/>
                            <use xlink:href="#gEE580F01DECA13C0B6FB100144D7104D" x="35.15625" y="0" fill="#9198a1" fill-rule="nonzero"/>
                            <use xlink:href="#gCD917C1579BD21D5281359184DEEBCFF" x="46.875" y="0" fill="#9198a1" fill-rule="nonzero"/>
                            <use xlink:href="#g36065F6A4FFDE5CDB4274DF4D8DF9F1" x="52.734375" y="0" fill="#9198a1" fill-rule="nonzero"/>
                            <use xlink:href="#g5810FE8677DA0F5C1E82325733F92E62" x="58.59375" y="0" fill="#9198a1" fill-rule="nonzero"/>
                            <use xlink:href="#g5810FE8677DA0F5C1E82325733F92E62" x="64.453125" y="0" fill="#9198a1" fill-rule="nonzero"/>
                            <use xlink:href="#g994D6276079A0DA3219124B0E5A6FAD5" x="70.3125" y="0" fill="#9198a1" fill-rule="nonzero"/>
                            <use xlink:href="#g98FFEDE6332A784EA8065E2CF72B1A4E" x="76.171875" y="0" fill="#9198a1" fill-rule="nonzero"/>
                        </g>
                        <g class="typst-group" transform="matrix(1 0 0 1 0 11.93359375)">
                            <g>
                                <g class="typst-group">
                                    <g>
                                        <path class="typst-shape" fill="none" stroke="#3fb950" stroke-width="1.2" stroke-linecap="round" stroke-linejoin="miter" stroke-miterlimit="4" transform="matrix(1 0 0 1 27.197349605174246 9.1201171875)" d="M 0 0h 102.152176 "/>
                                        <path class="typst-shape" fill="#3fb950" fill-rule="nonzero" transform="matrix(1 0 0 1 72.63528250938379 5.015875907394473)" d="M 0 0m 0 8.208483 l 11.276311 -4.1042414 l -11.276311 -4.1042414 "/>
                                        <path class="typst-shape" fill="none" d="M 0 0h 17.273438 v 18.240234 h -17.273438 v -18.240234 Z "/>
                                        <g class="typst-group">
                                            <g>
                                                <g class="typst-group" transform="matrix(1 0 0 1 -0.000000005855511295435928 -0.00000007234252090109823)">
                                                    <g>
                                                        <g class="typst-group">
                                                            <g>
                                                                <g class="typst-group" transform="matrix(1 0 0 1 0.00000000005000072447069752 0)">
                                                                    <g>
                                                                        <path class="typst-shape" fill="#051d4d" fill-rule="nonzero" d="M 0 0m 0 5.4 c 0 -2.9823377 2.4176624 -5.4 5.4 -5.4 h 6.473438 c 2.982337 0 5.3999996 2.4176624 5.3999996 5.4 v 7.4402347 c 0 2.982337 -2.4176626 5.3999996 -5.3999996 5.3999996 h -6.473438 c -2.9823377 0 -5.4 -2.4176626 -5.4 -5.3999996 Z "/>
                                                                        <path class="typst-shape" fill="none" stroke="#388bfd" stroke-width="1.2" stroke-linecap="butt" stroke-linejoin="miter" stroke-miterlimit="4" d="M 0 0m 5.4 0 h 6.473438 c 2.982337 0 5.3999996 2.4176624 5.3999996 5.4 v 7.4402347 c 0 2.982337 -2.4176626 5.3999996 -5.3999996 5.3999996 h -6.473438 c -2.9823377 0 -5.4 -2.4176626 -5.4 -5.3999996 v -7.4402347 c 0 -2.9823377 2.4176624 -5.4 5.4 -5.4 "/>
                                                                        <g class="typst-text" transform="matrix(1 0 0 -1 6 12.240234375)">
                                                                            <use xlink:href="#gCC3398A96F9AF8005ADB726061509A1" x="0" y="0" fill="#f0f6fc" fill-rule="nonzero"/>
                                                                        </g>
                                                                    </g>
                                                                </g>
                                                            </g>
                                                        </g>
                                                    </g>
                                                </g>
                                            </g>
                                        </g>
                                        <path class="typst-shape" fill="none" transform="matrix(1 0 0 1 139.2734375 0)" d="M 0 0h 17.273438 v 18.240234 h -17.273438 v -18.240234 Z "/>
                                        <g class="typst-group">
                                            <g>
                                                <g class="typst-group" transform="matrix(1 0 0 1 139.2734374941445 -0.00000007234252090109823)">
                                                    <g>
                                                        <g class="typst-group">
                                                            <g>
                                                                <g class="typst-group" transform="matrix(1 0 0 1 0.00000000005000072447069752 0)">
                                                                    <g>
                                                                        <path class="typst-shape" fill="#051d4d" fill-rule="nonzero" d="M 0 0m 0 5.4 c 0 -2.9823377 2.4176624 -5.4 5.4 -5.4 h 6.473438 c 2.982337 0 5.3999996 2.4176624 5.3999996 5.4 v 7.4402347 c 0 2.982337 -2.4176626 5.3999996 -5.3999996 5.3999996 h -6.473438 c -2.9823377 0 -5.4 -2.4176626 -5.4 -5.3999996 Z "/>
                                                                        <path class="typst-shape" fill="none" stroke="#388bfd" stroke-width="1.2" stroke-linecap="butt" stroke-linejoin="miter" stroke-miterlimit="4" d="M 0 0m 5.4 0 h 6.473438 c 2.982337 0 5.3999996 2.4176624 5.3999996 5.4 v 7.4402347 c 0 2.982337 -2.4176626 5.3999996 -5.3999996 5.3999996 h -6.473438 c -2.9823377 0 -5.4 -2.4176626 -5.4 -5.3999996 v -7.4402347 c 0 -2.9823377 2.4176624 -5.4 5.4 -5.4 "/>
                                                                        <g class="typst-text" transform="matrix(1 0 0 -1 6 12.240234375)">
                                                                            <use xlink:href="#g7109ECFC51F91CAEC05C3382AC67B7E" x="0" y="0" fill="#f0f6fc" fill-rule="nonzero"/>
                                                                        </g>
                                                                    </g>
                                                                </g>
                                                            </g>
                                                        </g>
                                                    </g>
                                                </g>
                                            </g>
                                        </g>
                                    </g>
                                </g>
                            </g>
                        </g>
                    </g>
                </g>
                <g class="typst-group" transform="matrix(1 0 0 1 204.5468750001 20)">
                    <g>
                        <g class="typst-text" transform="matrix(1 0 0 -1 46.04687500005 6.93359375)">
                            <use xlink:href="#gEE580F01DECA13C0B6FB100144D7104D" x="0" y="0" fill="#9198a1" fill-rule="nonzero"/>
                            <use xlink:href="#g98FFEDE6332A784EA8065E2CF72B1A4E" x="5.859375" y="0" fill="#9198a1" fill-rule="nonzero"/>
                            <use xlink:href="#g76A692940D3DC8CAF9248006D832662E" x="11.71875" y="0" fill="#9198a1" fill-rule="nonzero"/>
                            <use xlink:href="#g5810FE8677DA0F5C1E82325733F92E62" x="17.578125" y="0" fill="#9198a1" fill-rule="nonzero"/>
                            <use xlink:href="#gCD917C1579BD21D5281359184DEEBCFF" x="29.296875" y="0" fill="#9198a1" fill-rule="nonzero"/>
                            <use xlink:href="#g36065F6A4FFDE5CDB4274DF4D8DF9F1" x="35.15625" y="0" fill="#9198a1" fill-rule="nonzero"/>
                            <use xlink:href="#g5810FE8677DA0F5C1E82325733F92E62" x="41.015625" y="0" fill="#9198a1" fill-rule="nonzero"/>
                            <use xlink:href="#g5810FE8677DA0F5C1E82325733F92E62" x="46.875" y="0" fill="#9198a1" fill-rule="nonzero"/>
                            <use xlink:href="#g994D6276079A0DA3219124B0E5A6FAD5" x="52.734375" y="0" fill="#9198a1" fill-rule="nonzero"/>
                            <use xlink:href="#g98FFEDE6332A784EA8065E2CF72B1A4E" x="58.59375" y="0" fill="#9198a1" fill-rule="nonzero"/>
                        </g>
                        <g class="typst-group" transform="matrix(1 0 0 1 0 11.93359375)">
                            <g>
                                <g class="typst-group">
                                    <g>
                                        <path class="typst-shape" fill="none" stroke="#3fb950" stroke-width="1.2" stroke-linecap="round" stroke-linejoin="miter" stroke-miterlimit="4" transform="matrix(1 0 0 1 27.197349605174246 9.1201171875)" d="M 0 0h 102.152176 "/>
                                        <path class="typst-shape" fill="none" stroke="#3fb950" stroke-width="1.2" stroke-linecap="round" stroke-linejoin="miter" stroke-miterlimit="4" transform="matrix(1 0 0 1 75.68599643409763 9.120117304133858)" d="M 0 0m 4.7124023 0 c -2.419405 1.1128019 -4.1678185 3.3069263 -4.7124023 5.9137015 "/>
                                        <path class="typst-shape" fill="none" stroke="#3fb950" stroke-width="1.2" stroke-linecap="round" stroke-linejoin="miter" stroke-miterlimit="4" transform="matrix(1 0 0 1 75.68599643409763 3.2064159140262487)" d="M 0 0m 4.7124023 5.9137015 c -2.419405 -1.112802 -4.1678185 -3.3069265 -4.7124023 -5.9137015 "/>
                                        <path class="typst-shape" fill="none" d="M 0 0h 17.273438 v 18.240234 h -17.273438 v -18.240234 Z "/>
                                        <g class="typst-group">
                                            <g>
                                                <g class="typst-group" transform="matrix(1 0 0 1 -0.000000005855511295435928 -0.00000007234252090109823)">
                                                    <g>
                                                        <g class="typst-group">
                                                            <g>
                                                                <g class="typst-group" transform="matrix(1 0 0 1 0.00000000005000072447069752 0)">
                                                                    <g>
                                                                        <path class="typst-shape" fill="#051d4d" fill-rule="nonzero" d="M 0 0m 0 5.4 c 0 -2.9823377 2.4176624 -5.4 5.4 -5.4 h 6.473438 c 2.982337 0 5.3999996 2.4176624 5.3999996 5.4 v 7.4402347 c 0 2.982337 -2.4176626 5.3999996 -5.3999996 5.3999996 h -6.473438 c -2.9823377 0 -5.4 -2.4176626 -5.4 -5.3999996 Z "/>
                                                                        <path class="typst-shape" fill="none" stroke="#388bfd" stroke-width="1.2" stroke-linecap="butt" stroke-linejoin="miter" stroke-miterlimit="4" d="M 0 0m 5.4 0 h 6.473438 c 2.982337 0 5.3999996 2.4176624 5.3999996 5.4 v 7.4402347 c 0 2.982337 -2.4176626 5.3999996 -5.3999996 5.3999996 h -6.473438 c -2.9823377 0 -5.4 -2.4176626 -5.4 -5.3999996 v -7.4402347 c 0 -2.9823377 2.4176624 -5.4 5.4 -5.4 "/>
                                                                        <g class="typst-text" transform="matrix(1 0 0 -1 6 12.240234375)">
                                                                            <use xlink:href="#gCC3398A96F9AF8005ADB726061509A1" x="0" y="0" fill="#f0f6fc" fill-rule="nonzero"/>
                                                                        </g>
                                                                    </g>
                                                                </g>
                                                            </g>
                                                        </g>
                                                    </g>
                                                </g>
                                            </g>
                                        </g>
                                        <path class="typst-shape" fill="none" transform="matrix(1 0 0 1 139.2734375 0)" d="M 0 0h 17.273438 v 18.240234 h -17.273438 v -18.240234 Z "/>
                                        <g class="typst-group">
                                            <g>
                                                <g class="typst-group" transform="matrix(1 0 0 1 139.2734374941445 -0.00000007234252090109823)">
                                                    <g>
                                                        <g class="typst-group">
                                                            <g>
                                                                <g class="typst-group" transform="matrix(1 0 0 1 0.00000000005000072447069752 0)">
                                                                    <g>
                                                                        <path class="typst-shape" fill="#051d4d" fill-rule="nonzero" d="M 0 0m 0 5.4 c 0 -2.9823377 2.4176624 -5.4 5.4 -5.4 h 6.473438 c 2.982337 0 5.3999996 2.4176624 5.3999996 5.4 v 7.4402347 c 0 2.982337 -2.4176626 5.3999996 -5.3999996 5.3999996 h -6.473438 c -2.9823377 0 -5.4 -2.4176626 -5.4 -5.3999996 Z "/>
                                                                        <path class="typst-shape" fill="none" stroke="#388bfd" stroke-width="1.2" stroke-linecap="butt" stroke-linejoin="miter" stroke-miterlimit="4" d="M 0 0m 5.4 0 h 6.473438 c 2.982337 0 5.3999996 2.4176624 5.3999996 5.4 v 7.4402347 c 0 2.982337 -2.4176626 5.3999996 -5.3999996 5.3999996 h -6.473438 c -2.9823377 0 -5.4 -2.4176626 -5.4 -5.3999996 v -7.4402347 c 0 -2.9823377 2.4176624 -5.4 5.4 -5.4 "/>
                                                                        <g class="typst-text" transform="matrix(1 0 0 -1 6 12.240234375)">
                                                                            <use xlink:href="#g7109ECFC51F91CAEC05C3382AC67B7E" x="0" y="0" fill="#f0f6fc" fill-rule="nonzero"/>
                                                                        </g>
                                                                    </g>
                                                                </g>
                                                            </g>
                                                        </g>
                                                    </g>
                                                </g>
                                            </g>
                                        </g>
                                    </g>
                                </g>
                            </g>
                        </g>
                    </g>
                </g>
                <g class="typst-group" transform="matrix(1 0 0 1 389.0937500002 20)">
                    <g>
                        <g class="typst-text" transform="matrix(1 0 0 -1 40.18750000005 6.93359375)">
                            <use xlink:href="#gD3E1361C62CC1CD092AD44D8CA1FFE12" x="0" y="0" fill="#9198a1" fill-rule="nonzero"/>
                            <use xlink:href="#g36065F6A4FFDE5CDB4274DF4D8DF9F1" x="5.859375" y="0" fill="#9198a1" fill-rule="nonzero"/>
                            <use xlink:href="#gF3BC4AD17F032FE82EB1FDABBE59B28D" x="11.71875" y="0" fill="#9198a1" fill-rule="nonzero"/>
                            <use xlink:href="#gD3E1361C62CC1CD092AD44D8CA1FFE12" x="17.578125" y="0" fill="#9198a1" fill-rule="nonzero"/>
                            <use xlink:href="#g994D6276079A0DA3219124B0E5A6FAD5" x="23.4375" y="0" fill="#9198a1" fill-rule="nonzero"/>
                            <use xlink:href="#g98FFEDE6332A784EA8065E2CF72B1A4E" x="29.296875" y="0" fill="#9198a1" fill-rule="nonzero"/>
                            <use xlink:href="#gCD917C1579BD21D5281359184DEEBCFF" x="41.015625" y="0" fill="#9198a1" fill-rule="nonzero"/>
                            <use xlink:href="#g36065F6A4FFDE5CDB4274DF4D8DF9F1" x="46.875" y="0" fill="#9198a1" fill-rule="nonzero"/>
                            <use xlink:href="#g5810FE8677DA0F5C1E82325733F92E62" x="52.734375" y="0" fill="#9198a1" fill-rule="nonzero"/>
                            <use xlink:href="#g5810FE8677DA0F5C1E82325733F92E62" x="58.59375" y="0" fill="#9198a1" fill-rule="nonzero"/>
                            <use xlink:href="#g994D6276079A0DA3219124B0E5A6FAD5" x="64.453125" y="0" fill="#9198a1" fill-rule="nonzero"/>
                            <use xlink:href="#g98FFEDE6332A784EA8065E2CF72B1A4E" x="70.3125" y="0" fill="#9198a1" fill-rule="nonzero"/>
                        </g>
                        <g class="typst-group" transform="matrix(1 0 0 1 0 11.93359375)">
                            <g>
                                <g class="typst-group">
                                    <g>
                                        <path class="typst-shape" fill="none" stroke="#3fb950" stroke-width="1.2" stroke-linecap="round" stroke-linejoin="miter" stroke-miterlimit="4" transform="matrix(1 0 0 1 27.197349605174246 9.1201171875)" d="M 0 0h 102.152176 "/>
                                        <path class="typst-shape" fill="none" stroke="#3fb950" stroke-width="1.2" stroke-linecap="round" stroke-linejoin="miter" stroke-miterlimit="4" transform="matrix(1 0 0 1 75.8734379528059 6.720117493110236)" d="M 0 0m 2.3999999 0 c -1.3242816 0 -2.3999999 1.0757183 -2.3999999 2.3999999 c 0 1.3242815 1.0757183 2.3999999 2.3999999 2.3999999 c 1.3242815 0 2.3999999 -1.0757184 2.3999999 -2.3999999 c 0 -1.3242816 -1.0757184 -2.3999999 -2.3999999 -2.3999999 Z "/>
                                        <path class="typst-shape" fill="none" d="M 0 0h 17.273438 v 18.240234 h -17.273438 v -18.240234 Z "/>
                                        <g class="typst-group">
                                            <g>
                                                <g class="typst-group" transform="matrix(1 0 0 1 -0.000000005855511295435928 -0.00000007234252090109823)">
                                                    <g>
                                                        <g class="typst-group">
                                                            <g>
                                                                <g class="typst-group" transform="matrix(1 0 0 1 0.00000000005000072447069752 0)">
                                                                    <g>
                                                                        <path class="typst-shape" fill="#051d4d" fill-rule="nonzero" d="M 0 0m 0 5.4 c 0 -2.9823377 2.4176624 -5.4 5.4 -5.4 h 6.473438 c 2.982337 0 5.3999996 2.4176624 5.3999996 5.4 v 7.4402347 c 0 2.982337 -2.4176626 5.3999996 -5.3999996 5.3999996 h -6.473438 c -2.9823377 0 -5.4 -2.4176626 -5.4 -5.3999996 Z "/>
                                                                        <path class="typst-shape" fill="none" stroke="#388bfd" stroke-width="1.2" stroke-linecap="butt" stroke-linejoin="miter" stroke-miterlimit="4" d="M 0 0m 5.4 0 h 6.473438 c 2.982337 0 5.3999996 2.4176624 5.3999996 5.4 v 7.4402347 c 0 2.982337 -2.4176626 5.3999996 -5.3999996 5.3999996 h -6.473438 c -2.9823377 0 -5.4 -2.4176626 -5.4 -5.3999996 v -7.4402347 c 0 -2.9823377 2.4176624 -5.4 5.4 -5.4 "/>
                                                                        <g class="typst-text" transform="matrix(1 0 0 -1 6 12.240234375)">
                                                                            <use xlink:href="#gCC3398A96F9AF8005ADB726061509A1" x="0" y="0" fill="#f0f6fc" fill-rule="nonzero"/>
                                                                        </g>
                                                                    </g>
                                                                </g>
                                                            </g>
                                                        </g>
                                                    </g>
                                                </g>
                                            </g>
                                        </g>
                                        <path class="typst-shape" fill="none" transform="matrix(1 0 0 1 139.2734375 0)" d="M 0 0h 17.273438 v 18.240234 h -17.273438 v -18.240234 Z "/>
                                        <g class="typst-group">
                                            <g>
                                                <g class="typst-group" transform="matrix(1 0 0 1 139.2734374941445 -0.00000007234252090109823)">
                                                    <g>
                                                        <g class="typst-group">
                                                            <g>
                                                                <g class="typst-group" transform="matrix(1 0 0 1 0.00000000005000072447069752 0)">
                                                                    <g>
                                                                        <path class="typst-shape" fill="#051d4d" fill-rule="nonzero" d="M 0 0m 0 5.4 c 0 -2.9823377 2.4176624 -5.4 5.4 -5.4 h 6.473438 c 2.982337 0 5.3999996 2.4176624 5.3999996 5.4 v 7.4402347 c 0 2.982337 -2.4176626 5.3999996 -5.3999996 5.3999996 h -6.473438 c -2.9823377 0 -5.4 -2.4176626 -5.4 -5.3999996 Z "/>
                                                                        <path class="typst-shape" fill="none" stroke="#388bfd" stroke-width="1.2" stroke-linecap="butt" stroke-linejoin="miter" stroke-miterlimit="4" d="M 0 0m 5.4 0 h 6.473438 c 2.982337 0 5.3999996 2.4176624 5.3999996 5.4 v 7.4402347 c 0 2.982337 -2.4176626 5.3999996 -5.3999996 5.3999996 h -6.473438 c -2.9823377 0 -5.4 -2.4176626 -5.4 -5.3999996 v -7.4402347 c 0 -2.9823377 2.4176624 -5.4 5.4 -5.4 "/>
                                                                        <g class="typst-text" transform="matrix(1 0 0 -1 6 12.240234375)">
                                                                            <use xlink:href="#g7109ECFC51F91CAEC05C3382AC67B7E" x="0" y="0" fill="#f0f6fc" fill-rule="nonzero"/>
                                                                        </g>
                                                                    </g>
                                                                </g>
                                                            </g>
                                                        </g>
                                                    </g>
                                                </g>
                                            </g>
                                        </g>
                                    </g>
                                </g>
                            </g>
                        </g>
                    </g>
                </g>
                <g class="typst-group" transform="matrix(1 0 0 1 573.6406250003 20)">
                    <g>
                        <g class="typst-text" transform="matrix(1 0 0 -1 48.97656250005 6.93359375)">
                            <use xlink:href="#g540080C9EA821770F3FEC7B86E98F54D" x="0" y="0" fill="#9198a1" fill-rule="nonzero"/>
                            <use xlink:href="#g76A692940D3DC8CAF9248006D832662E" x="5.859375" y="0" fill="#9198a1" fill-rule="nonzero"/>
                            <use xlink:href="#gF3BC4AD17F032FE82EB1FDABBE59B28D" x="11.71875" y="0" fill="#9198a1" fill-rule="nonzero"/>
                            <use xlink:href="#gCD917C1579BD21D5281359184DEEBCFF" x="23.4375" y="0" fill="#9198a1" fill-rule="nonzero"/>
                            <use xlink:href="#g36065F6A4FFDE5CDB4274DF4D8DF9F1" x="29.296875" y="0" fill="#9198a1" fill-rule="nonzero"/>
                            <use xlink:href="#g5810FE8677DA0F5C1E82325733F92E62" x="35.15625" y="0" fill="#9198a1" fill-rule="nonzero"/>
                            <use xlink:href="#g5810FE8677DA0F5C1E82325733F92E62" x="41.015625" y="0" fill="#9198a1" fill-rule="nonzero"/>
                            <use xlink:href="#g994D6276079A0DA3219124B0E5A6FAD5" x="46.875" y="0" fill="#9198a1" fill-rule="nonzero"/>
                            <use xlink:href="#g98FFEDE6332A784EA8065E2CF72B1A4E" x="52.734375" y="0" fill="#9198a1" fill-rule="nonzero"/>
                        </g>
                        <g class="typst-group" transform="matrix(1 0 0 1 0 11.93359375)">
                            <g>
                                <g class="typst-group">
                                    <g>
                                        <path class="typst-shape" fill="none" stroke="#3fb950" stroke-width="1.2" stroke-linecap="round" stroke-linejoin="miter" stroke-miterlimit="4" transform="matrix(1 0 0 1 27.197349605174246 9.1201171875)" d="M 0 0h 102.152176 "/>
                                        <path class="typst-shape" fill="#3fb950" fill-rule="nonzero" stroke="#3fb950" stroke-width="1.2" stroke-linecap="round" stroke-linejoin="miter" stroke-miterlimit="4" transform="matrix(1 0 0 1 78.27854522839647 3.2401177671259838)" d="M 0 0m 0 11.759999 v -11.759999 "/>
                                        <path class="typst-shape" fill="none" d="M 0 0h 17.273438 v 18.240234 h -17.273438 v -18.240234 Z "/>
                                        <g class="typst-group">
                                            <g>
                                                <g class="typst-group" transform="matrix(1 0 0 1 -0.000000005855511295435928 -0.00000007234252090109823)">
                                                    <g>
                                                        <g class="typst-group">
                                                            <g>
                                                                <g class="typst-group" transform="matrix(1 0 0 1 0.00000000005000072447069752 0)">
                                                                    <g>
                                                                        <path class="typst-shape" fill="#051d4d" fill-rule="nonzero" d="M 0 0m 0 5.4 c 0 -2.9823377 2.4176624 -5.4 5.4 -5.4 h 6.473438 c 2.982337 0 5.3999996 2.4176624 5.3999996 5.4 v 7.4402347 c 0 2.982337 -2.4176626 5.3999996 -5.3999996 5.3999996 h -6.473438 c -2.9823377 0 -5.4 -2.4176626 -5.4 -5.3999996 Z "/>
                                                                        <path class="typst-shape" fill="none" stroke="#388bfd" stroke-width="1.2" stroke-linecap="butt" stroke-linejoin="miter" stroke-miterlimit="4" d="M 0 0m 5.4 0 h 6.473438 c 2.982337 0 5.3999996 2.4176624 5.3999996 5.4 v 7.4402347 c 0 2.982337 -2.4176626 5.3999996 -5.3999996 5.3999996 h -6.473438 c -2.9823377 0 -5.4 -2.4176626 -5.4 -5.3999996 v -7.4402347 c 0 -2.9823377 2.4176624 -5.4 5.4 -5.4 "/>
                                                                        <g class="typst-text" transform="matrix(1 0 0 -1 6 12.240234375)">
                                                                            <use xlink:href="#gCC3398A96F9AF8005ADB726061509A1" x="0" y="0" fill="#f0f6fc" fill-rule="nonzero"/>
                                                                        </g>
                                                                    </g>
                                                                </g>
                                                            </g>
                                                        </g>
                                                    </g>
                                                </g>
                                            </g>
                                        </g>
                                        <path class="typst-shape" fill="none" transform="matrix(1 0 0 1 139.2734375 0)" d="M 0 0h 17.273438 v 18.240234 h -17.273438 v -18.240234 Z "/>
                                        <g class="typst-group">
                                            <g>
                                                <g class="typst-group" transform="matrix(1 0 0 1 139.2734374941445 -0.00000007234252090109823)">
                                                    <g>
                                                        <g class="typst-group">
                                                            <g>
                                                                <g class="typst-group" transform="matrix(1 0 0 1 0.00000000005000072447069752 0)">
                                                                    <g>
                                                                        <path class="typst-shape" fill="#051d4d" fill-rule="nonzero" d="M 0 0m 0 5.4 c 0 -2.9823377 2.4176624 -5.4 5.4 -5.4 h 6.473438 c 2.982337 0 5.3999996 2.4176624 5.3999996 5.4 v 7.4402347 c 0 2.982337 -2.4176626 5.3999996 -5.3999996 5.3999996 h -6.473438 c -2.9823377 0 -5.4 -2.4176626 -5.4 -5.3999996 Z "/>
                                                                        <path class="typst-shape" fill="none" stroke="#388bfd" stroke-width="1.2" stroke-linecap="butt" stroke-linejoin="miter" stroke-miterlimit="4" d="M 0 0m 5.4 0 h 6.473438 c 2.982337 0 5.3999996 2.4176624 5.3999996 5.4 v 7.4402347 c 0 2.982337 -2.4176626 5.3999996 -5.3999996 5.3999996 h -6.473438 c -2.9823377 0 -5.4 -2.4176626 -5.4 -5.3999996 v -7.4402347 c 0 -2.9823377 2.4176624 -5.4 5.4 -5.4 "/>
                                                                        <g class="typst-text" transform="matrix(1 0 0 -1 6 12.240234375)">
                                                                            <use xlink:href="#g7109ECFC51F91CAEC05C3382AC67B7E" x="0" y="0" fill="#f0f6fc" fill-rule="nonzero"/>
                                                                        </g>
                                                                    </g>
                                                                </g>
                                                            </g>
                                                        </g>
                                                    </g>
                                                </g>
                                            </g>
                                        </g>
                                    </g>
                                </g>
                            </g>
                        </g>
                    </g>
                </g>
            </g>
        </g>
    </g>
    <defs id="glyph">
        <symbol id="g30AB84D2E55B358E4B715A429A54F0E7" overflow="visible">
            <path d="M 0 0m 2.6904297 -0.09765625 q -1.2109375 0 -2.109375 0.38085938 l 0.15625 1.1865234 q 1.0839844 -0.46875 2.03125 -0.46875 q 1.1865234 0 1.1865234 0.8154297 q 0 0.52246094 -0.5957031 0.79589844 l -1.0791016 0.5126953 q -0.72265625 0.3466797 -1.1181641 0.84716797 q -0.3955078 0.5004883 -0.3955078 1.1547852 q 0 0.9082031 0.5786133 1.40625 q 0.5786133 0.49804688 1.6381836 0.49804688 q 1.3232422 0 2.2460938 -0.87402344 l -0.80566406 -0.8886719 q -0.7519531 0.6689453 -1.4355469 0.6689453 q -0.45898438 0 -0.7128906 -0.20751953 q -0.25390625 -0.20751953 -0.25390625 -0.60302734 q 0 -0.2734375 0.17333984 -0.48095703 q 0.17333984 -0.20751953 0.5004883 -0.37353516 l 0.9716797 -0.48339844 q 0.7470703 -0.37109375 1.1450195 -0.8569336 q 0.39794922 -0.48583984 0.39794922 -1.1206055 q 0 -0.9277344 -0.64208984 -1.418457 q -0.64208984 -0.49072266 -1.8774414 -0.49072266 Z "/>
        </symbol>
        <symbol id="gFB0F840E5A8BF49BEC8BE6A345CB4AB" overflow="visible">
            <path d="M 0 0m 2.3388672 0 v 5.8496094 h -1.9970703 v 1.0839844 h 5.1757813 v -1.0839844 h -1.9970703 v -5.8496094 h -1.1816406 Z "/>
        </symbol>
        <symbol id="g98FFEDE6332A784EA8065E2CF72B1A4E" overflow="visible">
            <path d="M 0 0m 0.7324219 0 v 6.9335938 h 4.6875 v -1.0839844 h -3.5107422 v -1.8359375 h 2.631836 v -1.0839844 h -2.631836 v -1.8457031 h 3.5107422 v -1.0839844 h -4.6875 Z "/>
        </symbol>
        <symbol id="g76A692940D3DC8CAF9248006D832662E" overflow="visible">
            <path d="M 0 0m 0.17089844 0 l 2.0019531 6.9335938 h 1.5136719 l 2.0019531 -6.9335938 h -1.2451172 l -0.3857422 1.4648438 h -2.2558594 l -0.3857422 -1.4648438 h -1.2451172 Z m 1.9140625 2.5488281 h 1.6894531 l -0.80078125 3.0322266 h -0.087890625 l -0.80078125 -3.0322266 Z "/>
        </symbol>
        <symbol id="g994D6276079A0DA3219124B0E5A6FAD5" overflow="visible">
            <path d="M 0 0m 0.7324219 0 v 6.9335938 h 1.1767578 v -5.8496094 h 3.5107422 v -1.0839844 h -4.6875 Z "/>
        </symbol>
        <symbol id="gEE580F01DECA13C0B6FB100144D7104D" overflow="visible">
            <path d="M 0 0m 4.0478516 0 v 2.9101563 h -2.2363281 v -2.9101563 h -1.1767578 v 6.9335938 h 1.1767578 v -2.9394531 h 2.2363281 v 2.9394531 h 1.1767578 v -6.9335938 h -1.1767578 Z "/>
        </symbol>
        <symbol id="gCD917C1579BD21D5281359184DEEBCFF" overflow="visible">
            <path d="M 0 0m 0.5761719 0 v 6.9335938 h 1.7089844 l 0.60546875 -3.0517578 h 0.078125 l 0.60546875 3.0517578 h 1.7089844 v -6.9335938 h -1.1083984 v 5.703125 h -0.14160156 l -0.6542969 -3.1152344 h -0.8984375 l -0.6542969 3.1152344 h -0.14160156 v -5.703125 h -1.1083984 Z "/>
        </symbol>
        <symbol id="g36065F6A4FFDE5CDB4274DF4D8DF9F1" overflow="visible">
            <path d="M 0 0m 0.7714844 0 v 1.0693359 h 1.5625 v 4.7998047 h -1.5625 v 1.0644531 h 4.3164063 v -1.0644531 h -1.5722656 v -4.7998047 h 1.5722656 v -1.0693359 h -4.3164063 Z "/>
        </symbol>
        <symbol id="g5810FE8677DA0F5C1E82325733F92E62" overflow="visible">
            <path d="M 0 0m 0.6347656 0 v 6.9335938 h 1.7285156 q 3.2226563 0 3.2226563 -3.5644531 q 0 -3.3691406 -3.2226563 -3.3691406 h -1.7285156 Z m 1.1767578 1.1083984 h 0.5517578 q 2.0019531 0 2.0019531 2.2607422 q 0 2.4560547 -2.0019531 2.4560547 h -0.5517578 v -4.716797 Z "/>
        </symbol>
        <symbol id="gCC3398A96F9AF8005ADB726061509A1" overflow="visible">
            <path d="M 0 0m 3.5947266 -0.043945313 l -0.043945313 1.0283203 h -0.092285156 q -0.052734375 -0.5361328 -0.45483398 -0.8041992 q -0.4020996 -0.2680664 -1.0524902 -0.2680664 q -0.7294922 0 -1.1293945 0.3515625 q -0.39990234 0.3515625 -0.39990234 0.99316406 q 0 0.73828125 0.5515137 1.1337891 q 0.5515137 0.3955078 1.5578613 0.3955078 q 0.50097656 0 0.87890625 -0.07470703 v 0.21533203 q 0 0.4658203 -0.32739258 0.6833496 q -0.32739258 0.2175293 -0.9733887 0.23510742 l -1.1162109 0.030761719 l 0.087890625 0.8261719 l 0.9404297 -0.013183594 q 1.1557617 -0.017578125 1.7160645 -0.4987793 q 0.56030273 -0.48120117 0.56030273 -1.4040527 v -1.9423828 l 0.7910156 -0.09667969 v -0.7470703 l -1.4941406 -0.043945313 Z m -0.18457031 2.0390625 q -0.2241211 0.03515625 -0.44604492 0.03955078 q -0.22192383 0.0043945313 -0.45043945 0.0043945313 q -1.2128906 0 -1.2128906 -0.73828125 q 0 -0.3076172 0.20874023 -0.47460938 q 0.20874023 -0.16699219 0.59106445 -0.16699219 q 0.4350586 0 0.7272949 0.14941406 q 0.29223633 0.14941406 0.43725586 0.38232422 q 0.14501953 0.23291016 0.14501953 0.4790039 v 0.3251953 Z "/>
        </symbol>
        <symbol id="g7109ECFC51F91CAEC05C3382AC67B7E" overflow="visible">
            <path d="M 0 0m 1.9643555 -0.087890625 q -0.31640625 0 -0.62402344 0.024169922 q -0.3076172 0.024169922 -0.62402344 0.0637207 v 6.591797 h 0.9316406 v -2.7773438 h 0.087890625 q 0.06591797 0.9316406 1.1425781 0.9316406 q 0.9316406 0 1.4414063 -0.5493164 q 0.5097656 -0.5493164 0.5097656 -1.5600586 q 0 -1.2963867 -0.7492676 -2.010498 q -0.7492676 -0.7141113 -2.1159668 -0.7141113 Z m -0.31640625 2.7070313 v -1.902832 q 0.123046875 -0.0087890625 0.25048828 -0.010986328 q 0.1274414 -0.0021972656 0.25048828 -0.0021972656 q 0.83935547 0 1.298584 0.5053711 q 0.45922852 0.5053711 0.45922852 1.4282227 q 0 0.6328125 -0.27905273 0.97558594 q -0.27905273 0.34277344 -0.7932129 0.34277344 q -1.1865234 0 -1.1865234 -1.3359375 Z "/>
        </symbol>
        <symbol id="gD3E1361C62CC1CD092AD44D8CA1FFE12" overflow="visible">
            <path d="M 0 0m 3.6523438 -0.09765625 q -3.28125 0 -3.28125 3.5742188 q 0 1.6943359 0.8251953 2.6245117 q 0.8251953 0.9301758 2.3388672 0.9301758 q 0.6982422 0 1.2304688 -0.22460938 q 0.53222656 -0.22460938 0.79589844 -0.63964844 l -0.72265625 -0.8544922 q -0.21972656 0.29785156 -0.55908203 0.45898438 q -0.33935547 0.16113281 -0.7348633 0.16113281 q -0.88378906 0 -1.4135742 -0.6274414 q -0.52978516 -0.6274414 -0.52978516 -1.7797852 q 0 -2.524414 2.2167969 -2.524414 q 0.7080078 0 1.3964844 0.29296875 l 0.22460938 -1.0595703 q -0.8496094 -0.33203125 -1.7871094 -0.33203125 Z "/>
        </symbol>
        <symbol id="gF3BC4AD17F032FE82EB1FDABBE59B28D" overflow="visible">
            <path d="M 0 0m 0.6347656 0 v 6.9335938 h 2.4316406 q 1.1035156 0 1.7041016 -0.546875 q 0.60058594 -0.546875 0.60058594 -1.5527344 q 0 -1.4746094 -1.09375 -2.006836 l 1.3476563 -2.8271484 h -1.3916016 l -1.1132813 2.578125 q -0.024414063 0 -0.053710938 0 h -1.2548828 v -2.578125 h -1.1767578 Z m 1.1767578 3.6621094 h 1.2548828 q 0.5029297 0 0.78125 0.28320313 q 0.2783203 0.28320313 0.2783203 0.7910156 q 0 0.5371094 -0.2783203 0.8251953 q -0.2783203 0.28808594 -0.78125 0.28808594 h -1.2548828 v -2.1875 Z "/>
        </symbol>
        <symbol id="g540080C9EA821770F3FEC7B86E98F54D" overflow="visible">
            <path d="M 0 0m 0.7324219 0 v 6.9335938 h 2.109375 q 1.0791016 0 1.6674805 -0.45166016 q 0.5883789 -0.45166016 0.5883789 -1.2817383 q 0 -0.6542969 -0.4248047 -1.0375977 q -0.4248047 -0.38330078 -1.2109375 -0.43701172 v -0.1171875 h 0.11230469 q 0.96191406 0 1.4868164 -0.44433594 q 0.52490234 -0.44433594 0.52490234 -1.2597656 q 0 -0.9082031 -0.55908203 -1.40625 q -0.55908203 -0.49804688 -1.5893555 -0.49804688 h -2.7050781 Z m 1.1767578 1.0839844 h 1.2451172 q 0.5761719 0 0.8935547 0.26611328 q 0.3173828 0.26611328 0.3173828 0.7495117 q 0 0.48339844 -0.33447266 0.7519531 q -0.33447266 0.2685547 -0.9448242 0.2685547 h -1.1767578 v -2.0361328 Z m 0 3.1201172 h 0.95214844 q 1.015625 0 1.015625 0.8496094 q 0 0.79589844 -1.0839844 0.79589844 h -0.88378906 v -1.6455078 Z "/>
        </symbol>
    </defs>
</svg>
