<svg class="typst-doc" viewBox="0 0 299.28125000010004 118.53749888273231" xmlns="http://www.w3.org/2000/svg" xmlns:xlink="http://www.w3.org/1999/xlink" xmlns:h5="http://www.w3.org/1999/xhtml">
    <path class="typst-shape" fill="#0d1117" fill-rule="nonzero" d="M 0 0v 118.5375 h 299.28125 v -118.5375 Z "/>
    <g>
        <g class="typst-group" transform="matrix(1 0 0 1 20 20)">
            <g>
                <g class="typst-group">
                    <g>
                        <path class="typst-shape" fill="none" stroke="#3fb950" stroke-width="1.2" stroke-linecap="round" stroke-linejoin="miter" stroke-miterlimit="4" transform="matrix(1 0 0 1 49.64062506304215 17.120702922462)" d="M 0 0m 0 17.735573 c 50.521942 -23.55877 108.85945 -23.651222 159.45581 -0.25270844 "/>
                        <path class="typst-shape" fill="none" stroke="#3fb950" stroke-width="1.2" stroke-linecap="round" stroke-linejoin="miter" stroke-miterlimit="4" transform="matrix(1 0 0 1 202.37230522550018 34.61055922395542)" d="M 0 0m 6.720941 0 c -2.662941 0.024391415 -5.1565704 1.3100605 -6.720941 3.4651923 "/>
                        <path class="typst-shape" fill="none" stroke="#3fb950" stroke-width="1.2" stroke-linecap="round" stroke-linejoin="miter" stroke-miterlimit="4" transform="matrix(1 0 0 1 207.0206895854911 27.28564192394446)" d="M 0 0m 2.072557 7.3249173 c -1.7514931 -2.0060215 -2.4480104 -4.7237406 -1.8772843 -7.3249173 "/>
                        <path class="typst-shape" fill="none" transform="matrix(1 0 0 1 107.9582205340129 0)" d="M 0 0h 43.364845 v 13.120703 h -43.364845 v -13.120703 Z "/>
                        <g class="typst-group">
                            <g>
                                <g class="typst-group" transform="matrix(1 0 0 1 107.95822040901291 -0.000000012303144819635758)">
                                    <g>
                                        <g class="typst-group">
                                            <g>
                                                <g class="typst-group">
                                                    <g>
                                                        <path class="typst-shape" fill="#0d1117" fill-rule="nonzero" d="M 0 0m 0 2.2 c 0 -1.2150265 0.98497355 -2.2 2.2 -2.2 h 38.964844 c 1.2150269 0 2.2000008 0.98497355 2.2000008 2.2 v 6.586914 c 0 1.2150269 -0.9849739 2.1999998 -2.2000008 2.1999998 h -38.964844 c -1.2150265 0 -2.2 -0.98497295 -2.2 -2.1999998 Z "/>
                                                        <g class="typst-text" transform="matrix(1 0 0 -1 2.2 8.786914062500001)">
                                                            <use xlink:href="#g85142B9183B4E6F925678C4536383AC2" x="0" y="0" fill="#f0f6fc" fill-rule="nonzero"/>
                                                            <use xlink:href="#g451FD8E21EC7940E982B175B7A20B2EA" x="5.56640625" y="0" fill="#f0f6fc" fill-rule="nonzero"/>
                                                            <use xlink:href="#gABA392A637140E34C535808584AA81B6" x="11.1328125" y="0" fill="#f0f6fc" fill-rule="nonzero"/>
                                                            <use xlink:href="#g7753AC0F86132189CB29AE5A4ECDD045" x="16.69921875" y="0" fill="#f0f6fc" fill-rule="nonzero"/>
                                                            <use xlink:href="#g451FD8E21EC7940E982B175B7A20B2EA" x="22.265625" y="0" fill="#f0f6fc" fill-rule="nonzero"/>
                                                            <use xlink:href="#gD80C6A7C66DC269EC58A7E4619236B29" x="27.83203125" y="0" fill="#f0f6fc" fill-rule="nonzero"/>
                                                            <use xlink:href="#g94404CA6EFCECCE9991AD2A2BC5B53DD" x="33.3984375" y="0" fill="#f0f6fc" fill-rule="nonzero"/>
                                                        </g>
                                                    </g>
                                                </g>
                                            </g>
                                        </g>
                                    </g>
                                </g>
                            </g>
                        </g>
                        <path class="typst-shape" fill="none" stroke="#d29922" stroke-width="1.2" stroke-linecap="round" stroke-linejoin="miter" stroke-miterlimit="4" stroke-dashoffset="0" stroke-dasharray="3 3" transform="matrix(1 0 0 1 49.64062506304212 60.801925713737255)" d="M 0 0c 50.521942 23.55877 108.85945 23.651222 159.45581 0.25270876 "/>
                        <path class="typst-shape" fill="none" stroke="#d29922" stroke-width="1.2" stroke-linecap="round" stroke-linejoin="miter" stroke-miterlimit="4" transform="matrix(1 0 0 1 207.0206895854911 61.0476428145066)" d="M 0 0m 2.072557 0 c -1.7514931 2.0060213 -2.4480104 4.7237406 -1.8772843 7.3249173 "/>
                        <path class="typst-shape" fill="none" stroke="#d29922" stroke-width="1.2" stroke-linecap="round" stroke-linejoin="miter" stroke-miterlimit="4" transform="matrix(1 0 0 1 202.37230522550018 57.58245044113368)" d="M 0 0m 6.720941 3.4651923 c -2.662941 -0.024391413 -5.1565704 -1.3100605 -6.720941 -3.4651923 "/>
                        <path class="typst-shape" fill="none" transform="matrix(1 0 0 1 110.74138875420688 61.32402211777043)" d="M 0 0h 37.79844 v 13.213476 h -37.79844 v -13.213476 Z "/>
                        <g class="typst-group">
                            <g>
                                <g class="typst-group" transform="matrix(1 0 0 1 110.74138873255336 61.32402211555588)">
                                    <g>
                                        <g class="typst-group">
                                            <g>
                                                <g class="typst-group">
                                                    <g>
                                                        <path class="typst-shape" fill="#0d1117" fill-rule="nonzero" d="M 0 0m 0 2.2 c 0 -1.2150265 0.98497355 -2.2 2.2 -2.2 h 33.398438 c 1.2150269 0 2.2000008 0.98497355 2.2000008 2.2 v 6.586914 c 0 1.2150269 -0.9849739 2.1999998 -2.2000008 2.1999998 h -33.398438 c -1.2150265 0 -2.2 -0.98497295 -2.2 -2.1999998 Z "/>
                                                        <g class="typst-text" transform="matrix(1 0 0 -1 2.2 8.786914062500001)">
                                                            <use xlink:href="#g40A478DFDB1468C1517956AAFB2A3C40" x="0" y="0" fill="#f0f6fc" fill-rule="nonzero"/>
                                                            <use xlink:href="#gD2DBA36EFB21E3A01E9F956CE97BEF5A" x="5.56640625" y="0" fill="#f0f6fc" fill-rule="nonzero"/>
                                                            <use xlink:href="#g94404CA6EFCECCE9991AD2A2BC5B53DD" x="11.1328125" y="0" fill="#f0f6fc" fill-rule="nonzero"/>
                                                            <use xlink:href="#gD72267F14BF1DA7E4A138910BA57BEA7" x="16.69921875" y="0" fill="#f0f6fc" fill-rule="nonzero"/>
                                                            <use xlink:href="#g17F46DA49BD7E21D2377B6FE854EDBA1" x="22.265625" y="0" fill="#f0f6fc" fill-rule="nonzero"/>
                                                            <use xlink:href="#g7EF3787B7A8C677F0B6EB64C0E4C4F76" x="27.83203125" y="0" fill="#f0f6fc" fill-rule="nonzero"/>
                                                        </g>
                                                    </g>
                                                </g>
                                            </g>
                                        </g>
                                    </g>
                                </g>
                            </g>
                        </g>
                        <path class="typst-shape" fill="none" transform="matrix(1 0 0 1 0 38.70898371509715)" d="M 0 0h 43.640625 v 18.240234 h -43.640625 v -18.240234 Z "/>
                        <g class="typst-group">
                            <g>
                                <g class="typst-group" transform="matrix(1 0 0 1 -0.00000012987126013278727 38.70898364275463)">
                                    <g>
                                        <g class="typst-group">
                                            <g>
                                                <g class="typst-group" transform="matrix(1 0 0 1 0.00000000005000072447069752 0)">
                                                    <g>
                                                        <path class="typst-shape" fill="#051d4d" fill-rule="nonzero" d="M 0 0m 0 5.4 c 0 -2.9823377 2.4176624 -5.4 5.4 -5.4 h 32.840622 c 2.982338 0 5.4000015 2.4176624 5.4000015 5.4 v 7.4402347 c 0 2.982337 -2.4176636 5.3999996 -5.4000015 5.3999996 h -32.840622 c -2.9823377 0 -5.4 -2.4176626 -5.4 -5.3999996 Z "/>
                                                        <path class="typst-shape" fill="none" stroke="#388bfd" stroke-width="1.2" stroke-linecap="butt" stroke-linejoin="miter" stroke-miterlimit="4" d="M 0 0m 5.4 0 h 32.840622 c 2.982338 0 5.4000015 2.4176624 5.4000015 5.4 v 7.4402347 c 0 2.982337 -2.4176636 5.3999996 -5.4000015 5.3999996 h -32.840622 c -2.9823377 0 -5.4 -2.4176626 -5.4 -5.3999996 v -7.4402347 c 0 -2.9823377 2.4176624 -5.4 5.4 -5.4 "/>
                                                        <g class="typst-text" transform="matrix(1 0 0 -1 6 12.240234375)">
                                                            <use xlink:href="#g496D52F1239A202D2084B655D124B477" x="0" y="0" fill="#f0f6fc" fill-rule="nonzero"/>
                                                            <use xlink:href="#gA89B28849E570429A74B372C5A555659" x="5.2734375" y="0" fill="#f0f6fc" fill-rule="nonzero"/>
                                                            <use xlink:href="#gC863C15A47F1EE40B91CD46D2F207AF0" x="10.546875" y="0" fill="#f0f6fc" fill-rule="nonzero"/>
                                                            <use xlink:href="#gEFAEEDD6907DC1C45C92FF41D2845054" x="15.8203125" y="0" fill="#f0f6fc" fill-rule="nonzero"/>
                                                            <use xlink:href="#g633FB8EB4E92D6FD3B927F14FC393029" x="21.09375" y="0" fill="#f0f6fc" fill-rule="nonzero"/>
                                                            <use xlink:href="#gC979954D9EBF87A71FAD624AF61A34DA" x="26.3671875" y="0" fill="#f0f6fc" fill-rule="nonzero"/>
                                                        </g>
                                                    </g>
                                                </g>
                                            </g>
                                        </g>
                                    </g>
                                </g>
                            </g>
                        </g>
                        <path class="typst-shape" fill="none" transform="matrix(1 0 0 1 215.640625 38.70898371509715)" d="M 0 0h 43.640625 v 18.240234 h -43.640625 v -18.240234 Z "/>
                        <g class="typst-group">
                            <g>
                                <g class="typst-group" transform="matrix(1 0 0 1 215.6406248701288 38.70898364275463)">
                                    <g>
                                        <g class="typst-group">
                                            <g>
                                                <g class="typst-group" transform="matrix(1 0 0 1 0.00000000005000072447069752 0)">
                                                    <g>
                                                        <path class="typst-shape" fill="#051d4d" fill-rule="nonzero" d="M 0 0m 0 5.4 c 0 -2.9823377 2.4176624 -5.4 5.4 -5.4 h 32.840622 c 2.982338 0 5.4000015 2.4176624 5.4000015 5.4 v 7.4402347 c 0 2.982337 -2.4176636 5.3999996 -5.4000015 5.3999996 h -32.840622 c -2.9823377 0 -5.4 -2.4176626 -5.4 -5.3999996 Z "/>
                                                        <path class="typst-shape" fill="none" stroke="#388bfd" stroke-width="1.2" stroke-linecap="butt" stroke-linejoin="miter" stroke-miterlimit="4" d="M 0 0m 5.4 0 h 32.840622 c 2.982338 0 5.4000015 2.4176624 5.4000015 5.4 v 7.4402347 c 0 2.982337 -2.4176636 5.3999996 -5.4000015 5.3999996 h -32.840622 c -2.9823377 0 -5.4 -2.4176626 -5.4 -5.3999996 v -7.4402347 c 0 -2.9823377 2.4176624 -5.4 5.4 -5.4 "/>
                                                        <g class="typst-text" transform="matrix(1 0 0 -1 6 12.240234375)">
                                                            <use xlink:href="#gD1B2E94B5C9985D20B63EC1E24E5C26A" x="0" y="0" fill="#f0f6fc" fill-rule="nonzero"/>
                                                            <use xlink:href="#gEFAEEDD6907DC1C45C92FF41D2845054" x="5.2734375" y="0" fill="#f0f6fc" fill-rule="nonzero"/>
                                                            <use xlink:href="#g9E80DE21BD69AE0F43672228C9C283DA" x="10.546875" y="0" fill="#f0f6fc" fill-rule="nonzero"/>
                                                            <use xlink:href="#g1D6EC232D600E11B8D94326AD8F00DFC" x="15.8203125" y="0" fill="#f0f6fc" fill-rule="nonzero"/>
                                                            <use xlink:href="#gEFAEEDD6907DC1C45C92FF41D2845054" x="21.09375" y="0" fill="#f0f6fc" fill-rule="nonzero"/>
                                                            <use xlink:href="#g9E80DE21BD69AE0F43672228C9C283DA" x="26.3671875" y="0" fill="#f0f6fc" fill-rule="nonzero"/>
                                                        </g>
                                                    </g>
                                                </g>
                                            </g>
                                        </g>
                                    </g>
                                </g>
                            </g>
                        </g>
                    </g>
                </g>
            </g>
        </g>
    </g>
    <defs id="glyph">
        <symbol id="g85142B9183B4E6F925678C4536383AC2" overflow="visible">
            <path d="M 0 0m 2.5280762 2.1152344 v -1.1225586 h 1.173584 v -0.9926758 h -3.3769531 v 0.9926758 h 1.0622559 v 2.9316406 h -0.876709 v 0.9926758 h 1.8322754 l 0.15307617 -1.1689453 h 0.15307617 q 0.07421875 1.2617188 1.2941895 1.2617188 q 1.4472656 0 1.4472656 -1.9389648 h -1.1411133 q 0 0.4777832 -0.16003418 0.68652344 q -0.16003418 0.20874023 -0.51257324 0.20874023 q -0.5241699 0 -0.7862549 -0.48242188 q -0.26208496 -0.48242188 -0.26208496 -1.3684082 Z "/>
        </symbol>
        <symbol id="g451FD8E21EC7940E982B175B7A20B2EA" overflow="visible">
            <path d="M 0 0m 3.1867676 -0.09277344 q -1.2709961 0 -1.9598389 0.66101074 q -0.6888428 0.66101074 -0.6888428 1.8995361 q 0 1.2060547 0.586792 1.8740234 q 0.586792 0.66796875 1.6536865 0.66796875 q 1.0297852 0 1.5933838 -0.6123047 q 0.56359863 -0.6123047 0.56359863 -1.7766113 q 0 -0.33398438 -0.027832031 -0.63549805 h -3.2006836 q 0.2783203 -1.0205078 1.5910645 -1.0205078 q 0.32470703 0 0.6378174 0.03479004 q 0.31311035 0.03479004 0.6378174 0.09509277 l 0.12060547 -1.0576172 q -0.45922852 -0.083496094 -0.8372803 -0.10668945 q -0.37805176 -0.02319336 -0.6702881 -0.02319336 Z m -1.5307617 2.9038086 h 2.1848145 q 0 0.56591797 -0.2783203 0.8651123 q -0.2783203 0.29919434 -0.7746582 0.29919434 q -0.48242188 0 -0.7746582 -0.30151367 q -0.29223633 -0.30151367 -0.35717773 -0.86279297 Z "/>
        </symbol>
        <symbol id="gABA392A637140E34C535808584AA81B6" overflow="visible">
            <path d="M 0 0m 2.3100586 -0.09277344 q -0.9091797 0 -1.4101563 0.6470947 q -0.50097656 0.6470947 -0.50097656 1.8577881 q 0 1.2385254 0.5032959 1.9180908 q 0.5032959 0.6795654 1.4171143 0.6795654 q 0.5751953 0 0.8790283 -0.24353027 q 0.303833 -0.24353027 0.37805176 -0.73986816 h 0.12524414 l 0.07885742 0.890625 h 1.0529785 v -7.0507813 h -1.145752 v 2.8945313 h -0.111328125 q -0.064941406 -0.42211914 -0.39660645 -0.6378174 q -0.33166504 -0.21569824 -0.869751 -0.21569824 Z m 1.3776855 2.7878418 q 0 1.2709961 -1.0390625 1.2709961 q -0.51953125 0 -0.8048096 -0.4058838 q -0.28527832 -0.4058838 -0.28527832 -1.1480713 q 0 -1.4611816 1.0947266 -1.4611816 q 1.0344238 0 1.0344238 1.0205078 v 0.7236328 Z "/>
        </symbol>
        <symbol id="g7753AC0F86132189CB29AE5A4ECDD045" overflow="visible">
            <path d="M 0 0m 2.161621 -0.09277344 q -0.7282715 0 -1.1295166 0.46154785 q -0.40124512 0.46154785 -0.40124512 1.3011475 v 3.2470703 h 1.145752 v -3.0615234 q 0 -0.42211914 0.21105957 -0.6517334 q 0.21105957 -0.22961426 0.59143066 -0.22961426 q 0.48242188 0 0.72595215 0.34094238 q 0.24353027 0.34094238 0.24353027 1.1434326 v 2.458496 h 1.145752 v -3.887207 l 0.6772461 -0.10205078 v -0.9277344 l -1.739502 -0.04638672 l -0.06958008 0.9926758 h -0.12060547 q -0.1159668 -0.50097656 -0.4522705 -0.77001953 q -0.3363037 -0.26904297 -0.8280029 -0.26904297 Z "/>
        </symbol>
        <symbol id="gD80C6A7C66DC269EC58A7E4619236B29" overflow="visible">
            <path d="M 0 0m 2.402832 -0.09277344 q -1.1040039 0 -1.7255859 0.13916016 l 0.13452148 1.0761719 q 0.5427246 -0.07421875 0.93237305 -0.111328125 q 0.38964844 -0.037109375 0.6586914 -0.037109375 q 0.6772461 0 0.9810791 0.111328125 q 0.303833 0.111328125 0.303833 0.35253906 q 0 0.15771484 -0.088134766 0.2388916 q -0.088134766 0.08117676 -0.2783203 0.13220215 l -1.4147949 0.3942871 q -0.5891113 0.16235352 -0.8720703 0.44763184 q -0.28295898 0.28527832 -0.28295898 0.8048096 q 0 0.80249023 0.6470947 1.1782227 q 0.6470947 0.37573242 2.015503 0.37573242 q 0.3293457 0 0.6586914 -0.02319336 q 0.3293457 -0.02319336 0.68652344 -0.06958008 l -0.12060547 -1.0390625 q -0.40356445 0.037109375 -0.70739746 0.05102539 q -0.303833 0.013916016 -0.54504395 0.013916016 q -0.77001953 0 -1.1132813 -0.10668945 q -0.34326172 -0.10668945 -0.34326172 -0.34326172 q 0 -0.15771484 0.10205078 -0.2319336 q 0.10205078 -0.07421875 0.3154297 -0.12988281 l 1.1875 -0.32006836 q 0.6911621 -0.17626953 1.0228271 -0.4963379 q 0.33166504 -0.32006836 0.33166504 -0.8720703 q 0 -0.78393555 -0.6053467 -1.159668 q -0.6053467 -0.37573242 -1.8809814 -0.37573242 Z "/>
        </symbol>
        <symbol id="g94404CA6EFCECCE9991AD2A2BC5B53DD" overflow="visible">
            <path d="M 0 0m 3.7666016 -0.09277344 q -1.215332 0 -1.7510986 0.49169922 q -0.5357666 0.49169922 -0.5357666 1.5725098 v 1.9064941 h -1.201416 v 1.0390625 h 1.201416 v 1.484375 h 1.1411133 v -1.484375 h 2.2033691 v -1.0390625 h -2.2033691 v -1.8137207 q 0 -0.5751953 0.289917 -0.8326416 q 0.289917 -0.2574463 0.9486084 -0.2574463 q 0.21801758 0 0.46850586 0.025512695 q 0.25048828 0.025512695 0.57055664 0.06726074 l 0.111328125 -1.0483398 q -0.31079102 -0.055664063 -0.607666 -0.083496094 q -0.296875 -0.027832031 -0.63549805 -0.027832031 Z "/>
        </symbol>
        <symbol id="g40A478DFDB1468C1517956AAFB2A3C40" overflow="visible">
            <path d="M 0 0m 3.6877441 0 v 3.0151367 q 0 0.4453125 -0.20178223 0.68652344 q -0.20178223 0.24121094 -0.572876 0.24121094 q -1.0344238 0 -1.0344238 -1.3637695 v -2.5791016 h -1.145752 v 4.916992 h 1.0297852 l 0.09741211 -0.890625 h 0.12988281 q 0.060302734 0.4963379 0.3479004 0.73986816 q 0.28759766 0.24353027 0.86279297 0.24353027 q 0.7792969 0 1.2060547 -0.47314453 q 0.4267578 -0.47314453 0.4267578 -1.3359375 v -3.2006836 h -1.145752 Z "/>
        </symbol>
        <symbol id="gD2DBA36EFB21E3A01E9F956CE97BEF5A" overflow="visible">
            <path d="M 0 0m 2.7832031 -0.09277344 q -1.0483398 0 -1.6235352 0.66796875 q -0.5751953 0.66796875 -0.5751953 1.8833008 q 0 1.2199707 0.5751953 1.8856201 q 0.5751953 0.6656494 1.6235352 0.6656494 q 1.0483398 0 1.6235352 -0.6656494 q 0.5751953 -0.6656494 0.5751953 -1.8856201 q 0 -1.215332 -0.5751953 -1.8833008 q -0.5751953 -0.66796875 -1.6235352 -0.66796875 Z m 0 1.0668945 q 0.48706055 0 0.7537842 0.3873291 q 0.26672363 0.3873291 0.26672363 1.0970459 q 0 0.71435547 -0.26672363 1.0993652 q -0.26672363 0.38500977 -0.7537842 0.38500977 q -0.48706055 0 -0.7537842 -0.38500977 q -0.26672363 -0.38500977 -0.26672363 -1.0993652 q 0 -0.7097168 0.26672363 -1.0970459 q 0.26672363 -0.3873291 0.7537842 -0.3873291 Z "/>
        </symbol>
        <symbol id="gD72267F14BF1DA7E4A138910BA57BEA7" overflow="visible">
            <path d="M 0 0m 0.6958008 0 v 1.0390625 h 1.8415527 v 2.8388672 h -1.5632324 v 1.0390625 h 2.7043457 v -3.8779297 h 1.4797363 v -1.0390625 h -4.4624023 Z m 2.3657227 5.626709 q -0.3293457 0 -0.5427246 0.2133789 q -0.2133789 0.2133789 -0.2133789 0.5427246 q 0 0.3293457 0.2133789 0.5427246 q 0.2133789 0.2133789 0.5427246 0.2133789 q 0.3293457 0 0.5427246 -0.2133789 q 0.2133789 -0.2133789 0.2133789 -0.5427246 q 0 -0.3293457 -0.2133789 -0.5427246 q -0.2133789 -0.2133789 -0.5427246 -0.2133789 Z "/>
        </symbol>
        <symbol id="g17F46DA49BD7E21D2377B6FE854EDBA1" overflow="visible">
            <path d="M 0 0m 1.7858887 0 v 2.9038086 h -1.5168457 v 0.9926758 h 1.5168457 v 0.60302734 q 0 2.5512695 2.4074707 2.5512695 q 0.5566406 0 1.0668945 -0.09277344 l -0.111328125 -1.0390625 q -0.30151367 0.037109375 -0.53344727 0.05102539 q -0.2319336 0.013916016 -0.44995117 0.013916016 q -1.2385254 0 -1.2385254 -1.4379883 v -0.64941406 h 1.9807129 v -0.9926758 h -1.9807129 v -2.9038086 h -1.1411133 Z "/>
        </symbol>
        <symbol id="g7EF3787B7A8C677F0B6EB64C0E4C4F76" overflow="visible">
            <path d="M 0 0m 0.30151367 -2.2265625 l -0.04638672 1.0065918 l 0.81640625 0.09277344 q 0.5427246 0.064941406 0.89990234 0.3223877 q 0.35717773 0.2574463 0.60302734 0.8048096 h -0.59375 l -1.7719727 4.916992 h 1.2060547 l 1.3730469 -3.9799805 h 0.09741211 l 1.1271973 3.9799805 h 1.2060547 l -1.3962402 -4.480957 q -0.2783203 -0.88134766 -0.6331787 -1.4217529 q -0.3548584 -0.5404053 -0.84191895 -0.8071289 q -0.48706055 -0.26672363 -1.1643066 -0.34094238 l -0.88134766 -0.09277344 Z "/>
        </symbol>
        <symbol id="g496D52F1239A202D2084B655D124B477" overflow="visible">
            <path d="M 0 0m 3.084961 -0.087890625 q -1.190918 0 -1.8391113 0.6262207 q -0.64819336 0.6262207 -0.64819336 1.7995605 q 0 1.1425781 0.6130371 1.7753906 q 0.6130371 0.6328125 1.7512207 0.6328125 q 0.68115234 0 1.166748 -0.25268555 q 0.4855957 -0.25268555 0.6921387 -0.7141113 l -0.7163086 -0.54052734 q -0.1977539 0.32080078 -0.5053711 0.49658203 q -0.3076172 0.17578125 -0.6723633 0.17578125 q -0.6591797 0 -1.0239258 -0.39770508 q -0.3647461 -0.39770508 -0.3647461 -1.1315918 q 0 -0.79541016 0.4284668 -1.2150879 q 0.4284668 -0.41967773 1.223877 -0.41967773 q 0.3251953 0 0.6503906 0.030761719 q 0.3251953 0.030761719 0.6328125 0.083496094 l 0.10546875 -0.8173828 q -0.36035156 -0.07910156 -0.74487305 -0.10546875 q -0.38452148 -0.026367188 -0.7492676 -0.026367188 Z "/>
        </symbol>
        <symbol id="gA89B28849E570429A74B372C5A555659" overflow="visible">
            <path d="M 0 0m 3.3310547 -0.087890625 q -0.80859375 0 -1.1689453 0.43945313 q -0.36035156 0.43945313 -0.36035156 1.40625 v 4.0166016 h -1.3710938 v 0.8173828 h 2.3027344 v -4.790039 q 0 -0.36914063 0.0703125 -0.6020508 q 0.0703125 -0.23291016 0.2746582 -0.34277344 q 0.2043457 -0.10986328 0.60424805 -0.10986328 q 0.3647461 0 0.9316406 0.16699219 l 0.10546875 -0.8173828 q -0.35595703 -0.09667969 -0.6833496 -0.140625 q -0.32739258 -0.043945313 -0.70532227 -0.043945313 Z "/>
        </symbol>
        <symbol id="gC863C15A47F1EE40B91CD46D2F207AF0" overflow="visible">
            <path d="M 0 0m 0.703125 0 v 0.8173828 h 1.7753906 v 3.0234375 h -1.5117188 v 0.8173828 h 2.4433594 v -3.8408203 h 1.4326172 v -0.8173828 h -4.1396484 Z m 2.2104492 5.3964844 q -0.2680664 0 -0.45922852 0.19116211 q -0.19116211 0.19116211 -0.19116211 0.45922852 q 0 0.27246094 0.19116211 0.46142578 q 0.19116211 0.18896484 0.45922852 0.18896484 q 0.27246094 0 0.46142578 -0.18896484 q 0.18896484 -0.18896484 0.18896484 -0.46142578 q 0 -0.2680664 -0.18896484 -0.45922852 q -0.18896484 -0.19116211 -0.46142578 -0.19116211 Z "/>
        </symbol>
        <symbol id="gEFAEEDD6907DC1C45C92FF41D2845054" overflow="visible">
            <path d="M 0 0m 3.0410156 -0.087890625 q -1.190918 0 -1.8391113 0.6262207 q -0.64819336 0.6262207 -0.64819336 1.7995605 q 0 1.1425781 0.5493164 1.7753906 q 0.5493164 0.6328125 1.5512695 0.6328125 q 0.9448242 0 1.4611816 -0.57128906 q 0.5163574 -0.57128906 0.5163574 -1.6611328 q 0 -0.32080078 -0.026367188 -0.59765625 h -3.1464844 q 0.123046875 -0.58447266 0.55371094 -0.88549805 q 0.43066406 -0.3010254 1.1337891 -0.3010254 q 0.29003906 0 0.57128906 0.032958984 q 0.28125 0.032958984 0.57128906 0.09008789 l 0.11425781 -0.8173828 q -0.41308594 -0.07910156 -0.7558594 -0.10107422 q -0.34277344 -0.021972656 -0.6064453 -0.021972656 Z m -1.6171875 2.7158203 h 2.3642578 q 0 0.62841797 -0.29882813 0.9645996 q -0.29882813 0.33618164 -0.8261719 0.33618164 q -0.54052734 0 -0.8613281 -0.3383789 q -0.32080078 -0.3383789 -0.3779297 -0.96240234 Z "/>
        </symbol>
        <symbol id="g633FB8EB4E92D6FD3B927F14FC393029" overflow="visible">
            <path d="M 0 0m 3.6035156 0 v 3.0322266 q 0 0.421875 -0.21972656 0.6503906 q -0.21972656 0.22851563 -0.6152344 0.22851563 q -1.0986328 0 -1.0986328 -1.2919922 v -2.6191406 h -0.9316406 v 4.658203 h 0.84375 l 0.07470703 -0.84375 h 0.10107422 q 0.07910156 0.9316406 1.2304688 0.9316406 q 0.73828125 0 1.1425781 -0.4482422 q 0.40429688 -0.4482422 0.40429688 -1.265625 v -3.0322266 h -0.9316406 Z "/>
        </symbol>
        <symbol id="gC979954D9EBF87A71FAD624AF61A34DA" overflow="visible">
            <path d="M 0 0m 3.4804688 -0.087890625 q -1.059082 0 -1.5314941 0.43945313 q -0.4724121 0.43945313 -0.4724121 1.40625 v 2.0830078 h -1.1689453 v 0.8173828 h 1.1689453 v 1.40625 h 0.9316406 v -1.40625 h 2.118164 v -0.8173828 h -2.118164 v -2.0390625 q 0 -0.55371094 0.27026367 -0.8041992 q 0.27026367 -0.25048828 0.8898926 -0.25048828 q 0.21972656 0 0.4658203 0.024169922 q 0.24609375 0.024169922 0.5625 0.0637207 l 0.10546875 -0.8173828 q -0.3076172 -0.052734375 -0.5998535 -0.07910156 q -0.29223633 -0.026367188 -0.6218262 -0.026367188 Z "/>
        </symbol>
        <symbol id="gD1B2E94B5C9985D20B63EC1E24E5C26A" overflow="visible">
            <path d="M 0 0m 2.2763672 -0.087890625 q -0.52734375 0 -0.9030762 0.030761719 q -0.37573242 0.030761719 -0.68774414 0.10107422 l 0.10546875 0.84375 q 0.46142578 -0.0703125 0.81518555 -0.10546875 q 0.35375977 -0.03515625 0.670166 -0.03515625 q 0.70751953 0 1.026123 0.13842773 q 0.31860352 0.13842773 0.31860352 0.4416504 q 0 0.2109375 -0.11206055 0.31420898 q -0.11206055 0.103271484 -0.3449707 0.16040039 l -1.0722656 0.27246094 q -0.6899414 0.17578125 -1.0129395 0.4350586 q -0.32299805 0.25927734 -0.32299805 0.7866211 q 0 0.76464844 0.5866699 1.1074219 q 0.5866699 0.34277344 1.8918457 0.34277344 q 0.64160156 0 1.2304688 -0.087890625 l -0.09667969 -0.80859375 q -0.35595703 0.03515625 -0.62841797 0.048339844 q -0.27246094 0.013183594 -0.5317383 0.013183594 q -0.78222656 0 -1.1337891 -0.1340332 q -0.3515625 -0.1340332 -0.3515625 -0.43725586 q 0 -0.20214844 0.14501953 -0.29223633 q 0.14501953 -0.09008789 0.44384766 -0.16479492 l 0.8613281 -0.2109375 q 0.7338867 -0.17578125 1.0744629 -0.47021484 q 0.34057617 -0.2944336 0.34057617 -0.8569336 q 0 -0.75146484 -0.5493164 -1.092041 q -0.5493164 -0.34057617 -1.762207 -0.34057617 Z "/>
        </symbol>
        <symbol id="g9E80DE21BD69AE0F43672228C9C283DA" overflow="visible">
            <path d="M 0 0m 2.3203125 2.0039063 v -1.1865234 h 1.1425781 v -0.8173828 h -3.1113281 v 0.8173828 h 1.0371094 v 3.0234375 h -0.8613281 v 0.8173828 h 1.6171875 l 0.15820313 -1.1953125 h 0.10546875 q 0.07910156 1.2832031 1.2832031 1.2832031 q 0.7207031 0 1.0458984 -0.41308594 q 0.3251953 -0.41308594 0.3251953 -1.3359375 h -0.92285156 q 0 0.5097656 -0.15161133 0.7338867 q -0.15161133 0.2241211 -0.48999023 0.2241211 q -0.5932617 0 -0.88549805 -0.50756836 q -0.29223633 -0.50756836 -0.29223633 -1.4436035 Z "/>
        </symbol>
        <symbol id="g1D6EC232D600E11B8D94326AD8F00DFC" overflow="visible">
            <path d="M 0 0m 2.0170898 0 l -1.6655273 4.658203 h 0.99316406 l 1.2524414 -3.8671875 h 0.07910156 l 1.2524414 3.8671875 h 0.99316406 l -1.6655273 -4.658203 h -1.2392578 Z "/>
        </symbol>
    </defs>
</svg>
