<svg class="typst-doc" viewBox="0 0 453.3593751063492 112.560546875" xmlns="http://www.w3.org/2000/svg" xmlns:xlink="http://www.w3.org/1999/xlink" xmlns:h5="http://www.w3.org/1999/xhtml">
    <path class="typst-shape" fill="#ffffff" fill-rule="nonzero" d="M 0 0v 112.56055 h 453.35938 v -112.56055 Z "/>
    <g>
        <g class="typst-group">
            <g>
                <g class="typst-text" transform="matrix(1 0 0 -1 30.546875053174602 26.93359375)">
                    <use xlink:href="#gA0C7FEADC8842FD651C60110BD888BE" x="0" y="0" fill="#59636e" fill-rule="nonzero"/>
                    <use xlink:href="#g7768021858DC6CC27188C9B04A05FA6D" x="5.859375" y="0" fill="#59636e" fill-rule="nonzero"/>
                    <use xlink:href="#gFB0F840E5A8BF49BEC8BE6A345CB4AB" x="11.71875" y="0" fill="#59636e" fill-rule="nonzero"/>
                </g>
                <g class="typst-text" transform="matrix(1 0 0 -1 101.2187501063492 26.93359375)">
                    <use xlink:href="#gADB68043964564A887B642DBBF3B9B14" x="0" y="0" fill="#59636e" fill-rule="nonzero"/>
                    <use xlink:href="#g7768021858DC6CC27188C9B04A05FA6D" x="5.859375" y="0" fill="#59636e" fill-rule="nonzero"/>
                    <use xlink:href="#gFB0F840E5A8BF49BEC8BE6A345CB4AB" x="11.71875" y="0" fill="#59636e" fill-rule="nonzero"/>
                </g>
                <g class="typst-text" transform="matrix(1 0 0 -1 178.9609376063492 26.93359375)">
                    <use xlink:href="#g9813F89FF73DE7D509A3AE97B0E01A31" x="0" y="0" fill="#59636e" fill-rule="nonzero"/>
                    <use xlink:href="#gA0C7FEADC8842FD651C60110BD888BE" x="5.859375" y="0" fill="#59636e" fill-rule="nonzero"/>
                    <use xlink:href="#g7768021858DC6CC27188C9B04A05FA6D" x="11.71875" y="0" fill="#59636e" fill-rule="nonzero"/>
                    <use xlink:href="#gFB0F840E5A8BF49BEC8BE6A345CB4AB" x="17.578125" y="0" fill="#59636e" fill-rule="nonzero"/>
                </g>
                <g class="typst-text" transform="matrix(1 0 0 -1 271.6328126063492 26.93359375)">
                    <use xlink:href="#g9813F89FF73DE7D509A3AE97B0E01A31" x="0" y="0" fill="#59636e" fill-rule="nonzero"/>
                    <use xlink:href="#gB6ECC1CAE9592327143FBC5BD9699955" x="5.859375" y="0" fill="#59636e" fill-rule="nonzero"/>
                    <use xlink:href="#g7768021858DC6CC27188C9B04A05FA6D" x="11.71875" y="0" fill="#59636e" fill-rule="nonzero"/>
                    <use xlink:href="#gFB0F840E5A8BF49BEC8BE6A345CB4AB" x="17.578125" y="0" fill="#59636e" fill-rule="nonzero"/>
                </g>
                <g class="typst-text" transform="matrix(1 0 0 -1 378.3046876063492 26.93359375)">
                    <use xlink:href="#g8B6870C38D048E85D06F1BA690EC325E" x="0" y="0" fill="#59636e" fill-rule="nonzero"/>
                    <use xlink:href="#gADB68043964564A887B642DBBF3B9B14" x="5.859375" y="0" fill="#59636e" fill-rule="nonzero"/>
                    <use xlink:href="#g7768021858DC6CC27188C9B04A05FA6D" x="11.71875" y="0" fill="#59636e" fill-rule="nonzero"/>
                    <use xlink:href="#gFB0F840E5A8BF49BEC8BE6A345CB4AB" x="17.578125" y="0" fill="#59636e" fill-rule="nonzero"/>
                </g>
                <g class="typst-group">
                    <g>
                        <g class="typst-group" transform="matrix(1 0 0 1 20 60.9335937320374)">
                            <g>
                                <g class="typst-group">
                                    <g>
                                        <path class="typst-shape" fill="#ddf4ff" fill-rule="nonzero" stroke="#0969da" stroke-width="1.2" stroke-linecap="butt" stroke-linejoin="miter" stroke-miterlimit="4" transform="matrix(1 0 0 1 0.00000010634921290065851 0)" d="M 0 0m 6 0 c -3.310704 0 -6 1.7092612 -6 3.8134766 c 0 2.1042151 2.689296 3.8134766 6 3.8134766 h 26.671875 c 3.3107033 0 6 -1.7092614 6 -3.8134766 c 0 -2.1042154 -2.6892967 -3.8134766 -6 -3.8134766 h -26.671875 Z "/>
                                        <path class="typst-shape" fill="none" transform="matrix(1 0 0 1 0 0.00000003592519667576893)" d="M 0 0h 38.671875 v 7.626953 h -38.671875 v -7.626953 Z "/>
                                        <g class="typst-group">
                                            <g>
                                                <g class="typst-group" transform="matrix(1 0 0 1 -0.00000010624921205316076 0)">
                                                    <g>
                                                        <g class="typst-group">
                                                            <g>
                                                                <g class="typst-text" transform="matrix(1 0 0 -1 0.00000000005000072447069752 7.626953125)">
                                                                    <use xlink:href="#gF986C70ACAA5417227C29F96052BEB07" x="0" y="0" fill="#1f2328" fill-rule="nonzero"/>
                                                                    <use xlink:href="#g70D5179DC19D8E8F3CE02D6CAF971164" x="6.4453125" y="0" fill="#1f2328" fill-rule="nonzero"/>
                                                                    <use xlink:href="#g7B17746C5D861FB5D0F41244074A49E0" x="12.890625" y="0" fill="#1f2328" fill-rule="nonzero"/>
                                                                    <use xlink:href="#g391847453ACBCB4C4C699ACF63B9C79E" x="19.3359375" y="0" fill="#1f2328" fill-rule="nonzero"/>
                                                                    <use xlink:href="#g9ED27BF9DD3FD9A08EC498C0FA12CB90" x="25.78125" y="0" fill="#1f2328" fill-rule="nonzero"/>
                                                                    <use xlink:href="#gC88201EF90881CFEFD7EDB658186DAAD" x="32.2265625" y="0" fill="#1f2328" fill-rule="nonzero"/>
                                                                </g>
                                                            </g>
                                                        </g>
                                                    </g>
                                                </g>
                                            </g>
                                        </g>
                                    </g>
                                </g>
                            </g>
                        </g>
                        <g class="typst-group" transform="matrix(1 0 0 1 86.6718751063492 56.93359375)">
                            <g>
                                <g class="typst-group">
                                    <g>
                                        <path class="typst-shape" fill="#ddf4ff" fill-rule="nonzero" stroke="#0969da" stroke-width="1.2" stroke-linecap="butt" stroke-linejoin="miter" stroke-miterlimit="4" d="M 0 0m 6 0 c -3.310704 0 -6 2.689296 -6 6 v 3.6269531 c 0 3.3107042 2.689296 6 6 6 h 34.671875 c 3.3107033 0 6 -2.6892958 6 -6 v -3.6269531 c 0 -3.310704 -2.6892967 -6 -6 -6 h -34.671875 Z "/>
                                        <path class="typst-shape" fill="none" transform="matrix(1 0 0 1 3.9999999251468483 4.0000000044291335)" d="M 0 0h 38.671875 v 7.626953 h -38.671875 v -7.626953 Z "/>
                                        <g class="typst-group">
                                            <g>
                                                <g class="typst-group" transform="matrix(1 0 0 1 3.9999998188976376 3.999999968503938)">
                                                    <g>
                                                        <g class="typst-group">
                                                            <g>
                                                                <g class="typst-text" transform="matrix(1 0 0 -1 0.00000000005000072447069752 7.626953125)">
                                                                    <use xlink:href="#gF986C70ACAA5417227C29F96052BEB07" x="0" y="0" fill="#1f2328" fill-rule="nonzero"/>
                                                                    <use xlink:href="#g70D5179DC19D8E8F3CE02D6CAF971164" x="6.4453125" y="0" fill="#1f2328" fill-rule="nonzero"/>
                                                                    <use xlink:href="#g7B17746C5D861FB5D0F41244074A49E0" x="12.890625" y="0" fill="#1f2328" fill-rule="nonzero"/>
                                                                    <use xlink:href="#g391847453ACBCB4C4C699ACF63B9C79E" x="19.3359375" y="0" fill="#1f2328" fill-rule="nonzero"/>
                                                                    <use xlink:href="#g9ED27BF9DD3FD9A08EC498C0FA12CB90" x="25.78125" y="0" fill="#1f2328" fill-rule="nonzero"/>
                                                                    <use xlink:href="#gC88201EF90881CFEFD7EDB658186DAAD" x="32.2265625" y="0" fill="#1f2328" fill-rule="nonzero"/>
                                                                </g>
                                                            </g>
                                                        </g>
                                                    </g>
                                                </g>
                                            </g>
                                        </g>
                                    </g>
                                </g>
                            </g>
                        </g>
                        <g class="typst-group" transform="matrix(1 0 0 1 161.3437501063492 50.93359375)">
                            <g>
                                <g class="typst-group">
                                    <g>
                                        <path class="typst-shape" fill="#ddf4ff" fill-rule="nonzero" stroke="#0969da" stroke-width="1.2" stroke-linecap="butt" stroke-linejoin="miter" stroke-miterlimit="4" d="M 0 0m 6 0 c -3.310704 0 -6 2.689296 -6 6 v 15.626953 c 0 3.3107033 2.689296 6 6 6 h 46.671875 c 3.3107033 0 6 -2.6892967 6 -6 v -15.626953 c 0 -3.310704 -2.6892967 -6 -6 -6 h -46.671875 Z "/>
                                        <path class="typst-shape" fill="none" transform="matrix(1 0 0 1 10.000000114123232 10.000000098917324)" d="M 0 0h 38.671875 v 7.626953 h -38.671875 v -7.626953 Z "/>
                                        <g class="typst-group">
                                            <g>
                                                <g class="typst-group" transform="matrix(1 0 0 1 10.000000007874021 10.000000062992127)">
                                                    <g>
                                                        <g class="typst-group">
                                                            <g>
                                                                <g class="typst-text" transform="matrix(1 0 0 -1 0.00000000005000072447069752 7.626953125)">
                                                                    <use xlink:href="#gF986C70ACAA5417227C29F96052BEB07" x="0" y="0" fill="#1f2328" fill-rule="nonzero"/>
                                                                    <use xlink:href="#g70D5179DC19D8E8F3CE02D6CAF971164" x="6.4453125" y="0" fill="#1f2328" fill-rule="nonzero"/>
                                                                    <use xlink:href="#g7B17746C5D861FB5D0F41244074A49E0" x="12.890625" y="0" fill="#1f2328" fill-rule="nonzero"/>
                                                                    <use xlink:href="#g391847453ACBCB4C4C699ACF63B9C79E" x="19.3359375" y="0" fill="#1f2328" fill-rule="nonzero"/>
                                                                    <use xlink:href="#g9ED27BF9DD3FD9A08EC498C0FA12CB90" x="25.78125" y="0" fill="#1f2328" fill-rule="nonzero"/>
                                                                    <use xlink:href="#gC88201EF90881CFEFD7EDB658186DAAD" x="32.2265625" y="0" fill="#1f2328" fill-rule="nonzero"/>
                                                                </g>
                                                            </g>
                                                        </g>
                                                    </g>
                                                </g>
                                            </g>
                                        </g>
                                    </g>
                                </g>
                            </g>
                        </g>
                        <g class="typst-group" transform="matrix(1 0 0 1 248.0156251063492 44.93359375)">
                            <g>
                                <g class="typst-group">
                                    <g>
                                        <path class="typst-shape" fill="#ddf4ff" fill-rule="nonzero" stroke="#0969da" stroke-width="1.2" stroke-linecap="butt" stroke-linejoin="miter" stroke-miterlimit="4" d="M 0 0m 6 0 c -3.310704 0 -6 2.689296 -6 6 v 27.626953 c 0 3.3107033 2.689296 6 6 6 h 58.671875 c 3.310707 0 6 -2.6892967 6 -6 v -27.626953 c 0 -3.310704 -2.689293 -6 -6 -6 h -58.671875 Z "/>
                                        <path class="typst-shape" fill="none" transform="matrix(1 0 0 1 16.000000019635042 15.999999909940948)" d="M 0 0h 38.671875 v 7.626953 h -38.671875 v -7.626953 Z "/>
                                        <g class="typst-group">
                                            <g>
                                                <g class="typst-group" transform="matrix(1 0 0 1 15.999999913385833 15.999999874015753)">
                                                    <g>
                                                        <g class="typst-group">
                                                            <g>
                                                                <g class="typst-text" transform="matrix(1 0 0 -1 0.00000000005000072447069752 7.626953125)">
                                                                    <use xlink:href="#gF986C70ACAA5417227C29F96052BEB07" x="0" y="0" fill="#1f2328" fill-rule="nonzero"/>
                                                                    <use xlink:href="#g70D5179DC19D8E8F3CE02D6CAF971164" x="6.4453125" y="0" fill="#1f2328" fill-rule="nonzero"/>
                                                                    <use xlink:href="#g7B17746C5D861FB5D0F41244074A49E0" x="12.890625" y="0" fill="#1f2328" fill-rule="nonzero"/>
                                                                    <use xlink:href="#g391847453ACBCB4C4C699ACF63B9C79E" x="19.3359375" y="0" fill="#1f2328" fill-rule="nonzero"/>
                                                                    <use xlink:href="#g9ED27BF9DD3FD9A08EC498C0FA12CB90" x="25.78125" y="0" fill="#1f2328" fill-rule="nonzero"/>
                                                                    <use xlink:href="#gC88201EF90881CFEFD7EDB658186DAAD" x="32.2265625" y="0" fill="#1f2328" fill-rule="nonzero"/>
                                                                </g>
                                                            </g>
                                                        </g>
                                                    </g>
                                                </g>
                                            </g>
                                        </g>
                                    </g>
                                </g>
                            </g>
                        </g>
                        <g class="typst-group" transform="matrix(1 0 0 1 346.6875001063492 36.93359375)">
                            <g>
                                <g class="typst-group">
                                    <g>
                                        <path class="typst-shape" fill="#ddf4ff" fill-rule="nonzero" stroke="#0969da" stroke-width="1.2" stroke-linecap="butt" stroke-linejoin="miter" stroke-miterlimit="4" d="M 0 0m 6 0 c -3.310704 0 -6 2.689296 -6 6 v 43.626953 c 0 3.3107033 2.689296 6 6 6 h 74.671875 c 3.310707 0 6 -2.6892967 6 -6 v -43.626953 c 0 -3.310704 -2.689293 -6 -6 -6 h -74.671875 Z "/>
                                        <path class="typst-shape" fill="none" transform="matrix(1 0 0 1 24.000000082627164 24.000000130413387)" d="M 0 0h 38.671875 v 7.626953 h -38.671875 v -7.626953 Z "/>
                                        <g class="typst-group">
                                            <g>
                                                <g class="typst-group" transform="matrix(1 0 0 1 23.999999976377953 24.000000094488193)">
                                                    <g>
                                                        <g class="typst-group">
                                                            <g>
                                                                <g class="typst-text" transform="matrix(1 0 0 -1 0.00000000005000072447069752 7.626953125)">
                                                                    <use xlink:href="#gF986C70ACAA5417227C29F96052BEB07" x="0" y="0" fill="#1f2328" fill-rule="nonzero"/>
                                                                    <use xlink:href="#g70D5179DC19D8E8F3CE02D6CAF971164" x="6.4453125" y="0" fill="#1f2328" fill-rule="nonzero"/>
                                                                    <use xlink:href="#g7B17746C5D861FB5D0F41244074A49E0" x="12.890625" y="0" fill="#1f2328" fill-rule="nonzero"/>
                                                                    <use xlink:href="#g391847453ACBCB4C4C699ACF63B9C79E" x="19.3359375" y="0" fill="#1f2328" fill-rule="nonzero"/>
                                                                    <use xlink:href="#g9ED27BF9DD3FD9A08EC498C0FA12CB90" x="25.78125" y="0" fill="#1f2328" fill-rule="nonzero"/>
                                                                    <use xlink:href="#gC88201EF90881CFEFD7EDB658186DAAD" x="32.2265625" y="0" fill="#1f2328" fill-rule="nonzero"/>
                                                                </g>
                                                            </g>
                                                        </g>
                                                    </g>
                                                </g>
                                            </g>
                                        </g>
                                    </g>
                                </g>
                            </g>
                        </g>
                    </g>
                </g>
            </g>
        </g>
    </g>
    <defs id="glyph">
        <symbol id="gA0C7FEADC8842FD651C60110BD888BE" overflow="visible">
            <path d="M 0 0m 2.9296875 -0.09765625 q -2.4121094 0 -2.4121094 3.515625 q 0 3.6132813 2.4121094 3.6132813 q 2.4121094 0 2.4121094 -3.6132813 q 0 -3.515625 -2.4121094 -3.515625 Z m 0 1.0986328 q 1.1962891 0 1.1962891 2.4169922 q 0 2.5146484 -1.1962891 2.5146484 q -1.2060547 0 -1.2060547 -2.5146484 q 0 -2.4169922 1.2060547 -2.4169922 Z m -0.0048828125 1.5869141 q -0.3076172 0 -0.49560547 0.22705078 q -0.18798828 0.22705078 -0.18798828 0.60302734 q 0 0.37597656 0.18798828 0.60302734 q 0.18798828 0.22705078 0.49560547 0.22705078 q 0.3076172 0 0.49560547 -0.22705078 q 0.18798828 -0.22705078 0.18798828 -0.60302734 q 0 -0.37597656 -0.18798828 -0.60302734 q -0.18798828 -0.22705078 -0.49560547 -0.22705078 Z "/>
        </symbol>
        <symbol id="g7768021858DC6CC27188C9B04A05FA6D" overflow="visible">
            <path d="M 0 0m 0.7324219 0 v 6.9335938 h 2.0898438 q 1.3037109 0 1.9995117 -0.60058594 q 0.6958008 -0.60058594 0.6958008 -1.7236328 q 0 -1.2353516 -0.6958008 -1.8969727 q -0.6958008 -0.6616211 -1.9995117 -0.6616211 h -0.91308594 v -2.0507813 h -1.1767578 Z m 1.1767578 3.1347656 h 0.91308594 q 0.703125 0 1.0766602 0.37109375 q 0.37353516 0.37109375 0.37353516 1.0546875 q 0 0.625 -0.37353516 0.95703125 q -0.37353516 0.33203125 -1.0766602 0.33203125 h -0.91308594 v -2.7148438 Z "/>
        </symbol>
        <symbol id="gFB0F840E5A8BF49BEC8BE6A345CB4AB" overflow="visible">
            <path d="M 0 0m 2.3388672 0 v 5.8496094 h -1.9970703 v 1.0839844 h 5.1757813 v -1.0839844 h -1.9970703 v -5.8496094 h -1.1816406 Z "/>
        </symbol>
        <symbol id="gADB68043964564A887B642DBBF3B9B14" overflow="visible">
            <path d="M 0 0m 0.3125 1.4599609 l 0.9033203 5.083008 h 1.2109375 l -0.72265625 -4.013672 h 1.9726563 v 4.404297 h 1.1767578 v -4.404297 h 0.6640625 v -1.0693359 h -0.6640625 v -1.4599609 h -1.1767578 v 1.4599609 h -3.3642578 Z "/>
        </symbol>
        <symbol id="g9813F89FF73DE7D509A3AE97B0E01A31" overflow="visible">
            <path d="M 0 0m 0.78125 0 v 1.0546875 h 1.7041016 v 4.7265625 l -1.6064453 -0.56640625 v 1.1328125 l 1.6064453 0.5859375 h 1.1816406 v -5.8789063 h 1.5185547 v -1.0546875 h -4.404297 Z "/>
        </symbol>
        <symbol id="gB6ECC1CAE9592327143FBC5BD9699955" overflow="visible">
            <path d="M 0 0m 2.9736328 -0.09765625 q -1.171875 0 -1.784668 0.6323242 q -0.61279297 0.6323242 -0.61279297 1.8383789 v 0.44921875 q 0 1.9775391 1.0327148 3.0078125 q 1.0327148 1.0302734 3.1469727 1.1328125 l 0.09765625 -1.1083984 q -3.0175781 -0.13183594 -3.022461 -2.5927734 h 0.11230469 q 0.14160156 0.5419922 0.5517578 0.83740234 q 0.41015625 0.29541016 1.0009766 0.29541016 q 0.9082031 0 1.4013672 -0.56884766 q 0.49316406 -0.56884766 0.49316406 -1.6137695 q 0 -1.09375 -0.6323242 -1.7016602 q -0.6323242 -0.60791016 -1.784668 -0.60791016 Z m 0.01953125 1.0986328 q 0.5566406 0 0.8642578 0.3173828 q 0.3076172 0.3173828 0.3076172 0.8935547 q 0 0.52246094 -0.29052734 0.80566406 q -0.29052734 0.28320313 -0.83740234 0.28320313 q -0.5859375 0 -0.9057617 -0.30517578 q -0.31982422 -0.30517578 -0.31982422 -0.8618164 q 0 -0.53222656 0.3100586 -0.83251953 q 0.3100586 -0.30029297 0.87158203 -0.30029297 Z "/>
        </symbol>
        <symbol id="g8B6870C38D048E85D06F1BA690EC325E" overflow="visible">
            <path d="M 0 0m 0.6933594 0 v 1.2402344 q 1.5625 0.84472656 2.3291016 1.7626953 q 0.76660156 0.91796875 0.76660156 1.8896484 q 0 1.0449219 -1.0351563 1.0449219 q -0.41015625 0 -0.8520508 -0.22949219 q -0.44189453 -0.22949219 -0.75927734 -0.61035156 l -0.72265625 0.7910156 q 0.3515625 0.5175781 0.99853516 0.8300781 q 0.64697266 0.3125 1.3549805 0.3125 q 2.2363281 0 2.2363281 -2.0898438 q 0 -1.0107422 -0.61035156 -1.9335938 q -0.61035156 -0.92285156 -1.8652344 -1.7822266 v -0.17089844 h 2.7685547 v -1.0546875 h -4.609375 Z "/>
        </symbol>
        <symbol id="gF986C70ACAA5417227C29F96052BEB07" overflow="visible">
            <path d="M 0 0m 2.7822266 -0.107421875 q -0.64453125 0 -1.1037598 0.037597656 q -0.45922852 0.037597656 -0.8405762 0.123535156 l 0.12890625 1.03125 q 0.56396484 -0.0859375 0.9963379 -0.12890625 q 0.43237305 -0.04296875 0.8190918 -0.04296875 q 0.8647461 0 1.2541504 0.16918945 q 0.3894043 0.16918945 0.3894043 0.5397949 q 0 0.2578125 -0.13696289 0.3840332 q -0.13696289 0.1262207 -0.42163086 0.19604492 l -1.3105469 0.3330078 q -0.8432617 0.21484375 -1.2380371 0.5317383 q -0.3947754 0.31689453 -0.3947754 0.9614258 q 0 0.9345703 0.717041 1.3535156 q 0.717041 0.4189453 2.3122559 0.4189453 q 0.7841797 0 1.5039063 -0.107421875 l -0.11816406 -0.98828125 q -0.4350586 0.04296875 -0.7680664 0.05908203 q -0.3330078 0.016113281 -0.64990234 0.016113281 q -0.9560547 0 -1.3857422 -0.16381836 q -0.4296875 -0.16381836 -0.4296875 -0.5344238 q 0 -0.24707031 0.1772461 -0.35717773 q 0.1772461 -0.11010742 0.54248047 -0.20141602 l 1.0527344 -0.2578125 q 0.89697266 -0.21484375 1.3132324 -0.57470703 q 0.41625977 -0.35986328 0.41625977 -1.0473633 q 0 -0.91845703 -0.6713867 -1.3347168 q -0.6713867 -0.41625977 -2.1538086 -0.41625977 Z "/>
        </symbol>
        <symbol id="g70D5179DC19D8E8F3CE02D6CAF971164" overflow="visible">
            <path d="M 0 0m 4.3935547 -0.053710938 l -0.053710938 1.2568359 h -0.11279297 q -0.064453125 -0.65527344 -0.5559082 -0.98291016 q -0.49145508 -0.32763672 -1.286377 -0.32763672 q -0.89160156 0 -1.3803711 0.4296875 q -0.48876953 0.4296875 -0.48876953 1.2138672 q 0 0.90234375 0.67407227 1.3857422 q 0.67407227 0.48339844 1.9040527 0.48339844 q 0.6123047 0 1.0742188 -0.091308594 v 0.2631836 q 0 0.56933594 -0.40014648 0.8352051 q -0.40014648 0.26586914 -1.1896973 0.28735352 l -1.3642578 0.037597656 l 0.107421875 1.0097656 l 1.1494141 -0.016113281 q 1.4125977 -0.021484375 2.097412 -0.60961914 q 0.68481445 -0.58813477 0.68481445 -1.7160645 v -2.3740234 l 0.9667969 -0.11816406 v -0.91308594 l -1.8261719 -0.053710938 Z m -0.22558594 2.4921875 q -0.27392578 0.04296875 -0.545166 0.048339844 q -0.27124023 0.0053710938 -0.5505371 0.0053710938 q -1.4824219 0 -1.4824219 -0.90234375 q 0 -0.37597656 0.25512695 -0.5800781 q 0.25512695 -0.20410156 0.7224121 -0.20410156 q 0.5317383 0 0.888916 0.18261719 q 0.35717773 0.18261719 0.5344238 0.46728516 q 0.1772461 0.28466797 0.1772461 0.5854492 v 0.39746094 Z "/>
        </symbol>
        <symbol id="g7B17746C5D861FB5D0F41244074A49E0" overflow="visible">
            <path d="M 0 0m 4.705078 0 v 4.350586 q 0 0.5908203 -0.4404297 0.5908203 q -0.55859375 0 -0.55859375 -0.7734375 v -4.1679688 h -0.9667969 v 4.458008 q 0 0.48339844 -0.45117188 0.48339844 q -0.54785156 0 -0.54785156 -0.7734375 v -4.1679688 h -1.1386719 v 5.6933594 h 1.0097656 l 0.07519531 -0.7089844 h 0.0859375 q 0.064453125 0.81640625 0.97753906 0.81640625 q 0.35986328 0 0.59887695 -0.20410156 q 0.23901367 -0.20410156 0.31958008 -0.6123047 h 0.091308594 q 0.026855469 0.3330078 0.26586914 0.57470703 q 0.23901367 0.24169922 0.69018555 0.24169922 q 0.5908203 0 0.859375 -0.31689453 q 0.2685547 -0.31689453 0.2685547 -1.0258789 v -4.458008 h -1.1386719 Z "/>
        </symbol>
        <symbol id="g391847453ACBCB4C4C699ACF63B9C79E" overflow="visible">
            <path d="M 0 0m 0.90234375 -2.4707031 v 8.1640625 h 1.03125 l 0.091308594 -1.03125 h 0.06982422 q 0.07519531 0.5371094 0.48608398 0.8378906 q 0.41088867 0.30078125 1.0769043 0.30078125 q 1.1225586 0 1.6972656 -0.7626953 q 0.57470703 -0.7626953 0.57470703 -2.2451172 q 0 -1.4287109 -0.57470703 -2.1645508 q -0.57470703 -0.73583984 -1.6972656 -0.73583984 q -0.65527344 0 -1.0554199 0.30078125 q -0.40014648 0.30078125 -0.45385742 0.8378906 h -0.107421875 v -3.5019531 h -1.1386719 Z m 1.1386719 5.1240234 q 0 -1.7939453 1.3642578 -1.7939453 q 1.3964844 0 1.3964844 1.9335938 q 0 2.0410156 -1.3964844 2.0410156 q -1.3642578 0 -1.3642578 -1.7939453 v -0.38671875 Z "/>
        </symbol>
        <symbol id="g9ED27BF9DD3FD9A08EC498C0FA12CB90" overflow="visible">
            <path d="M 0 0m 4.071289 -0.107421875 q -0.98828125 0 -1.4287109 0.5371094 q -0.4404297 0.5371094 -0.4404297 1.71875 v 4.9091797 h -1.6757813 v 0.99902344 h 2.8144531 v -5.854492 q 0 -0.45117188 0.0859375 -0.73583984 q 0.0859375 -0.28466797 0.33569336 -0.4189453 q 0.24975586 -0.13427734 0.7385254 -0.13427734 q 0.44580078 0 1.1386719 0.20410156 l 0.12890625 -0.99902344 q -0.4350586 -0.11816406 -0.8352051 -0.171875 q -0.40014648 -0.053710938 -0.86206055 -0.053710938 Z "/>
        </symbol>
        <symbol id="gC88201EF90881CFEFD7EDB658186DAAD" overflow="visible">
            <path d="M 0 0m 3.7167969 -0.107421875 q -1.4555664 0 -2.2478027 0.76538086 q -0.7922363 0.76538086 -0.7922363 2.199463 q 0 1.3964844 0.6713867 2.1699219 q 0.6713867 0.7734375 1.8959961 0.7734375 q 1.1547852 0 1.7858887 -0.6982422 q 0.6311035 -0.6982422 0.6311035 -2.0302734 q 0 -0.39208984 -0.032226563 -0.73046875 h -3.8457031 q 0.15039063 -0.71435547 0.6767578 -1.0822754 q 0.5263672 -0.36791992 1.3857422 -0.36791992 q 0.3544922 0 0.6982422 0.040283203 q 0.34375 0.040283203 0.6982422 0.11010742 l 0.13964844 -0.99902344 q -0.5048828 -0.09667969 -0.9238281 -0.123535156 q -0.4189453 -0.026855469 -0.74121094 -0.026855469 Z m -1.9765625 3.319336 h 2.8896484 q 0 0.7680664 -0.36523438 1.1789551 q -0.36523438 0.41088867 -1.0097656 0.41088867 q -0.66064453 0 -1.0527344 -0.41357422 q -0.39208984 -0.41357422 -0.46191406 -1.1762695 Z "/>
        </symbol>
    </defs>
</svg>
