<svg class="typst-doc" viewBox="0 0 490.0734375 114.241015625" xmlns="http://www.w3.org/2000/svg" xmlns:xlink="http://www.w3.org/1999/xlink" xmlns:h5="http://www.w3.org/1999/xhtml">
    <path class="typst-shape" fill="#0d1117" fill-rule="nonzero" d="M 0 0v 114.24101 h 490.07343 v -114.24101 Z "/>
    <g>
        <g class="typst-group">
            <g>
                <g class="typst-group" transform="matrix(1 0 0 1 20 20)">
                    <g>
                        <g class="typst-group" transform="matrix(1 0 0 1 29.55078125 3.5999999999999988)">
                            <g>
                                <g class="typst-group">
                                    <g>
                                        <path class="typst-shape" fill="#051d4d" fill-rule="nonzero" stroke="#388bfd" stroke-width="1.2" stroke-linecap="butt" stroke-linejoin="miter" stroke-miterlimit="4" d="M 0 0m 6 0 c -3.310704 0 -6 2.689296 -6 6 v 26.867188 c 0 3.3107033 2.689296 6 6 6 h 55.460938 c 3.310707 0 6 -2.6892967 6 -6 v -26.867188 c 0 -3.310704 -2.689293 -6 -6 -6 h -55.460938 Z "/>
                                        <path class="typst-shape" fill="none" transform="matrix(1 0 0 1 10.000000025540555 9.9999999507874)" d="M 0 0h 47.460938 v 18.867188 h -47.460938 v -18.867188 Z "/>
                                        <g class="typst-group">
                                            <g>
                                                <g class="typst-group" transform="matrix(1 0 0 1 9.999999972440946 9.99999992125984)">
                                                    <g>
                                                        <g class="typst-group">
                                                            <g>
                                                                <g class="typst-group">
                                                                    <g>
                                                                        <g class="typst-text" transform="matrix(1 0 0 -1 14.062500000050001 7.626953125)">
                                                                            <use xlink:href="#gA18CDFE1F62A00B4FEC5E44AFC386BDB" x="0" y="0" fill="#f0f6fc" fill-rule="nonzero"/>
                                                                            <use xlink:href="#g671276076474A6FD5E2B11E6BEE10ABC" x="6.4453125" y="0" fill="#f0f6fc" fill-rule="nonzero"/>
                                                                            <use xlink:href="#g3886D710B7AABFD372757D2B30542D74" x="12.890625" y="0" fill="#f0f6fc" fill-rule="nonzero"/>
                                                                        </g>
                                                                        <g class="typst-text" transform="matrix(1 0 0 -1 0.00000000005000072447069752 18.8671875)">
                                                                            <use xlink:href="#gE0E12823E218B78D2E538FA71A22EB8B" x="0" y="0" fill="#80ccff" fill-rule="nonzero"/>
                                                                            <use xlink:href="#g76D0C6CEEFB0FF9A00CE32A4E4BBF9F7" x="5.2734375" y="0" fill="#80ccff" fill-rule="nonzero"/>
                                                                            <use xlink:href="#gB42704BEBBE1FE92C991C9C123C18594" x="10.546875" y="0" fill="#80ccff" fill-rule="nonzero"/>
                                                                            <use xlink:href="#g450E794631A8688DF35B57E076332A74" x="15.8203125" y="0" fill="#80ccff" fill-rule="nonzero"/>
                                                                            <use xlink:href="#g390517E79D4F7866AD58BD1517CE551A" x="21.09375" y="0" fill="#80ccff" fill-rule="nonzero"/>
                                                                            <use xlink:href="#g1845A4AECCD66EEAAD5BCF6194D2F543" x="26.3671875" y="0" fill="#80ccff" fill-rule="nonzero"/>
                                                                            <use xlink:href="#gA7AAD71C6DD1791DD1272CE78BBDF2B0" x="31.640625" y="0" fill="#80ccff" fill-rule="nonzero"/>
                                                                            <use xlink:href="#g9D2E4F7E5709569433E7CF2B02C985D1" x="36.9140625" y="0" fill="#80ccff" fill-rule="nonzero"/>
                                                                            <use xlink:href="#g1A69AD2CE0F425B64739F9F7589ABF2C" x="42.1875" y="0" fill="#80ccff" fill-rule="nonzero"/>
                                                                        </g>
                                                                    </g>
                                                                </g>
                                                            </g>
                                                        </g>
                                                    </g>
                                                </g>
                                            </g>
                                        </g>
                                    </g>
                                </g>
                            </g>
                        </g>
                        <g class="typst-text" transform="matrix(1 0 0 -1 48.6328125 56.90078125)">
                            <use xlink:href="#g624624CC9F2CB8C0B0AE523235D34578" x="0" y="0" fill="#f0f6fc" fill-rule="nonzero"/>
                            <use xlink:href="#g39BAF14B4055A8B06121F17E5F9B51AE" x="5.859375" y="0" fill="#f0f6fc" fill-rule="nonzero"/>
                            <use xlink:href="#gE57B1D3F31758FB22B2DB04FBA56A370" x="11.71875" y="0" fill="#f0f6fc" fill-rule="nonzero"/>
                            <use xlink:href="#g99B1A03340B8BB74975F0DAC0C8EE3AF" x="17.578125" y="0" fill="#f0f6fc" fill-rule="nonzero"/>
                            <use xlink:href="#gF1EC1563DECA03293A756870C62A0CB6" x="23.4375" y="0" fill="#f0f6fc" fill-rule="nonzero"/>
                        </g>
                        <g class="typst-text" transform="matrix(1 0 0 -1 0 70.64101562500001)">
                            <use xlink:href="#g295948A9064179BB2603CED527A7507F" x="0" y="0" fill="#9198a1" fill-rule="nonzero"/>
                            <use xlink:href="#g61BE24A7338E5BDF7E07431DDD5177DD" x="5.2734375" y="0" fill="#9198a1" fill-rule="nonzero"/>
                            <use xlink:href="#gAF364C589BC3EB2DA2B782579CF0B20A" x="10.546875" y="0" fill="#9198a1" fill-rule="nonzero"/>
                            <use xlink:href="#g37EB9BABF8C82579FEEF20113589048" x="15.8203125" y="0" fill="#9198a1" fill-rule="nonzero"/>
                            <use xlink:href="#g44286BBD80A6762A2D16967711673B4" x="21.09375" y="0" fill="#9198a1" fill-rule="nonzero"/>
                            <use xlink:href="#gAED5408ABFFD3BF5E782E1394BDA73C5" x="26.3671875" y="0" fill="#9198a1" fill-rule="nonzero"/>
                            <use xlink:href="#gEB79A7B9177971E890483187EB55FD13" x="31.640625" y="0" fill="#9198a1" fill-rule="nonzero"/>
                            <use xlink:href="#gB6370677F5B2FC197163FEB3EBE1A83B" x="42.1875" y="0" fill="#9198a1" fill-rule="nonzero"/>
                            <use xlink:href="#g1AB7F93DDE4078D844912323D9FB29AD" x="52.734375" y="0" fill="#9198a1" fill-rule="nonzero"/>
                            <use xlink:href="#g37EB9BABF8C82579FEEF20113589048" x="58.0078125" y="0" fill="#9198a1" fill-rule="nonzero"/>
                            <use xlink:href="#g1726B056BB78D17DAA3C5EC712C0D098" x="63.28125" y="0" fill="#9198a1" fill-rule="nonzero"/>
                            <use xlink:href="#g61BE24A7338E5BDF7E07431DDD5177DD" x="68.5546875" y="0" fill="#9198a1" fill-rule="nonzero"/>
                            <use xlink:href="#gAED5408ABFFD3BF5E782E1394BDA73C5" x="73.828125" y="0" fill="#9198a1" fill-rule="nonzero"/>
                            <use xlink:href="#g790D21DDD7746B3EED50EBE5D93C4599" x="79.1015625" y="0" fill="#9198a1" fill-rule="nonzero"/>
                            <use xlink:href="#gC74888528B3AEE0D5E47317239028E70" x="84.375" y="0" fill="#9198a1" fill-rule="nonzero"/>
                            <use xlink:href="#g61BE24A7338E5BDF7E07431DDD5177DD" x="89.6484375" y="0" fill="#9198a1" fill-rule="nonzero"/>
                            <use xlink:href="#g1726B056BB78D17DAA3C5EC712C0D098" x="100.1953125" y="0" fill="#9198a1" fill-rule="nonzero"/>
                            <use xlink:href="#g7CA6670B781567762FF4BD6C525BB628" x="105.46875" y="0" fill="#9198a1" fill-rule="nonzero"/>
                            <use xlink:href="#g37EB9BABF8C82579FEEF20113589048" x="110.7421875" y="0" fill="#9198a1" fill-rule="nonzero"/>
                            <use xlink:href="#gDC03E2BD7297B97B15232DDE57484FFC" x="116.015625" y="0" fill="#9198a1" fill-rule="nonzero"/>
                            <use xlink:href="#g61BE24A7338E5BDF7E07431DDD5177DD" x="121.2890625" y="0" fill="#9198a1" fill-rule="nonzero"/>
                        </g>
                    </g>
                </g>
                <g class="typst-group" transform="matrix(1 0 0 1 174.5625 20)">
                    <g>
                        <g class="typst-group" transform="matrix(1 0 0 1 35.66972656249999 0)">
                            <g>
                                <g class="typst-group">
                                    <g>
                                        <path class="typst-shape" fill="#051d4d" fill-rule="nonzero" stroke="#388bfd" stroke-width="1.2" stroke-linecap="butt" stroke-linejoin="miter" stroke-miterlimit="4" transform="matrix(1 0 0 1 3.5999999999999934 3.6)" d="M 0 0m 6 0 c -3.310704 0 -6 2.689296 -6 6 v 26.867188 c 0 3.3107033 2.689296 6 6 6 h 55.460938 c 3.310707 0 6 -2.6892967 6 -6 v -26.867188 c 0 -3.310704 -2.689293 -6 -6 -6 h -55.460938 Z "/>
                                        <path class="typst-shape" fill="none" stroke="#388bfd" stroke-width="1.2" stroke-linecap="butt" stroke-linejoin="miter" stroke-miterlimit="4" d="M 0 0m 9.6 0 c -5.297127 0 -9.6 4.3028736 -9.6 9.6 v 26.867186 c 0 5.297127 4.3028736 9.600002 9.6 9.600002 h 55.460938 c 5.297127 0 9.599998 -4.3028755 9.599998 -9.600002 v -26.867186 c 0 -5.297127 -4.3028717 -9.6 -9.599998 -9.6 h -55.460938 Z "/>
                                        <path class="typst-shape" fill="none" transform="matrix(1 0 0 1 13.600000025540549 13.5999999507874)" d="M 0 0h 47.460938 v 18.867188 h -47.460938 v -18.867188 Z "/>
                                        <g class="typst-group">
                                            <g>
                                                <g class="typst-group" transform="matrix(1 0 0 1 13.599999972440944 13.59999992125984)">
                                                    <g>
                                                        <g class="typst-group">
                                                            <g>
                                                                <g class="typst-group">
                                                                    <g>
                                                                        <g class="typst-group">
                                                                            <g>
                                                                                <g class="typst-text" transform="matrix(1 0 0 -1 0 7.626953125)">
                                                                                    <use xlink:href="#gA18CDFE1F62A00B4FEC5E44AFC386BDB" x="0" y="0" fill="#f0f6fc" fill-rule="nonzero"/>
                                                                                    <use xlink:href="#g671276076474A6FD5E2B11E6BEE10ABC" x="6.4453125" y="0" fill="#f0f6fc" fill-rule="nonzero"/>
                                                                                    <use xlink:href="#g3886D710B7AABFD372757D2B30542D74" x="12.890625" y="0" fill="#f0f6fc" fill-rule="nonzero"/>
                                                                                </g>
                                                                                <g class="typst-text" transform="matrix(1 0 0 -1 36.4609375001 7.626953125)">
                                                                                    <use xlink:href="#gF5040AB48D4CC8072B6D3E70028F9AD3" x="0" y="0" fill="#388bfd" fill-rule="nonzero"/>
                                                                                </g>
                                                                            </g>
                                                                        </g>
                                                                        <g class="typst-text" transform="matrix(1 0 0 -1 0.00000000005000072447069752 18.8671875)">
                                                                            <use xlink:href="#gE0E12823E218B78D2E538FA71A22EB8B" x="0" y="0" fill="#80ccff" fill-rule="nonzero"/>
                                                                            <use xlink:href="#g76D0C6CEEFB0FF9A00CE32A4E4BBF9F7" x="5.2734375" y="0" fill="#80ccff" fill-rule="nonzero"/>
                                                                            <use xlink:href="#gB42704BEBBE1FE92C991C9C123C18594" x="10.546875" y="0" fill="#80ccff" fill-rule="nonzero"/>
                                                                            <use xlink:href="#g450E794631A8688DF35B57E076332A74" x="15.8203125" y="0" fill="#80ccff" fill-rule="nonzero"/>
                                                                            <use xlink:href="#g390517E79D4F7866AD58BD1517CE551A" x="21.09375" y="0" fill="#80ccff" fill-rule="nonzero"/>
                                                                            <use xlink:href="#g1845A4AECCD66EEAAD5BCF6194D2F543" x="26.3671875" y="0" fill="#80ccff" fill-rule="nonzero"/>
                                                                            <use xlink:href="#gA7AAD71C6DD1791DD1272CE78BBDF2B0" x="31.640625" y="0" fill="#80ccff" fill-rule="nonzero"/>
                                                                            <use xlink:href="#g9D2E4F7E5709569433E7CF2B02C985D1" x="36.9140625" y="0" fill="#80ccff" fill-rule="nonzero"/>
                                                                            <use xlink:href="#g1A69AD2CE0F425B64739F9F7589ABF2C" x="42.1875" y="0" fill="#80ccff" fill-rule="nonzero"/>
                                                                        </g>
                                                                    </g>
                                                                </g>
                                                            </g>
                                                        </g>
                                                    </g>
                                                </g>
                                            </g>
                                        </g>
                                    </g>
                                </g>
                            </g>
                        </g>
                        <g class="typst-text" transform="matrix(1 0 0 -1 40.77363281249999 60.500781249999996)">
                            <use xlink:href="#gE98B62B6AAA3A4F47FFAA07CF6684C2D" x="0" y="0" fill="#f0f6fc" fill-rule="nonzero"/>
                            <use xlink:href="#g99B1A03340B8BB74975F0DAC0C8EE3AF" x="5.859375" y="0" fill="#f0f6fc" fill-rule="nonzero"/>
                            <use xlink:href="#gFFFB5D027B8E868DE4F6A5EC04C01182" x="11.71875" y="0" fill="#f0f6fc" fill-rule="nonzero"/>
                            <use xlink:href="#gE6F7E9A0CA3A1A35539F4CD883352573" x="17.578125" y="0" fill="#f0f6fc" fill-rule="nonzero"/>
                            <use xlink:href="#g72B730C51DD2655BF091C2318CBEE609" x="23.4375" y="0" fill="#f0f6fc" fill-rule="nonzero"/>
                            <use xlink:href="#g90927B498FF1B3BDAD151327CDC9A723" x="29.296875" y="0" fill="#f0f6fc" fill-rule="nonzero"/>
                            <use xlink:href="#g624624CC9F2CB8C0B0AE523235D34578" x="35.15625" y="0" fill="#f0f6fc" fill-rule="nonzero"/>
                            <use xlink:href="#gE98B62B6AAA3A4F47FFAA07CF6684C2D" x="41.015625" y="0" fill="#f0f6fc" fill-rule="nonzero"/>
                            <use xlink:href="#gFE211A38760FCCC70D4C1ED5F0F85102" x="46.875" y="0" fill="#f0f6fc" fill-rule="nonzero"/>
                            <use xlink:href="#g99B1A03340B8BB74975F0DAC0C8EE3AF" x="52.734375" y="0" fill="#f0f6fc" fill-rule="nonzero"/>
                            <use xlink:href="#gF1EC1563DECA03293A756870C62A0CB6" x="58.59375" y="0" fill="#f0f6fc" fill-rule="nonzero"/>
                        </g>
                        <g class="typst-group">
                            <g>
                                <g class="typst-text" transform="matrix(1 0 0 -1 0 74.241015625)">
                                    <use xlink:href="#g61BE24A7338E5BDF7E07431DDD5177DD" x="0" y="0" fill="#9198a1" fill-rule="nonzero"/>
                                    <use xlink:href="#gE0675CC587F350A3F1950D16C62E0855" x="5.2734375" y="0" fill="#9198a1" fill-rule="nonzero"/>
                                    <use xlink:href="#gEB79A7B9177971E890483187EB55FD13" x="10.546875" y="0" fill="#9198a1" fill-rule="nonzero"/>
                                    <use xlink:href="#g740B047D122FE40ECEE01614BE890F9E" x="15.8203125" y="0" fill="#9198a1" fill-rule="nonzero"/>
                                    <use xlink:href="#g44286BBD80A6762A2D16967711673B4" x="21.09375" y="0" fill="#9198a1" fill-rule="nonzero"/>
                                    <use xlink:href="#g295948A9064179BB2603CED527A7507F" x="26.3671875" y="0" fill="#9198a1" fill-rule="nonzero"/>
                                    <use xlink:href="#g61BE24A7338E5BDF7E07431DDD5177DD" x="31.640625" y="0" fill="#9198a1" fill-rule="nonzero"/>
                                    <use xlink:href="#g295948A9064179BB2603CED527A7507F" x="36.9140625" y="0" fill="#9198a1" fill-rule="nonzero"/>
                                    <use xlink:href="#gB6370677F5B2FC197163FEB3EBE1A83B" x="47.4609375" y="0" fill="#9198a1" fill-rule="nonzero"/>
                                </g>
                                <g class="typst-text" transform="matrix(1 0 0 -1 58.0078125 74.241015625)">
                                    <use xlink:href="#gF891E66E19DFDA47B179A9F668E5A6B4" x="0" y="0" fill="#9198a1" fill-rule="nonzero"/>
                                    <use xlink:href="#gAE0F4D973572751963EE73E31A814F46" x="4.334765625000001" y="0" fill="#9198a1" fill-rule="nonzero"/>
                                    <use xlink:href="#g86F798FF03FDF9790184B955A48FF5C7" x="8.669531250000002" y="0" fill="#9198a1" fill-rule="nonzero"/>
                                    <use xlink:href="#gB6EF4661FC745E9B17D07D613A6C7DE4" x="13.004296875000003" y="0" fill="#9198a1" fill-rule="nonzero"/>
                                    <use xlink:href="#gB17445ADCDD1A72C08D9824DBDB3AAFA" x="17.339062500000004" y="0" fill="#9198a1" fill-rule="nonzero"/>
                                    <use xlink:href="#g5FA12CC364B7E03C1611EFAF6C7D5E1D" x="21.673828125000007" y="0" fill="#9198a1" fill-rule="nonzero"/>
                                    <use xlink:href="#g86F798FF03FDF9790184B955A48FF5C7" x="26.00859375000001" y="0" fill="#9198a1" fill-rule="nonzero"/>
                                    <use xlink:href="#gE40A86767303A4E863FC071E3B0A8FF2" x="30.343359375000013" y="0" fill="#9198a1" fill-rule="nonzero"/>
                                    <use xlink:href="#g1F2A6484DA9AE377083B3BECE648BAC" x="34.678125000000016" y="0" fill="#9198a1" fill-rule="nonzero"/>
                                    <use xlink:href="#gA4BB4F44188555CB1F26DE98B7F568FC" x="39.01289062500002" y="0" fill="#9198a1" fill-rule="nonzero"/>
                                    <use xlink:href="#g5D9E5A12939F007F9427F06DF61DB087" x="43.34765625000002" y="0" fill="#9198a1" fill-rule="nonzero"/>
                                    <use xlink:href="#g1F2A6484DA9AE377083B3BECE648BAC" x="47.682421875000024" y="0" fill="#9198a1" fill-rule="nonzero"/>
                                    <use xlink:href="#gA4BB4F44188555CB1F26DE98B7F568FC" x="52.01718750000003" y="0" fill="#9198a1" fill-rule="nonzero"/>
                                </g>
                                <g class="typst-text" transform="matrix(1 0 0 -1 114.359765625 74.241015625)">
                                    <use xlink:href="#g1AB7F93DDE4078D844912323D9FB29AD" x="5.2734375" y="0" fill="#9198a1" fill-rule="nonzero"/>
                                    <use xlink:href="#g37EB9BABF8C82579FEEF20113589048" x="10.546875" y="0" fill="#9198a1" fill-rule="nonzero"/>
                                    <use xlink:href="#g295948A9064179BB2603CED527A7507F" x="15.8203125" y="0" fill="#9198a1" fill-rule="nonzero"/>
                                    <use xlink:href="#g1856AEF73B56D8088FCAB5F922AEF164" x="21.09375" y="0" fill="#9198a1" fill-rule="nonzero"/>
                                    <use xlink:href="#g61BE24A7338E5BDF7E07431DDD5177DD" x="26.3671875" y="0" fill="#9198a1" fill-rule="nonzero"/>
                                </g>
                            </g>
                        </g>
                    </g>
                </g>
                <g class="typst-group" transform="matrix(1 0 0 1 348.56289062499997 20)">
                    <g>
                        <g class="typst-group" transform="matrix(1 0 0 1 27.024804687499998 3.5999999999999988)">
                            <g>
                                <g class="typst-group">
                                    <g>
                                        <path class="typst-shape" fill="oklab(20.498% -0.00709 -0.04541)" fill-rule="nonzero" stroke="oklab(36.402% -0.01801 -0.08150)" stroke-width="1.2" stroke-linecap="butt" stroke-linejoin="miter" stroke-miterlimit="4" d="M 0 0m 6 0 c -3.310704 0 -6 2.689296 -6 6 v 26.867188 c 0 3.3107033 2.689296 6 6 6 h 55.460938 c 3.310707 0 6 -2.6892967 6 -6 v -26.867188 c 0 -3.310704 -2.689293 -6 -6 -6 h -55.460938 Z "/>
                                        <path class="typst-shape" fill="none" transform="matrix(1 0 0 1 10.000000025540555 9.9999999507874)" d="M 0 0h 47.460938 v 18.867188 h -47.460938 v -18.867188 Z "/>
                                        <g class="typst-group">
                                            <g>
                                                <g class="typst-group" transform="matrix(1 0 0 1 9.999999972440946 9.99999992125984)">
                                                    <g>
                                                        <g class="typst-group">
                                                            <g>
                                                                <g class="typst-group">
                                                                    <g>
                                                                        <g class="typst-group">
                                                                            <g>
                                                                                <g class="typst-text" transform="matrix(1 0 0 -1 0 7.626953125)">
                                                                                    <use xlink:href="#gA18CDFE1F62A00B4FEC5E44AFC386BDB" x="0" y="0" fill="#f0f6fc" fill-rule="nonzero"/>
                                                                                    <use xlink:href="#g671276076474A6FD5E2B11E6BEE10ABC" x="6.4453125" y="0" fill="#f0f6fc" fill-rule="nonzero"/>
                                                                                    <use xlink:href="#g3886D710B7AABFD372757D2B30542D74" x="12.890625" y="0" fill="#f0f6fc" fill-rule="nonzero"/>
                                                                                </g>
                                                                                <g class="typst-text" transform="matrix(1 0 0 -1 34.76904296885 7.626953125)">
                                                                                    <use xlink:href="#g94D7B94169328B0883E9D91B5940CECA" x="0" y="0" fill="#388bfd" fill-rule="nonzero"/>
                                                                                </g>
                                                                            </g>
                                                                        </g>
                                                                        <g class="typst-text" transform="matrix(1 0 0 -1 0.00000000005000072447069752 18.8671875)">
                                                                            <use xlink:href="#gE0E12823E218B78D2E538FA71A22EB8B" x="0" y="0" fill="#80ccff" fill-rule="nonzero"/>
                                                                            <use xlink:href="#g76D0C6CEEFB0FF9A00CE32A4E4BBF9F7" x="5.2734375" y="0" fill="#80ccff" fill-rule="nonzero"/>
                                                                            <use xlink:href="#gB42704BEBBE1FE92C991C9C123C18594" x="10.546875" y="0" fill="#80ccff" fill-rule="nonzero"/>
                                                                            <use xlink:href="#g450E794631A8688DF35B57E076332A74" x="15.8203125" y="0" fill="#80ccff" fill-rule="nonzero"/>
                                                                            <use xlink:href="#g390517E79D4F7866AD58BD1517CE551A" x="21.09375" y="0" fill="#80ccff" fill-rule="nonzero"/>
                                                                            <use xlink:href="#g1845A4AECCD66EEAAD5BCF6194D2F543" x="26.3671875" y="0" fill="#80ccff" fill-rule="nonzero"/>
                                                                            <use xlink:href="#gA7AAD71C6DD1791DD1272CE78BBDF2B0" x="31.640625" y="0" fill="#80ccff" fill-rule="nonzero"/>
                                                                            <use xlink:href="#g9D2E4F7E5709569433E7CF2B02C985D1" x="36.9140625" y="0" fill="#80ccff" fill-rule="nonzero"/>
                                                                            <use xlink:href="#g1A69AD2CE0F425B64739F9F7589ABF2C" x="42.1875" y="0" fill="#80ccff" fill-rule="nonzero"/>
                                                                        </g>
                                                                    </g>
                                                                </g>
                                                            </g>
                                                        </g>
                                                    </g>
                                                </g>
                                            </g>
                                        </g>
                                    </g>
                                </g>
                            </g>
                        </g>
                        <g class="typst-text" transform="matrix(1 0 0 -1 37.3177734375 56.90078125)">
                            <use xlink:href="#g99B1A03340B8BB74975F0DAC0C8EE3AF" x="0" y="0" fill="#f0f6fc" fill-rule="nonzero"/>
                            <use xlink:href="#g7153874C5BAF7D2747C9C60A1F179C78" x="5.859375" y="0" fill="#f0f6fc" fill-rule="nonzero"/>
                            <use xlink:href="#gFE211A38760FCCC70D4C1ED5F0F85102" x="11.71875" y="0" fill="#f0f6fc" fill-rule="nonzero"/>
                            <use xlink:href="#g99B1A03340B8BB74975F0DAC0C8EE3AF" x="17.578125" y="0" fill="#f0f6fc" fill-rule="nonzero"/>
                            <use xlink:href="#g18EB955566EC1FAC7CF0DB422A04AC82" x="23.4375" y="0" fill="#f0f6fc" fill-rule="nonzero"/>
                            <use xlink:href="#gE57B1D3F31758FB22B2DB04FBA56A370" x="29.296875" y="0" fill="#f0f6fc" fill-rule="nonzero"/>
                            <use xlink:href="#g36A9347B02B0E5A3EA481BF1269DF5F8" x="35.15625" y="0" fill="#f0f6fc" fill-rule="nonzero"/>
                            <use xlink:href="#gFFFB5D027B8E868DE4F6A5EC04C01182" x="41.015625" y="0" fill="#f0f6fc" fill-rule="nonzero"/>
                        </g>
                        <g class="typst-group">
                            <g>
                                <g class="typst-text" transform="matrix(1 0 0 -1 0 70.64101562500001)">
                                    <use xlink:href="#gAF364C589BC3EB2DA2B782579CF0B20A" x="0" y="0" fill="#9198a1" fill-rule="nonzero"/>
                                    <use xlink:href="#g37EB9BABF8C82579FEEF20113589048" x="5.2734375" y="0" fill="#9198a1" fill-rule="nonzero"/>
                                    <use xlink:href="#g295948A9064179BB2603CED527A7507F" x="10.546875" y="0" fill="#9198a1" fill-rule="nonzero"/>
                                    <use xlink:href="#g61BE24A7338E5BDF7E07431DDD5177DD" x="15.8203125" y="0" fill="#9198a1" fill-rule="nonzero"/>
                                    <use xlink:href="#g295948A9064179BB2603CED527A7507F" x="21.09375" y="0" fill="#9198a1" fill-rule="nonzero"/>
                                    <use xlink:href="#gB6370677F5B2FC197163FEB3EBE1A83B" x="31.640625" y="0" fill="#9198a1" fill-rule="nonzero"/>
                                </g>
                                <g class="typst-text" transform="matrix(1 0 0 -1 42.1875 70.64101562500001)">
                                    <use xlink:href="#gF891E66E19DFDA47B179A9F668E5A6B4" x="0" y="0" fill="#9198a1" fill-rule="nonzero"/>
                                    <use xlink:href="#gAE0F4D973572751963EE73E31A814F46" x="4.334765625000001" y="0" fill="#9198a1" fill-rule="nonzero"/>
                                    <use xlink:href="#g86F798FF03FDF9790184B955A48FF5C7" x="8.669531250000002" y="0" fill="#9198a1" fill-rule="nonzero"/>
                                    <use xlink:href="#gAE0F4D973572751963EE73E31A814F46" x="13.004296875000003" y="0" fill="#9198a1" fill-rule="nonzero"/>
                                    <use xlink:href="#gC650D9EA375D2FFF77166A99197A1942" x="17.339062500000004" y="0" fill="#9198a1" fill-rule="nonzero"/>
                                    <use xlink:href="#g86F798FF03FDF9790184B955A48FF5C7" x="21.673828125000007" y="0" fill="#9198a1" fill-rule="nonzero"/>
                                    <use xlink:href="#gB17445ADCDD1A72C08D9824DBDB3AAFA" x="26.00859375000001" y="0" fill="#9198a1" fill-rule="nonzero"/>
                                    <use xlink:href="#gFA6EE145F2937CD70FF6AB942DEC2399" x="30.343359375000013" y="0" fill="#9198a1" fill-rule="nonzero"/>
                                    <use xlink:href="#gB6EF4661FC745E9B17D07D613A6C7DE4" x="34.678125000000016" y="0" fill="#9198a1" fill-rule="nonzero"/>
                                    <use xlink:href="#g62CF11675EA40ADBD6F4351C3D11E456" x="39.01289062500002" y="0" fill="#9198a1" fill-rule="nonzero"/>
                                    <use xlink:href="#g6A4BAFC1ED3EE09D9D380AC3576841C1" x="43.34765625000002" y="0" fill="#9198a1" fill-rule="nonzero"/>
                                </g>
                                <g class="typst-text" transform="matrix(1 0 0 -1 89.869921875 70.64101562500001)">
                                    <use xlink:href="#g1AB7F93DDE4078D844912323D9FB29AD" x="5.2734375" y="0" fill="#9198a1" fill-rule="nonzero"/>
                                    <use xlink:href="#g37EB9BABF8C82579FEEF20113589048" x="10.546875" y="0" fill="#9198a1" fill-rule="nonzero"/>
                                    <use xlink:href="#g295948A9064179BB2603CED527A7507F" x="15.8203125" y="0" fill="#9198a1" fill-rule="nonzero"/>
                                    <use xlink:href="#g1856AEF73B56D8088FCAB5F922AEF164" x="21.09375" y="0" fill="#9198a1" fill-rule="nonzero"/>
                                    <use xlink:href="#g61BE24A7338E5BDF7E07431DDD5177DD" x="26.3671875" y="0" fill="#9198a1" fill-rule="nonzero"/>
                                </g>
                            </g>
                        </g>
                    </g>
                </g>
            </g>
        </g>
    </g>
    <defs id="glyph">
        <symbol id="gA18CDFE1F62A00B4FEC5E44AFC386BDB" overflow="visible">
            <path d="M 0 0m 4.3183594 -0.053710938 l -0.07519531 1.2568359 h -0.123535156 q -0.06982422 -0.65527344 -0.5344238 -0.98291016 q -0.4645996 -0.32763672 -1.2272949 -0.32763672 q -0.90234375 0 -1.3991699 0.43774414 q -0.49682617 0.43774414 -0.49682617 1.2487793 q 0 0.9345703 0.6660156 1.434082 q 0.6660156 0.49951172 1.8852539 0.49951172 q 0.64990234 0 1.1279297 -0.10205078 v 0.11279297 q 0 0.49951172 -0.39208984 0.7331543 q -0.39208984 0.23364258 -1.1708984 0.25512695 l -1.4179688 0.037597656 l 0.107421875 1.1977539 l 1.203125 -0.016113281 q 1.4931641 -0.021484375 2.2182617 -0.60961914 q 0.72509766 -0.58813477 0.72509766 -1.7160645 v -2.2128906 l 0.859375 -0.11816406 v -1.0742188 l -1.9550781 -0.053710938 Z m -0.1772461 2.3955078 q -0.29003906 0.053710938 -0.5505371 0.061767578 q -0.26049805 0.008056641 -0.545166 0.008056641 q -1.2675781 0 -1.2675781 -0.74658203 q 0 -0.6713867 0.8701172 -0.6713867 q 0.49951172 0 0.829834 0.17993164 q 0.33032227 0.17993164 0.49682617 0.45654297 q 0.1665039 0.27661133 0.1665039 0.5720215 v 0.13964844 Z "/>
        </symbol>
        <symbol id="g671276076474A6FD5E2B11E6BEE10ABC" overflow="visible">
            <path d="M 0 0m 0.8486328 -2.4707031 v 8.1640625 h 1.2192383 l 0.091308594 -1.03125 h 0.091308594 q 0.18261719 1.1386719 1.4770508 1.1386719 q 1.090332 0 1.6730957 -0.7680664 q 0.5827637 -0.7680664 0.5827637 -2.2128906 q 0 -1.4233398 -0.5827637 -2.175293 q -0.5827637 -0.7519531 -1.6677246 -0.7519531 q -0.6176758 0 -0.99365234 0.2927246 q -0.37597656 0.2927246 -0.45117188 0.84594727 h -0.11279297 v -3.5019531 h -1.3266602 Z m 1.3266602 5.2368164 q 0 -0.8486328 0.28735352 -1.2568359 q 0.28735352 -0.40820313 0.9265137 -0.40820313 q 1.2514648 0 1.2514648 1.71875 q 0 0.859375 -0.32226563 1.315918 q -0.32226563 0.45654297 -0.9291992 0.45654297 q -1.2138672 0 -1.2138672 -1.6704102 v -0.15576172 Z "/>
        </symbol>
        <symbol id="g3886D710B7AABFD372757D2B30542D74" overflow="visible">
            <path d="M 0 0m 0.80566406 0 v 1.203125 h 2.1323242 v 3.2871094 h -1.8100586 v 1.203125 h 3.1313477 v -4.4902344 h 1.7133789 v -1.203125 h -5.166992 Z m 2.7392578 6.5151367 q -0.38134766 0 -0.62841797 0.24707031 q -0.24707031 0.24707031 -0.24707031 0.62841797 q 0 0.38134766 0.24707031 0.62841797 q 0.24707031 0.24707031 0.62841797 0.24707031 q 0.38134766 0 0.62841797 -0.24707031 q 0.24707031 -0.24707031 0.24707031 -0.62841797 q 0 -0.38134766 -0.24707031 -0.62841797 q -0.24707031 -0.24707031 -0.62841797 -0.24707031 Z "/>
        </symbol>
        <symbol id="gE0E12823E218B78D2E538FA71A22EB8B" overflow="visible">
            <path d="M 0 0m 5.1591797 7.123535 l -0.092285156 -0.52734375 h -0.13183594 q -0.7558594 0 -1.3623047 -0.41748047 q -0.6064453 -0.41748047 -1.0151367 -1.199707 q -0.4086914 -0.78222656 -0.5800781 -1.8808594 q -0.087890625 -0.5756836 -0.087890625 -1.0634766 q 0 -0.8833008 0.2944336 -1.472168 q 0.45703125 -0.90966797 1.5205078 -0.90966797 h 0.13623047 l -0.092285156 -0.52734375 h -0.16259766 q -0.8964844 0 -1.4567871 0.48339844 q -0.56030273 0.48339844 -0.7536621 1.3930664 q -0.092285156 0.43945313 -0.092285156 0.9667969 q 0 0.55810547 0.10546875 1.2172852 q 0.20214844 1.2392578 0.69873047 2.1203613 q 0.49658203 0.8811035 1.2348633 1.3491211 q 0.73828125 0.46801758 1.6699219 0.46801758 h 0.16699219 Z "/>
        </symbol>
        <symbol id="g76D0C6CEEFB0FF9A00CE32A4E4BBF9F7" overflow="visible">
            <path d="M 0 0m 2.3950195 0.46142578 q 0.45703125 0 0.9206543 0.15820313 q 0.46362305 0.15820313 0.84594727 0.421875 l 0.21972656 -0.47460938 q -0.42626953 -0.2944336 -0.9711914 -0.47460938 q -0.5449219 -0.18017578 -1.1162109 -0.18017578 q -0.8305664 0 -1.2919922 0.4658203 q -0.46142578 0.4658203 -0.46142578 1.3007813 q 0 0.9272461 0.3251953 1.6149902 q 0.3251953 0.68774414 0.9140625 1.0700684 q 0.5888672 0.38232422 1.3798828 0.38232422 q 1.3183594 0 1.7226563 -0.9667969 l -0.45263672 -0.3515625 q -0.19335938 0.41308594 -0.5229492 0.59106445 q -0.32958984 0.17797852 -0.8129883 0.17797852 q -0.5888672 0 -1.0283203 -0.30541992 q -0.43945313 -0.30541992 -0.6833496 -0.8547363 q -0.24389648 -0.5493164 -0.24829102 -1.2875977 q 0.0087890625 -0.61083984 0.3383789 -0.94921875 q 0.32958984 -0.3383789 0.92285156 -0.3383789 Z "/>
        </symbol>
        <symbol id="gB42704BEBBE1FE92C991C9C123C18594" overflow="visible">
            <path d="M 0 0m 2.2060547 -0.087890625 q -0.7558594 0 -1.1799316 0.46142578 q -0.42407227 0.46142578 -0.42407227 1.2832031 q 0 1.4589844 0.6503906 2.27417 q 0.6503906 0.81518555 1.8061523 0.81518555 q 0.7558594 0 1.1799316 -0.4724121 q 0.42407227 -0.4724121 0.42407227 -1.3161621 q 0 -1.4370117 -0.6503906 -2.241211 q -0.6503906 -0.8041992 -1.8061523 -0.8041992 Z m 0.11425781 0.5449219 q 0.8261719 0 1.2875977 0.64160156 q 0.46142578 0.64160156 0.46142578 1.7841797 q 0 0.6196289 -0.28564453 0.9667969 q -0.28564453 0.34716797 -0.8041992 0.34716797 q -0.83496094 0 -1.307373 -0.6394043 q -0.4724121 -0.6394043 -0.4724121 -1.7819824 q 0 -0.6196289 0.2944336 -0.96899414 q 0.2944336 -0.34936523 0.8261719 -0.34936523 Z "/>
        </symbol>
        <symbol id="g450E794631A8688DF35B57E076332A74" overflow="visible">
            <path d="M 0 0m 1.472168 4.658203 l -0.07910156 -0.85253906 h 0.061523438 q 0.25927734 0.9404297 0.984375 0.9404297 q 0.7470703 0 0.72509766 -0.85253906 h 0.061523438 q 0.27685547 0.85253906 1.0107422 0.85253906 q 0.72509766 0 0.72509766 -0.7998047 q 0 -0.19335938 -0.03955078 -0.43066406 l -0.6196289 -3.515625 h -0.5932617 l 0.62402344 3.5507813 q 0.026367188 0.140625 0.026367188 0.25048828 q 0 0.42626953 -0.36035156 0.42626953 q -0.34277344 0 -0.6086426 -0.43066406 q -0.26586914 -0.43066406 -0.43725586 -1.2524414 l -0.45263672 -2.5444336 h -0.5449219 l 0.62841797 3.5507813 q 0.026367188 0.140625 0.026367188 0.25048828 q 0 0.42626953 -0.3647461 0.42626953 q -0.36914063 0 -0.64819336 -0.5229492 q -0.27905273 -0.5229492 -0.45922852 -1.5205078 v 0.013183594 l -0.38671875 -2.1972656 h -0.59765625 l 0.82177734 4.658203 h 0.49658203 Z "/>
        </symbol>
        <symbol id="g390517E79D4F7866AD58BD1517CE551A" overflow="visible">
            <path d="M 0 0m 0.64160156 -2.0214844 h -0.5932617 l 0.35595703 2.025879 h -0.0043945313 l 0.0087890625 0.013183594 l 0.8173828 4.640625 h 0.50097656 l -0.118652344 -1.2216797 l -0.0087890625 -0.043945313 h 0.06591797 q 0.22851563 0.6196289 0.703125 0.98657227 q 0.47460938 0.36694336 1.199707 0.36694336 q 0.6152344 0 0.9580078 -0.38232422 q 0.34277344 -0.38232422 0.34277344 -1.0810547 q 0 -0.7207031 -0.24609375 -1.3337402 q -0.24609375 -0.6130371 -0.68774414 -1.0700684 q -0.4416504 -0.45703125 -1.0349121 -0.71191406 q -0.5932617 -0.2548828 -1.2875977 -0.2548828 q -0.29882813 0 -0.62402344 0.026367188 l -0.34716797 -1.9599609 Z m 0.4482422 2.522461 q 0.27246094 -0.03955078 0.6196289 -0.03955078 q 0.7294922 0 1.3095703 0.3581543 q 0.5800781 0.3581543 0.91625977 0.9777832 q 0.33618164 0.6196289 0.33618164 1.3974609 q 0 0.4790039 -0.23950195 0.7404785 q -0.23950195 0.2614746 -0.670166 0.2614746 q -0.39111328 0 -0.7910156 -0.24169922 q -0.39990234 -0.24169922 -0.7294922 -0.7536621 q -0.32958984 -0.5119629 -0.5097656 -1.3293457 l -0.24169922 -1.3710938 Z "/>
        </symbol>
        <symbol id="g1845A4AECCD66EEAAD5BCF6194D2F543" overflow="visible">
            <path d="M 0 0m 1.7841797 -0.092285156 q -0.6503906 0 -0.99316406 0.3581543 q -0.34277344 0.3581543 -0.34277344 1.0393066 q 0 0.7163086 0.23950195 1.5314941 q 0.23950195 0.81518555 0.6833496 1.9094238 l 0.5756836 -0.11425781 q -0.45263672 -1.1645508 -0.6789551 -1.9423828 q -0.22631836 -0.77783203 -0.22631836 -1.331543 q 0 -0.9008789 0.86572266 -0.9008789 q 0.7338867 0 1.2194824 0.64160156 q 0.4855957 0.64160156 0.7404785 1.9731445 l 0.28564453 1.5864258 h 0.5932617 l -0.62402344 -3.5200195 q -0.017578125 -0.10546875 -0.017578125 -0.18896484 q 0 -0.1977539 0.092285156 -0.29882813 q 0.1274414 -0.14941406 0.51416016 -0.16699219 h 0.118652344 l -0.09667969 -0.52734375 h -0.10107422 q -0.703125 0 -0.90966797 0.3383789 q -0.1274414 0.20214844 -0.1274414 0.51416016 q 0 0.1977539 0.052734375 0.43945313 h -0.087890625 q -0.16259766 -0.38232422 -0.38452148 -0.6855469 q -0.22192383 -0.30322266 -0.5559082 -0.4790039 q -0.33398438 -0.17578125 -0.83496094 -0.17578125 Z "/>
        </symbol>
        <symbol id="gA7AAD71C6DD1791DD1272CE78BBDF2B0" overflow="visible">
            <path d="M 0 0m 2.9794922 -0.087890625 q -1.40625 0 -1.40625 1.3623047 q 0 0.28564453 0.03955078 0.55810547 q 0.03955078 0.27246094 0.123046875 0.75146484 l 0.2680664 1.5380859 h -1.3095703 l 0.092285156 0.5361328 h 1.3139648 l 0.24609375 1.4106445 h 0.5932617 l -0.24609375 -1.4106445 h 2.1269531 l -0.092285156 -0.5361328 h -2.1313477 l -0.2680664 -1.5380859 q -0.083496094 -0.47021484 -0.123046875 -0.72509766 q -0.03955078 -0.2548828 -0.03955078 -0.52734375 q 0 -0.8701172 0.8964844 -0.8701172 q 0.34277344 0 0.60424805 0.061523438 q 0.2614746 0.061523438 0.61743164 0.21533203 l 0.11425781 -0.50097656 q -0.30322266 -0.13623047 -0.64160156 -0.23071289 q -0.3383789 -0.09448242 -0.77783203 -0.09448242 Z "/>
        </symbol>
        <symbol id="g9D2E4F7E5709569433E7CF2B02C985D1" overflow="visible">
            <path d="M 0 0m 2.6279297 0.46142578 q 0.36035156 0 0.77124023 0.11645508 q 0.41088867 0.11645508 0.7932129 0.32299805 l 0.20214844 -0.47460938 q -0.41748047 -0.24169922 -0.8942871 -0.3779297 q -0.47680664 -0.13623047 -0.91186523 -0.13623047 q -0.8876953 0 -1.3820801 0.4987793 q -0.49438477 0.4987793 -0.49438477 1.3864746 q 0 0.9140625 0.31420898 1.5732422 q 0.31420898 0.6591797 0.8964844 1.017334 q 0.5822754 0.3581543 1.3864746 0.3581543 q 0.6767578 0 1.0546875 -0.3251953 q 0.3779297 -0.3251953 0.3779297 -0.90527344 q 0 -0.8569336 -0.9140625 -1.3095703 q -0.9140625 -0.45263672 -2.5444336 -0.48779297 q 0.030761719 -0.5932617 0.38452148 -0.9250488 q 0.35375977 -0.3317871 0.9602051 -0.3317871 Z m -1.3271484 1.7578125 q 1.3666992 0.03515625 2.1071777 0.35375977 q 0.7404785 0.31860352 0.7404785 0.91625977 q 0 0.32958984 -0.23730469 0.5185547 q -0.23730469 0.18896484 -0.66796875 0.18896484 q -0.82177734 0 -1.3337402 -0.5251465 q -0.5119629 -0.5251465 -0.6086426 -1.4523926 Z "/>
        </symbol>
        <symbol id="g1A69AD2CE0F425B64739F9F7589ABF2C" overflow="visible">
            <path d="M 0 0m 0.39111328 -0.87890625 l 0.092285156 0.52734375 h 0.123046875 q 0.76464844 0 1.373291 0.41748047 q 0.6086426 0.41748047 1.0195313 1.199707 q 0.41088867 0.78222656 0.57788086 1.8808594 q 0.092285156 0.5800781 0.092285156 1.0678711 q 0 0.8833008 -0.29882813 1.4677734 q -0.46142578 0.90966797 -1.5380859 0.90966797 h -0.123046875 l 0.092285156 0.52734375 h 0.14941406 q 0.8964844 0 1.4567871 -0.4790039 q 0.56030273 -0.4790039 0.7624512 -1.3798828 q 0.09667969 -0.4482422 0.09667969 -0.984375 q 0 -0.5449219 -0.10107422 -1.1865234 q -0.19335938 -1.2480469 -0.6899414 -2.1357422 q -0.49658203 -0.8876953 -1.2414551 -1.3601074 q -0.74487305 -0.4724121 -1.6896973 -0.4724121 h -0.1538086 Z "/>
        </symbol>
        <symbol id="g624624CC9F2CB8C0B0AE523235D34578" overflow="visible">
            <path d="M 0 0m 2.9296875 -0.09765625 q -1.1035156 0 -1.7089844 0.703125 q -0.60546875 0.703125 -0.60546875 1.9824219 q 0 1.2841797 0.60546875 1.9848633 q 0.60546875 0.7006836 1.7089844 0.7006836 q 1.1035156 0 1.7089844 -0.7006836 q 0.60546875 -0.7006836 0.60546875 -1.9848633 q 0 -1.2792969 -0.60546875 -1.9824219 q -0.60546875 -0.703125 -1.7089844 -0.703125 Z m 0 1.1230469 q 0.5126953 0 0.79345703 0.40771484 q 0.28076172 0.40771484 0.28076172 1.1547852 q 0 0.7519531 -0.28076172 1.1572266 q -0.28076172 0.40527344 -0.79345703 0.40527344 q -0.5126953 0 -0.79345703 -0.40527344 q -0.28076172 -0.40527344 -0.28076172 -1.1572266 q 0 -0.7470703 0.28076172 -1.1547852 q 0.28076172 -0.40771484 0.79345703 -0.40771484 Z "/>
        </symbol>
        <symbol id="g39BAF14B4055A8B06121F17E5F9B51AE" overflow="visible">
            <path d="M 0 0m 3.4667969 0 l -0.5566406 3.984375 h -0.05859375 l -0.5566406 -3.984375 h -1.5625 l -0.43945313 5.1757813 h 1.1621094 l 0.26367188 -4.1259766 h 0.087890625 l 0.60058594 4.1259766 h 0.9472656 l 0.60058594 -4.1259766 h 0.087890625 l 0.36621094 4.1259766 h 1.1572266 l -0.5859375 -5.1757813 h -1.5136719 Z "/>
        </symbol>
        <symbol id="gE57B1D3F31758FB22B2DB04FBA56A370" overflow="visible">
            <path d="M 0 0m 3.881836 0 v 3.1738281 q 0 0.46875 -0.21240234 0.72265625 q -0.21240234 0.25390625 -0.60302734 0.25390625 q -1.0888672 0 -1.0888672 -1.4355469 v -2.7148438 h -1.2060547 v 5.1757813 h 1.0839844 l 0.10253906 -0.9375 h 0.13671875 q 0.06347656 0.52246094 0.36621094 0.7788086 q 0.30273438 0.25634766 0.9082031 0.25634766 q 0.8203125 0 1.2695313 -0.49804688 q 0.44921875 -0.49804688 0.44921875 -1.40625 v -3.3691406 h -1.2060547 Z "/>
        </symbol>
        <symbol id="g99B1A03340B8BB74975F0DAC0C8EE3AF" overflow="visible">
            <path d="M 0 0m 3.3544922 -0.09765625 q -1.3378906 0 -2.0629883 0.6958008 q -0.72509766 0.6958008 -0.72509766 1.9995117 q 0 1.2695313 0.6176758 1.9726563 q 0.6176758 0.703125 1.7407227 0.703125 q 1.0839844 0 1.6772461 -0.64453125 q 0.5932617 -0.64453125 0.5932617 -1.8701172 q 0 -0.3515625 -0.029296875 -0.6689453 h -3.3691406 q 0.29296875 -1.0742188 1.6748047 -1.0742188 q 0.34179688 0 0.6713867 0.036621094 q 0.32958984 0.036621094 0.6713867 0.100097656 l 0.12695313 -1.1132813 q -0.48339844 -0.087890625 -0.88134766 -0.11230469 q -0.39794922 -0.024414063 -0.7055664 -0.024414063 Z m -1.6113281 3.0566406 h 2.2998047 q 0 0.5957031 -0.29296875 0.91064453 q -0.29296875 0.3149414 -0.8154297 0.3149414 q -0.5078125 0 -0.8154297 -0.3173828 q -0.3076172 -0.3173828 -0.37597656 -0.9082031 Z "/>
        </symbol>
        <symbol id="gF1EC1563DECA03293A756870C62A0CB6" overflow="visible">
            <path d="M 0 0m 2.4658203 -0.09765625 q -0.9863281 0 -1.5161133 0.68359375 q -0.52978516 0.68359375 -0.52978516 1.9775391 q 0 1.3134766 0.53222656 2.0117188 q 0.53222656 0.6982422 1.5185547 0.6982422 q 1.1376953 0 1.2939453 -1.0351563 h 0.1171875 v 3.0859375 h 1.2060547 v -7.3242188 l -1.0498047 -0.048828125 l -0.15136719 0.9863281 h -0.107421875 q -0.06347656 -0.5029297 -0.40527344 -0.76904297 q -0.34179688 -0.26611328 -0.9082031 -0.26611328 Z m 1.4160156 2.6123047 v 0.14160156 q 0 1.5185547 -1.1035156 1.5185547 q -0.5517578 0 -0.84472656 -0.41503906 q -0.29296875 -0.41503906 -0.29296875 -1.1962891 q 0 -1.5625 1.1376953 -1.5625 q 0.5810547 0 0.84228516 0.37109375 q 0.26123047 0.37109375 0.26123047 1.1425781 Z "/>
        </symbol>
        <symbol id="g295948A9064179BB2603CED527A7507F" overflow="visible">
            <path d="M 0 0m 1.546875 -0.092285156 q -0.6064453 0 -0.9382324 0.34277344 q -0.3317871 0.34277344 -0.3317871 0.9667969 q 0 0.94921875 0.46362305 1.6809082 q 0.46362305 0.73168945 1.2788086 1.1931152 q 0.81518555 0.46142578 1.869873 0.6020508 l 0.10107422 0.56689453 q 0.021972656 0.13183594 0.021972656 0.23730469 q 0 0.16259766 -0.057128906 0.2548828 q -0.09667969 0.1538086 -0.3647461 0.1538086 q -0.10986328 0 -0.2175293 -0.010986328 q -0.107666016 -0.010986328 -0.2175293 -0.037353516 l -0.10107422 0.7558594 q 0.16699219 0.03955078 0.33398438 0.05493164 q 0.16699219 0.015380859 0.33398438 0.015380859 q 0.76464844 0 1.050293 -0.36914063 q 0.18457031 -0.24169922 0.18457031 -0.68115234 q 0 -0.22851563 -0.048339844 -0.5053711 l -0.6591797 -3.730957 q -0.017578125 -0.10986328 -0.017578125 -0.20654297 q 0 -0.4658203 0.4921875 -0.4658203 h 0.2680664 l -0.13623047 -0.76904297 h -0.33398438 q -0.6064453 0 -0.8569336 0.28125 q -0.2109375 0.22851563 -0.2109375 0.6767578 q 0 0.092285156 0.0087890625 0.19335938 h -0.11425781 q -0.25048828 -0.5493164 -0.7163086 -0.8745117 q -0.4658203 -0.3251953 -1.0854492 -0.3251953 Z m 2.0126953 2.9575195 l 0.18017578 1.0063477 q -0.7207031 -0.11425781 -1.2919922 -0.46801758 q -0.57128906 -0.35375977 -0.9008789 -0.8876953 q -0.32958984 -0.53393555 -0.32958984 -1.1887207 q 0 -0.28125 0.16040039 -0.43286133 q 0.16040039 -0.15161133 0.45483398 -0.15161133 q 0.6064453 0 1.0612793 0.55371094 q 0.45483398 0.55371094 0.6657715 1.5688477 Z "/>
        </symbol>
        <symbol id="g61BE24A7338E5BDF7E07431DDD5177DD" overflow="visible">
            <path d="M 0 0m 2.5795898 0.7470703 q 0.3515625 0 0.75146484 0.10986328 q 0.39990234 0.10986328 0.76904297 0.3076172 l 0.30322266 -0.75146484 q -0.43066406 -0.23730469 -0.92285156 -0.36914063 q -0.4921875 -0.13183594 -0.9404297 -0.13183594 q -0.90527344 0 -1.4128418 0.47460938 q -0.50756836 0.47460938 -0.50756836 1.3227539 q 0 0.9140625 0.3449707 1.5952148 q 0.3449707 0.68115234 0.9645996 1.0612793 q 0.6196289 0.38012695 1.4458008 0.38012695 q 0.6503906 0 1.0129395 -0.3251953 q 0.36254883 -0.3251953 0.36254883 -0.90527344 q 0 -0.84814453 -0.85913086 -1.3447266 q -0.85913086 -0.49658203 -2.3972168 -0.54052734 q 0.03955078 -0.41748047 0.3251953 -0.6503906 q 0.28564453 -0.23291016 0.7602539 -0.23291016 Z m -1.0415039 1.5908203 q 1.0766602 0.043945313 1.6743164 0.33618164 q 0.59765625 0.29223633 0.59765625 0.7844238 q 0 0.2109375 -0.14501953 0.3317871 q -0.14501953 0.12084961 -0.41308594 0.12084961 q -0.6635742 0 -1.1184082 -0.42626953 q -0.45483398 -0.42626953 -0.595459 -1.1469727 Z "/>
        </symbol>
        <symbol id="gAF364C589BC3EB2DA2B782579CF0B20A" overflow="visible">
            <path d="M 0 0m -0.24609375 -2.0786133 l -0.03955078 0.83496094 l 0.32080078 0.03515625 q 0.84375 0.092285156 1.223877 0.595459 q 0.38012695 0.5031738 0.45483398 1.4567871 l 0.21533203 1.96875 h -1.5424805 l 0.14501953 0.8173828 h 1.4853516 l 0.021972656 0.19335938 q 0.07910156 0.97998047 0.39331055 1.6105957 q 0.31420898 0.63061523 0.9316406 0.9382324 q 0.61743164 0.3076172 1.5974121 0.3076172 q 0.38232422 0 0.7294922 -0.087890625 l -0.23730469 -0.80859375 q -0.38232422 0.061523438 -0.6635742 0.061523438 q -0.8964844 0 -1.3029785 -0.48120117 q -0.40649414 -0.48120117 -0.49438477 -1.4963379 l -0.026367188 -0.23730469 h 1.8720703 l -0.14501953 -0.8173828 h -1.8193359 l -0.23730469 -2.100586 q -0.10986328 -1.2612305 -0.6965332 -1.935791 q -0.5866699 -0.67456055 -1.8742676 -0.8195801 l -0.31201172 -0.03515625 Z "/>
        </symbol>
        <symbol id="g37EB9BABF8C82579FEEF20113589048" overflow="visible">
            <path d="M 0 0m 1.5249023 -0.092285156 q -0.59765625 0 -0.92285156 0.34277344 q -0.3251953 0.34277344 -0.3251953 0.9667969 q 0 0.7910156 0.33618164 1.4348145 q 0.33618164 0.6437988 0.94262695 1.1008301 q 0.6064453 0.45703125 1.4194336 0.703125 q 0.8129883 0.24609375 1.7666016 0.24609375 h 0.087890625 l -0.5800781 -3.309082 q -0.021972656 -0.118652344 -0.021972656 -0.21972656 q 0 -0.18457031 0.07910156 -0.29003906 q 0.11425781 -0.15820313 0.50097656 -0.15820313 h 0.18017578 l -0.13183594 -0.76904297 h -0.31201172 q -0.6459961 0 -0.89208984 0.25927734 q -0.1977539 0.2109375 -0.1977539 0.6635742 q 0 0.10546875 0.0087890625 0.2241211 h -0.11425781 q -0.2680664 -0.57128906 -0.7404785 -0.8833008 q -0.4724121 -0.31201172 -1.083252 -0.31201172 Z m 0.28564453 0.83496094 q 0.6328125 0 1.1030273 0.57128906 q 0.47021484 0.57128906 0.6591797 1.6171875 l 0.16259766 0.8964844 q -0.7207031 -0.10986328 -1.2897949 -0.45922852 q -0.5690918 -0.34936523 -0.89868164 -0.8745117 q -0.32958984 -0.5251465 -0.32958984 -1.166748 q 0 -0.28125 0.15600586 -0.43286133 q 0.15600586 -0.15161133 0.43725586 -0.15161133 Z "/>
        </symbol>
        <symbol id="g44286BBD80A6762A2D16967711673B4" overflow="visible">
            <path d="M 0 0m 1.7226563 -0.092285156 q -0.6152344 0 -0.9536133 0.36694336 q -0.3383789 0.36694336 -0.3383789 1.0305176 q 0 0.6723633 0.2175293 1.4875488 q 0.2175293 0.81518555 0.70092773 1.9533691 l 0.9316406 -0.17138672 q -0.4790039 -1.1645508 -0.69433594 -1.9138184 q -0.21533203 -0.7492676 -0.21533203 -1.2458496 q 0 -0.32080078 0.16699219 -0.49658203 q 0.16699219 -0.17578125 0.47021484 -0.17578125 q 0.58447266 0 0.9667969 0.56469727 q 0.38232422 0.56469727 0.58447266 1.6237793 v -0.0043945313 l 0.3076172 1.7314453 h 0.9536133 l -0.5625 -3.168457 q -0.030761719 -0.16259766 -0.030761719 -0.29003906 q 0 -0.1977539 0.07470703 -0.30322266 q 0.11425781 -0.17138672 0.50097656 -0.17138672 h 0.18896484 l -0.13623047 -0.76904297 h -0.20654297 q -0.69433594 0 -0.97558594 0.27246094 q -0.22851563 0.21972656 -0.22851563 0.6503906 q 0 0.10546875 0.013183594 0.2241211 h -0.09667969 q -0.14941406 -0.36914063 -0.3449707 -0.63720703 q -0.19555664 -0.2680664 -0.5031738 -0.41308594 q -0.3076172 -0.14501953 -0.7910156 -0.14501953 Z "/>
        </symbol>
        <symbol id="gAED5408ABFFD3BF5E782E1394BDA73C5" overflow="visible">
            <path d="M 0 0m 3.0454102 -0.087890625 q -0.7294922 0 -1.0744629 0.33618164 q -0.3449707 0.33618164 -0.3449707 1.0437012 q 0 0.31201172 0.1274414 0.79541016 l 0.68115234 2.6586914 q 0.087890625 0.3383789 0.087890625 0.56689453 q 0 0.17578125 -0.052734375 0.29003906 q -0.123046875 0.2548828 -0.71191406 0.2548828 q -0.14941406 0 -0.30541992 -0.024169922 q -0.15600586 -0.024169922 -0.30981445 -0.09008789 l -0.13623047 0.7998047 q 0.21972656 0.061523438 0.44384766 0.09887695 q 0.2241211 0.037353516 0.4482422 0.037353516 q 1.0195313 0 1.3842773 -0.48779297 q 0.20654297 -0.28125 0.20654297 -0.73828125 q 0 -0.33398438 -0.10986328 -0.7602539 l -0.68115234 -2.605957 q -0.13183594 -0.49658203 -0.13183594 -0.7558594 q 0 -0.58447266 0.6503906 -0.58447266 q 0.2680664 0 0.47021484 0.06591797 q 0.20214844 0.06591797 0.48339844 0.21972656 l 0.30322266 -0.70751953 q -0.3076172 -0.17578125 -0.64819336 -0.2944336 q -0.34057617 -0.118652344 -0.7800293 -0.118652344 Z "/>
        </symbol>
        <symbol id="gEB79A7B9177971E890483187EB55FD13" overflow="visible">
            <path d="M 0 0m 2.8520508 -0.087890625 q -0.80859375 0 -1.1887207 0.3449707 q -0.38012695 0.3449707 -0.38012695 1.0744629 q 0 0.27246094 0.03955078 0.5317383 q 0.03955078 0.25927734 0.123046875 0.7207031 l 0.21972656 1.2568359 h -1.0898438 l 0.14501953 0.8173828 h 1.0898438 l 0.24609375 1.40625 h 0.9448242 l -0.24609375 -1.40625 h 2.0698242 l -0.14501953 -0.8173828 h -2.0698242 l -0.21972656 -1.2568359 q -0.07470703 -0.43945313 -0.118652344 -0.6767578 q -0.048339844 -0.23730469 -0.048339844 -0.48779297 q 0 -0.6723633 0.7998047 -0.6723633 q 0.32080078 0 0.5625 0.052734375 q 0.24169922 0.052734375 0.5756836 0.18896484 l 0.17138672 -0.75146484 q -0.31640625 -0.13623047 -0.670166 -0.23071289 q -0.35375977 -0.09448242 -0.810791 -0.09448242 Z "/>
        </symbol>
        <symbol id="gB6370677F5B2FC197163FEB3EBE1A83B" overflow="visible">
            <path d="M 0 0m 2.7773438 2.4697266 q -0.2680664 0 -0.45922852 0.19116211 q -0.19116211 0.19116211 -0.19116211 0.45922852 q 0 0.27246094 0.19116211 0.46142578 q 0.19116211 0.18896484 0.45922852 0.18896484 q 0.27246094 0 0.46142578 -0.18896484 q 0.18896484 -0.18896484 0.18896484 -0.46142578 q 0 -0.2680664 -0.18896484 -0.45922852 q -0.18896484 -0.19116211 -0.46142578 -0.19116211 Z "/>
        </symbol>
        <symbol id="g1AB7F93DDE4078D844912323D9FB29AD" overflow="visible">
            <path d="M 0 0m 1.5820313 -0.087890625 q -0.32080078 0 -0.63720703 0.024169922 q -0.31640625 0.024169922 -0.63720703 0.068115234 l 0.91845703 5.211914 q 0.021972656 0.13183594 0.021972656 0.23730469 q 0 0.16259766 -0.057128906 0.2548828 q -0.09667969 0.1538086 -0.3647461 0.1538086 q -0.10986328 0 -0.2175293 -0.010986328 q -0.107666016 -0.010986328 -0.2175293 -0.037353516 l -0.092285156 0.7998047 q 0.16699219 0.03955078 0.33398438 0.05493164 q 0.16699219 0.015380859 0.33398438 0.015380859 q 0.76464844 0 1.050293 -0.36914063 q 0.18896484 -0.24169922 0.18896484 -0.6767578 q 0 -0.22851563 -0.052734375 -0.5097656 l -0.2680664 -1.5292969 h 0.092285156 q 0.2109375 0.5493164 0.6657715 0.84814453 q 0.45483398 0.29882813 1.092041 0.29882813 q 0.5756836 0 0.8942871 -0.36694336 q 0.31860352 -0.36694336 0.31860352 -1.0393066 q 0 -0.7338867 -0.25268555 -1.3579102 q -0.25268555 -0.62402344 -0.7097168 -1.0898438 q -0.45703125 -0.4658203 -1.0700684 -0.7229004 q -0.6130371 -0.25708008 -1.3337402 -0.25708008 Z m -0.021972656 1.8500977 l -0.17578125 -1.0063477 q 0.14501953 -0.0087890625 0.2944336 -0.0087890625 q 0.6635742 0 1.190918 0.31640625 q 0.52734375 0.31640625 0.8327637 0.8635254 q 0.30541992 0.54711914 0.30541992 1.2370605 q 0 0.35595703 -0.16259766 0.5515137 q -0.16259766 0.19555664 -0.46142578 0.19555664 q -0.36035156 0 -0.72509766 -0.2241211 q -0.3647461 -0.2241211 -0.6569824 -0.6965332 q -0.29223633 -0.4724121 -0.4416504 -1.2282715 Z "/>
        </symbol>
        <symbol id="g1726B056BB78D17DAA3C5EC712C0D098" overflow="visible">
            <path d="M 0 0m 2.1577148 -0.087890625 q -0.57128906 0 -1.050293 0.0703125 q -0.4790039 0.0703125 -0.78222656 0.19335938 l 0.2548828 0.84375 q 0.5097656 -0.1274414 0.9602051 -0.19995117 q 0.45043945 -0.072509766 0.7668457 -0.072509766 q 0.5756836 0 0.8942871 0.15161133 q 0.31860352 0.15161133 0.31860352 0.4284668 q 0 0.29882813 -0.41748047 0.4350586 l -1.3183594 0.44384766 q -0.4350586 0.14501953 -0.66796875 0.4086914 q -0.23291016 0.26367188 -0.23291016 0.5932617 q 0 0.7338867 0.6218262 1.1359863 q 0.6218262 0.4020996 1.7600098 0.4020996 q 0.8305664 0 1.6083984 -0.13183594 l -0.23730469 -0.80859375 q -0.41308594 0.048339844 -0.8063965 0.0769043 q -0.39331055 0.028564453 -0.6965332 0.028564453 q -0.62402344 0 -0.9645996 -0.16040039 q -0.34057617 -0.16040039 -0.34057617 -0.45483398 q 0 -0.2241211 0.32958984 -0.3251953 l 1.340332 -0.42626953 q 0.4658203 -0.14941406 0.7141113 -0.4416504 q 0.24829102 -0.29223633 0.24829102 -0.670166 q 0 -0.72509766 -0.6020508 -1.1228027 q -0.6020508 -0.39770508 -1.7006836 -0.39770508 Z "/>
        </symbol>
        <symbol id="g790D21DDD7746B3EED50EBE5D93C4599" overflow="visible">
            <path d="M 0 0m 4.245117 0.98876953 l 0.30322266 -0.70751953 q -0.2680664 -0.1538086 -0.56689453 -0.2614746 q -0.29882813 -0.107666016 -0.6855469 -0.107666016 q -1.5292969 0 -1.5292969 1.3139648 q 0 0.07470703 0.0043945313 0.1538086 q 0.021972656 0.32958984 0.12963867 0.64160156 q 0.107666016 0.31201172 0.23510742 0.6064453 q 0.123046875 0.2944336 0.18896484 0.56689453 q 0.03515625 0.13183594 0.03515625 0.24169922 q 0 0.48779297 -0.69873047 0.48779297 q -0.41748047 0 -0.8041992 -0.10107422 l -0.092285156 0.7998047 q 0.25927734 0.07470703 0.5185547 0.09887695 q 0.25927734 0.024169922 0.5185547 0.024169922 q 0.90966797 0 1.2788086 -0.41308594 q 0.24169922 -0.27246094 0.24169922 -0.70751953 q 0 -0.23730469 -0.0703125 -0.5185547 q -0.07470703 -0.31201172 -0.19335938 -0.5800781 q -0.123046875 -0.27246094 -0.2241211 -0.5361328 q -0.10107422 -0.26367188 -0.123046875 -0.57128906 q -0.0043945313 -0.03955078 -0.0043945313 -0.07470703 q 0 -0.59765625 0.7602539 -0.59765625 q 0.21972656 0 0.38452148 0.05493164 q 0.16479492 0.05493164 0.39331055 0.18676758 Z m -1.0327148 4.407715 q -0.2680664 0 -0.45922852 0.19116211 q -0.19116211 0.19116211 -0.19116211 0.45922852 q 0 0.27246094 0.19116211 0.46142578 q 0.19116211 0.18896484 0.45922852 0.18896484 q 0.27246094 0 0.46142578 -0.18896484 q 0.18896484 -0.18896484 0.18896484 -0.46142578 q 0 -0.2680664 -0.18896484 -0.45922852 q -0.18896484 -0.19116211 -0.46142578 -0.19116211 Z "/>
        </symbol>
        <symbol id="gC74888528B3AEE0D5E47317239028E70" overflow="visible">
            <path d="M 0 0m 0.32958984 0 l 0.82177734 4.658203 h 0.77783203 l -0.030761719 -1.059082 h 0.087890625 q 0.140625 0.5493164 0.55810547 0.84814453 q 0.41748047 0.29882813 1.0019531 0.29882813 q 1.1689453 0 1.1689453 -1.1469727 q 0 -0.24169922 -0.052734375 -0.5361328 l -0.54052734 -3.0629883 h -0.9448242 l 0.54052734 3.0981445 q 0.026367188 0.140625 0.026367188 0.25927734 q 0 0.55371094 -0.5493164 0.55371094 q -0.3515625 0 -0.6525879 -0.19995117 q -0.3010254 -0.19995117 -0.54052734 -0.6657715 q -0.23950195 -0.4658203 -0.41088867 -1.2568359 l -0.31640625 -1.7885742 h -0.9448242 Z "/>
        </symbol>
        <symbol id="g7CA6670B781567762FF4BD6C525BB628" overflow="visible">
            <path d="M 0 0m 3.177246 0 l 0.54052734 3.0981445 q 0.026367188 0.140625 0.026367188 0.25927734 q 0 0.55371094 -0.5493164 0.55371094 q -0.36035156 0 -0.66796875 -0.20654297 q -0.3076172 -0.20654297 -0.5515137 -0.68774414 q -0.24389648 -0.48120117 -0.41967773 -1.3029785 l 0.0087890625 0.083496094 l -0.31640625 -1.7973633 h -0.9448242 l 0.92285156 5.2163086 q 0.021972656 0.13183594 0.021972656 0.23730469 q 0 0.16259766 -0.057128906 0.2548828 q -0.09667969 0.1538086 -0.3647461 0.1538086 q -0.10986328 0 -0.2175293 -0.010986328 q -0.107666016 -0.010986328 -0.2175293 -0.037353516 l -0.092285156 0.7998047 q 0.16699219 0.03955078 0.33398438 0.05493164 q 0.16699219 0.015380859 0.33398438 0.015380859 q 0.76464844 0 1.050293 -0.36914063 q 0.18457031 -0.24169922 0.18457031 -0.68115234 q 0 -0.22851563 -0.048339844 -0.5053711 l -0.2680664 -1.5292969 h 0.083496094 q 0.140625 0.5493164 0.56469727 0.84814453 q 0.42407227 0.29882813 1.0129395 0.29882813 q 1.1689453 0 1.1689453 -1.1469727 q 0 -0.24169922 -0.052734375 -0.5361328 l -0.54052734 -3.0629883 h -0.9448242 Z "/>
        </symbol>
        <symbol id="gDC03E2BD7297B97B15232DDE57484FFC" overflow="visible">
            <path d="M 0 0m 0.91845703 -2.0214844 h -0.9448242 l 1.1733398 6.6796875 h 0.7866211 l -0.030761719 -1.059082 h 0.07470703 q 0.21533203 0.5493164 0.67456055 0.84814453 q 0.45922852 0.29882813 1.1052246 0.29882813 q 0.5756836 0 0.8942871 -0.36694336 q 0.31860352 -0.36694336 0.31860352 -1.0393066 q 0 -0.7338867 -0.25268555 -1.3579102 q -0.25268555 -0.62402344 -0.7097168 -1.0898438 q -0.45703125 -0.4658203 -1.0700684 -0.7229004 q -0.6130371 -0.25708008 -1.3337402 -0.25708008 q -0.16699219 0 -0.34277344 0.0087890625 l -0.34277344 -1.9423828 Z m 0.4921875 2.7773438 q 0.140625 -0.0087890625 0.29003906 -0.0087890625 q 0.6635742 0 1.190918 0.31640625 q 0.52734375 0.31640625 0.8327637 0.8635254 q 0.30541992 0.54711914 0.30541992 1.2370605 q 0 0.35595703 -0.16259766 0.5515137 q -0.16259766 0.19555664 -0.46142578 0.19555664 q -0.3515625 0 -0.7097168 -0.21313477 q -0.3581543 -0.21313477 -0.6503906 -0.66796875 q -0.29223633 -0.45483398 -0.4416504 -1.1755371 l -0.19335938 -1.0986328 Z "/>
        </symbol>
        <symbol id="gF5040AB48D4CC8072B6D3E70028F9AD3" overflow="visible">
            <path d="M 0 0m 1.203125 8.454102 h 8.59375 q 0.49414063 0 0.8486328 -0.3544922 q 0.3544922 -0.3544922 0.3544922 -0.8486328 v -2.75 q 0 -0.38134766 -0.21484375 -0.6875 q 0.21484375 -0.30615234 0.21484375 -0.6875 v -2.75 q 0 -0.49414063 -0.3544922 -0.8486328 q -0.3544922 -0.3544922 -0.8486328 -0.3544922 h -8.59375 q -0.49414063 0 -0.8486328 0.3544922 q -0.3544922 0.3544922 -0.3544922 0.8486328 v 2.75 q 0 0.38134766 0.21484375 0.6875 q -0.21484375 0.30615234 -0.21484375 0.6821289 v 0.0053710938 v 0.6875 q 0 0.6875 0 1.375 v 0.6875 q 0 0.49414063 0.3544922 0.8486328 q 0.3544922 0.3544922 0.8486328 0.3544922 Z m -0.171875 -1.203125 v -2.75 q 0 -0.064453125 0.053710938 -0.11816406 q 0.053710938 -0.053710938 0.11816406 -0.053710938 h 8.59375 q 0.064453125 0 0.11816406 0.053710938 q 0.053710938 0.053710938 0.053710938 0.11816406 v 2.75 q 0 0.064453125 -0.053710938 0.11816406 q -0.053710938 0.053710938 -0.11816406 0.053710938 h -8.59375 q -0.064453125 0 -0.11816406 -0.053710938 q -0.053710938 -0.053710938 -0.053710938 -0.11816406 Z m 0.171875 -3.953125 q -0.064453125 0 -0.11816406 -0.053710938 q -0.053710938 -0.053710938 -0.053710938 -0.11816406 v -2.75 q 0 -0.064453125 0.053710938 -0.11816406 q 0.053710938 -0.053710938 0.11816406 -0.053710938 h 8.59375 q 0.064453125 0 0.11816406 0.053710938 q 0.053710938 0.053710938 0.053710938 0.11816406 v 2.75 q 0 0.064453125 -0.053710938 0.11816406 q -0.053710938 0.053710938 -0.11816406 0.053710938 h -8.59375 Z m 3.609375 2.578125 q 0 0.21484375 0.15039063 0.36523438 q 0.15039063 0.15039063 0.36523438 0.15039063 h 3.09375 q 0.21484375 0 0.36523438 -0.15039063 q 0.15039063 -0.15039063 0.15039063 -0.36523438 q 0 -0.21484375 -0.15039063 -0.36523438 q -0.15039063 -0.15039063 -0.36523438 -0.15039063 h -3.09375 q -0.21484375 0 -0.36523438 0.15039063 q -0.15039063 0.15039063 -0.15039063 0.36523438 Z m 0.515625 -3.609375 h 3.09375 q 0.21484375 0 0.36523438 -0.15039063 q 0.15039063 -0.15039063 0.15039063 -0.36523438 q 0 -0.21484375 -0.15039063 -0.36523438 q -0.15039063 -0.15039063 -0.36523438 -0.15039063 h -3.09375 q -0.21484375 0 -0.36523438 0.15039063 q -0.15039063 0.15039063 -0.15039063 0.36523438 q 0 0.21484375 0.15039063 0.36523438 q 0.15039063 0.15039063 0.36523438 0.15039063 Z m -3.265625 3.609375 q 0 0.21484375 0.15039063 0.36523438 q 0.15039063 0.15039063 0.36523438 0.15039063 h 0.34375 q 0.21484375 0 0.36523438 -0.15039063 q 0.15039063 -0.15039063 0.15039063 -0.36523438 q 0 -0.21484375 -0.15039063 -0.36523438 q -0.15039063 -0.15039063 -0.36523438 -0.15039063 h -0.34375 q -0.21484375 0 -0.36523438 0.15039063 q -0.15039063 0.15039063 -0.15039063 0.36523438 Z m 0.515625 -3.609375 h 0.34375 q 0.21484375 0 0.36523438 -0.15039063 q 0.15039063 -0.15039063 0.15039063 -0.36523438 q 0 -0.21484375 -0.15039063 -0.36523438 q -0.15039063 -0.15039063 -0.36523438 -0.15039063 h -0.34375 q -0.21484375 0 -0.36523438 0.15039063 q -0.15039063 0.15039063 -0.15039063 0.36523438 q 0 0.21484375 0.15039063 0.36523438 q 0.15039063 0.15039063 0.36523438 0.15039063 Z "/>
        </symbol>
        <symbol id="gE98B62B6AAA3A4F47FFAA07CF6684C2D" overflow="visible">
            <path d="M 0 0m 2.5292969 -0.09765625 q -1.1621094 0 -1.8164063 0.14648438 l 0.14160156 1.1328125 q 0.57128906 -0.078125 0.9814453 -0.1171875 q 0.41015625 -0.0390625 0.6933594 -0.0390625 q 0.7128906 0 1.0327148 0.1171875 q 0.31982422 0.1171875 0.31982422 0.37109375 q 0 0.16601563 -0.09277344 0.25146484 q -0.09277344 0.08544922 -0.29296875 0.13916016 l -1.4892578 0.41503906 q -0.6201172 0.17089844 -0.91796875 0.4711914 q -0.29785156 0.30029297 -0.29785156 0.84716797 q 0 0.84472656 0.68115234 1.2402344 q 0.68115234 0.3955078 2.121582 0.3955078 q 0.3466797 0 0.6933594 -0.024414063 q 0.3466797 -0.024414063 0.72265625 -0.07324219 l -0.12695313 -1.09375 q -0.4248047 0.0390625 -0.7446289 0.053710938 q -0.31982422 0.0146484375 -0.57373047 0.0146484375 q -0.8105469 0 -1.171875 -0.11230469 q -0.36132813 -0.11230469 -0.36132813 -0.36132813 q 0 -0.16601563 0.107421875 -0.24414063 q 0.107421875 -0.078125 0.33203125 -0.13671875 l 1.25 -0.33691406 q 0.72753906 -0.18554688 1.0766602 -0.52246094 q 0.3491211 -0.33691406 0.3491211 -0.91796875 q 0 -0.8251953 -0.63720703 -1.2207031 q -0.63720703 -0.3955078 -1.9799805 -0.3955078 Z "/>
        </symbol>
        <symbol id="gFFFB5D027B8E868DE4F6A5EC04C01182" overflow="visible">
            <path d="M 0 0m 3.7011719 -0.09765625 q -0.9472656 0 -1.3647461 0.5175781 q -0.41748047 0.5175781 -0.41748047 1.6552734 v 4.1552734 h -1.4892578 v 1.09375 h 2.6904297 v -5.2001953 q 0 -0.5371094 0.17822266 -0.78125 q 0.17822266 -0.24414063 0.79345703 -0.24414063 q 0.41992188 0 1.0644531 0.18554688 l 0.13671875 -1.1767578 q -0.40527344 -0.107421875 -0.78125 -0.15625 q -0.37597656 -0.048828125 -0.8105469 -0.048828125 Z "/>
        </symbol>
        <symbol id="gE6F7E9A0CA3A1A35539F4CD883352573" overflow="visible">
            <path d="M 0 0m 1.8798828 0 v 3.0566406 h -1.5966797 v 1.0449219 h 1.5966797 v 0.6347656 q 0 2.6855469 2.5341797 2.6855469 q 0.5859375 0 1.1230469 -0.09765625 l -0.1171875 -1.09375 q -0.3173828 0.0390625 -0.56152344 0.053710938 q -0.24414063 0.0146484375 -0.4736328 0.0146484375 q -1.3037109 0 -1.3037109 -1.5136719 v -0.68359375 h 2.084961 v -1.0449219 h -2.084961 v -3.0566406 h -1.2011719 Z "/>
        </symbol>
        <symbol id="g72B730C51DD2655BF091C2318CBEE609" overflow="visible">
            <path d="M 0 0m 0.43945313 2.915039 v 1.09375 h 4.9804688 v -1.09375 h -4.9804688 Z "/>
        </symbol>
        <symbol id="g90927B498FF1B3BDAD151327CDC9A723" overflow="visible">
            <path d="M 0 0m 3.881836 0 v 3.2226563 q 0 0.45410156 -0.21240234 0.703125 q -0.21240234 0.24902344 -0.60302734 0.24902344 q -1.0888672 0 -1.0888672 -1.4111328 v -2.7636719 h -1.2060547 v 7.3242188 h 1.2060547 v -3.0859375 h 0.1171875 q 0.06347656 0.52246094 0.36621094 0.7788086 q 0.30273438 0.25634766 0.9082031 0.25634766 q 0.8203125 0 1.2695313 -0.49804688 q 0.44921875 -0.49804688 0.44921875 -1.40625 v -3.3691406 h -1.2060547 Z "/>
        </symbol>
        <symbol id="gFE211A38760FCCC70D4C1ED5F0F85102" overflow="visible">
            <path d="M 0 0m 3.9648438 -0.09765625 q -1.2792969 0 -1.8432617 0.5175781 q -0.56396484 0.5175781 -0.56396484 1.6552734 v 2.006836 h -1.2646484 v 1.09375 h 1.2646484 v 1.5625 h 1.2011719 v -1.5625 h 2.319336 v -1.09375 h -2.319336 v -1.9091797 q 0 -0.60546875 0.30517578 -0.87646484 q 0.30517578 -0.2709961 0.99853516 -0.2709961 q 0.22949219 0 0.49316406 0.026855469 q 0.26367188 0.026855469 0.60058594 0.07080078 l 0.1171875 -1.1035156 q -0.32714844 -0.05859375 -0.63964844 -0.087890625 q -0.3125 -0.029296875 -0.6689453 -0.029296875 Z "/>
        </symbol>
        <symbol id="gE0675CC587F350A3F1950D16C62E0855" overflow="visible">
            <path d="M 0 0m 0.77783203 -0.18017578 l -0.59765625 0.6591797 l 1.9951172 1.902832 l -0.057128906 0.83496094 q -0.026367188 0.3647461 -0.17138672 0.529541 q -0.14501953 0.16479492 -0.36035156 0.16479492 q -0.17578125 0 -0.3383789 -0.032958984 q -0.16259766 -0.032958984 -0.34277344 -0.11206055 l -0.2241211 0.76464844 q 0.6064453 0.21533203 1.0327148 0.21533203 q 0.5229492 0 0.84594727 -0.31640625 q 0.32299805 -0.31640625 0.3713379 -1.0415039 l 0.013183594 -0.18457031 l 1.40625 1.6303711 l 0.64160156 -0.6591797 l -1.9863281 -1.9160156 l 0.057128906 -0.8173828 q 0.026367188 -0.3647461 0.16699219 -0.529541 q 0.140625 -0.16479492 0.3647461 -0.16479492 q 0.36914063 0 0.7602539 0.17578125 l 0.23730469 -0.76464844 q -0.56689453 -0.24609375 -1.125 -0.24609375 q -0.52734375 0 -0.84814453 0.31640625 q -0.32080078 0.31640625 -0.36914063 1.0415039 l -0.013183594 0.17138672 l -1.4589844 -1.621582 Z "/>
        </symbol>
        <symbol id="g740B047D122FE40ECEE01614BE890F9E" overflow="visible">
            <path d="M 0 0m -0.06591797 0 l 0.14501953 0.8173828 h 1.0415039 l 0.43945313 2.465332 q 0.021972656 0.13183594 0.021972656 0.23730469 q 0 0.16259766 -0.057128906 0.2548828 q -0.09667969 0.14941406 -0.3647461 0.14941406 q -0.36914063 0 -0.71191406 -0.10107422 l -0.092285156 0.7998047 q 0.38671875 0.123046875 0.9448242 0.123046875 q 0.6635742 0 0.9645996 -0.2746582 q 0.3010254 -0.2746582 0.2746582 -0.87231445 h 0.09667969 q 0.1274414 0.5493164 0.49658203 0.84814453 q 0.36914063 0.29882813 0.8876953 0.29882813 q 0.703125 0 1.0195313 -0.43945313 q 0.21972656 -0.31640625 0.21972656 -0.80859375 q 0 -0.20214844 -0.03515625 -0.4350586 h -0.9448242 q 0.017578125 0.1274414 0.017578125 0.23291016 q 0 0.6152344 -0.54052734 0.6152344 q -0.32958984 0 -0.61083984 -0.19555664 q -0.28125 -0.19555664 -0.50756836 -0.64819336 q -0.22631836 -0.45263672 -0.38891602 -1.2260742 l -0.18457031 -1.0239258 h 1.125 l -0.14501953 -0.8173828 h -3.1113281 Z "/>
        </symbol>
        <symbol id="gF891E66E19DFDA47B179A9F668E5A6B4" overflow="visible">
            <path d="M 0 0m 3.7792969 2.4398437 l -0.47460938 -2.4398437 h -0.64687514 l 0.47460938 2.4433594 q 0.0035157204 0.014062405 0.010546923 0.049218655 q 0.052734375 0.24960947 0.052734375 0.38671875 q 0 0.28476572 -0.16347647 0.43769526 q -0.1634767 0.15292978 -0.46933603 0.15292978 q -0.44648433 0 -0.759375 -0.32695317 q -0.31289065 -0.32695317 -0.4289062 -0.917578 l -0.43242186 -2.2253907 h -0.646875 l 0.7699218 3.9375 h 0.646875 l -0.11249995 -0.59062505 q 0.26367188 0.34101558 0.57128906 0.5132811 q 0.3076172 0.17226553 0.65214825 0.17226553 q 0.48867202 0 0.7593751 -0.25488257 q 0.27070308 -0.2548828 0.27070308 -0.71191406 q 0 -0.11249995 -0.019335985 -0.27773452 q -0.019335747 -0.16523433 -0.054491997 -0.34804678 Z "/>
        </symbol>
        <symbol id="gAE0F4D973572751963EE73E31A814F46" overflow="visible">
            <path d="M 0 0m 4.376953 5.470312 l -0.10898447 -0.53789043 h -0.73125005 q -0.33398438 0 -0.5027344 -0.14589834 q -0.16874981 -0.14589834 -0.23906231 -0.50097656 l -0.07382822 -0.34804678 h 1.3535156 l -0.091406345 -0.5027344 h -1.3535154 l -0.6714845 -3.4347656 h -0.646875 l 0.66796875 3.4347656 h -1.0511718 l 0.10195309 0.5027344 h 1.0441407 l 0.056249857 0.27421856 q 0.1335938 0.6785159 0.47285175 0.968555 q 0.33925772 0.2900386 0.99667954 0.2900386 h 0.7769532 Z "/>
        </symbol>
        <symbol id="g86F798FF03FDF9790184B955A48FF5C7" overflow="visible">
            <path d="M 0 0m 1.18125 2.260547 h 1.8351561 l -0.116015434 -0.57656264 h -1.8351563 l 0.11601567 0.57656264 Z "/>
        </symbol>
        <symbol id="gB6EF4661FC745E9B17D07D613A6C7DE4" overflow="visible">
            <path d="M 0 0m 2.4468749 3.4839842 q -0.5765624 0 -0.9615233 -0.60117173 q -0.384961 -0.601172 -0.384961 -1.5292969 q 0 -0.45351565 0.1968751 -0.6802735 q 0.19687498 -0.2267578 0.5906249 -0.2267578 q 0.5765624 0 0.9615233 0.60117185 q 0.38496113 0.60117185 0.38496113 1.529297 q 0 0.45351553 -0.1968751 0.6802733 q -0.1968751 0.22675776 -0.59062505 0.22675776 Z m 0.059765816 0.54843736 q 0.68906236 0 1.0494139 -0.3761716 q 0.36035156 -0.37617207 0.36035156 -1.1003907 q 0 -0.4851563 -0.14414072 -0.965039 q -0.14414048 -0.47988284 -0.40429688 -0.863086 q -0.27773428 -0.4148437 -0.67499995 -0.6222656 q -0.39726543 -0.20742187 -0.9140624 -0.20742187 q -0.6574218 0 -1.0125 0.38496092 q -0.35507813 0.38496095 -0.35507813 1.0986328 q 0 0.47460938 0.14414063 0.94921887 q 0.1441406 0.47460914 0.40781248 0.8718748 q 0.27773434 0.4078126 0.66972655 0.6187501 q 0.3919921 0.21093726 0.8736329 0.21093726 Z "/>
        </symbol>
        <symbol id="gB17445ADCDD1A72C08D9824DBDB3AAFA" overflow="visible">
            <path d="M 0 0m 3.3046875 0.17929687 q -0.25664067 -0.13710937 -0.55019546 -0.20917967 q -0.29355454 -0.07207031 -0.6099608 -0.07207031 q -0.7875 0 -1.1917969 0.3955078 q -0.40429688 0.39550778 -0.40429688 1.1689453 q 0 0.52382815 0.18808591 1.0283202 q 0.18808597 0.5044923 0.5080079 0.8490236 q 0.32695305 0.34804678 0.71894526 0.5203123 q 0.3919922 0.17226553 0.85957015 0.17226553 q 0.31289077 0 0.6046877 -0.07558584 q 0.29179668 -0.07558584 0.5695312 -0.22675776 l -0.13007808 -0.6398437 q -0.23203135 0.2039063 -0.4781251 0.29882813 q -0.24609375 0.09492183 -0.5449219 0.09492183 q -0.38671875 0 -0.6855469 -0.15644526 q -0.29882813 -0.15644526 -0.5097656 -0.46933603 q -0.19687498 -0.2882812 -0.30761707 -0.65917945 q -0.11074221 -0.3708985 -0.11074221 -0.7365235 q 0 -0.50625 0.24082029 -0.76113284 q 0.24082029 -0.25488278 0.7189454 -0.25488278 q 0.33749986 0 0.64863276 0.10898438 q 0.31113267 0.10898435 0.6029296 0.3304687 l -0.13710928 -0.7066406 Z "/>
        </symbol>
        <symbol id="g5FA12CC364B7E03C1611EFAF6C7D5E1D" overflow="visible">
            <path d="M 0 0m 2.6999998 5.0554686 l -0.21445298 -1.1179686 h 1.4660156 l -0.09843755 -0.5027344 h -1.469531 l -0.41835952 -2.1374998 q -0.021093726 -0.10546875 -0.03164053 -0.19511724 q -0.010546923 -0.089648485 -0.010546923 -0.16699219 q 0 -0.23203123 0.13710928 -0.3251953 q 0.13710952 -0.09316403 0.49570322 -0.09316403 h 0.7277343 l -0.10195303 -0.5167969 h -0.7839844 q -0.5871093 0 -0.863086 0.19511718 q -0.27597654 0.19511718 -0.27597654 0.6099609 q 0 0.087890625 0.014062524 0.20742184 q 0.014062524 0.119531274 0.045703173 0.28476572 l 0.41835928 2.1374998 h -1.0511718 l 0.09843749 0.5027344 h 1.0511718 l 0.2179687 1.1179686 h 0.6468749 Z "/>
        </symbol>
        <symbol id="gE40A86767303A4E863FC071E3B0A8FF2" overflow="visible">
            <path d="M 0 0m 3.786328 3.8003905 l -0.123046875 -0.6328125 q -0.24960947 0.15820313 -0.5255859 0.24082041 q -0.27597666 0.082617044 -0.54667974 0.082617044 q -0.48164058 0 -0.7470703 -0.17929673 q -0.26542974 -0.17929697 -0.26542974 -0.5027344 q 0 -0.3445313 0.7769532 -0.54140615 q 0.052734375 -0.014062643 0.0773437 -0.021093845 l 0.25312495 -0.0632813 q 0.41132808 -0.10898423 0.6152344 -0.3251952 q 0.2039063 -0.21621096 0.2039063 -0.5396484 q 0 -0.63632816 -0.50625014 -1.0283203 q -0.5062499 -0.39199218 -1.3429686 -0.39199218 q -0.2847656 0 -0.59414065 0.061523434 q -0.309375 0.061523434 -0.6574218 0.1845703 l 0.13007814 0.66796875 q 0.3304687 -0.18632811 0.6416015 -0.2794922 q 0.3111328 -0.09316403 0.6029297 -0.09316403 q 0.46757805 0 0.7628907 0.2091797 q 0.2953124 0.20917964 0.2953124 0.53261715 q 0 0.3480469 -0.6890626 0.53085935 q -0.06328106 0.014062524 -0.09843731 0.024609327 l -0.23554695 0.0632813 q -0.45351565 0.11601567 -0.6662109 0.34101558 q -0.21269536 0.22500014 -0.21269536 0.5871093 q 0 0.59765625 0.46406245 0.9509766 q 0.46406257 0.35332012 1.2515625 0.35332012 q 0.30937505 0 0.5941405 -0.058007717 q 0.28476572 -0.058007717 0.5414064 -0.17402339 Z "/>
        </symbol>
        <symbol id="g1F2A6484DA9AE377083B3BECE648BAC" overflow="visible">
            <path d="M 0 0m 3.297656 2.3167968 q 0.021093845 0.09492183 0.028125048 0.15644526 q 0.0070312023 0.061523438 0.0070312023 0.11777353 q 0 0.421875 -0.22851563 0.6574218 q -0.22851563 0.23554683 -0.636328 0.23554683 q -0.43242192 0 -0.78925776 -0.31640625 q -0.35683596 -0.31640625 -0.5115235 -0.8507812 h 2.1304686 Z m 0.08085942 -2.1164062 q -0.36914063 -0.15117188 -0.7207031 -0.22675781 q -0.3515625 -0.07558593 -0.7136718 -0.07558593 q -0.7839843 0 -1.1917968 0.39199218 q -0.40781248 0.39199215 -0.40781248 1.1443359 q 0 0.5484375 0.2109375 1.0757812 q 0.2109375 0.52734375 0.5835938 0.9105468 q 0.2917968 0.30234385 0.64511716 0.46054697 q 0.35332036 0.15820313 0.7365234 0.15820313 q 0.6539061 0 1.0458984 -0.402539 q 0.3919921 -0.402539 0.3919921 -1.0740235 q 0 -0.119531155 -0.017578125 -0.29707026 q -0.017578125 -0.17753911 -0.059765577 -0.4517578 h -2.8371093 q -0.021093726 -0.11250007 -0.03164065 -0.2039063 q -0.0105468035 -0.091406226 -0.0105468035 -0.16171873 q 0 -0.48867184 0.27070308 -0.74531245 q 0.27070308 -0.25664064 0.7874999 -0.25664064 q 0.30937505 0 0.6767578 0.10019532 q 0.36738276 0.10019529 0.76816416 0.29707032 l -0.1265626 -0.64335936 Z "/>
        </symbol>
        <symbol id="gA4BB4F44188555CB1F26DE98B7F568FC" overflow="visible">
            <path d="M 0 0m 4.1625 3.1253905 q -0.15820313 0.1546874 -0.36738276 0.23203135 q -0.20917964 0.0773437 -0.47636724 0.0773437 q -0.5765624 0 -0.9878905 -0.402539 q -0.4113282 -0.402539 -0.544922 -1.1021485 l -0.37617183 -1.930078 h -0.646875 l 0.7628906 3.9375 h 0.64687514 l -0.140625 -0.769922 q 0.23554683 0.421875 0.6099608 0.6433594 q 0.37441397 0.22148418 0.84902334 0.22148418 q 0.24960947 0 0.4517579 -0.06503892 q 0.20214844 -0.06503892 0.34277344 -0.1880858 l -0.123046875 -0.65390635 Z "/>
        </symbol>
        <symbol id="g5D9E5A12939F007F9427F06DF61DB087" overflow="visible">
            <path d="M 0 0m 0.63984376 3.9375 h 0.62578124 l 0.54140615 -3.3609376 l 1.7648437 3.3609376 h 0.6960938 l -2.1585937 -3.9375 h -0.8367188 l -0.63281244 3.9375 Z "/>
        </symbol>
        <symbol id="g1856AEF73B56D8088FCAB5F922AEF164" overflow="visible">
            <path d="M 0 0m 0.24169922 -2.109375 l -0.043945313 0.8173828 l 0.92285156 0.057128906 q 0.7338867 0.048339844 1.1755371 0.3383789 q 0.4416504 0.29003906 0.6657715 0.72509766 q 0.2241211 0.4350586 0.30322266 0.9140625 l 0.048339844 0.27246094 h -0.061523438 q -0.2241211 -0.5317383 -0.6437988 -0.8195801 q -0.41967773 -0.2878418 -0.98217773 -0.2878418 q -0.6064453 0 -0.9382324 0.34277344 q -0.3317871 0.34277344 -0.3317871 0.9667969 q 0 0.7910156 0.33618164 1.4348145 q 0.33618164 0.6437988 0.94262695 1.1008301 q 0.6064453 0.45703125 1.4216309 0.703125 q 0.81518555 0.24609375 1.7687988 0.24609375 h 0.083496094 l -0.6767578 -3.8188477 q -0.10986328 -0.6196289 -0.31860352 -1.1425781 q -0.20874023 -0.5229492 -0.5690918 -0.91845703 q -0.36035156 -0.3955078 -0.9250488 -0.62841797 q -0.56469727 -0.23291016 -1.3864746 -0.2680664 l -0.7910156 -0.03515625 Z m 3.5683594 5.9370117 q -0.7207031 -0.10546875 -1.2875977 -0.45483398 q -0.56689453 -0.34936523 -0.8964844 -0.876709 q -0.32958984 -0.52734375 -0.32958984 -1.1689453 q 0 -0.28125 0.16040039 -0.43286133 q 0.16040039 -0.15161133 0.45483398 -0.15161133 q 0.6328125 0 1.0810547 0.5383301 q 0.4482422 0.5383301 0.64160156 1.5490723 l 0.17578125 0.9975586 Z "/>
        </symbol>
        <symbol id="g94D7B94169328B0883E9D91B5940CECA" overflow="visible">
            <path d="M 0 0m 0 2.229004 q 0 0.91845703 0.5317383 1.659668 q 0.5317383 0.74121094 1.375 1.0366211 q -0.0053710938 0.026855469 -0.0053710938 0.080566406 q 0 0.053710938 0 0.07519531 q 0 0.64453125 0.2524414 1.2353516 q 0.2524414 0.5908203 0.6767578 1.0097656 q 0.4243164 0.4243164 1.0151367 0.6767578 q 0.5908203 0.2524414 1.2299805 0.2524414 q 0.8701172 -0.0053710938 1.6005859 -0.4350586 q 0.73046875 -0.4296875 1.1494141 -1.1547852 q 0.47265625 0.32226563 1.0581055 0.32226563 q 0.7895508 0 1.3481445 -0.55859375 q 0.55859375 -0.55859375 0.55859375 -1.3481445 q 0 -0.3383789 -0.12890625 -0.6821289 q 0.8754883 -0.1772461 1.4555664 -0.8754883 q 0.5800781 -0.6982422 0.57470703 -1.6113281 q 0.0053710938 -0.6875 -0.3383789 -1.2729492 q -0.34375 -0.5854492 -0.9291992 -0.9291992 q -0.5854492 -0.34375 -1.2729492 -0.3383789 h -7.2939453 q -0.5800781 0 -1.1064453 0.22558594 q -0.5263672 0.22021484 -0.91308594 0.6069336 q -0.38671875 0.38671875 -0.6123047 0.91308594 q -0.22558594 0.5263672 -0.22558594 1.1118164 Z "/>
        </symbol>
        <symbol id="g7153874C5BAF7D2747C9C60A1F179C78" overflow="visible">
            <path d="M 0 0m 0.44433594 0 l 1.8798828 2.5585938 l -1.8798828 2.6171875 h 1.4160156 l 1.0693359 -1.6992188 l 1.0693359 1.6992188 h 1.4160156 l -1.9042969 -2.578125 l 1.9042969 -2.5976563 h -1.4160156 l -1.09375 1.6943359 l -1.0449219 -1.6943359 h -1.4160156 Z "/>
        </symbol>
        <symbol id="g18EB955566EC1FAC7CF0DB422A04AC82" overflow="visible">
            <path d="M 0 0m 2.6611328 2.2265625 v -1.1816406 h 1.2353516 v -1.0449219 h -3.5546875 v 1.0449219 h 1.1181641 v 3.0859375 h -0.92285156 v 1.0449219 h 1.9287109 l 0.16113281 -1.2304688 h 0.16113281 q 0.078125 1.328125 1.3623047 1.328125 q 1.5234375 0 1.5234375 -2.0410156 h -1.2011719 q 0 0.5029297 -0.16845703 0.72265625 q -0.16845703 0.21972656 -0.5395508 0.21972656 q -0.5517578 0 -0.8276367 -0.5078125 q -0.2758789 -0.5078125 -0.2758789 -1.4404297 Z "/>
        </symbol>
        <symbol id="g36A9347B02B0E5A3EA481BF1269DF5F8" overflow="visible">
            <path d="M 0 0m 3.9257813 -0.048828125 l -0.068359375 1.1425781 h -0.11230469 q -0.06347656 -0.5957031 -0.48583984 -0.8935547 q -0.42236328 -0.29785156 -1.1157227 -0.29785156 q -0.8203125 0 -1.2719727 0.39794922 q -0.45166016 0.39794922 -0.45166016 1.1352539 q 0 0.8496094 0.60546875 1.3037109 q 0.60546875 0.45410156 1.7138672 0.45410156 q 0.5908203 0 1.0253906 -0.09277344 v 0.10253906 q 0 0.45410156 -0.3564453 0.6665039 q -0.3564453 0.21240234 -1.0644531 0.2319336 l -1.2890625 0.034179688 l 0.09765625 1.0888672 l 1.09375 -0.0146484375 q 1.3574219 -0.01953125 2.0166016 -0.5541992 q 0.6591797 -0.53466797 0.6591797 -1.5600586 v -2.0117188 l 0.78125 -0.107421875 v -0.9765625 l -1.7773438 -0.048828125 Z m -0.16113281 2.1777344 q -0.26367188 0.048828125 -0.5004883 0.056152344 q -0.2368164 0.0073242188 -0.49560547 0.0073242188 q -1.1523438 0 -1.1523438 -0.67871094 q 0 -0.61035156 0.7910156 -0.61035156 q 0.45410156 0 0.75439453 0.16357422 q 0.30029297 0.16357422 0.45166016 0.41503906 q 0.15136719 0.25146484 0.15136719 0.52001953 v 0.12695313 Z "/>
        </symbol>
        <symbol id="gC650D9EA375D2FFF77166A99197A1942" overflow="visible">
            <path d="M 0 0m 2.4328125 1.9792968 q -0.41835928 0 -0.6222656 -0.026367188 q -0.2039063 -0.026367188 -0.35507822 -0.089648366 q -0.23906243 -0.09492195 -0.38320303 -0.3111329 q -0.14414066 -0.21621084 -0.14414066 -0.4728515 q 0 -0.29179686 0.18105465 -0.46582025 q 0.18105471 -0.17402345 0.49042976 -0.17402345 q 0.52031255 0 0.89824224 0.37265623 q 0.37792945 0.37265623 0.51152325 1.0230469 l 0.028125048 0.1441406 h -0.60468745 Z m 1.3042967 0.26718748 l -0.43945313 -2.2464843 h -0.6468749 l 0.11249995 0.5835937 q -0.25312495 -0.33046874 -0.59765625 -0.50800776 q -0.34453118 -0.17753905 -0.7312499 -0.17753905 q -0.53789055 0 -0.85957026 0.29355466 q -0.32167968 0.29355466 -0.32167968 0.7787109 q 0 0.6890625 0.543164 1.1021484 q 0.5431641 0.41308594 1.4712892 0.41308594 h 0.8648436 l 0.042187452 0.21445298 q 0.0070314407 0.031640768 0.010546923 0.06679702 q 0.0035157204 0.03515625 0.0035157204 0.09843755 q 0 0.29882813 -0.22148442 0.45878887 q -0.22148442 0.15996099 -0.6328125 0.15996099 q -0.3023436 0 -0.65214837 -0.089648485 q -0.34980464 -0.08964825 -0.74003905 -0.26894522 l 0.123046815 0.6328125 q 0.37968755 0.13710928 0.7207031 0.20566416 q 0.3410157 0.0685544 0.6539062 0.0685544 q 0.65390635 0 1.0177734 -0.28828096 q 0.36386728 -0.28828144 0.36386728 -0.79804707 q 0 -0.11249995 -0.021093845 -0.2953124 q -0.021093607 -0.18281245 -0.0632813 -0.40429688 Z "/>
        </symbol>
        <symbol id="gFA6EE145F2937CD70FF6AB942DEC2399" overflow="visible">
            <path d="M 0 0m 2.109375 1.4343749 q -0.024609327 -0.123046875 -0.03691411 -0.2179687 q -0.012304783 -0.09492183 -0.012304783 -0.15820313 q 0 -0.2566406 0.1564455 -0.38320315 q 0.15644526 -0.12656248 0.476367 -0.12656248 h 0.741797 l -0.10898447 -0.5484375 h -0.7277343 q -0.60820305 0 -0.90527344 0.22324218 q -0.29707026 0.22324218 -0.29707026 0.6837891 q 0 0.09843749 0.017578125 0.23906249 q 0.017578125 0.140625 0.049218774 0.30234373 l 0.74179685 3.5542967 h -1.1109375 l 0.10195315 0.5062499 h 1.7578125 l -0.84375 -4.0746093 Z "/>
        </symbol>
        <symbol id="g62CF11675EA40ADBD6F4351C3D11E456" overflow="visible">
            <path d="M 0 0m 0.50273436 1.4976562 l 0.4675781 2.4398437 h 0.6503906 l -0.47460938 -2.4398437 q -0.024609327 -0.1300782 -0.03867185 -0.24960935 q -0.014062524 -0.119531274 -0.014062524 -0.2039063 q 0 -0.27773434 0.16347659 -0.4271484 q 0.16347647 -0.14941406 0.4623046 -0.14941406 q 0.44648433 0 0.7558594 0.3251953 q 0.30937505 0.32519525 0.42539072 0.9193359 l 0.43242168 2.2253907 h 0.6503906 l -0.76640606 -3.9375 h -0.64687514 l 0.11601567 0.590625 q -0.25664067 -0.34453124 -0.5695312 -0.515039 q -0.31289065 -0.17050782 -0.6820313 -0.17050782 q -0.46054685 0 -0.7277343 0.2583984 q -0.26718748 0.25839844 -0.26718748 0.70136714 q 0 0.1371094 0.015820295 0.300586 q 0.015820324 0.16347647 0.047460943 0.3322265 Z "/>
        </symbol>
        <symbol id="g6A4BAFC1ED3EE09D9D380AC3576841C1" overflow="visible">
            <path d="M 0 0m 2.4117186 3.4839842 q -0.3093748 0 -0.54492176 -0.15292954 q -0.23554695 -0.15292978 -0.39726567 -0.4587891 q -0.17226553 -0.31640625 -0.26718748 -0.71894526 q -0.09492183 -0.40253913 -0.09492183 -0.806836 q 0 -0.44999993 0.17929685 -0.67499995 q 0.17929685 -0.225 0.53437495 -0.225 q 0.29882824 0 0.5396484 0.15820315 q 0.24082041 0.15820307 0.40957022 0.4675781 q 0.17226577 0.30585933 0.27070332 0.71191406 q 0.09843731 0.40605474 0.09843731 0.8068359 q 0 0.421875 -0.19160151 0.6574218 q -0.19160151 0.23554683 -0.5361328 0.23554683 Z m 0.94218755 -0.049218655 l 0.40429688 2.0355465 h 0.6468749 l -1.0652342 -5.470312 h -0.64687514 l 0.09492183 0.4957031 q -0.22851539 -0.29531246 -0.51855445 -0.44648436 q -0.29003918 -0.15117186 -0.6416017 -0.15117186 q -0.5730468 0 -0.8912109 0.36914063 q -0.31816402 0.3691406 -0.31816402 1.0300782 q 0 0.5027343 0.14062497 1.0107421 q 0.140625 0.50800776 0.38320315 0.8876953 q 0.26367182 0.4148438 0.6205078 0.6257813 q 0.35683596 0.21093726 0.7927735 0.21093726 q 0.34101558 0 0.59765625 -0.15292954 q 0.25664043 -0.15292954 0.40078115 -0.44472647 Z "/>
        </symbol>
    </defs>
</svg>
