<svg class="typst-doc" viewBox="0 0 422.953125 136.041015625" xmlns="http://www.w3.org/2000/svg" xmlns:xlink="http://www.w3.org/1999/xlink" xmlns:h5="http://www.w3.org/1999/xhtml">
    <path class="typst-shape" fill="#ffffff" fill-rule="nonzero" d="M 0 0v 136.04102 h 422.95313 v -136.04102 Z "/>
    <g>
        <g class="typst-group">
            <g>
                <g class="typst-text" transform="matrix(1 0 0 -1 43.14453125 26.93359375)">
                    <use xlink:href="#gFB0F840E5A8BF49BEC8BE6A345CB4AB" x="0" y="0" fill="#59636e" fill-rule="nonzero"/>
                    <use xlink:href="#g76A692940D3DC8CAF9248006D832662E" x="5.859375" y="0" fill="#59636e" fill-rule="nonzero"/>
                    <use xlink:href="#g540080C9EA821770F3FEC7B86E98F54D" x="11.71875" y="0" fill="#59636e" fill-rule="nonzero"/>
                    <use xlink:href="#g540080C9EA821770F3FEC7B86E98F54D" x="17.578125" y="0" fill="#59636e" fill-rule="nonzero"/>
                    <use xlink:href="#g98FFEDE6332A784EA8065E2CF72B1A4E" x="23.4375" y="0" fill="#59636e" fill-rule="nonzero"/>
                    <use xlink:href="#g5810FE8677DA0F5C1E82325733F92E62" x="29.296875" y="0" fill="#59636e" fill-rule="nonzero"/>
                    <use xlink:href="#g72B730C51DD2655BF091C2318CBEE609" x="35.15625" y="0" fill="#59636e" fill-rule="nonzero"/>
                    <use xlink:href="#gF3BC4AD17F032FE82EB1FDABBE59B28D" x="41.015625" y="0" fill="#59636e" fill-rule="nonzero"/>
                    <use xlink:href="#g98FFEDE6332A784EA8065E2CF72B1A4E" x="46.875" y="0" fill="#59636e" fill-rule="nonzero"/>
                    <use xlink:href="#gD3E1361C62CC1CD092AD44D8CA1FFE12" x="52.734375" y="0" fill="#59636e" fill-rule="nonzero"/>
                    <use xlink:href="#gFB0F840E5A8BF49BEC8BE6A345CB4AB" x="58.59375" y="0" fill="#59636e" fill-rule="nonzero"/>
                </g>
                <g class="typst-text" transform="matrix(1 0 0 -1 168.41015625 26.93359375)">
                    <use xlink:href="#gB60D4DADF14A450667ED6AFD1C4B637B" x="0" y="0" fill="#59636e" fill-rule="nonzero"/>
                    <use xlink:href="#gC1465B326C519C898F44C00173329DC3" x="5.859375" y="0" fill="#59636e" fill-rule="nonzero"/>
                    <use xlink:href="#gFB0F840E5A8BF49BEC8BE6A345CB4AB" x="11.71875" y="0" fill="#59636e" fill-rule="nonzero"/>
                    <use xlink:href="#gD3E1361C62CC1CD092AD44D8CA1FFE12" x="17.578125" y="0" fill="#59636e" fill-rule="nonzero"/>
                    <use xlink:href="#gEE580F01DECA13C0B6FB100144D7104D" x="23.4375" y="0" fill="#59636e" fill-rule="nonzero"/>
                    <use xlink:href="#g98FFEDE6332A784EA8065E2CF72B1A4E" x="29.296875" y="0" fill="#59636e" fill-rule="nonzero"/>
                    <use xlink:href="#g5810FE8677DA0F5C1E82325733F92E62" x="35.15625" y="0" fill="#59636e" fill-rule="nonzero"/>
                    <use xlink:href="#g72B730C51DD2655BF091C2318CBEE609" x="41.015625" y="0" fill="#59636e" fill-rule="nonzero"/>
                    <use xlink:href="#gF3BC4AD17F032FE82EB1FDABBE59B28D" x="46.875" y="0" fill="#59636e" fill-rule="nonzero"/>
                    <use xlink:href="#g98FFEDE6332A784EA8065E2CF72B1A4E" x="52.734375" y="0" fill="#59636e" fill-rule="nonzero"/>
                    <use xlink:href="#gD3E1361C62CC1CD092AD44D8CA1FFE12" x="58.59375" y="0" fill="#59636e" fill-rule="nonzero"/>
                    <use xlink:href="#gFB0F840E5A8BF49BEC8BE6A345CB4AB" x="64.453125" y="0" fill="#59636e" fill-rule="nonzero"/>
                </g>
                <g class="typst-text" transform="matrix(1 0 0 -1 310.375 26.93359375)">
                    <use xlink:href="#g97614354A54380EBBA13660E64E1BB40" x="0" y="0" fill="#59636e" fill-rule="nonzero"/>
                    <use xlink:href="#g766123E928FE6255CD435CFDB6E78D87" x="5.859375" y="0" fill="#59636e" fill-rule="nonzero"/>
                    <use xlink:href="#g76A692940D3DC8CAF9248006D832662E" x="11.71875" y="0" fill="#59636e" fill-rule="nonzero"/>
                    <use xlink:href="#gFB0F840E5A8BF49BEC8BE6A345CB4AB" x="17.578125" y="0" fill="#59636e" fill-rule="nonzero"/>
                    <use xlink:href="#gF3BC4AD17F032FE82EB1FDABBE59B28D" x="23.4375" y="0" fill="#59636e" fill-rule="nonzero"/>
                    <use xlink:href="#g98FFEDE6332A784EA8065E2CF72B1A4E" x="29.296875" y="0" fill="#59636e" fill-rule="nonzero"/>
                    <use xlink:href="#g61AEF449D1FD0C32A1E32B5D6E696C51" x="35.15625" y="0" fill="#59636e" fill-rule="nonzero"/>
                    <use xlink:href="#gC1465B326C519C898F44C00173329DC3" x="41.015625" y="0" fill="#59636e" fill-rule="nonzero"/>
                    <use xlink:href="#g36065F6A4FFDE5CDB4274DF4D8DF9F1" x="46.875" y="0" fill="#59636e" fill-rule="nonzero"/>
                    <use xlink:href="#g994D6276079A0DA3219124B0E5A6FAD5" x="52.734375" y="0" fill="#59636e" fill-rule="nonzero"/>
                </g>
                <g class="typst-group">
                    <g>
                        <g class="typst-group" transform="matrix(1 0 0 1 44.27734375 45.43359375)">
                            <g>
                                <g class="typst-group">
                                    <g>
                                        <path class="typst-shape" fill="#fbefff" fill-rule="nonzero" stroke="#8250df" stroke-width="1.2" stroke-linecap="butt" stroke-linejoin="miter" stroke-miterlimit="4" d="M 0 0m 0 45.867188 h 62.1875 v -38.867188 h -45.085938 l -0.85507774 -7 h -16.246485 v 45.867188 Z "/>
                                        <path class="typst-shape" fill="none" transform="matrix(1 0 0 1 10.000000078690158 16.999999950787398)" d="M 0 0h 42.1875 v 18.867188 h -42.1875 v -18.867188 Z "/>
                                        <g class="typst-group">
                                            <g>
                                                <g class="typst-group" transform="matrix(1 0 0 1 9.999999937007878 16.999999921259842)">
                                                    <g>
                                                        <g class="typst-group">
                                                            <g>
                                                                <g class="typst-group">
                                                                    <g>
                                                                        <g class="typst-text" transform="matrix(1 0 0 -1 8.203125000050001 7.626953125)">
                                                                            <use xlink:href="#gA18CDFE1F62A00B4FEC5E44AFC386BDB" x="0" y="0" fill="#1f2328" fill-rule="nonzero"/>
                                                                            <use xlink:href="#gC8E3E634AA710C19DE4C79C9220A4A9E" x="6.4453125" y="0" fill="#1f2328" fill-rule="nonzero"/>
                                                                            <use xlink:href="#g66FE86C3D6200946DA59DA9A03B61B42" x="12.890625" y="0" fill="#1f2328" fill-rule="nonzero"/>
                                                                            <use xlink:href="#g5B2FA1E9DB371893F8855AB0A98A1341" x="19.3359375" y="0" fill="#1f2328" fill-rule="nonzero"/>
                                                                        </g>
                                                                        <g class="typst-text" transform="matrix(1 0 0 -1 0.00000000005000072447069752 18.8671875)">
                                                                            <use xlink:href="#gE0E12823E218B78D2E538FA71A22EB8B" x="0" y="0" fill="#512a97" fill-rule="nonzero"/>
                                                                            <use xlink:href="#g450E794631A8688DF35B57E076332A74" x="5.2734375" y="0" fill="#512a97" fill-rule="nonzero"/>
                                                                            <use xlink:href="#gB42704BEBBE1FE92C991C9C123C18594" x="10.546875" y="0" fill="#512a97" fill-rule="nonzero"/>
                                                                            <use xlink:href="#g72C6BC166C61A93EFAF551369E64380C" x="15.8203125" y="0" fill="#512a97" fill-rule="nonzero"/>
                                                                            <use xlink:href="#g1845A4AECCD66EEAAD5BCF6194D2F543" x="21.09375" y="0" fill="#512a97" fill-rule="nonzero"/>
                                                                            <use xlink:href="#gBE3E0500454E803BE330AA591FCD43C5" x="26.3671875" y="0" fill="#512a97" fill-rule="nonzero"/>
                                                                            <use xlink:href="#g9D2E4F7E5709569433E7CF2B02C985D1" x="31.640625" y="0" fill="#512a97" fill-rule="nonzero"/>
                                                                            <use xlink:href="#g1A69AD2CE0F425B64739F9F7589ABF2C" x="36.9140625" y="0" fill="#512a97" fill-rule="nonzero"/>
                                                                        </g>
                                                                    </g>
                                                                </g>
                                                            </g>
                                                        </g>
                                                    </g>
                                                </g>
                                            </g>
                                        </g>
                                    </g>
                                </g>
                            </g>
                        </g>
                        <g class="typst-group" transform="matrix(1 0 0 1 171.0078125 48.93359375)">
                            <g>
                                <g class="typst-group">
                                    <g>
                                        <path class="typst-shape" fill="#ddf4ff" fill-rule="nonzero" stroke="#0969da" stroke-width="1.2" stroke-linecap="butt" stroke-linejoin="miter" stroke-miterlimit="4" d="M 0 0m 0 38.867188 h 65.11719 v -28.867188 l -10 -10 h -55.117188 v 38.867188 Z "/>
                                        <path class="typst-shape" fill="none" transform="matrix(1 0 0 1 9.999999860186218 9.9999999507874)" d="M 0 0h 45.117188 v 18.867188 h -45.117188 v -18.867188 Z "/>
                                        <g class="typst-group">
                                            <g>
                                                <g class="typst-group" transform="matrix(1 0 0 1 9.999999783464565 9.99999992125984)">
                                                    <g>
                                                        <g class="typst-group">
                                                            <g>
                                                                <g class="typst-group">
                                                                    <g>
                                                                        <g class="typst-text" transform="matrix(1 0 0 -1 0.00000000005000072447069752 7.626953125)">
                                                                            <use xlink:href="#g34A87EEC0912CBC85463B8C88B93607F" x="0" y="0" fill="#1f2328" fill-rule="nonzero"/>
                                                                            <use xlink:href="#g941F0E91703FDA4F8112D6D8DDFCDA38" x="6.4453125" y="0" fill="#1f2328" fill-rule="nonzero"/>
                                                                            <use xlink:href="#gFA60D3504847AEE5E3CF6CFB1382320C" x="12.890625" y="0" fill="#1f2328" fill-rule="nonzero"/>
                                                                            <use xlink:href="#gC8E3E634AA710C19DE4C79C9220A4A9E" x="19.3359375" y="0" fill="#1f2328" fill-rule="nonzero"/>
                                                                            <use xlink:href="#g941F0E91703FDA4F8112D6D8DDFCDA38" x="25.78125" y="0" fill="#1f2328" fill-rule="nonzero"/>
                                                                            <use xlink:href="#g988934665B9D033BE8FC5C94E274603B" x="32.2265625" y="0" fill="#1f2328" fill-rule="nonzero"/>
                                                                            <use xlink:href="#g66FE86C3D6200946DA59DA9A03B61B42" x="38.671875" y="0" fill="#1f2328" fill-rule="nonzero"/>
                                                                        </g>
                                                                        <g class="typst-text" transform="matrix(1 0 0 -1 9.375000000050001 18.8671875)">
                                                                            <use xlink:href="#gE0E12823E218B78D2E538FA71A22EB8B" x="0" y="0" fill="#033d8b" fill-rule="nonzero"/>
                                                                            <use xlink:href="#g72C6BC166C61A93EFAF551369E64380C" x="5.2734375" y="0" fill="#033d8b" fill-rule="nonzero"/>
                                                                            <use xlink:href="#gB42704BEBBE1FE92C991C9C123C18594" x="10.546875" y="0" fill="#033d8b" fill-rule="nonzero"/>
                                                                            <use xlink:href="#g76D0C6CEEFB0FF9A00CE32A4E4BBF9F7" x="15.8203125" y="0" fill="#033d8b" fill-rule="nonzero"/>
                                                                            <use xlink:href="#g1A69AD2CE0F425B64739F9F7589ABF2C" x="21.09375" y="0" fill="#033d8b" fill-rule="nonzero"/>
                                                                        </g>
                                                                    </g>
                                                                </g>
                                                            </g>
                                                        </g>
                                                    </g>
                                                </g>
                                            </g>
                                        </g>
                                    </g>
                                </g>
                            </g>
                        </g>
                        <g class="typst-group" transform="matrix(1 0 0 1 298.3359375 36.93359375)">
                            <g>
                                <g class="typst-group">
                                    <g>
                                        <path class="typst-shape" fill="#fff1e5" fill-rule="nonzero" stroke="#bc4c00" stroke-width="1.2" stroke-linecap="butt" stroke-linejoin="miter" stroke-miterlimit="4" d="M 0 0m 25.189087 0 c 8.917583 0 16.14685 5.497441 16.14685 12.278748 c 0 -6.7813067 7.229267 -12.278748 16.14685 -12.278748 h 25.189087 v 19.154846 c 0 6.781307 -7.229271 12.278748 -16.14685 12.278748 c 8.91758 0 16.14685 5.4974403 16.14685 12.278748 v 19.154846 h -25.189087 c -8.917583 0 -16.14685 -5.4974403 -16.14685 -12.278748 c 0 6.781307 -7.229267 12.278748 -16.14685 12.278748 h -25.189087 v -19.154846 c 0 -6.781307 7.229268 -12.278748 16.14685 -12.278748 c -8.9175825 0 -16.14685 -5.4974403 -16.14685 -12.278748 v -19.154846 h 25.189087 Z "/>
                                        <path class="typst-shape" fill="none" transform="matrix(1 0 0 1 21.999999925146852 22.00000013976378)" d="M 0 0h 38.671875 v 18.867188 h -38.671875 v -18.867188 Z "/>
                                        <g class="typst-group">
                                            <g>
                                                <g class="typst-group" transform="matrix(1 0 0 1 21.999999818897642 22.000000110236222)">
                                                    <g>
                                                        <g class="typst-group">
                                                            <g>
                                                                <g class="typst-group">
                                                                    <g>
                                                                        <g class="typst-text" transform="matrix(1 0 0 -1 0.00000000005000072447069752 7.626953125)">
                                                                            <use xlink:href="#g34A87EEC0912CBC85463B8C88B93607F" x="0" y="0" fill="#1f2328" fill-rule="nonzero"/>
                                                                            <use xlink:href="#g941F0E91703FDA4F8112D6D8DDFCDA38" x="6.4453125" y="0" fill="#1f2328" fill-rule="nonzero"/>
                                                                            <use xlink:href="#gA0024E0682C2E34A93303274D082FDF5" x="12.890625" y="0" fill="#1f2328" fill-rule="nonzero"/>
                                                                            <use xlink:href="#gBA4B98411E028F457BC3718924D576E4" x="19.3359375" y="0" fill="#1f2328" fill-rule="nonzero"/>
                                                                            <use xlink:href="#g941F0E91703FDA4F8112D6D8DDFCDA38" x="25.78125" y="0" fill="#1f2328" fill-rule="nonzero"/>
                                                                            <use xlink:href="#g34A87EEC0912CBC85463B8C88B93607F" x="32.2265625" y="0" fill="#1f2328" fill-rule="nonzero"/>
                                                                        </g>
                                                                        <g class="typst-text" transform="matrix(1 0 0 -1 3.515625000050001 18.8671875)">
                                                                            <use xlink:href="#gE0E12823E218B78D2E538FA71A22EB8B" x="0" y="0" fill="#762c00" fill-rule="nonzero"/>
                                                                            <use xlink:href="#gD9BEE5C611170ECF1F95857B661842D4" x="5.2734375" y="0" fill="#762c00" fill-rule="nonzero"/>
                                                                            <use xlink:href="#gB42704BEBBE1FE92C991C9C123C18594" x="10.546875" y="0" fill="#762c00" fill-rule="nonzero"/>
                                                                            <use xlink:href="#g72C6BC166C61A93EFAF551369E64380C" x="15.8203125" y="0" fill="#762c00" fill-rule="nonzero"/>
                                                                            <use xlink:href="#g9D2E4F7E5709569433E7CF2B02C985D1" x="21.09375" y="0" fill="#762c00" fill-rule="nonzero"/>
                                                                            <use xlink:href="#g1A69AD2CE0F425B64739F9F7589ABF2C" x="26.3671875" y="0" fill="#762c00" fill-rule="nonzero"/>
                                                                        </g>
                                                                    </g>
                                                                </g>
                                                            </g>
                                                        </g>
                                                    </g>
                                                </g>
                                            </g>
                                        </g>
                                    </g>
                                </g>
                            </g>
                        </g>
                    </g>
                </g>
                <g class="typst-group">
                    <g>
                        <g class="typst-text" transform="matrix(1 0 0 -1 20 116.041015625)">
                            <use xlink:href="#gAF364C589BC3EB2DA2B782579CF0B20A" x="0" y="0" fill="#59636e" fill-rule="nonzero"/>
                            <use xlink:href="#g9B80A74B3DEE9A272BB3FC1E9676D2A1" x="5.2734375" y="0" fill="#59636e" fill-rule="nonzero"/>
                            <use xlink:href="#gAED5408ABFFD3BF5E782E1394BDA73C5" x="10.546875" y="0" fill="#59636e" fill-rule="nonzero"/>
                            <use xlink:href="#g295948A9064179BB2603CED527A7507F" x="15.8203125" y="0" fill="#59636e" fill-rule="nonzero"/>
                            <use xlink:href="#g61BE24A7338E5BDF7E07431DDD5177DD" x="21.09375" y="0" fill="#59636e" fill-rule="nonzero"/>
                            <use xlink:href="#g740B047D122FE40ECEE01614BE890F9E" x="26.3671875" y="0" fill="#59636e" fill-rule="nonzero"/>
                            <use xlink:href="#gEB79A7B9177971E890483187EB55FD13" x="36.9140625" y="0" fill="#59636e" fill-rule="nonzero"/>
                            <use xlink:href="#g37EB9BABF8C82579FEEF20113589048" x="42.1875" y="0" fill="#59636e" fill-rule="nonzero"/>
                            <use xlink:href="#g1AB7F93DDE4078D844912323D9FB29AD" x="47.4609375" y="0" fill="#59636e" fill-rule="nonzero"/>
                            <use xlink:href="#g3F87C6AA69697B9915A824515F44FF40" x="58.0078125" y="0" fill="#59636e" fill-rule="nonzero"/>
                            <use xlink:href="#gDC03E2BD7297B97B15232DDE57484FFC" x="68.5546875" y="0" fill="#59636e" fill-rule="nonzero"/>
                            <use xlink:href="#g37EB9BABF8C82579FEEF20113589048" x="73.828125" y="0" fill="#59636e" fill-rule="nonzero"/>
                            <use xlink:href="#g7AADEE30F1CB894E2643D77CFC20BD63" x="79.1015625" y="0" fill="#59636e" fill-rule="nonzero"/>
                            <use xlink:href="#gB5C9DCD3ED190C524FA648491955CB37" x="84.375" y="0" fill="#59636e" fill-rule="nonzero"/>
                            <use xlink:href="#g37EB9BABF8C82579FEEF20113589048" x="89.6484375" y="0" fill="#59636e" fill-rule="nonzero"/>
                            <use xlink:href="#g1856AEF73B56D8088FCAB5F922AEF164" x="94.921875" y="0" fill="#59636e" fill-rule="nonzero"/>
                            <use xlink:href="#g61BE24A7338E5BDF7E07431DDD5177DD" x="100.1953125" y="0" fill="#59636e" fill-rule="nonzero"/>
                            <use xlink:href="#g1726B056BB78D17DAA3C5EC712C0D098" x="105.46875" y="0" fill="#59636e" fill-rule="nonzero"/>
                        </g>
                        <g class="typst-text" transform="matrix(1 0 0 -1 158.7421875 116.041015625)">
                            <use xlink:href="#g790D21DDD7746B3EED50EBE5D93C4599" x="0" y="0" fill="#59636e" fill-rule="nonzero"/>
                            <use xlink:href="#gD718D82A7B071063A3F3F606B2DBA266" x="5.2734375" y="0" fill="#59636e" fill-rule="nonzero"/>
                            <use xlink:href="#g9B80A74B3DEE9A272BB3FC1E9676D2A1" x="10.546875" y="0" fill="#59636e" fill-rule="nonzero"/>
                            <use xlink:href="#g295948A9064179BB2603CED527A7507F" x="21.09375" y="0" fill="#59636e" fill-rule="nonzero"/>
                            <use xlink:href="#g9B80A74B3DEE9A272BB3FC1E9676D2A1" x="26.3671875" y="0" fill="#59636e" fill-rule="nonzero"/>
                            <use xlink:href="#g7AADEE30F1CB894E2643D77CFC20BD63" x="31.640625" y="0" fill="#59636e" fill-rule="nonzero"/>
                            <use xlink:href="#g3F87C6AA69697B9915A824515F44FF40" x="42.1875" y="0" fill="#59636e" fill-rule="nonzero"/>
                            <use xlink:href="#g91C43FE1360B5DD0D29EC4F6D498E51" x="52.734375" y="0" fill="#59636e" fill-rule="nonzero"/>
                            <use xlink:href="#g61BE24A7338E5BDF7E07431DDD5177DD" x="58.0078125" y="0" fill="#59636e" fill-rule="nonzero"/>
                            <use xlink:href="#g1726B056BB78D17DAA3C5EC712C0D098" x="63.28125" y="0" fill="#59636e" fill-rule="nonzero"/>
                            <use xlink:href="#g1726B056BB78D17DAA3C5EC712C0D098" x="68.5546875" y="0" fill="#59636e" fill-rule="nonzero"/>
                            <use xlink:href="#g37EB9BABF8C82579FEEF20113589048" x="73.828125" y="0" fill="#59636e" fill-rule="nonzero"/>
                            <use xlink:href="#g1856AEF73B56D8088FCAB5F922AEF164" x="79.1015625" y="0" fill="#59636e" fill-rule="nonzero"/>
                            <use xlink:href="#g61BE24A7338E5BDF7E07431DDD5177DD" x="84.375" y="0" fill="#59636e" fill-rule="nonzero"/>
                        </g>
                        <g class="typst-text" transform="matrix(1 0 0 -1 276.390625 116.041015625)">
                            <use xlink:href="#g55622CB8100989A40A5A171D2DD900FD" x="0" y="0" fill="#59636e" fill-rule="nonzero"/>
                            <use xlink:href="#g3F1EED1F7594CD08E1EECC678F3F589E" x="5.2734375" y="0" fill="#59636e" fill-rule="nonzero"/>
                            <use xlink:href="#gA96F162043D344903FBD64938734CD55" x="10.546875" y="0" fill="#59636e" fill-rule="nonzero"/>
                            <use xlink:href="#gDC03E2BD7297B97B15232DDE57484FFC" x="21.09375" y="0" fill="#59636e" fill-rule="nonzero"/>
                            <use xlink:href="#g37EB9BABF8C82579FEEF20113589048" x="26.3671875" y="0" fill="#59636e" fill-rule="nonzero"/>
                            <use xlink:href="#gEB79A7B9177971E890483187EB55FD13" x="31.640625" y="0" fill="#59636e" fill-rule="nonzero"/>
                            <use xlink:href="#g7CA6670B781567762FF4BD6C525BB628" x="36.9140625" y="0" fill="#59636e" fill-rule="nonzero"/>
                            <use xlink:href="#g10FAE531CE5C86A53B58133F5BC31218" x="47.4609375" y="0" fill="#59636e" fill-rule="nonzero"/>
                            <use xlink:href="#g1AB7F93DDE4078D844912323D9FB29AD" x="58.0078125" y="0" fill="#59636e" fill-rule="nonzero"/>
                            <use xlink:href="#g61BE24A7338E5BDF7E07431DDD5177DD" x="63.28125" y="0" fill="#59636e" fill-rule="nonzero"/>
                            <use xlink:href="#gF2D0181C8D3EAAB7EAA5AC44E11BEB0C" x="68.5546875" y="0" fill="#59636e" fill-rule="nonzero"/>
                            <use xlink:href="#g790D21DDD7746B3EED50EBE5D93C4599" x="73.828125" y="0" fill="#59636e" fill-rule="nonzero"/>
                            <use xlink:href="#g61BE24A7338E5BDF7E07431DDD5177DD" x="79.1015625" y="0" fill="#59636e" fill-rule="nonzero"/>
                            <use xlink:href="#g740B047D122FE40ECEE01614BE890F9E" x="84.375" y="0" fill="#59636e" fill-rule="nonzero"/>
                            <use xlink:href="#g3F87C6AA69697B9915A824515F44FF40" x="94.921875" y="0" fill="#59636e" fill-rule="nonzero"/>
                            <use xlink:href="#gC74888528B3AEE0D5E47317239028E70" x="105.46875" y="0" fill="#59636e" fill-rule="nonzero"/>
                            <use xlink:href="#g9B80A74B3DEE9A272BB3FC1E9676D2A1" x="110.7421875" y="0" fill="#59636e" fill-rule="nonzero"/>
                            <use xlink:href="#g295948A9064179BB2603CED527A7507F" x="116.015625" y="0" fill="#59636e" fill-rule="nonzero"/>
                            <use xlink:href="#g61BE24A7338E5BDF7E07431DDD5177DD" x="121.2890625" y="0" fill="#59636e" fill-rule="nonzero"/>
                        </g>
                    </g>
                </g>
            </g>
        </g>
    </g>
    <defs id="glyph">
        <symbol id="gFB0F840E5A8BF49BEC8BE6A345CB4AB" overflow="visible">
            <path d="M 0 0m 2.3388672 0 v 5.8496094 h -1.9970703 v 1.0839844 h 5.1757813 v -1.0839844 h -1.9970703 v -5.8496094 h -1.1816406 Z "/>
        </symbol>
        <symbol id="g76A692940D3DC8CAF9248006D832662E" overflow="visible">
            <path d="M 0 0m 0.17089844 0 l 2.0019531 6.9335938 h 1.5136719 l 2.0019531 -6.9335938 h -1.2451172 l -0.3857422 1.4648438 h -2.2558594 l -0.3857422 -1.4648438 h -1.2451172 Z m 1.9140625 2.5488281 h 1.6894531 l -0.80078125 3.0322266 h -0.087890625 l -0.80078125 -3.0322266 Z "/>
        </symbol>
        <symbol id="g540080C9EA821770F3FEC7B86E98F54D" overflow="visible">
            <path d="M 0 0m 0.7324219 0 v 6.9335938 h 2.109375 q 1.0791016 0 1.6674805 -0.45166016 q 0.5883789 -0.45166016 0.5883789 -1.2817383 q 0 -0.6542969 -0.4248047 -1.0375977 q -0.4248047 -0.38330078 -1.2109375 -0.43701172 v -0.1171875 h 0.11230469 q 0.96191406 0 1.4868164 -0.44433594 q 0.52490234 -0.44433594 0.52490234 -1.2597656 q 0 -0.9082031 -0.55908203 -1.40625 q -0.55908203 -0.49804688 -1.5893555 -0.49804688 h -2.7050781 Z m 1.1767578 1.0839844 h 1.2451172 q 0.5761719 0 0.8935547 0.26611328 q 0.3173828 0.26611328 0.3173828 0.7495117 q 0 0.48339844 -0.33447266 0.7519531 q -0.33447266 0.2685547 -0.9448242 0.2685547 h -1.1767578 v -2.0361328 Z m 0 3.1201172 h 0.95214844 q 1.015625 0 1.015625 0.8496094 q 0 0.79589844 -1.0839844 0.79589844 h -0.88378906 v -1.6455078 Z "/>
        </symbol>
        <symbol id="g98FFEDE6332A784EA8065E2CF72B1A4E" overflow="visible">
            <path d="M 0 0m 0.7324219 0 v 6.9335938 h 4.6875 v -1.0839844 h -3.5107422 v -1.8359375 h 2.631836 v -1.0839844 h -2.631836 v -1.8457031 h 3.5107422 v -1.0839844 h -4.6875 Z "/>
        </symbol>
        <symbol id="g5810FE8677DA0F5C1E82325733F92E62" overflow="visible">
            <path d="M 0 0m 0.6347656 0 v 6.9335938 h 1.7285156 q 3.2226563 0 3.2226563 -3.5644531 q 0 -3.3691406 -3.2226563 -3.3691406 h -1.7285156 Z m 1.1767578 1.1083984 h 0.5517578 q 2.0019531 0 2.0019531 2.2607422 q 0 2.4560547 -2.0019531 2.4560547 h -0.5517578 v -4.716797 Z "/>
        </symbol>
        <symbol id="g72B730C51DD2655BF091C2318CBEE609" overflow="visible">
            <path d="M 0 0m 0.43945313 2.915039 v 1.09375 h 4.9804688 v -1.09375 h -4.9804688 Z "/>
        </symbol>
        <symbol id="gF3BC4AD17F032FE82EB1FDABBE59B28D" overflow="visible">
            <path d="M 0 0m 0.6347656 0 v 6.9335938 h 2.4316406 q 1.1035156 0 1.7041016 -0.546875 q 0.60058594 -0.546875 0.60058594 -1.5527344 q 0 -1.4746094 -1.09375 -2.006836 l 1.3476563 -2.8271484 h -1.3916016 l -1.1132813 2.578125 q -0.024414063 0 -0.053710938 0 h -1.2548828 v -2.578125 h -1.1767578 Z m 1.1767578 3.6621094 h 1.2548828 q 0.5029297 0 0.78125 0.28320313 q 0.2783203 0.28320313 0.2783203 0.7910156 q 0 0.5371094 -0.2783203 0.8251953 q -0.2783203 0.28808594 -0.78125 0.28808594 h -1.2548828 v -2.1875 Z "/>
        </symbol>
        <symbol id="gD3E1361C62CC1CD092AD44D8CA1FFE12" overflow="visible">
            <path d="M 0 0m 3.6523438 -0.09765625 q -3.28125 0 -3.28125 3.5742188 q 0 1.6943359 0.8251953 2.6245117 q 0.8251953 0.9301758 2.3388672 0.9301758 q 0.6982422 0 1.2304688 -0.22460938 q 0.53222656 -0.22460938 0.79589844 -0.63964844 l -0.72265625 -0.8544922 q -0.21972656 0.29785156 -0.55908203 0.45898438 q -0.33935547 0.16113281 -0.7348633 0.16113281 q -0.88378906 0 -1.4135742 -0.6274414 q -0.52978516 -0.6274414 -0.52978516 -1.7797852 q 0 -2.524414 2.2167969 -2.524414 q 0.7080078 0 1.3964844 0.29296875 l 0.22460938 -1.0595703 q -0.8496094 -0.33203125 -1.7871094 -0.33203125 Z "/>
        </symbol>
        <symbol id="gB60D4DADF14A450667ED6AFD1C4B637B" overflow="visible">
            <path d="M 0 0m 3.5009766 0 l -1.5283203 5.361328 h -0.15136719 v -5.361328 h -1.1474609 v 6.9335938 h 1.6845703 l 1.5283203 -5.361328 h 0.15136719 v 5.361328 h 1.1474609 v -6.9335938 h -1.6845703 Z "/>
        </symbol>
        <symbol id="gC1465B326C519C898F44C00173329DC3" overflow="visible">
            <path d="M 0 0m 2.9296875 -0.09765625 q -2.6074219 0 -2.6074219 3.515625 q 0 3.6132813 2.6074219 3.6132813 q 2.6074219 0 2.6074219 -3.6132813 q 0 -3.515625 -2.6074219 -3.515625 Z m 0 1.0986328 q 1.3769531 0 1.3769531 2.4169922 q 0 2.5146484 -1.3769531 2.5146484 q -1.3769531 0 -1.3769531 -2.5146484 q 0 -2.4169922 1.3769531 -2.4169922 Z "/>
        </symbol>
        <symbol id="gEE580F01DECA13C0B6FB100144D7104D" overflow="visible">
            <path d="M 0 0m 4.0478516 0 v 2.9101563 h -2.2363281 v -2.9101563 h -1.1767578 v 6.9335938 h 1.1767578 v -2.9394531 h 2.2363281 v 2.9394531 h 1.1767578 v -6.9335938 h -1.1767578 Z "/>
        </symbol>
        <symbol id="g97614354A54380EBBA13660E64E1BB40" overflow="visible">
            <path d="M 0 0m 4.5898438 -2.2460938 q -2.265625 0 -2.265625 2.1484375 v 0.053710938 q -2.0019531 0.38085938 -2.0019531 3.461914 q 0 3.6132813 2.6074219 3.6132813 q 2.6074219 0 2.6074219 -3.6132813 q 0 -3.1201172 -2.0507813 -3.4716797 v -0.053710938 q 0 -1.0498047 1.1035156 -1.0498047 h 0.49804688 l -0.09765625 -1.0888672 h -0.40039063 Z m -1.6601563 3.2470703 q 1.3769531 0 1.3769531 2.4169922 q 0 2.5146484 -1.3769531 2.5146484 q -1.3769531 0 -1.3769531 -2.5146484 q 0 -2.4169922 1.3769531 -2.4169922 Z "/>
        </symbol>
        <symbol id="g766123E928FE6255CD435CFDB6E78D87" overflow="visible">
            <path d="M 0 0m 2.9101563 -0.09765625 q -2.2753906 0 -2.2753906 2.3242188 v 4.7070313 h 1.1767578 v -4.7070313 q 0 -0.60546875 0.2709961 -0.9082031 q 0.2709961 -0.30273438 0.84716797 -0.30273438 q 1.1181641 0 1.1181641 1.2109375 v 4.7070313 h 1.1767578 v -4.7070313 q 0 -1.1621094 -0.5883789 -1.7431641 q -0.5883789 -0.5810547 -1.7260742 -0.5810547 Z "/>
        </symbol>
        <symbol id="g61AEF449D1FD0C32A1E32B5D6E696C51" overflow="visible">
            <path d="M 0 0m 0.8300781 0 v 6.9335938 h 4.6875 v -1.0839844 h -3.5107422 v -2.1240234 h 2.5830078 v -1.0888672 h -2.5830078 v -2.6367188 h -1.1767578 Z "/>
        </symbol>
        <symbol id="g36065F6A4FFDE5CDB4274DF4D8DF9F1" overflow="visible">
            <path d="M 0 0m 0.7714844 0 v 1.0693359 h 1.5625 v 4.7998047 h -1.5625 v 1.0644531 h 4.3164063 v -1.0644531 h -1.5722656 v -4.7998047 h 1.5722656 v -1.0693359 h -4.3164063 Z "/>
        </symbol>
        <symbol id="g994D6276079A0DA3219124B0E5A6FAD5" overflow="visible">
            <path d="M 0 0m 0.7324219 0 v 6.9335938 h 1.1767578 v -5.8496094 h 3.5107422 v -1.0839844 h -4.6875 Z "/>
        </symbol>
        <symbol id="gA18CDFE1F62A00B4FEC5E44AFC386BDB" overflow="visible">
            <path d="M 0 0m 4.3183594 -0.053710938 l -0.07519531 1.2568359 h -0.123535156 q -0.06982422 -0.65527344 -0.5344238 -0.98291016 q -0.4645996 -0.32763672 -1.2272949 -0.32763672 q -0.90234375 0 -1.3991699 0.43774414 q -0.49682617 0.43774414 -0.49682617 1.2487793 q 0 0.9345703 0.6660156 1.434082 q 0.6660156 0.49951172 1.8852539 0.49951172 q 0.64990234 0 1.1279297 -0.10205078 v 0.11279297 q 0 0.49951172 -0.39208984 0.7331543 q -0.39208984 0.23364258 -1.1708984 0.25512695 l -1.4179688 0.037597656 l 0.107421875 1.1977539 l 1.203125 -0.016113281 q 1.4931641 -0.021484375 2.2182617 -0.60961914 q 0.72509766 -0.58813477 0.72509766 -1.7160645 v -2.2128906 l 0.859375 -0.11816406 v -1.0742188 l -1.9550781 -0.053710938 Z m -0.1772461 2.3955078 q -0.29003906 0.053710938 -0.5505371 0.061767578 q -0.26049805 0.008056641 -0.545166 0.008056641 q -1.2675781 0 -1.2675781 -0.74658203 q 0 -0.6713867 0.8701172 -0.6713867 q 0.49951172 0 0.829834 0.17993164 q 0.33032227 0.17993164 0.49682617 0.45654297 q 0.1665039 0.27661133 0.1665039 0.5720215 v 0.13964844 Z "/>
        </symbol>
        <symbol id="gC8E3E634AA710C19DE4C79C9220A4A9E" overflow="visible">
            <path d="M 0 0m 2.5029297 -0.107421875 q -0.8432617 0 -1.3078613 0.5344238 q -0.4645996 0.5344238 -0.4645996 1.5065918 v 3.7597656 h 1.3266602 v -3.5449219 q 0 -0.48876953 0.24438477 -0.7546387 q 0.24438477 -0.26586914 0.68481445 -0.26586914 q 0.55859375 0 0.8405762 0.3947754 q 0.28198242 0.3947754 0.28198242 1.3239746 v 2.8466797 h 1.3266602 v -4.5009766 l 0.7841797 -0.11816406 v -1.0742188 l -2.0141602 -0.053710938 l -0.080566406 1.1494141 h -0.13964844 q -0.13427734 -0.5800781 -0.52368164 -0.89160156 q -0.3894043 -0.31152344 -0.95874023 -0.31152344 Z "/>
        </symbol>
        <symbol id="g66FE86C3D6200946DA59DA9A03B61B42" overflow="visible">
            <path d="M 0 0m 4.361328 -0.107421875 q -1.4072266 0 -2.027588 0.56933594 q -0.6203613 0.56933594 -0.6203613 1.8208008 v 2.2075195 h -1.3911133 v 1.203125 h 1.3911133 v 1.71875 h 1.3212891 v -1.71875 h 2.5512695 v -1.203125 h -2.5512695 v -2.1000977 q 0 -0.6660156 0.33569336 -0.9641113 q 0.33569336 -0.2980957 1.0983887 -0.2980957 q 0.2524414 0 0.54248047 0.029541016 q 0.29003906 0.029541016 0.66064453 0.07788086 l 0.12890625 -1.2138672 q -0.35986328 -0.064453125 -0.7036133 -0.09667969 q -0.34375 -0.032226563 -0.73583984 -0.032226563 Z "/>
        </symbol>
        <symbol id="g5B2FA1E9DB371893F8855AB0A98A1341" overflow="visible">
            <path d="M 0 0m 4.2700195 0 v 3.5449219 q 0 0.49951172 -0.23364258 0.7734375 q -0.23364258 0.27392578 -0.6633301 0.27392578 q -1.1977539 0 -1.1977539 -1.5522461 v -3.040039 h -1.3266602 v 8.056641 h 1.3266602 v -3.3945313 h 0.12890625 q 0.06982422 0.57470703 0.40283203 0.85668945 q 0.3330078 0.28198242 0.99902344 0.28198242 q 0.90234375 0 1.3964844 -0.54785156 q 0.49414063 -0.54785156 0.49414063 -1.546875 v -3.7060547 h -1.3266602 Z "/>
        </symbol>
        <symbol id="gE0E12823E218B78D2E538FA71A22EB8B" overflow="visible">
            <path d="M 0 0m 5.1591797 7.123535 l -0.092285156 -0.52734375 h -0.13183594 q -0.7558594 0 -1.3623047 -0.41748047 q -0.6064453 -0.41748047 -1.0151367 -1.199707 q -0.4086914 -0.78222656 -0.5800781 -1.8808594 q -0.087890625 -0.5756836 -0.087890625 -1.0634766 q 0 -0.8833008 0.2944336 -1.472168 q 0.45703125 -0.90966797 1.5205078 -0.90966797 h 0.13623047 l -0.092285156 -0.52734375 h -0.16259766 q -0.8964844 0 -1.4567871 0.48339844 q -0.56030273 0.48339844 -0.7536621 1.3930664 q -0.092285156 0.43945313 -0.092285156 0.9667969 q 0 0.55810547 0.10546875 1.2172852 q 0.20214844 1.2392578 0.69873047 2.1203613 q 0.49658203 0.8811035 1.2348633 1.3491211 q 0.73828125 0.46801758 1.6699219 0.46801758 h 0.16699219 Z "/>
        </symbol>
        <symbol id="g450E794631A8688DF35B57E076332A74" overflow="visible">
            <path d="M 0 0m 1.472168 4.658203 l -0.07910156 -0.85253906 h 0.061523438 q 0.25927734 0.9404297 0.984375 0.9404297 q 0.7470703 0 0.72509766 -0.85253906 h 0.061523438 q 0.27685547 0.85253906 1.0107422 0.85253906 q 0.72509766 0 0.72509766 -0.7998047 q 0 -0.19335938 -0.03955078 -0.43066406 l -0.6196289 -3.515625 h -0.5932617 l 0.62402344 3.5507813 q 0.026367188 0.140625 0.026367188 0.25048828 q 0 0.42626953 -0.36035156 0.42626953 q -0.34277344 0 -0.6086426 -0.43066406 q -0.26586914 -0.43066406 -0.43725586 -1.2524414 l -0.45263672 -2.5444336 h -0.5449219 l 0.62841797 3.5507813 q 0.026367188 0.140625 0.026367188 0.25048828 q 0 0.42626953 -0.3647461 0.42626953 q -0.36914063 0 -0.64819336 -0.5229492 q -0.27905273 -0.5229492 -0.45922852 -1.5205078 v 0.013183594 l -0.38671875 -2.1972656 h -0.59765625 l 0.82177734 4.658203 h 0.49658203 Z "/>
        </symbol>
        <symbol id="gB42704BEBBE1FE92C991C9C123C18594" overflow="visible">
            <path d="M 0 0m 2.2060547 -0.087890625 q -0.7558594 0 -1.1799316 0.46142578 q -0.42407227 0.46142578 -0.42407227 1.2832031 q 0 1.4589844 0.6503906 2.27417 q 0.6503906 0.81518555 1.8061523 0.81518555 q 0.7558594 0 1.1799316 -0.4724121 q 0.42407227 -0.4724121 0.42407227 -1.3161621 q 0 -1.4370117 -0.6503906 -2.241211 q -0.6503906 -0.8041992 -1.8061523 -0.8041992 Z m 0.11425781 0.5449219 q 0.8261719 0 1.2875977 0.64160156 q 0.46142578 0.64160156 0.46142578 1.7841797 q 0 0.6196289 -0.28564453 0.9667969 q -0.28564453 0.34716797 -0.8041992 0.34716797 q -0.83496094 0 -1.307373 -0.6394043 q -0.4724121 -0.6394043 -0.4724121 -1.7819824 q 0 -0.6196289 0.2944336 -0.96899414 q 0.2944336 -0.34936523 0.8261719 -0.34936523 Z "/>
        </symbol>
        <symbol id="g72C6BC166C61A93EFAF551369E64380C" overflow="visible">
            <path d="M 0 0m 1.6391602 -0.092285156 q -0.63720703 0 -0.98876953 0.34277344 q -0.3515625 0.34277344 -0.3515625 0.9667969 q 0 0.984375 0.50097656 1.7358398 q 0.50097656 0.75146484 1.373291 1.2019043 q 0.87231445 0.45043945 1.9885254 0.5383301 l 0.118652344 0.6855469 q 0.030761719 0.17138672 0.030761719 0.30322266 q 0 0.17578125 -0.052734375 0.28564453 q -0.09667969 0.18896484 -0.40429688 0.18896484 q -0.11425781 0 -0.23291016 -0.010986328 q -0.118652344 -0.010986328 -0.23291016 -0.037353516 l -0.06591797 0.5053711 q 0.14501953 0.03955078 0.29003906 0.05493164 q 0.14501953 0.015380859 0.29003906 0.015380859 q 0.63720703 0 0.86572266 -0.32080078 q 0.14941406 -0.2109375 0.14941406 -0.5800781 q 0 -0.18896484 -0.03955078 -0.421875 l -0.72509766 -4.1088867 q -0.026367188 -0.13623047 -0.026367188 -0.24609375 q 0 -0.5229492 0.5493164 -0.5229492 h 0.27246094 l -0.092285156 -0.52734375 h -0.25927734 q -0.6459961 0 -0.83935547 0.32958984 q -0.13623047 0.22851563 -0.13623047 0.5800781 q 0 0.1538086 0.026367188 0.33398438 h -0.07910156 q -0.28125 -0.61083984 -0.7800293 -0.951416 q -0.4987793 -0.34057617 -1.1491699 -0.34057617 Z m 2.2104492 3.010254 v 0.0087890625 l 0.21533203 1.2128906 q -0.94921875 -0.10546875 -1.6633301 -0.49658203 q -0.7141113 -0.39111328 -1.1118164 -1.0019531 q -0.39770508 -0.61083984 -0.39770508 -1.3710938 q 0 -0.38671875 0.23291016 -0.5998535 q 0.23291016 -0.21313477 0.65478516 -0.21313477 q 0.7910156 0 1.3029785 0.6262207 q 0.5119629 0.6262207 0.7668457 1.8347168 Z "/>
        </symbol>
        <symbol id="g1845A4AECCD66EEAAD5BCF6194D2F543" overflow="visible">
            <path d="M 0 0m 1.7841797 -0.092285156 q -0.6503906 0 -0.99316406 0.3581543 q -0.34277344 0.3581543 -0.34277344 1.0393066 q 0 0.7163086 0.23950195 1.5314941 q 0.23950195 0.81518555 0.6833496 1.9094238 l 0.5756836 -0.11425781 q -0.45263672 -1.1645508 -0.6789551 -1.9423828 q -0.22631836 -0.77783203 -0.22631836 -1.331543 q 0 -0.9008789 0.86572266 -0.9008789 q 0.7338867 0 1.2194824 0.64160156 q 0.4855957 0.64160156 0.7404785 1.9731445 l 0.28564453 1.5864258 h 0.5932617 l -0.62402344 -3.5200195 q -0.017578125 -0.10546875 -0.017578125 -0.18896484 q 0 -0.1977539 0.092285156 -0.29882813 q 0.1274414 -0.14941406 0.51416016 -0.16699219 h 0.118652344 l -0.09667969 -0.52734375 h -0.10107422 q -0.703125 0 -0.90966797 0.3383789 q -0.1274414 0.20214844 -0.1274414 0.51416016 q 0 0.1977539 0.052734375 0.43945313 h -0.087890625 q -0.16259766 -0.38232422 -0.38452148 -0.6855469 q -0.22192383 -0.30322266 -0.5559082 -0.4790039 q -0.33398438 -0.17578125 -0.83496094 -0.17578125 Z "/>
        </symbol>
        <symbol id="gBE3E0500454E803BE330AA591FCD43C5" overflow="visible">
            <path d="M 0 0m 3.1904297 -0.087890625 q -1.3842773 0 -1.3842773 1.331543 q 0 0.18017578 0.032958984 0.47680664 q 0.032958984 0.29663086 0.16040039 0.77563477 l 0.65478516 2.5004883 q 0.0703125 0.25927734 0.0703125 0.45703125 q 0 0.25048828 -0.10986328 0.40429688 q -0.1977539 0.27685547 -0.8041992 0.27685547 q -0.15820313 0 -0.32080078 -0.01977539 q -0.16259766 -0.01977539 -0.3251953 -0.068115234 l -0.10546875 0.5185547 q 0.21972656 0.061523438 0.44384766 0.087890625 q 0.2241211 0.026367188 0.4482422 0.026367188 q 0.83935547 0 1.1777344 -0.44384766 q 0.20214844 -0.26367188 0.20214844 -0.6767578 q 0 -0.28564453 -0.09667969 -0.63720703 l -0.63720703 -2.4257813 q -0.13623047 -0.5053711 -0.16699219 -0.7932129 q -0.030761719 -0.2878418 -0.030761719 -0.4284668 q -0.0043945313 -0.8129883 0.8745117 -0.8129883 q 0.44384766 0 0.96240234 0.31640625 l 0.20654297 -0.48339844 q -0.2944336 -0.18017578 -0.5998535 -0.28125 q -0.30541992 -0.10107422 -0.6525879 -0.10107422 Z "/>
        </symbol>
        <symbol id="g9D2E4F7E5709569433E7CF2B02C985D1" overflow="visible">
            <path d="M 0 0m 2.6279297 0.46142578 q 0.36035156 0 0.77124023 0.11645508 q 0.41088867 0.11645508 0.7932129 0.32299805 l 0.20214844 -0.47460938 q -0.41748047 -0.24169922 -0.8942871 -0.3779297 q -0.47680664 -0.13623047 -0.91186523 -0.13623047 q -0.8876953 0 -1.3820801 0.4987793 q -0.49438477 0.4987793 -0.49438477 1.3864746 q 0 0.9140625 0.31420898 1.5732422 q 0.31420898 0.6591797 0.8964844 1.017334 q 0.5822754 0.3581543 1.3864746 0.3581543 q 0.6767578 0 1.0546875 -0.3251953 q 0.3779297 -0.3251953 0.3779297 -0.90527344 q 0 -0.8569336 -0.9140625 -1.3095703 q -0.9140625 -0.45263672 -2.5444336 -0.48779297 q 0.030761719 -0.5932617 0.38452148 -0.9250488 q 0.35375977 -0.3317871 0.9602051 -0.3317871 Z m -1.3271484 1.7578125 q 1.3666992 0.03515625 2.1071777 0.35375977 q 0.7404785 0.31860352 0.7404785 0.91625977 q 0 0.32958984 -0.23730469 0.5185547 q -0.23730469 0.18896484 -0.66796875 0.18896484 q -0.82177734 0 -1.3337402 -0.5251465 q -0.5119629 -0.5251465 -0.6086426 -1.4523926 Z "/>
        </symbol>
        <symbol id="g1A69AD2CE0F425B64739F9F7589ABF2C" overflow="visible">
            <path d="M 0 0m 0.39111328 -0.87890625 l 0.092285156 0.52734375 h 0.123046875 q 0.76464844 0 1.373291 0.41748047 q 0.6086426 0.41748047 1.0195313 1.199707 q 0.41088867 0.78222656 0.57788086 1.8808594 q 0.092285156 0.5800781 0.092285156 1.0678711 q 0 0.8833008 -0.29882813 1.4677734 q -0.46142578 0.90966797 -1.5380859 0.90966797 h -0.123046875 l 0.092285156 0.52734375 h 0.14941406 q 0.8964844 0 1.4567871 -0.4790039 q 0.56030273 -0.4790039 0.7624512 -1.3798828 q 0.09667969 -0.4482422 0.09667969 -0.984375 q 0 -0.5449219 -0.10107422 -1.1865234 q -0.19335938 -1.2480469 -0.6899414 -2.1357422 q -0.49658203 -0.8876953 -1.2414551 -1.3601074 q -0.74487305 -0.4724121 -1.6896973 -0.4724121 h -0.1538086 Z "/>
        </symbol>
        <symbol id="g34A87EEC0912CBC85463B8C88B93607F" overflow="visible">
            <path d="M 0 0m 2.927246 2.4492188 v -1.2998047 h 1.3588867 v -1.1494141 h -3.9101563 v 1.1494141 h 1.2299805 v 3.3945313 h -1.0151367 v 1.1494141 h 2.121582 l 0.1772461 -1.3535156 h 0.1772461 q 0.0859375 1.4609375 1.4985352 1.4609375 q 1.6757813 0 1.6757813 -2.2451172 h -1.3212891 q 0 0.55322266 -0.18530273 0.7949219 q -0.18530273 0.24169922 -0.59350586 0.24169922 q -0.6069336 0 -0.9104004 -0.55859375 q -0.3034668 -0.55859375 -0.3034668 -1.5844727 Z "/>
        </symbol>
        <symbol id="g941F0E91703FDA4F8112D6D8DDFCDA38" overflow="visible">
            <path d="M 0 0m 3.6899414 -0.107421875 q -1.4716797 0 -2.269287 0.76538086 q -0.7976074 0.76538086 -0.7976074 2.199463 q 0 1.3964844 0.67944336 2.1699219 q 0.67944336 0.7734375 1.9147949 0.7734375 q 1.1923828 0 1.8449707 -0.7089844 q 0.6525879 -0.7089844 0.6525879 -2.057129 q 0 -0.38671875 -0.032226563 -0.73583984 h -3.7060547 q 0.32226563 -1.1816406 1.8422852 -1.1816406 q 0.37597656 0 0.7385254 0.040283203 q 0.36254883 0.040283203 0.7385254 0.11010742 l 0.13964844 -1.2246094 q -0.5317383 -0.09667969 -0.9694824 -0.123535156 q -0.43774414 -0.026855469 -0.77612305 -0.026855469 Z m -1.7724609 3.3623047 h 2.5297852 q 0 0.65527344 -0.32226563 1.001709 q -0.32226563 0.34643555 -0.89697266 0.34643555 q -0.55859375 0 -0.89697266 -0.3491211 q -0.3383789 -0.3491211 -0.41357422 -0.99902344 Z "/>
        </symbol>
        <symbol id="gFA60D3504847AEE5E3CF6CFB1382320C" overflow="visible">
            <path d="M 0 0m 2.6748047 -0.107421875 q -1.0527344 0 -1.6328125 0.7492676 q -0.5800781 0.7492676 -0.5800781 2.151123 q 0 1.434082 0.5827637 2.2209473 q 0.5827637 0.78686523 1.6408691 0.78686523 q 0.6660156 0 1.0178223 -0.28198242 q 0.35180664 -0.28198242 0.43774414 -0.85668945 h 0.14501953 l 0.091308594 1.03125 h 1.2192383 v -8.1640625 h -1.3266602 v 3.3515625 h -0.12890625 q -0.07519531 -0.48876953 -0.45922852 -0.7385254 q -0.3840332 -0.24975586 -1.0070801 -0.24975586 Z m 1.5952148 3.2280273 q 0 1.4716797 -1.203125 1.4716797 q -0.6015625 0 -0.93188477 -0.4699707 q -0.33032227 -0.4699707 -0.33032227 -1.3293457 q 0 -1.6918945 1.2675781 -1.6918945 q 1.1977539 0 1.1977539 1.1816406 v 0.8378906 Z "/>
        </symbol>
        <symbol id="g988934665B9D033BE8FC5C94E274603B" overflow="visible">
            <path d="M 0 0m 2.7822266 -0.107421875 q -1.2783203 0 -1.9980469 0.16113281 l 0.15576172 1.2460938 q 0.62841797 -0.0859375 1.0795898 -0.12890625 q 0.45117188 -0.04296875 0.7626953 -0.04296875 q 0.7841797 0 1.1359863 0.12890625 q 0.35180664 0.12890625 0.35180664 0.40820313 q 0 0.18261719 -0.10205078 0.27661133 q -0.10205078 0.09399414 -0.32226563 0.15307617 l -1.6381836 0.45654297 q -0.6821289 0.18798828 -1.0097656 0.51831055 q -0.32763672 0.33032227 -0.32763672 0.93188477 q 0 0.9291992 0.7492676 1.3642578 q 0.7492676 0.4350586 2.3337402 0.4350586 q 0.38134766 0 0.7626953 -0.026855469 q 0.38134766 -0.026855469 0.7949219 -0.080566406 l -0.13964844 -1.203125 q -0.46728516 0.04296875 -0.8190918 0.05908203 q -0.35180664 0.016113281 -0.6311035 0.016113281 q -0.89160156 0 -1.2890625 -0.123535156 q -0.39746094 -0.123535156 -0.39746094 -0.39746094 q 0 -0.18261719 0.11816406 -0.2685547 q 0.11816406 -0.0859375 0.36523438 -0.15039063 l 1.375 -0.37060547 q 0.80029297 -0.20410156 1.1843262 -0.57470703 q 0.3840332 -0.37060547 0.3840332 -1.0097656 q 0 -0.90771484 -0.70092773 -1.3427734 q -0.70092773 -0.4350586 -2.1779785 -0.4350586 Z "/>
        </symbol>
        <symbol id="g76D0C6CEEFB0FF9A00CE32A4E4BBF9F7" overflow="visible">
            <path d="M 0 0m 2.3950195 0.46142578 q 0.45703125 0 0.9206543 0.15820313 q 0.46362305 0.15820313 0.84594727 0.421875 l 0.21972656 -0.47460938 q -0.42626953 -0.2944336 -0.9711914 -0.47460938 q -0.5449219 -0.18017578 -1.1162109 -0.18017578 q -0.8305664 0 -1.2919922 0.4658203 q -0.46142578 0.4658203 -0.46142578 1.3007813 q 0 0.9272461 0.3251953 1.6149902 q 0.3251953 0.68774414 0.9140625 1.0700684 q 0.5888672 0.38232422 1.3798828 0.38232422 q 1.3183594 0 1.7226563 -0.9667969 l -0.45263672 -0.3515625 q -0.19335938 0.41308594 -0.5229492 0.59106445 q -0.32958984 0.17797852 -0.8129883 0.17797852 q -0.5888672 0 -1.0283203 -0.30541992 q -0.43945313 -0.30541992 -0.6833496 -0.8547363 q -0.24389648 -0.5493164 -0.24829102 -1.2875977 q 0.0087890625 -0.61083984 0.3383789 -0.94921875 q 0.32958984 -0.3383789 0.92285156 -0.3383789 Z "/>
        </symbol>
        <symbol id="gA0024E0682C2E34A93303274D082FDF5" overflow="visible">
            <path d="M 0 0m 4.2700195 0 v 3.491211 q 0 0.515625 -0.23364258 0.7949219 q -0.23364258 0.27929688 -0.6633301 0.27929688 q -1.1977539 0 -1.1977539 -1.5791016 v -2.9863281 h -1.3266602 v 5.6933594 h 1.1923828 l 0.11279297 -1.03125 h 0.15039063 q 0.06982422 0.57470703 0.40283203 0.85668945 q 0.3330078 0.28198242 0.99902344 0.28198242 q 0.90234375 0 1.3964844 -0.54785156 q 0.49414063 -0.54785156 0.49414063 -1.546875 v -3.7060547 h -1.3266602 Z "/>
        </symbol>
        <symbol id="gBA4B98411E028F457BC3718924D576E4" overflow="visible">
            <path d="M 0 0m 2.7124023 -0.107421875 q -1.0849609 0 -1.6677246 0.7519531 q -0.5827637 0.7519531 -0.5827637 2.175293 q 0 1.4448242 0.5854492 2.2128906 q 0.5854492 0.7680664 1.6704102 0.7680664 q 1.2514648 0 1.4233398 -1.1386719 h 0.12890625 v 3.3945313 h 1.3266602 v -8.056641 l -1.1547852 -0.053710938 l -0.1665039 1.0849609 h -0.11816406 q -0.06982422 -0.55322266 -0.44580078 -0.84594727 q -0.37597656 -0.2927246 -0.99902344 -0.2927246 Z m 1.5576172 2.8735352 v 0.15576172 q 0 1.6704102 -1.2138672 1.6704102 q -0.6069336 0 -0.9291992 -0.45654297 q -0.32226563 -0.45654297 -0.32226563 -1.315918 q 0 -1.71875 1.2514648 -1.71875 q 0.63916016 0 0.9265137 0.40820313 q 0.28735352 0.40820313 0.28735352 1.2568359 Z "/>
        </symbol>
        <symbol id="gD9BEE5C611170ECF1F95857B661842D4" overflow="visible">
            <path d="M 0 0m 0.39990234 0 l 0.82177734 4.658203 h 0.48779297 l -0.118652344 -1.265625 h 0.0703125 q 0.17578125 0.6459961 0.61743164 0.99975586 q 0.4416504 0.35375977 1.092041 0.35375977 q 1.2700195 0 1.2700195 -1.1821289 q 0 -0.22851563 -0.048339844 -0.50097656 l -0.54052734 -3.0629883 h -0.59765625 l 0.5449219 3.0981445 q 0.030761719 0.18457031 0.030761719 0.33398438 q 0 0.3076172 -0.1274414 0.4921875 q -0.19335938 0.27246094 -0.70751953 0.27246094 q -0.41748047 0 -0.7800293 -0.23291016 q -0.36254883 -0.23291016 -0.6459961 -0.77563477 q -0.28344727 -0.5427246 -0.46801758 -1.4611816 l -0.30322266 -1.7270508 h -0.59765625 Z "/>
        </symbol>
        <symbol id="gAF364C589BC3EB2DA2B782579CF0B20A" overflow="visible">
            <path d="M 0 0m -0.24609375 -2.0786133 l -0.03955078 0.83496094 l 0.32080078 0.03515625 q 0.84375 0.092285156 1.223877 0.595459 q 0.38012695 0.5031738 0.45483398 1.4567871 l 0.21533203 1.96875 h -1.5424805 l 0.14501953 0.8173828 h 1.4853516 l 0.021972656 0.19335938 q 0.07910156 0.97998047 0.39331055 1.6105957 q 0.31420898 0.63061523 0.9316406 0.9382324 q 0.61743164 0.3076172 1.5974121 0.3076172 q 0.38232422 0 0.7294922 -0.087890625 l -0.23730469 -0.80859375 q -0.38232422 0.061523438 -0.6635742 0.061523438 q -0.8964844 0 -1.3029785 -0.48120117 q -0.40649414 -0.48120117 -0.49438477 -1.4963379 l -0.026367188 -0.23730469 h 1.8720703 l -0.14501953 -0.8173828 h -1.8193359 l -0.23730469 -2.100586 q -0.10986328 -1.2612305 -0.6965332 -1.935791 q -0.5866699 -0.67456055 -1.8742676 -0.8195801 l -0.31201172 -0.03515625 Z "/>
        </symbol>
        <symbol id="g9B80A74B3DEE9A272BB3FC1E9676D2A1" overflow="visible">
            <path d="M 0 0m 2.2060547 -0.087890625 q -0.77783203 0 -1.2150879 0.44604492 q -0.43725586 0.44604492 -0.43725586 1.2414551 q 0 1.4853516 0.6635742 2.315918 q 0.6635742 0.8305664 1.8413086 0.8305664 q 0.77783203 0 1.2150879 -0.45703125 q 0.43725586 -0.45703125 0.43725586 -1.2744141 q 0 -1.4633789 -0.66137695 -2.282959 q -0.66137695 -0.8195801 -1.8435059 -0.8195801 Z m 0.16259766 0.8305664 q 0.6591797 0 1.0305176 0.5515137 q 0.3713379 0.5515137 0.3713379 1.5314941 q 0 0.5097656 -0.21972656 0.7976074 q -0.21972656 0.2878418 -0.6196289 0.2878418 q -0.6767578 0 -1.0568848 -0.5493164 q -0.38012695 -0.5493164 -0.38012695 -1.5292969 q 0 -0.51416016 0.23071289 -0.80200195 q 0.23071289 -0.2878418 0.6437988 -0.2878418 Z "/>
        </symbol>
        <symbol id="gAED5408ABFFD3BF5E782E1394BDA73C5" overflow="visible">
            <path d="M 0 0m 3.0454102 -0.087890625 q -0.7294922 0 -1.0744629 0.33618164 q -0.3449707 0.33618164 -0.3449707 1.0437012 q 0 0.31201172 0.1274414 0.79541016 l 0.68115234 2.6586914 q 0.087890625 0.3383789 0.087890625 0.56689453 q 0 0.17578125 -0.052734375 0.29003906 q -0.123046875 0.2548828 -0.71191406 0.2548828 q -0.14941406 0 -0.30541992 -0.024169922 q -0.15600586 -0.024169922 -0.30981445 -0.09008789 l -0.13623047 0.7998047 q 0.21972656 0.061523438 0.44384766 0.09887695 q 0.2241211 0.037353516 0.4482422 0.037353516 q 1.0195313 0 1.3842773 -0.48779297 q 0.20654297 -0.28125 0.20654297 -0.73828125 q 0 -0.33398438 -0.10986328 -0.7602539 l -0.68115234 -2.605957 q -0.13183594 -0.49658203 -0.13183594 -0.7558594 q 0 -0.58447266 0.6503906 -0.58447266 q 0.2680664 0 0.47021484 0.06591797 q 0.20214844 0.06591797 0.48339844 0.21972656 l 0.30322266 -0.70751953 q -0.3076172 -0.17578125 -0.64819336 -0.2944336 q -0.34057617 -0.118652344 -0.7800293 -0.118652344 Z "/>
        </symbol>
        <symbol id="g295948A9064179BB2603CED527A7507F" overflow="visible">
            <path d="M 0 0m 1.546875 -0.092285156 q -0.6064453 0 -0.9382324 0.34277344 q -0.3317871 0.34277344 -0.3317871 0.9667969 q 0 0.94921875 0.46362305 1.6809082 q 0.46362305 0.73168945 1.2788086 1.1931152 q 0.81518555 0.46142578 1.869873 0.6020508 l 0.10107422 0.56689453 q 0.021972656 0.13183594 0.021972656 0.23730469 q 0 0.16259766 -0.057128906 0.2548828 q -0.09667969 0.1538086 -0.3647461 0.1538086 q -0.10986328 0 -0.2175293 -0.010986328 q -0.107666016 -0.010986328 -0.2175293 -0.037353516 l -0.10107422 0.7558594 q 0.16699219 0.03955078 0.33398438 0.05493164 q 0.16699219 0.015380859 0.33398438 0.015380859 q 0.76464844 0 1.050293 -0.36914063 q 0.18457031 -0.24169922 0.18457031 -0.68115234 q 0 -0.22851563 -0.048339844 -0.5053711 l -0.6591797 -3.730957 q -0.017578125 -0.10986328 -0.017578125 -0.20654297 q 0 -0.4658203 0.4921875 -0.4658203 h 0.2680664 l -0.13623047 -0.76904297 h -0.33398438 q -0.6064453 0 -0.8569336 0.28125 q -0.2109375 0.22851563 -0.2109375 0.6767578 q 0 0.092285156 0.0087890625 0.19335938 h -0.11425781 q -0.25048828 -0.5493164 -0.7163086 -0.8745117 q -0.4658203 -0.3251953 -1.0854492 -0.3251953 Z m 2.0126953 2.9575195 l 0.18017578 1.0063477 q -0.7207031 -0.11425781 -1.2919922 -0.46801758 q -0.57128906 -0.35375977 -0.9008789 -0.8876953 q -0.32958984 -0.53393555 -0.32958984 -1.1887207 q 0 -0.28125 0.16040039 -0.43286133 q 0.16040039 -0.15161133 0.45483398 -0.15161133 q 0.6064453 0 1.0612793 0.55371094 q 0.45483398 0.55371094 0.6657715 1.5688477 Z "/>
        </symbol>
        <symbol id="g61BE24A7338E5BDF7E07431DDD5177DD" overflow="visible">
            <path d="M 0 0m 2.5795898 0.7470703 q 0.3515625 0 0.75146484 0.10986328 q 0.39990234 0.10986328 0.76904297 0.3076172 l 0.30322266 -0.75146484 q -0.43066406 -0.23730469 -0.92285156 -0.36914063 q -0.4921875 -0.13183594 -0.9404297 -0.13183594 q -0.90527344 0 -1.4128418 0.47460938 q -0.50756836 0.47460938 -0.50756836 1.3227539 q 0 0.9140625 0.3449707 1.5952148 q 0.3449707 0.68115234 0.9645996 1.0612793 q 0.6196289 0.38012695 1.4458008 0.38012695 q 0.6503906 0 1.0129395 -0.3251953 q 0.36254883 -0.3251953 0.36254883 -0.90527344 q 0 -0.84814453 -0.85913086 -1.3447266 q -0.85913086 -0.49658203 -2.3972168 -0.54052734 q 0.03955078 -0.41748047 0.3251953 -0.6503906 q 0.28564453 -0.23291016 0.7602539 -0.23291016 Z m -1.0415039 1.5908203 q 1.0766602 0.043945313 1.6743164 0.33618164 q 0.59765625 0.29223633 0.59765625 0.7844238 q 0 0.2109375 -0.14501953 0.3317871 q -0.14501953 0.12084961 -0.41308594 0.12084961 q -0.6635742 0 -1.1184082 -0.42626953 q -0.45483398 -0.42626953 -0.595459 -1.1469727 Z "/>
        </symbol>
        <symbol id="g740B047D122FE40ECEE01614BE890F9E" overflow="visible">
            <path d="M 0 0m -0.06591797 0 l 0.14501953 0.8173828 h 1.0415039 l 0.43945313 2.465332 q 0.021972656 0.13183594 0.021972656 0.23730469 q 0 0.16259766 -0.057128906 0.2548828 q -0.09667969 0.14941406 -0.3647461 0.14941406 q -0.36914063 0 -0.71191406 -0.10107422 l -0.092285156 0.7998047 q 0.38671875 0.123046875 0.9448242 0.123046875 q 0.6635742 0 0.9645996 -0.2746582 q 0.3010254 -0.2746582 0.2746582 -0.87231445 h 0.09667969 q 0.1274414 0.5493164 0.49658203 0.84814453 q 0.36914063 0.29882813 0.8876953 0.29882813 q 0.703125 0 1.0195313 -0.43945313 q 0.21972656 -0.31640625 0.21972656 -0.80859375 q 0 -0.20214844 -0.03515625 -0.4350586 h -0.9448242 q 0.017578125 0.1274414 0.017578125 0.23291016 q 0 0.6152344 -0.54052734 0.6152344 q -0.32958984 0 -0.61083984 -0.19555664 q -0.28125 -0.19555664 -0.50756836 -0.64819336 q -0.22631836 -0.45263672 -0.38891602 -1.2260742 l -0.18457031 -1.0239258 h 1.125 l -0.14501953 -0.8173828 h -3.1113281 Z "/>
        </symbol>
        <symbol id="gEB79A7B9177971E890483187EB55FD13" overflow="visible">
            <path d="M 0 0m 2.8520508 -0.087890625 q -0.80859375 0 -1.1887207 0.3449707 q -0.38012695 0.3449707 -0.38012695 1.0744629 q 0 0.27246094 0.03955078 0.5317383 q 0.03955078 0.25927734 0.123046875 0.7207031 l 0.21972656 1.2568359 h -1.0898438 l 0.14501953 0.8173828 h 1.0898438 l 0.24609375 1.40625 h 0.9448242 l -0.24609375 -1.40625 h 2.0698242 l -0.14501953 -0.8173828 h -2.0698242 l -0.21972656 -1.2568359 q -0.07470703 -0.43945313 -0.118652344 -0.6767578 q -0.048339844 -0.23730469 -0.048339844 -0.48779297 q 0 -0.6723633 0.7998047 -0.6723633 q 0.32080078 0 0.5625 0.052734375 q 0.24169922 0.052734375 0.5756836 0.18896484 l 0.17138672 -0.75146484 q -0.31640625 -0.13623047 -0.670166 -0.23071289 q -0.35375977 -0.09448242 -0.810791 -0.09448242 Z "/>
        </symbol>
        <symbol id="g37EB9BABF8C82579FEEF20113589048" overflow="visible">
            <path d="M 0 0m 1.5249023 -0.092285156 q -0.59765625 0 -0.92285156 0.34277344 q -0.3251953 0.34277344 -0.3251953 0.9667969 q 0 0.7910156 0.33618164 1.4348145 q 0.33618164 0.6437988 0.94262695 1.1008301 q 0.6064453 0.45703125 1.4194336 0.703125 q 0.8129883 0.24609375 1.7666016 0.24609375 h 0.087890625 l -0.5800781 -3.309082 q -0.021972656 -0.118652344 -0.021972656 -0.21972656 q 0 -0.18457031 0.07910156 -0.29003906 q 0.11425781 -0.15820313 0.50097656 -0.15820313 h 0.18017578 l -0.13183594 -0.76904297 h -0.31201172 q -0.6459961 0 -0.89208984 0.25927734 q -0.1977539 0.2109375 -0.1977539 0.6635742 q 0 0.10546875 0.0087890625 0.2241211 h -0.11425781 q -0.2680664 -0.57128906 -0.7404785 -0.8833008 q -0.4724121 -0.31201172 -1.083252 -0.31201172 Z m 0.28564453 0.83496094 q 0.6328125 0 1.1030273 0.57128906 q 0.47021484 0.57128906 0.6591797 1.6171875 l 0.16259766 0.8964844 q -0.7207031 -0.10986328 -1.2897949 -0.45922852 q -0.5690918 -0.34936523 -0.89868164 -0.8745117 q -0.32958984 -0.5251465 -0.32958984 -1.166748 q 0 -0.28125 0.15600586 -0.43286133 q 0.15600586 -0.15161133 0.43725586 -0.15161133 Z "/>
        </symbol>
        <symbol id="g1AB7F93DDE4078D844912323D9FB29AD" overflow="visible">
            <path d="M 0 0m 1.5820313 -0.087890625 q -0.32080078 0 -0.63720703 0.024169922 q -0.31640625 0.024169922 -0.63720703 0.068115234 l 0.91845703 5.211914 q 0.021972656 0.13183594 0.021972656 0.23730469 q 0 0.16259766 -0.057128906 0.2548828 q -0.09667969 0.1538086 -0.3647461 0.1538086 q -0.10986328 0 -0.2175293 -0.010986328 q -0.107666016 -0.010986328 -0.2175293 -0.037353516 l -0.092285156 0.7998047 q 0.16699219 0.03955078 0.33398438 0.05493164 q 0.16699219 0.015380859 0.33398438 0.015380859 q 0.76464844 0 1.050293 -0.36914063 q 0.18896484 -0.24169922 0.18896484 -0.6767578 q 0 -0.22851563 -0.052734375 -0.5097656 l -0.2680664 -1.5292969 h 0.092285156 q 0.2109375 0.5493164 0.6657715 0.84814453 q 0.45483398 0.29882813 1.092041 0.29882813 q 0.5756836 0 0.8942871 -0.36694336 q 0.31860352 -0.36694336 0.31860352 -1.0393066 q 0 -0.7338867 -0.25268555 -1.3579102 q -0.25268555 -0.62402344 -0.7097168 -1.0898438 q -0.45703125 -0.4658203 -1.0700684 -0.7229004 q -0.6130371 -0.25708008 -1.3337402 -0.25708008 Z m -0.021972656 1.8500977 l -0.17578125 -1.0063477 q 0.14501953 -0.0087890625 0.2944336 -0.0087890625 q 0.6635742 0 1.190918 0.31640625 q 0.52734375 0.31640625 0.8327637 0.8635254 q 0.30541992 0.54711914 0.30541992 1.2370605 q 0 0.35595703 -0.16259766 0.5515137 q -0.16259766 0.19555664 -0.46142578 0.19555664 q -0.36035156 0 -0.72509766 -0.2241211 q -0.3647461 -0.2241211 -0.6569824 -0.6965332 q -0.29223633 -0.4724121 -0.4416504 -1.2282715 Z "/>
        </symbol>
        <symbol id="g3F87C6AA69697B9915A824515F44FF40" overflow="visible">
            <path d="M 0 0m 0.24169922 2.7070313 l 0.14501953 0.8173828 h 4.921875 l -0.14501953 -0.8173828 h -4.921875 Z "/>
        </symbol>
        <symbol id="gDC03E2BD7297B97B15232DDE57484FFC" overflow="visible">
            <path d="M 0 0m 0.91845703 -2.0214844 h -0.9448242 l 1.1733398 6.6796875 h 0.7866211 l -0.030761719 -1.059082 h 0.07470703 q 0.21533203 0.5493164 0.67456055 0.84814453 q 0.45922852 0.29882813 1.1052246 0.29882813 q 0.5756836 0 0.8942871 -0.36694336 q 0.31860352 -0.36694336 0.31860352 -1.0393066 q 0 -0.7338867 -0.25268555 -1.3579102 q -0.25268555 -0.62402344 -0.7097168 -1.0898438 q -0.45703125 -0.4658203 -1.0700684 -0.7229004 q -0.6130371 -0.25708008 -1.3337402 -0.25708008 q -0.16699219 0 -0.34277344 0.0087890625 l -0.34277344 -1.9423828 Z m 0.4921875 2.7773438 q 0.140625 -0.0087890625 0.29003906 -0.0087890625 q 0.6635742 0 1.190918 0.31640625 q 0.52734375 0.31640625 0.8327637 0.8635254 q 0.30541992 0.54711914 0.30541992 1.2370605 q 0 0.35595703 -0.16259766 0.5515137 q -0.16259766 0.19555664 -0.46142578 0.19555664 q -0.3515625 0 -0.7097168 -0.21313477 q -0.3581543 -0.21313477 -0.6503906 -0.66796875 q -0.29223633 -0.45483398 -0.4416504 -1.1755371 l -0.19335938 -1.0986328 Z "/>
        </symbol>
        <symbol id="g7AADEE30F1CB894E2643D77CFC20BD63" overflow="visible">
            <path d="M 0 0m 2.4433594 0.7470703 q 0.45703125 0 0.8942871 0.14941406 q 0.43725586 0.14941406 0.77563477 0.39111328 l 0.31640625 -0.7207031 q -0.43066406 -0.2944336 -0.984375 -0.47460938 q -0.55371094 -0.18017578 -1.1293945 -0.18017578 q -0.86572266 0 -1.340332 0.4482422 q -0.47460938 0.4482422 -0.47460938 1.2612305 q 0 0.9448242 0.32958984 1.645752 q 0.32958984 0.70092773 0.9250488 1.0898438 q 0.595459 0.38891602 1.3952637 0.38891602 q 0.7207031 0 1.1469727 -0.22851563 q 0.42626953 -0.22851563 0.6459961 -0.73828125 l -0.68115234 -0.54052734 q -0.22851563 0.3515625 -0.5229492 0.5119629 q -0.2944336 0.16040039 -0.71191406 0.16040039 q -0.47460938 0 -0.8327637 -0.27246094 q -0.3581543 -0.27246094 -0.55371094 -0.76464844 q -0.19555664 -0.4921875 -0.19995117 -1.1557617 q 0.0043945313 -0.46142578 0.26586914 -0.7163086 q 0.2614746 -0.2548828 0.736084 -0.2548828 Z "/>
        </symbol>
        <symbol id="gB5C9DCD3ED190C524FA648491955CB37" overflow="visible">
            <path d="M 0 0m 4.201172 -0.087890625 q -0.82177734 0 -1.3139648 0.5053711 q -0.4921875 0.5053711 -0.62841797 1.4501953 q 0.87890625 0.421875 1.2084961 0.84375 q 0.32958984 0.421875 0.32958984 0.78222656 q 0 0.41748047 -0.47460938 0.41748047 q -0.3383789 0 -0.70092773 -0.24389648 q -0.36254883 -0.24389648 -0.64819336 -0.70532227 q -0.28564453 -0.46142578 -0.3955078 -1.1162109 l 0.0043945313 0.030761719 l -0.32958984 -1.8720703 h -0.9448242 l 0.9272461 5.2558594 q 0.021972656 0.1274414 0.021972656 0.23291016 q 0 0.16259766 -0.057128906 0.25927734 q -0.09667969 0.1538086 -0.3647461 0.1538086 q -0.10986328 0 -0.2175293 -0.010986328 q -0.107666016 -0.010986328 -0.2175293 -0.037353516 l -0.10107422 0.7558594 q 0.16699219 0.03955078 0.33398438 0.05493164 q 0.16699219 0.015380859 0.33398438 0.015380859 q 0.76464844 0 1.0458984 -0.36914063 q 0.18896484 -0.24609375 0.18896484 -0.6899414 q 0 -0.2241211 -0.048339844 -0.49658203 l -0.29882813 -1.7050781 h 0.09667969 q 0.140625 0.59765625 0.5888672 0.9602051 q 0.4482422 0.36254883 1.0458984 0.36254883 q 0.5229492 0 0.8371582 -0.31640625 q 0.31420898 -0.31640625 0.31420898 -0.83935547 q 0 -0.6767578 -0.38452148 -1.1953125 q -0.38452148 -0.5185547 -1.083252 -0.9008789 q 0.1538086 -0.40429688 0.39990234 -0.5756836 q 0.24609375 -0.17138672 0.63720703 -0.17138672 q 0.1274414 0 0.19995117 0.006591797 q 0.072509766 0.006591797 0.15600586 0.015380859 l 0.083496094 -0.79541016 q -0.123046875 -0.026367188 -0.25048828 -0.043945313 q -0.1274414 -0.017578125 -0.2944336 -0.017578125 Z "/>
        </symbol>
        <symbol id="g1856AEF73B56D8088FCAB5F922AEF164" overflow="visible">
            <path d="M 0 0m 0.24169922 -2.109375 l -0.043945313 0.8173828 l 0.92285156 0.057128906 q 0.7338867 0.048339844 1.1755371 0.3383789 q 0.4416504 0.29003906 0.6657715 0.72509766 q 0.2241211 0.4350586 0.30322266 0.9140625 l 0.048339844 0.27246094 h -0.061523438 q -0.2241211 -0.5317383 -0.6437988 -0.8195801 q -0.41967773 -0.2878418 -0.98217773 -0.2878418 q -0.6064453 0 -0.9382324 0.34277344 q -0.3317871 0.34277344 -0.3317871 0.9667969 q 0 0.7910156 0.33618164 1.4348145 q 0.33618164 0.6437988 0.94262695 1.1008301 q 0.6064453 0.45703125 1.4216309 0.703125 q 0.81518555 0.24609375 1.7687988 0.24609375 h 0.083496094 l -0.6767578 -3.8188477 q -0.10986328 -0.6196289 -0.31860352 -1.1425781 q -0.20874023 -0.5229492 -0.5690918 -0.91845703 q -0.36035156 -0.3955078 -0.9250488 -0.62841797 q -0.56469727 -0.23291016 -1.3864746 -0.2680664 l -0.7910156 -0.03515625 Z m 3.5683594 5.9370117 q -0.7207031 -0.10546875 -1.2875977 -0.45483398 q -0.56689453 -0.34936523 -0.8964844 -0.876709 q -0.32958984 -0.52734375 -0.32958984 -1.1689453 q 0 -0.28125 0.16040039 -0.43286133 q 0.16040039 -0.15161133 0.45483398 -0.15161133 q 0.6328125 0 1.0810547 0.5383301 q 0.4482422 0.5383301 0.64160156 1.5490723 l 0.17578125 0.9975586 Z "/>
        </symbol>
        <symbol id="g1726B056BB78D17DAA3C5EC712C0D098" overflow="visible">
            <path d="M 0 0m 2.1577148 -0.087890625 q -0.57128906 0 -1.050293 0.0703125 q -0.4790039 0.0703125 -0.78222656 0.19335938 l 0.2548828 0.84375 q 0.5097656 -0.1274414 0.9602051 -0.19995117 q 0.45043945 -0.072509766 0.7668457 -0.072509766 q 0.5756836 0 0.8942871 0.15161133 q 0.31860352 0.15161133 0.31860352 0.4284668 q 0 0.29882813 -0.41748047 0.4350586 l -1.3183594 0.44384766 q -0.4350586 0.14501953 -0.66796875 0.4086914 q -0.23291016 0.26367188 -0.23291016 0.5932617 q 0 0.7338867 0.6218262 1.1359863 q 0.6218262 0.4020996 1.7600098 0.4020996 q 0.8305664 0 1.6083984 -0.13183594 l -0.23730469 -0.80859375 q -0.41308594 0.048339844 -0.8063965 0.0769043 q -0.39331055 0.028564453 -0.6965332 0.028564453 q -0.62402344 0 -0.9645996 -0.16040039 q -0.34057617 -0.16040039 -0.34057617 -0.45483398 q 0 -0.2241211 0.32958984 -0.3251953 l 1.340332 -0.42626953 q 0.4658203 -0.14941406 0.7141113 -0.4416504 q 0.24829102 -0.29223633 0.24829102 -0.670166 q 0 -0.72509766 -0.6020508 -1.1228027 q -0.6020508 -0.39770508 -1.7006836 -0.39770508 Z "/>
        </symbol>
        <symbol id="g790D21DDD7746B3EED50EBE5D93C4599" overflow="visible">
            <path d="M 0 0m 4.245117 0.98876953 l 0.30322266 -0.70751953 q -0.2680664 -0.1538086 -0.56689453 -0.2614746 q -0.29882813 -0.107666016 -0.6855469 -0.107666016 q -1.5292969 0 -1.5292969 1.3139648 q 0 0.07470703 0.0043945313 0.1538086 q 0.021972656 0.32958984 0.12963867 0.64160156 q 0.107666016 0.31201172 0.23510742 0.6064453 q 0.123046875 0.2944336 0.18896484 0.56689453 q 0.03515625 0.13183594 0.03515625 0.24169922 q 0 0.48779297 -0.69873047 0.48779297 q -0.41748047 0 -0.8041992 -0.10107422 l -0.092285156 0.7998047 q 0.25927734 0.07470703 0.5185547 0.09887695 q 0.25927734 0.024169922 0.5185547 0.024169922 q 0.90966797 0 1.2788086 -0.41308594 q 0.24169922 -0.27246094 0.24169922 -0.70751953 q 0 -0.23730469 -0.0703125 -0.5185547 q -0.07470703 -0.31201172 -0.19335938 -0.5800781 q -0.123046875 -0.27246094 -0.2241211 -0.5361328 q -0.10107422 -0.26367188 -0.123046875 -0.57128906 q -0.0043945313 -0.03955078 -0.0043945313 -0.07470703 q 0 -0.59765625 0.7602539 -0.59765625 q 0.21972656 0 0.38452148 0.05493164 q 0.16479492 0.05493164 0.39331055 0.18676758 Z m -1.0327148 4.407715 q -0.2680664 0 -0.45922852 0.19116211 q -0.19116211 0.19116211 -0.19116211 0.45922852 q 0 0.27246094 0.19116211 0.46142578 q 0.19116211 0.18896484 0.45922852 0.18896484 q 0.27246094 0 0.46142578 -0.18896484 q 0.18896484 -0.18896484 0.18896484 -0.46142578 q 0 -0.2680664 -0.18896484 -0.45922852 q -0.18896484 -0.19116211 -0.46142578 -0.19116211 Z "/>
        </symbol>
        <symbol id="gD718D82A7B071063A3F3F606B2DBA266" overflow="visible">
            <path d="M 0 0m -0.057128906 -0.83496094 l 4.8911133 7.9101563 h 0.9667969 l -4.8911133 -7.9101563 h -0.9667969 Z "/>
        </symbol>
        <symbol id="g91C43FE1360B5DD0D29EC4F6D498E51" overflow="visible">
            <path d="M 0 0m 1.6962891 4.658203 l -0.03515625 -0.70751953 h 0.083496094 q 0.10986328 0.43066406 0.33618164 0.6130371 q 0.22631836 0.18237305 0.54711914 0.18237305 q 0.32958984 0 0.5031738 -0.19116211 q 0.17358398 -0.19116211 0.16918945 -0.60424805 h 0.0703125 q 0.118652344 0.4350586 0.36694336 0.6152344 q 0.24829102 0.18017578 0.5998535 0.18017578 q 0.69873047 0 0.69873047 -0.7910156 q 0 -0.19335938 -0.043945313 -0.43945313 l -0.6196289 -3.515625 h -0.9448242 l 0.64160156 3.6386719 q 0.013183594 0.06591797 0.013183594 0.118652344 q 0 0.24169922 -0.22851563 0.24169922 q -0.24609375 0 -0.43286133 -0.34277344 q -0.18676758 -0.34277344 -0.31860352 -0.97998047 l -0.083496094 -0.4658203 q -0.0043945313 -0.013183594 -0.0043945313 -0.026367188 v 0.0043945313 l -0.39111328 -2.1884766 h -0.7910156 l 0.64160156 3.6386719 q 0.013183594 0.06591797 0.013183594 0.118652344 q 0 0.24169922 -0.24169922 0.24169922 q -0.24169922 0 -0.43725586 -0.3779297 q -0.19555664 -0.3779297 -0.3317871 -1.0766602 l -0.052734375 -0.3076172 q -0.0043945313 -0.026367188 -0.0087890625 -0.052734375 v 0.0087890625 l -0.38671875 -2.192871 h -0.9448242 l 0.82177734 4.658203 h 0.7910156 Z "/>
        </symbol>
        <symbol id="g55622CB8100989A40A5A171D2DD900FD" overflow="visible">
            <path d="M 0 0m 2.1357422 -0.087890625 q -1.1381836 0 -1.9248047 0.38671875 l 0.27246094 0.7998047 q 0.9008789 -0.3779297 1.7358398 -0.3779297 q 1.3491211 0 1.3491211 0.8129883 q 0 0.24609375 -0.09667969 0.4284668 q -0.09667969 0.18237305 -0.31640625 0.3581543 l -1.2568359 1.0195313 q -0.3383789 0.27685547 -0.49438477 0.6394043 q -0.15600586 0.36254883 -0.15600586 0.7097168 q 0 0.80859375 0.5119629 1.223877 q 0.5119629 0.4152832 1.4875488 0.4152832 q 1.2172852 0 1.9248047 -0.7426758 l -0.63720703 -0.66796875 q -0.6503906 0.6020508 -1.340332 0.6020508 q -0.48339844 0 -0.74487305 -0.19116211 q -0.2614746 -0.19116211 -0.2614746 -0.56469727 q 0 -0.1977539 0.10546875 -0.43066406 q 0.10546875 -0.23291016 0.3383789 -0.421875 l 1.0810547 -0.8701172 q 0.41748047 -0.3383789 0.6064453 -0.66137695 q 0.18896484 -0.32299805 0.18896484 -0.74487305 q 0 -0.84814453 -0.6020508 -1.2854004 q -0.6020508 -0.43725586 -1.7709961 -0.43725586 Z "/>
        </symbol>
        <symbol id="g3F1EED1F7594CD08E1EECC678F3F589E" overflow="visible">
            <path d="M 0 0m 1.3491211 0 l -0.46142578 6.2402344 l 0.9316406 0.052734375 l 0.3515625 -5.5371094 h 0.07910156 q 0.8261719 1.0898438 1.4567871 2.4697266 q 0.63061523 1.3798828 1.1184082 3.0146484 h 0.9404297 q -0.5185547 -1.8588867 -1.2832031 -3.4431152 q -0.76464844 -1.5842285 -1.8500977 -2.7971191 h -1.2832031 Z "/>
        </symbol>
        <symbol id="gA96F162043D344903FBD64938734CD55" overflow="visible">
            <path d="M 0 0m 2.597168 -0.087890625 q -1.050293 0 -1.6413574 0.6196289 q -0.59106445 0.6196289 -0.59106445 1.7226563 q 0 0.87890625 0.24389648 1.621582 q 0.24389648 0.7426758 0.70092773 1.2941895 q 0.45703125 0.5515137 1.1030273 0.8547363 q 0.6459961 0.30322266 1.4545898 0.30322266 q 0.62402344 0 1.0041504 -0.22192383 q 0.38012695 -0.22192383 0.61743164 -0.56030273 l -0.68115234 -0.6064453 q -0.1977539 0.24609375 -0.47460938 0.41308594 q -0.27685547 0.16699219 -0.64160156 0.16699219 q -0.6767578 0 -1.2172852 -0.40429688 q -0.54052734 -0.40429688 -0.8547363 -1.1140137 q -0.31420898 -0.7097168 -0.31420898 -1.6325684 q 0 -1.6479492 1.4941406 -1.6479492 q 0.2241211 0 0.42626953 0.021972656 q 0.20214844 0.021972656 0.3779297 0.057128906 l 0.26367188 1.4853516 h -1.1821289 l 0.14501953 0.83496094 h 2.0961914 l -0.5185547 -2.944336 q -0.20214844 -0.057128906 -0.69873047 -0.16040039 q -0.49658203 -0.103271484 -1.1118164 -0.103271484 Z "/>
        </symbol>
        <symbol id="g7CA6670B781567762FF4BD6C525BB628" overflow="visible">
            <path d="M 0 0m 3.177246 0 l 0.54052734 3.0981445 q 0.026367188 0.140625 0.026367188 0.25927734 q 0 0.55371094 -0.5493164 0.55371094 q -0.36035156 0 -0.66796875 -0.20654297 q -0.3076172 -0.20654297 -0.5515137 -0.68774414 q -0.24389648 -0.48120117 -0.41967773 -1.3029785 l 0.0087890625 0.083496094 l -0.31640625 -1.7973633 h -0.9448242 l 0.92285156 5.2163086 q 0.021972656 0.13183594 0.021972656 0.23730469 q 0 0.16259766 -0.057128906 0.2548828 q -0.09667969 0.1538086 -0.3647461 0.1538086 q -0.10986328 0 -0.2175293 -0.010986328 q -0.107666016 -0.010986328 -0.2175293 -0.037353516 l -0.092285156 0.7998047 q 0.16699219 0.03955078 0.33398438 0.05493164 q 0.16699219 0.015380859 0.33398438 0.015380859 q 0.76464844 0 1.050293 -0.36914063 q 0.18457031 -0.24169922 0.18457031 -0.68115234 q 0 -0.22851563 -0.048339844 -0.5053711 l -0.2680664 -1.5292969 h 0.083496094 q 0.140625 0.5493164 0.56469727 0.84814453 q 0.42407227 0.29882813 1.0129395 0.29882813 q 1.1689453 0 1.1689453 -1.1469727 q 0 -0.24169922 -0.052734375 -0.5361328 l -0.54052734 -3.0629883 h -0.9448242 Z "/>
        </symbol>
        <symbol id="g10FAE531CE5C86A53B58133F5BC31218" overflow="visible">
            <path d="M 0 0m 2.7641602 0.82177734 l -0.4790039 0.5493164 l 1.5161133 1.3359375 h -3.2958984 l 0.14501953 0.8173828 h 3.3793945 l -1.1162109 1.4150391 l 0.6591797 0.46142578 l 1.6040039 -2.0170898 l -0.092285156 -0.5361328 l -2.3203125 -2.025879 Z "/>
        </symbol>
        <symbol id="gF2D0181C8D3EAAB7EAA5AC44E11BEB0C" overflow="visible">
            <path d="M 0 0m 4.8164063 3.8408203 l -3.2124023 -3.0234375 h 2.6938477 l -0.14501953 -0.8173828 h -3.4672852 l -0.21972656 0.9536133 l 3.1552734 2.887207 h -2.5839844 l 0.14501953 0.8173828 h 3.5024414 l 0.13183594 -0.8173828 Z "/>
        </symbol>
        <symbol id="gC74888528B3AEE0D5E47317239028E70" overflow="visible">
            <path d="M 0 0m 0.32958984 0 l 0.82177734 4.658203 h 0.77783203 l -0.030761719 -1.059082 h 0.087890625 q 0.140625 0.5493164 0.55810547 0.84814453 q 0.41748047 0.29882813 1.0019531 0.29882813 q 1.1689453 0 1.1689453 -1.1469727 q 0 -0.24169922 -0.052734375 -0.5361328 l -0.54052734 -3.0629883 h -0.9448242 l 0.54052734 3.0981445 q 0.026367188 0.140625 0.026367188 0.25927734 q 0 0.55371094 -0.5493164 0.55371094 q -0.3515625 0 -0.6525879 -0.19995117 q -0.3010254 -0.19995117 -0.54052734 -0.6657715 q -0.23950195 -0.4658203 -0.41088867 -1.2568359 l -0.31640625 -1.7885742 h -0.9448242 Z "/>
        </symbol>
    </defs>
</svg>
