<svg class="typst-doc" viewBox="0 0 274 212.34765625" xmlns="http://www.w3.org/2000/svg" xmlns:xlink="http://www.w3.org/1999/xlink" xmlns:h5="http://www.w3.org/1999/xhtml">
    <path class="typst-shape" fill="#0d1117" fill-rule="nonzero" d="M 0 0v 212.34766 h 274 v -212.34766 Z "/>
    <g>
        <g class="typst-group">
            <g>
                <g class="typst-group" transform="matrix(1 0 0 1 20 20)">
                    <g>
                        <g class="typst-group">
                            <g>
                                <path class="typst-shape" fill="#151b23" fill-rule="nonzero" d="M 0 0m 0 5.6 c 0 -3.0927944 2.5072055 -5.6 5.6 -5.6 h 36.800003 c 3.0927925 0 5.5999985 2.5072055 5.5999985 5.6 v 28.800001 c 0 3.0927925 -2.507206 5.5999985 -5.5999985 5.5999985 h -36.800003 c -3.0927944 0 -5.6 -2.507206 -5.6 -5.5999985 Z "/>
                                <path class="typst-shape" fill="none" stroke="#2f3742" stroke-width="0.8" stroke-linecap="butt" stroke-linejoin="miter" stroke-miterlimit="4" d="M 0 0m 5.6 0 h 36.800003 c 3.0927925 0 5.5999985 2.5072055 5.5999985 5.6 v 28.800001 c 0 3.0927925 -2.507206 5.5999985 -5.5999985 5.5999985 h -36.800003 c -3.0927944 0 -5.6 -2.507206 -5.6 -5.5999985 v -28.800001 c 0 -3.0927944 2.5072055 -5.6 5.6 -5.6 "/>
                                <g class="typst-text" transform="matrix(1 0 0 -1 16.7314453125 26.240234375)">
                                    <use xlink:href="#gDE288DD40A0167395C929873967053D9" x="0" y="0" fill="#f0f6fc" fill-rule="nonzero"/>
                                </g>
                            </g>
                        </g>
                        <g class="typst-group" transform="matrix(1 0 0 1 0 54)">
                            <g>
                                <g class="typst-text" transform="matrix(1 0 0 -1 6.421875 6.93359375)">
                                    <use xlink:href="#g209ED18C3BFB68A6D12B501470815F67" x="0" y="0" fill="#656c76" fill-rule="nonzero"/>
                                    <use xlink:href="#gD1357359A1C487E32DC23C9A82D51AD" x="5.859375" y="0" fill="#656c76" fill-rule="nonzero"/>
                                    <use xlink:href="#g1BB7607698EBB5C8F793A27D24F16731" x="11.71875" y="0" fill="#656c76" fill-rule="nonzero"/>
                                    <use xlink:href="#gF5DE65ADA377C7521DEE5E492E48E37B" x="17.578125" y="0" fill="#656c76" fill-rule="nonzero"/>
                                    <use xlink:href="#gF5DE65ADA377C7521DEE5E492E48E37B" x="23.4375" y="0" fill="#656c76" fill-rule="nonzero"/>
                                    <use xlink:href="#g49EA4F7F3043BB61D882B25B2B823F22" x="29.296875" y="0" fill="#656c76" fill-rule="nonzero"/>
                                </g>
                                <g class="typst-text" transform="matrix(1 0 0 -1 13.453125 18.173828125)">
                                    <use xlink:href="#g4C06857F2585BA43717A6A4E596626B6" x="0" y="0" fill="#9198a1" fill-rule="nonzero"/>
                                    <use xlink:href="#gD1B2E94B5C9985D20B63EC1E24E5C26A" x="5.2734375" y="0" fill="#9198a1" fill-rule="nonzero"/>
                                    <use xlink:href="#gEFAEEDD6907DC1C45C92FF41D2845054" x="10.546875" y="0" fill="#9198a1" fill-rule="nonzero"/>
                                    <use xlink:href="#g9E80DE21BD69AE0F43672228C9C283DA" x="15.8203125" y="0" fill="#9198a1" fill-rule="nonzero"/>
                                </g>
                            </g>
                        </g>
                    </g>
                </g>
                <g class="typst-group" transform="matrix(1 0 0 1 82 20)">
                    <g>
                        <g class="typst-group">
                            <g>
                                <path class="typst-shape" fill="#151b23" fill-rule="nonzero" d="M 0 0m 0 5.6 c 0 -3.0927944 2.5072055 -5.6 5.6 -5.6 h 36.800003 c 3.0927925 0 5.5999985 2.5072055 5.5999985 5.6 v 28.800001 c 0 3.0927925 -2.507206 5.5999985 -5.5999985 5.5999985 h -36.800003 c -3.0927944 0 -5.6 -2.507206 -5.6 -5.5999985 Z "/>
                                <path class="typst-shape" fill="none" stroke="#2f3742" stroke-width="0.8" stroke-linecap="butt" stroke-linejoin="miter" stroke-miterlimit="4" d="M 0 0m 5.6 0 h 36.800003 c 3.0927925 0 5.5999985 2.5072055 5.5999985 5.6 v 28.800001 c 0 3.0927925 -2.507206 5.5999985 -5.5999985 5.5999985 h -36.800003 c -3.0927944 0 -5.6 -2.507206 -5.6 -5.5999985 v -28.800001 c 0 -3.0927944 2.5072055 -5.6 5.6 -5.6 "/>
                                <g class="typst-text" transform="matrix(1 0 0 -1 13.61572265625 26.240234375)">
                                    <use xlink:href="#gEC986AFAB9E32C0D2437A7CB9AAFE836" x="0" y="0" fill="#f0f6fc" fill-rule="nonzero"/>
                                </g>
                            </g>
                        </g>
                        <g class="typst-group" transform="matrix(1 0 0 1 0 54)">
                            <g>
                                <g class="typst-text" transform="matrix(1 0 0 -1 6.421875 6.93359375)">
                                    <use xlink:href="#g209ED18C3BFB68A6D12B501470815F67" x="0" y="0" fill="#656c76" fill-rule="nonzero"/>
                                    <use xlink:href="#gD1357359A1C487E32DC23C9A82D51AD" x="5.859375" y="0" fill="#656c76" fill-rule="nonzero"/>
                                    <use xlink:href="#g1BB7607698EBB5C8F793A27D24F16731" x="11.71875" y="0" fill="#656c76" fill-rule="nonzero"/>
                                    <use xlink:href="#gF5DE65ADA377C7521DEE5E492E48E37B" x="17.578125" y="0" fill="#656c76" fill-rule="nonzero"/>
                                    <use xlink:href="#g1FBD1A571A1111CB63B8A5FA2D3BD50A" x="23.4375" y="0" fill="#656c76" fill-rule="nonzero"/>
                                    <use xlink:href="#gF5DE65ADA377C7521DEE5E492E48E37B" x="29.296875" y="0" fill="#656c76" fill-rule="nonzero"/>
                                </g>
                                <g class="typst-text" transform="matrix(1 0 0 -1 10.81640625 18.173828125)">
                                    <use xlink:href="#g4C06857F2585BA43717A6A4E596626B6" x="0" y="0" fill="#9198a1" fill-rule="nonzero"/>
                                    <use xlink:href="#gD1B2E94B5C9985D20B63EC1E24E5C26A" x="5.2734375" y="0" fill="#9198a1" fill-rule="nonzero"/>
                                    <use xlink:href="#gEFAEEDD6907DC1C45C92FF41D2845054" x="10.546875" y="0" fill="#9198a1" fill-rule="nonzero"/>
                                    <use xlink:href="#g9E80DE21BD69AE0F43672228C9C283DA" x="15.8203125" y="0" fill="#9198a1" fill-rule="nonzero"/>
                                    <use xlink:href="#gD1B2E94B5C9985D20B63EC1E24E5C26A" x="21.09375" y="0" fill="#9198a1" fill-rule="nonzero"/>
                                </g>
                            </g>
                        </g>
                    </g>
                </g>
                <g class="typst-group" transform="matrix(1 0 0 1 144 20)">
                    <g>
                        <g class="typst-group">
                            <g>
                                <path class="typst-shape" fill="#151b23" fill-rule="nonzero" d="M 0 0m 0 5.6 c 0 -3.0927944 2.5072055 -5.6 5.6 -5.6 h 36.800003 c 3.0927925 0 5.5999985 2.5072055 5.5999985 5.6 v 28.800001 c 0 3.0927925 -2.507206 5.5999985 -5.5999985 5.5999985 h -36.800003 c -3.0927944 0 -5.6 -2.507206 -5.6 -5.5999985 Z "/>
                                <path class="typst-shape" fill="none" stroke="#2f3742" stroke-width="0.8" stroke-linecap="butt" stroke-linejoin="miter" stroke-miterlimit="4" d="M 0 0m 5.6 0 h 36.800003 c 3.0927925 0 5.5999985 2.5072055 5.5999985 5.6 v 28.800001 c 0 3.0927925 -2.507206 5.5999985 -5.5999985 5.5999985 h -36.800003 c -3.0927944 0 -5.6 -2.507206 -5.6 -5.5999985 v -28.800001 c 0 -3.0927944 2.5072055 -5.6 5.6 -5.6 "/>
                                <g class="typst-text" transform="matrix(1 0 0 -1 15.68994140625 26.240234375)">
                                    <use xlink:href="#g71AAF6BF85FDA386AF19D2921EB392D0" x="0" y="0" fill="#f0f6fc" fill-rule="nonzero"/>
                                </g>
                            </g>
                        </g>
                        <g class="typst-group" transform="matrix(1 0 0 1 0 54)">
                            <g>
                                <g class="typst-text" transform="matrix(1 0 0 -1 6.421875 6.93359375)">
                                    <use xlink:href="#g209ED18C3BFB68A6D12B501470815F67" x="0" y="0" fill="#656c76" fill-rule="nonzero"/>
                                    <use xlink:href="#gD1357359A1C487E32DC23C9A82D51AD" x="5.859375" y="0" fill="#656c76" fill-rule="nonzero"/>
                                    <use xlink:href="#g1BB7607698EBB5C8F793A27D24F16731" x="11.71875" y="0" fill="#656c76" fill-rule="nonzero"/>
                                    <use xlink:href="#gF5DE65ADA377C7521DEE5E492E48E37B" x="17.578125" y="0" fill="#656c76" fill-rule="nonzero"/>
                                    <use xlink:href="#g49EA4F7F3043BB61D882B25B2B823F22" x="23.4375" y="0" fill="#656c76" fill-rule="nonzero"/>
                                    <use xlink:href="#g7C94E26D468BD2DDE691CC9D9784DF6" x="29.296875" y="0" fill="#656c76" fill-rule="nonzero"/>
                                </g>
                                <g class="typst-text" transform="matrix(1 0 0 -1 5.54296875 18.173828125)">
                                    <use xlink:href="#g496D52F1239A202D2084B655D124B477" x="0" y="0" fill="#9198a1" fill-rule="nonzero"/>
                                    <use xlink:href="#gE2E584E44E1451AAC32324807229E6E0" x="5.2734375" y="0" fill="#9198a1" fill-rule="nonzero"/>
                                    <use xlink:href="#gA39DDCD4187DBD6B5EAE81FA2C92DAE0" x="10.546875" y="0" fill="#9198a1" fill-rule="nonzero"/>
                                    <use xlink:href="#gA39DDCD4187DBD6B5EAE81FA2C92DAE0" x="15.8203125" y="0" fill="#9198a1" fill-rule="nonzero"/>
                                    <use xlink:href="#gEFAEEDD6907DC1C45C92FF41D2845054" x="21.09375" y="0" fill="#9198a1" fill-rule="nonzero"/>
                                    <use xlink:href="#g633FB8EB4E92D6FD3B927F14FC393029" x="26.3671875" y="0" fill="#9198a1" fill-rule="nonzero"/>
                                    <use xlink:href="#gC979954D9EBF87A71FAD624AF61A34DA" x="31.640625" y="0" fill="#9198a1" fill-rule="nonzero"/>
                                </g>
                            </g>
                        </g>
                    </g>
                </g>
                <g class="typst-group" transform="matrix(1 0 0 1 206 20)">
                    <g>
                        <g class="typst-group">
                            <g>
                                <path class="typst-shape" fill="#151b23" fill-rule="nonzero" d="M 0 0m 0 5.6 c 0 -3.0927944 2.5072055 -5.6 5.6 -5.6 h 36.800003 c 3.0927925 0 5.5999985 2.5072055 5.5999985 5.6 v 28.800001 c 0 3.0927925 -2.507206 5.5999985 -5.5999985 5.5999985 h -36.800003 c -3.0927944 0 -5.6 -2.507206 -5.6 -5.5999985 Z "/>
                                <path class="typst-shape" fill="none" stroke="#2f3742" stroke-width="0.8" stroke-linecap="butt" stroke-linejoin="miter" stroke-miterlimit="4" d="M 0 0m 5.6 0 h 36.800003 c 3.0927925 0 5.5999985 2.5072055 5.5999985 5.6 v 28.800001 c 0 3.0927925 -2.507206 5.5999985 -5.5999985 5.5999985 h -36.800003 c -3.0927944 0 -5.6 -2.507206 -5.6 -5.5999985 v -28.800001 c 0 -3.0927944 2.5072055 -5.6 5.6 -5.6 "/>
                                <g class="typst-text" transform="matrix(1 0 0 -1 13.61572265625 26.240234375)">
                                    <use xlink:href="#g12F617AD131ED2146973E2F538EF9587" x="0" y="0" fill="#f0f6fc" fill-rule="nonzero"/>
                                </g>
                            </g>
                        </g>
                        <g class="typst-group" transform="matrix(1 0 0 1 0 54)">
                            <g>
                                <g class="typst-text" transform="matrix(1 0 0 -1 6.421875 6.93359375)">
                                    <use xlink:href="#g209ED18C3BFB68A6D12B501470815F67" x="0" y="0" fill="#656c76" fill-rule="nonzero"/>
                                    <use xlink:href="#gD1357359A1C487E32DC23C9A82D51AD" x="5.859375" y="0" fill="#656c76" fill-rule="nonzero"/>
                                    <use xlink:href="#g1BB7607698EBB5C8F793A27D24F16731" x="11.71875" y="0" fill="#656c76" fill-rule="nonzero"/>
                                    <use xlink:href="#gF5DE65ADA377C7521DEE5E492E48E37B" x="17.578125" y="0" fill="#656c76" fill-rule="nonzero"/>
                                    <use xlink:href="#g9B8CCCE7453B23FFC32D1DF0D86C4AF2" x="23.4375" y="0" fill="#656c76" fill-rule="nonzero"/>
                                    <use xlink:href="#g422C6BA5ED3475D5D6F39DF42147DC9D" x="29.296875" y="0" fill="#656c76" fill-rule="nonzero"/>
                                </g>
                                <g class="typst-text" transform="matrix(1 0 0 -1 2.90625 18.173828125)">
                                    <use xlink:href="#g496D52F1239A202D2084B655D124B477" x="0" y="0" fill="#9198a1" fill-rule="nonzero"/>
                                    <use xlink:href="#gE2E584E44E1451AAC32324807229E6E0" x="5.2734375" y="0" fill="#9198a1" fill-rule="nonzero"/>
                                    <use xlink:href="#gA39DDCD4187DBD6B5EAE81FA2C92DAE0" x="10.546875" y="0" fill="#9198a1" fill-rule="nonzero"/>
                                    <use xlink:href="#gA39DDCD4187DBD6B5EAE81FA2C92DAE0" x="15.8203125" y="0" fill="#9198a1" fill-rule="nonzero"/>
                                    <use xlink:href="#gEFAEEDD6907DC1C45C92FF41D2845054" x="21.09375" y="0" fill="#9198a1" fill-rule="nonzero"/>
                                    <use xlink:href="#g633FB8EB4E92D6FD3B927F14FC393029" x="26.3671875" y="0" fill="#9198a1" fill-rule="nonzero"/>
                                    <use xlink:href="#gC979954D9EBF87A71FAD624AF61A34DA" x="31.640625" y="0" fill="#9198a1" fill-rule="nonzero"/>
                                    <use xlink:href="#gD1B2E94B5C9985D20B63EC1E24E5C26A" x="36.9140625" y="0" fill="#9198a1" fill-rule="nonzero"/>
                                </g>
                            </g>
                        </g>
                    </g>
                </g>
                <g class="typst-group">
                    <g>
                        <g class="typst-group" transform="matrix(1 0 0 1 20 120.173828125)">
                            <g>
                                <g class="typst-group">
                                    <g>
                                        <path class="typst-shape" fill="#151b23" fill-rule="nonzero" d="M 0 0m 0 5.6 c 0 -3.0927944 2.5072055 -5.6 5.6 -5.6 h 36.800003 c 3.0927925 0 5.5999985 2.5072055 5.5999985 5.6 v 28.800001 c 0 3.0927925 -2.507206 5.5999985 -5.5999985 5.5999985 h -36.800003 c -3.0927944 0 -5.6 -2.507206 -5.6 -5.5999985 Z "/>
                                        <path class="typst-shape" fill="none" stroke="#2f3742" stroke-width="0.8" stroke-linecap="butt" stroke-linejoin="miter" stroke-miterlimit="4" d="M 0 0m 5.6 0 h 36.800003 c 3.0927925 0 5.5999985 2.5072055 5.5999985 5.6 v 28.800001 c 0 3.0927925 -2.507206 5.5999985 -5.5999985 5.5999985 h -36.800003 c -3.0927944 0 -5.6 -2.507206 -5.6 -5.5999985 v -28.800001 c 0 -3.0927944 2.5072055 -5.6 5.6 -5.6 "/>
                                        <g class="typst-text" transform="matrix(1 0 0 -1 15.6943359375 26.240234375)">
                                            <use xlink:href="#gA3BA24417F12DDA6615E9E3FE7B0F904" x="0" y="0" fill="#f0f6fc" fill-rule="nonzero"/>
                                        </g>
                                    </g>
                                </g>
                                <g class="typst-group" transform="matrix(1 0 0 1 0 54)">
                                    <g>
                                        <g class="typst-text" transform="matrix(1 0 0 -1 6.421875 6.93359375)">
                                            <use xlink:href="#g209ED18C3BFB68A6D12B501470815F67" x="0" y="0" fill="#656c76" fill-rule="nonzero"/>
                                            <use xlink:href="#gD1357359A1C487E32DC23C9A82D51AD" x="5.859375" y="0" fill="#656c76" fill-rule="nonzero"/>
                                            <use xlink:href="#g1BB7607698EBB5C8F793A27D24F16731" x="11.71875" y="0" fill="#656c76" fill-rule="nonzero"/>
                                            <use xlink:href="#gF5DE65ADA377C7521DEE5E492E48E37B" x="17.578125" y="0" fill="#656c76" fill-rule="nonzero"/>
                                            <use xlink:href="#gF5DE65ADA377C7521DEE5E492E48E37B" x="23.4375" y="0" fill="#656c76" fill-rule="nonzero"/>
                                            <use xlink:href="#g16670A415BDD64F982FA08D7572630E0" x="29.296875" y="0" fill="#656c76" fill-rule="nonzero"/>
                                        </g>
                                        <g class="typst-text" transform="matrix(1 0 0 -1 2.90625 18.173828125)">
                                            <use xlink:href="#gEFAEEDD6907DC1C45C92FF41D2845054" x="0" y="0" fill="#9198a1" fill-rule="nonzero"/>
                                            <use xlink:href="#g633FB8EB4E92D6FD3B927F14FC393029" x="5.2734375" y="0" fill="#9198a1" fill-rule="nonzero"/>
                                            <use xlink:href="#g1D6EC232D600E11B8D94326AD8F00DFC" x="10.546875" y="0" fill="#9198a1" fill-rule="nonzero"/>
                                            <use xlink:href="#gEFAEEDD6907DC1C45C92FF41D2845054" x="15.8203125" y="0" fill="#9198a1" fill-rule="nonzero"/>
                                            <use xlink:href="#gA89B28849E570429A74B372C5A555659" x="21.09375" y="0" fill="#9198a1" fill-rule="nonzero"/>
                                            <use xlink:href="#gE2E584E44E1451AAC32324807229E6E0" x="26.3671875" y="0" fill="#9198a1" fill-rule="nonzero"/>
                                            <use xlink:href="#g351938A1069D2E5A8826F6B3F6137B12" x="31.640625" y="0" fill="#9198a1" fill-rule="nonzero"/>
                                            <use xlink:href="#gEFAEEDD6907DC1C45C92FF41D2845054" x="36.9140625" y="0" fill="#9198a1" fill-rule="nonzero"/>
                                        </g>
                                    </g>
                                </g>
                            </g>
                        </g>
                        <g class="typst-group" transform="matrix(1 0 0 1 82 120.173828125)">
                            <g>
                                <g class="typst-group">
                                    <g>
                                        <path class="typst-shape" fill="#151b23" fill-rule="nonzero" d="M 0 0m 0 5.6 c 0 -3.0927944 2.5072055 -5.6 5.6 -5.6 h 36.800003 c 3.0927925 0 5.5999985 2.5072055 5.5999985 5.6 v 28.800001 c 0 3.0927925 -2.507206 5.5999985 -5.5999985 5.5999985 h -36.800003 c -3.0927944 0 -5.6 -2.507206 -5.6 -5.5999985 Z "/>
                                        <path class="typst-shape" fill="none" stroke="#2f3742" stroke-width="0.8" stroke-linecap="butt" stroke-linejoin="miter" stroke-miterlimit="4" d="M 0 0m 5.6 0 h 36.800003 c 3.0927925 0 5.5999985 2.5072055 5.5999985 5.6 v 28.800001 c 0 3.0927925 -2.507206 5.5999985 -5.5999985 5.5999985 h -36.800003 c -3.0927944 0 -5.6 -2.507206 -5.6 -5.5999985 v -28.800001 c 0 -3.0927944 2.5072055 -5.6 5.6 -5.6 "/>
                                        <g class="typst-text" transform="matrix(1 0 0 -1 15.6943359375 26.240234375)">
                                            <use xlink:href="#gE75D4E1338128C481B16FB02AD0036D8" x="0" y="0" fill="#f0f6fc" fill-rule="nonzero"/>
                                        </g>
                                    </g>
                                </g>
                                <g class="typst-group" transform="matrix(1 0 0 1 0 54)">
                                    <g>
                                        <g class="typst-text" transform="matrix(1 0 0 -1 6.421875 6.93359375)">
                                            <use xlink:href="#g209ED18C3BFB68A6D12B501470815F67" x="0" y="0" fill="#656c76" fill-rule="nonzero"/>
                                            <use xlink:href="#gD1357359A1C487E32DC23C9A82D51AD" x="5.859375" y="0" fill="#656c76" fill-rule="nonzero"/>
                                            <use xlink:href="#g1BB7607698EBB5C8F793A27D24F16731" x="11.71875" y="0" fill="#656c76" fill-rule="nonzero"/>
                                            <use xlink:href="#gF5DE65ADA377C7521DEE5E492E48E37B" x="17.578125" y="0" fill="#656c76" fill-rule="nonzero"/>
                                            <use xlink:href="#gF5DE65ADA377C7521DEE5E492E48E37B" x="23.4375" y="0" fill="#656c76" fill-rule="nonzero"/>
                                            <use xlink:href="#g3F4290C42B35D82377D668B05AF71CF5" x="29.296875" y="0" fill="#656c76" fill-rule="nonzero"/>
                                        </g>
                                        <g class="typst-text" transform="matrix(1 0 0 -1 8.1796875 18.173828125)">
                                            <use xlink:href="#gD1B2E94B5C9985D20B63EC1E24E5C26A" x="0" y="0" fill="#9198a1" fill-rule="nonzero"/>
                                            <use xlink:href="#gEFAEEDD6907DC1C45C92FF41D2845054" x="5.2734375" y="0" fill="#9198a1" fill-rule="nonzero"/>
                                            <use xlink:href="#gCC3398A96F9AF8005ADB726061509A1" x="10.546875" y="0" fill="#9198a1" fill-rule="nonzero"/>
                                            <use xlink:href="#g9E80DE21BD69AE0F43672228C9C283DA" x="15.8203125" y="0" fill="#9198a1" fill-rule="nonzero"/>
                                            <use xlink:href="#g496D52F1239A202D2084B655D124B477" x="21.09375" y="0" fill="#9198a1" fill-rule="nonzero"/>
                                            <use xlink:href="#gBA14514AED833AD8570A169A632C4096" x="26.3671875" y="0" fill="#9198a1" fill-rule="nonzero"/>
                                        </g>
                                    </g>
                                </g>
                            </g>
                        </g>
                        <g class="typst-group" transform="matrix(1 0 0 1 144 120.173828125)">
                            <g>
                                <g class="typst-group">
                                    <g>
                                        <path class="typst-shape" fill="#151b23" fill-rule="nonzero" d="M 0 0m 0 5.6 c 0 -3.0927944 2.5072055 -5.6 5.6 -5.6 h 36.800003 c 3.0927925 0 5.5999985 2.5072055 5.5999985 5.6 v 28.800001 c 0 3.0927925 -2.507206 5.5999985 -5.5999985 5.5999985 h -36.800003 c -3.0927944 0 -5.6 -2.507206 -5.6 -5.5999985 Z "/>
                                        <path class="typst-shape" fill="none" stroke="#2f3742" stroke-width="0.8" stroke-linecap="butt" stroke-linejoin="miter" stroke-miterlimit="4" d="M 0 0m 5.6 0 h 36.800003 c 3.0927925 0 5.5999985 2.5072055 5.5999985 5.6 v 28.800001 c 0 3.0927925 -2.507206 5.5999985 -5.5999985 5.5999985 h -36.800003 c -3.0927944 0 -5.6 -2.507206 -5.6 -5.5999985 v -28.800001 c 0 -3.0927944 2.5072055 -5.6 5.6 -5.6 "/>
                                        <g class="typst-text" transform="matrix(1 0 0 -1 16.73583984375 26.240234375)">
                                            <use xlink:href="#gFDB63D991F00510A8088C76B99F8F25" x="0" y="0" fill="#f0f6fc" fill-rule="nonzero"/>
                                        </g>
                                    </g>
                                </g>
                                <g class="typst-group" transform="matrix(1 0 0 1 0 54)">
                                    <g>
                                        <g class="typst-text" transform="matrix(1 0 0 -1 6.421875 6.93359375)">
                                            <use xlink:href="#g209ED18C3BFB68A6D12B501470815F67" x="0" y="0" fill="#656c76" fill-rule="nonzero"/>
                                            <use xlink:href="#gD1357359A1C487E32DC23C9A82D51AD" x="5.859375" y="0" fill="#656c76" fill-rule="nonzero"/>
                                            <use xlink:href="#g1BB7607698EBB5C8F793A27D24F16731" x="11.71875" y="0" fill="#656c76" fill-rule="nonzero"/>
                                            <use xlink:href="#gF5DE65ADA377C7521DEE5E492E48E37B" x="17.578125" y="0" fill="#656c76" fill-rule="nonzero"/>
                                            <use xlink:href="#g1BB7607698EBB5C8F793A27D24F16731" x="23.4375" y="0" fill="#656c76" fill-rule="nonzero"/>
                                            <use xlink:href="#g16670A415BDD64F982FA08D7572630E0" x="29.296875" y="0" fill="#656c76" fill-rule="nonzero"/>
                                        </g>
                                        <g class="typst-text" transform="matrix(1 0 0 -1 13.453125 18.173828125)">
                                            <use xlink:href="#g7109ECFC51F91CAEC05C3382AC67B7E" x="0" y="0" fill="#9198a1" fill-rule="nonzero"/>
                                            <use xlink:href="#gEFAEEDD6907DC1C45C92FF41D2845054" x="5.2734375" y="0" fill="#9198a1" fill-rule="nonzero"/>
                                            <use xlink:href="#gA89B28849E570429A74B372C5A555659" x="10.546875" y="0" fill="#9198a1" fill-rule="nonzero"/>
                                            <use xlink:href="#gA89B28849E570429A74B372C5A555659" x="15.8203125" y="0" fill="#9198a1" fill-rule="nonzero"/>
                                        </g>
                                    </g>
                                </g>
                            </g>
                        </g>
                        <g class="typst-group" transform="matrix(1 0 0 1 206 120.173828125)">
                            <g>
                                <g class="typst-group">
                                    <g>
                                        <path class="typst-shape" fill="#151b23" fill-rule="nonzero" d="M 0 0m 0 5.6 c 0 -3.0927944 2.5072055 -5.6 5.6 -5.6 h 36.800003 c 3.0927925 0 5.5999985 2.5072055 5.5999985 5.6 v 28.800001 c 0 3.0927925 -2.507206 5.5999985 -5.5999985 5.5999985 h -36.800003 c -3.0927944 0 -5.6 -2.507206 -5.6 -5.5999985 Z "/>
                                        <path class="typst-shape" fill="none" stroke="#2f3742" stroke-width="0.8" stroke-linecap="butt" stroke-linejoin="miter" stroke-miterlimit="4" d="M 0 0m 5.6 0 h 36.800003 c 3.0927925 0 5.5999985 2.5072055 5.5999985 5.6 v 28.800001 c 0 3.0927925 -2.507206 5.5999985 -5.5999985 5.5999985 h -36.800003 c -3.0927944 0 -5.6 -2.507206 -5.6 -5.5999985 v -28.800001 c 0 -3.0927944 2.5072055 -5.6 5.6 -5.6 "/>
                                        <g class="typst-text" transform="matrix(1 0 0 -1 15.6943359375 26.240234375)">
                                            <use xlink:href="#g39BC031DAD2AEB65E8928522FCABD6C6" x="0" y="0" fill="#f0f6fc" fill-rule="nonzero"/>
                                        </g>
                                    </g>
                                </g>
                                <g class="typst-group" transform="matrix(1 0 0 1 0 54)">
                                    <g>
                                        <g class="typst-text" transform="matrix(1 0 0 -1 6.421875 6.93359375)">
                                            <use xlink:href="#g209ED18C3BFB68A6D12B501470815F67" x="0" y="0" fill="#656c76" fill-rule="nonzero"/>
                                            <use xlink:href="#gD1357359A1C487E32DC23C9A82D51AD" x="5.859375" y="0" fill="#656c76" fill-rule="nonzero"/>
                                            <use xlink:href="#g1BB7607698EBB5C8F793A27D24F16731" x="11.71875" y="0" fill="#656c76" fill-rule="nonzero"/>
                                            <use xlink:href="#gF5DE65ADA377C7521DEE5E492E48E37B" x="17.578125" y="0" fill="#656c76" fill-rule="nonzero"/>
                                            <use xlink:href="#g47296447A1A4F6F939EEDEFE3ED87D1A" x="23.4375" y="0" fill="#656c76" fill-rule="nonzero"/>
                                            <use xlink:href="#g7C94E26D468BD2DDE691CC9D9784DF6" x="29.296875" y="0" fill="#656c76" fill-rule="nonzero"/>
                                        </g>
                                        <g class="typst-text" transform="matrix(1 0 0 -1 10.81640625 18.173828125)">
                                            <use xlink:href="#g351938A1069D2E5A8826F6B3F6137B12" x="0" y="0" fill="#9198a1" fill-rule="nonzero"/>
                                            <use xlink:href="#gBA14514AED833AD8570A169A632C4096" x="5.2734375" y="0" fill="#9198a1" fill-rule="nonzero"/>
                                            <use xlink:href="#gE2E584E44E1451AAC32324807229E6E0" x="10.546875" y="0" fill="#9198a1" fill-rule="nonzero"/>
                                            <use xlink:href="#g633FB8EB4E92D6FD3B927F14FC393029" x="15.8203125" y="0" fill="#9198a1" fill-rule="nonzero"/>
                                            <use xlink:href="#gEFAEEDD6907DC1C45C92FF41D2845054" x="21.09375" y="0" fill="#9198a1" fill-rule="nonzero"/>
                                        </g>
                                    </g>
                                </g>
                            </g>
                        </g>
                    </g>
                </g>
            </g>
        </g>
    </g>
    <defs id="glyph">
        <symbol id="gDE288DD40A0167395C929873967053D9" overflow="visible">
            <path d="M 0 0m 7.2685547 6.2402344 q -1.125 0 -2.0830078 0.5625 q -0.94921875 0.5625 -1.5117188 1.5117188 q -0.5625 0.9580078 -0.5625 2.0830078 q 0 1.125 0.5625 2.0830078 q 0.5625 0.9580078 1.5117188 1.5117188 q 0.9580078 0.55371094 2.0830078 0.55371094 q 1.125 0 2.0830078 -0.55371094 q 0.94921875 -0.55371094 1.5117188 -1.5117188 q 0.5625 -0.9580078 0.5625 -2.0830078 q 0 -1.125 -0.5625 -2.0830078 q -0.5625 -0.94921875 -1.5117188 -1.5117188 q -0.9580078 -0.5625 -2.0830078 -0.5625 Z m -1.4853516 -1.5556641 h 2.9707031 q 1.5644531 0 2.9003906 -0.7734375 q 1.3359375 -0.76464844 2.109375 -2.100586 q 0.7734375 -1.3359375 0.7734375 -2.9091797 q 0 -0.40429688 -0.28125 -0.6855469 q -0.28125 -0.28125 -0.6855469 -0.28125 h -12.603516 q -0.40429688 0 -0.6855469 0.28125 q -0.28125 0.28125 -0.28125 0.6855469 q 0 1.5732422 0.7734375 2.9091797 q 0.7734375 1.3359375 2.109375 2.100586 q 1.3359375 0.7734375 2.9003906 0.7734375 Z "/>
        </symbol>
        <symbol id="g209ED18C3BFB68A6D12B501470815F67" overflow="visible">
            <path d="M 0 0m 2.9101563 -0.09765625 q -2.2265625 0 -2.2265625 2.3242188 v 4.7070313 h 1.015625 v -4.7070313 q 0 -0.6933594 0.29785156 -1.0449219 q 0.29785156 -0.3515625 0.9326172 -0.3515625 q 1.2304688 0 1.2304688 1.3964844 v 4.7070313 h 1.015625 v -4.7070313 q 0 -1.1621094 -0.5761719 -1.7431641 q -0.5761719 -0.5810547 -1.6894531 -0.5810547 Z "/>
        </symbol>
        <symbol id="gD1357359A1C487E32DC23C9A82D51AD" overflow="visible">
            <path d="M 0 0m 2.4121094 0.9277344 v 2.084961 h -1.9238281 v 0.9082031 h 1.9238281 v 2.0751953 h 1.0351563 v -2.0751953 h 1.9238281 v -0.9082031 h -1.9238281 v -2.084961 h -1.0351563 Z "/>
        </symbol>
        <symbol id="g1BB7607698EBB5C8F793A27D24F16731" overflow="visible">
            <path d="M 0 0m 0.87890625 0 v 6.9335938 h 4.5898438 v -0.9277344 h -3.5742188 v -2.3632813 h 2.6953125 v -0.9277344 h -2.6953125 v -2.7148438 h -1.015625 Z "/>
        </symbol>
        <symbol id="gF5DE65ADA377C7521DEE5E492E48E37B" overflow="visible">
            <path d="M 0 0m 2.9296875 -0.09765625 q -2.3632813 0 -2.3632813 3.515625 q 0 3.6132813 2.3632813 3.6132813 q 2.3632813 0 2.3632813 -3.6132813 q 0 -3.515625 -2.3632813 -3.515625 Z m 0 0.8984375 q 1.3183594 0 1.3183594 2.6171875 q 0 2.7148438 -1.3183594 2.7148438 q -1.3183594 0 -1.3183594 -2.7148438 q 0 -2.6171875 1.3183594 -2.6171875 Z m 0 1.8847656 q -0.32714844 0 -0.52978516 0.20263672 q -0.20263672 0.20263672 -0.20263672 0.52978516 q 0 0.33203125 0.20263672 0.53222656 q 0.20263672 0.20019531 0.52978516 0.20019531 q 0.33203125 0 0.53222656 -0.20019531 q 0.20019531 -0.20019531 0.20019531 -0.53222656 q 0 -0.32714844 -0.20019531 -0.52978516 q -0.20019531 -0.20263672 -0.53222656 -0.20263672 Z "/>
        </symbol>
        <symbol id="g49EA4F7F3043BB61D882B25B2B823F22" overflow="visible">
            <path d="M 0 0m 2.133789 0 l 2.0654297 6.0058594 h -2.6074219 v -1.5039063 h -1.0449219 v 2.4316406 h 5.0878906 l -2.3828125 -6.9335938 h -1.1181641 Z "/>
        </symbol>
        <symbol id="g4C06857F2585BA43717A6A4E596626B6" overflow="visible">
            <path d="M 0 0m 2.1796875 -0.087890625 q -0.7338867 0 -1.1359863 0.43725586 q -0.4020996 0.43725586 -0.4020996 1.232666 v 3.0761719 h 0.9316406 v -3.0761719 q 0 -0.39990234 0.22851563 -0.61743164 q 0.22851563 -0.2175293 0.64160156 -0.2175293 q 0.5097656 0 0.76904297 0.32299805 q 0.25927734 0.32299805 0.25927734 1.083252 v 2.5048828 h 0.9316406 v -3.8144531 l 0.64160156 -0.09667969 v -0.7470703 l -1.4941406 -0.043945313 l -0.06591797 0.9404297 h -0.083496094 q -0.10986328 -0.47460938 -0.43066406 -0.7294922 q -0.32080078 -0.2548828 -0.7910156 -0.2548828 Z "/>
        </symbol>
        <symbol id="gD1B2E94B5C9985D20B63EC1E24E5C26A" overflow="visible">
            <path d="M 0 0m 2.2763672 -0.087890625 q -0.52734375 0 -0.9030762 0.030761719 q -0.37573242 0.030761719 -0.68774414 0.10107422 l 0.10546875 0.84375 q 0.46142578 -0.0703125 0.81518555 -0.10546875 q 0.35375977 -0.03515625 0.670166 -0.03515625 q 0.70751953 0 1.026123 0.13842773 q 0.31860352 0.13842773 0.31860352 0.4416504 q 0 0.2109375 -0.11206055 0.31420898 q -0.11206055 0.103271484 -0.3449707 0.16040039 l -1.0722656 0.27246094 q -0.6899414 0.17578125 -1.0129395 0.4350586 q -0.32299805 0.25927734 -0.32299805 0.7866211 q 0 0.76464844 0.5866699 1.1074219 q 0.5866699 0.34277344 1.8918457 0.34277344 q 0.64160156 0 1.2304688 -0.087890625 l -0.09667969 -0.80859375 q -0.35595703 0.03515625 -0.62841797 0.048339844 q -0.27246094 0.013183594 -0.5317383 0.013183594 q -0.78222656 0 -1.1337891 -0.1340332 q -0.3515625 -0.1340332 -0.3515625 -0.43725586 q 0 -0.20214844 0.14501953 -0.29223633 q 0.14501953 -0.09008789 0.44384766 -0.16479492 l 0.8613281 -0.2109375 q 0.7338867 -0.17578125 1.0744629 -0.47021484 q 0.34057617 -0.2944336 0.34057617 -0.8569336 q 0 -0.75146484 -0.5493164 -1.092041 q -0.5493164 -0.34057617 -1.762207 -0.34057617 Z "/>
        </symbol>
        <symbol id="gEFAEEDD6907DC1C45C92FF41D2845054" overflow="visible">
            <path d="M 0 0m 3.0410156 -0.087890625 q -1.190918 0 -1.8391113 0.6262207 q -0.64819336 0.6262207 -0.64819336 1.7995605 q 0 1.1425781 0.5493164 1.7753906 q 0.5493164 0.6328125 1.5512695 0.6328125 q 0.9448242 0 1.4611816 -0.57128906 q 0.5163574 -0.57128906 0.5163574 -1.6611328 q 0 -0.32080078 -0.026367188 -0.59765625 h -3.1464844 q 0.123046875 -0.58447266 0.55371094 -0.88549805 q 0.43066406 -0.3010254 1.1337891 -0.3010254 q 0.29003906 0 0.57128906 0.032958984 q 0.28125 0.032958984 0.57128906 0.09008789 l 0.11425781 -0.8173828 q -0.41308594 -0.07910156 -0.7558594 -0.10107422 q -0.34277344 -0.021972656 -0.6064453 -0.021972656 Z m -1.6171875 2.7158203 h 2.3642578 q 0 0.62841797 -0.29882813 0.9645996 q -0.29882813 0.33618164 -0.8261719 0.33618164 q -0.54052734 0 -0.8613281 -0.3383789 q -0.32080078 -0.3383789 -0.3779297 -0.96240234 Z "/>
        </symbol>
        <symbol id="g9E80DE21BD69AE0F43672228C9C283DA" overflow="visible">
            <path d="M 0 0m 2.3203125 2.0039063 v -1.1865234 h 1.1425781 v -0.8173828 h -3.1113281 v 0.8173828 h 1.0371094 v 3.0234375 h -0.8613281 v 0.8173828 h 1.6171875 l 0.15820313 -1.1953125 h 0.10546875 q 0.07910156 1.2832031 1.2832031 1.2832031 q 0.7207031 0 1.0458984 -0.41308594 q 0.3251953 -0.41308594 0.3251953 -1.3359375 h -0.92285156 q 0 0.5097656 -0.15161133 0.7338867 q -0.15161133 0.2241211 -0.48999023 0.2241211 q -0.5932617 0 -0.88549805 -0.50756836 q -0.29223633 -0.50756836 -0.29223633 -1.4436035 Z "/>
        </symbol>
        <symbol id="gEC986AFAB9E32C0D2437A7CB9AAFE836" overflow="visible">
            <path d="M 0 0m 4.6757813 14.545898 q 1.0722656 -0.0087890625 1.828125 -0.76464844 q 0.7558594 -0.7558594 0.76464844 -1.828125 q -0.0087890625 -1.0722656 -0.76464844 -1.828125 q -0.7558594 -0.7558594 -1.828125 -0.76464844 q -1.0722656 0.0087890625 -1.8369141 0.76464844 q -0.76464844 0.7558594 -0.76464844 1.828125 q 0 1.0722656 0.76464844 1.828125 q 0.76464844 0.7558594 1.8369141 0.76464844 Z m 11.935547 0 q 1.0722656 -0.0087890625 1.8369141 -0.76464844 q 0.76464844 -0.7558594 0.76464844 -1.828125 q 0 -1.0722656 -0.76464844 -1.828125 q -0.76464844 -0.7558594 -1.8369141 -0.76464844 q -1.0722656 0.0087890625 -1.828125 0.76464844 q -0.7558594 0.7558594 -0.76464844 1.828125 q 0.0087890625 1.0722656 0.76464844 1.828125 q 0.7558594 0.7558594 1.828125 0.76464844 Z m -16.611328 -9.694336 q 0 1.4238281 1.0195313 2.4433594 q 1.0195313 1.0195313 2.4433594 1.0195313 h 1.3886719 q 0.7734375 0 1.4414063 -0.3076172 q -0.061523438 -0.33398438 -0.061523438 -0.7294922 q 0.0087890625 -0.9140625 0.3779297 -1.7226563 q 0.36914063 -0.80859375 1.0283203 -1.3886719 h -0.017578125 h -6.9257813 q -0.27246094 0 -0.48339844 0.20214844 q -0.2109375 0.20214844 -0.2109375 0.48339844 Z m 13.1484375 -0.6855469 h -0.017578125 q 0.66796875 0.5800781 1.0371094 1.3886719 q 0.36914063 0.80859375 0.36914063 1.7226563 q 0 0.31640625 -0.061523438 0.7294922 q 0.66796875 0.3076172 1.4414063 0.3076172 h 1.3886719 q 1.4326172 0 2.4521484 -1.0195313 q 1.0195313 -1.0195313 1.0107422 -2.4433594 q 0 -0.29882813 -0.20214844 -0.4921875 q -0.20214844 -0.19335938 -0.4921875 -0.19335938 h -6.9257813 Z m -5.879883 3.1113281 q 0 1.2919922 0.9140625 2.2060547 q 0.9140625 0.9140625 2.2060547 0.9140625 q 1.2832031 0 2.1972656 -0.9140625 q 0.9140625 -0.9140625 0.9140625 -2.2060547 q 0 -1.2832031 -0.9140625 -2.1972656 q -0.9140625 -0.9140625 -2.1972656 -0.9140625 q -1.2919922 0 -2.2060547 0.9140625 q -0.9140625 0.9140625 -0.9140625 2.1972656 Z m -3.1113281 -8.472656 q 0 1.1777344 0.5800781 2.1708984 q 0.5800781 0.99316406 1.5732422 1.5732422 q 0.99316406 0.5800781 2.1708984 0.5800781 h 3.805664 q 1.1777344 0 2.1708984 -0.5800781 q 0.99316406 -0.5800781 1.5732422 -1.5732422 q 0.5800781 -0.99316406 0.5800781 -2.1708984 q 0 -0.36035156 -0.24609375 -0.6152344 q -0.24609375 -0.2548828 -0.6152344 -0.2548828 h -10.731445 q -0.36035156 0 -0.6064453 0.2548828 q -0.24609375 0.2548828 -0.2548828 0.6152344 Z "/>
        </symbol>
        <symbol id="g1FBD1A571A1111CB63B8A5FA2D3BD50A" overflow="visible">
            <path d="M 0 0m 3.6523438 -0.09765625 q -3.2324219 0 -3.2324219 3.5742188 q 0 1.6943359 0.8154297 2.6245117 q 0.8154297 0.9301758 2.2998047 0.9301758 q 0.71777344 0 1.25 -0.22705078 q 0.53222656 -0.22705078 0.7763672 -0.64697266 l -0.72265625 -0.71777344 q -0.21972656 0.33203125 -0.55908203 0.5126953 q -0.33935547 0.18066406 -0.7348633 0.18066406 q -0.9423828 0 -1.5112305 -0.67871094 q -0.56884766 -0.67871094 -0.56884766 -1.9287109 q 0 -2.7246094 2.3535156 -2.7246094 q 0.7080078 0 1.3964844 0.29296875 l 0.22460938 -0.859375 q -0.8496094 -0.33203125 -1.7871094 -0.33203125 Z "/>
        </symbol>
        <symbol id="g71AAF6BF85FDA386AF19D2921EB392D0" overflow="visible">
            <path d="M 0 0m 16.620117 6.758789 q 0 -1.8369141 -1.1074219 -3.383789 q -1.1074219 -1.546875 -3.0234375 -2.4609375 q -1.9160156 -0.90527344 -4.1748047 -0.90527344 q -1.7578125 0 -3.375 0.5800781 q -0.76464844 -0.5625 -1.7666016 -0.99316406 q -1.4589844 -0.62402344 -2.6455078 -0.62402344 q -0.3515625 0 -0.48339844 0.3251953 q -0.13183594 0.31640625 0.11425781 0.5625 l 0.0087890625 0.0087890625 l 0.043945313 0.043945313 q 0.052734375 0.052734375 0.15820313 0.18457031 q 0.21972656 0.27246094 0.4921875 0.703125 q 0.6152344 1.0107422 0.69433594 2.0390625 q -1.546875 1.7578125 -1.546875 3.9199219 q 0 1.8369141 1.1074219 3.383789 q 1.1074219 1.546875 3.0234375 2.4609375 q 1.9160156 0.90527344 4.1748047 0.90527344 q 2.258789 0 4.1748047 -0.90527344 q 1.9160156 -0.9140625 3.0234375 -2.4609375 q 1.1074219 -1.546875 1.1074219 -3.383789 Z "/>
        </symbol>
        <symbol id="g7C94E26D468BD2DDE691CC9D9784DF6" overflow="visible">
            <path d="M 0 0m 2.9980469 -0.09765625 q -1.1230469 0 -1.7382813 0.53466797 q -0.6152344 0.53466797 -0.6152344 1.5063477 h 1.0449219 q 0 -0.5419922 0.34179688 -0.84228516 q 0.34179688 -0.30029297 0.9765625 -0.30029297 q 0.625 0 0.9667969 0.37597656 q 0.34179688 0.37597656 0.34179688 1.0595703 q 0 0.6689453 -0.37109375 1.0375977 q -0.37109375 0.36865234 -1.0546875 0.36865234 q -0.68359375 0 -1.2792969 -0.32226563 h -0.546875 l 0.09765625 3.6132813 h 3.7402344 v -0.9082031 h -2.7246094 l -0.053710938 -1.6796875 q 0.2783203 0.10253906 0.5541992 0.13916016 q 0.2758789 0.036621094 0.5541992 0.036621094 q 1.0058594 0 1.5576172 -0.5957031 q 0.5517578 -0.5957031 0.5517578 -1.6894531 q 0 -1.1132813 -0.61279297 -1.7236328 q -0.61279297 -0.61035156 -1.730957 -0.61035156 Z "/>
        </symbol>
        <symbol id="g496D52F1239A202D2084B655D124B477" overflow="visible">
            <path d="M 0 0m 3.084961 -0.087890625 q -1.190918 0 -1.8391113 0.6262207 q -0.64819336 0.6262207 -0.64819336 1.7995605 q 0 1.1425781 0.6130371 1.7753906 q 0.6130371 0.6328125 1.7512207 0.6328125 q 0.68115234 0 1.166748 -0.25268555 q 0.4855957 -0.25268555 0.6921387 -0.7141113 l -0.7163086 -0.54052734 q -0.1977539 0.32080078 -0.5053711 0.49658203 q -0.3076172 0.17578125 -0.6723633 0.17578125 q -0.6591797 0 -1.0239258 -0.39770508 q -0.3647461 -0.39770508 -0.3647461 -1.1315918 q 0 -0.79541016 0.4284668 -1.2150879 q 0.4284668 -0.41967773 1.223877 -0.41967773 q 0.3251953 0 0.6503906 0.030761719 q 0.3251953 0.030761719 0.6328125 0.083496094 l 0.10546875 -0.8173828 q -0.36035156 -0.07910156 -0.74487305 -0.10546875 q -0.38452148 -0.026367188 -0.7492676 -0.026367188 Z "/>
        </symbol>
        <symbol id="gE2E584E44E1451AAC32324807229E6E0" overflow="visible">
            <path d="M 0 0m 2.6367188 -0.087890625 q -0.9667969 0 -1.5029297 0.6328125 q -0.5361328 0.6328125 -0.5361328 1.7841797 q 0 1.1557617 0.5361328 1.786377 q 0.5361328 0.63061523 1.5029297 0.63061523 q 0.9711914 0 1.505127 -0.63061523 q 0.53393555 -0.63061523 0.53393555 -1.786377 q 0 -1.1513672 -0.53393555 -1.7841797 q -0.53393555 -0.6328125 -1.505127 -0.6328125 Z m 0 0.83496094 q 0.51416016 0 0.7932129 0.41308594 q 0.27905273 0.41308594 0.27905273 1.1689453 q 0 0.7602539 -0.27905273 1.1711426 q -0.27905273 0.41088867 -0.7932129 0.41088867 q -0.51416016 0 -0.7932129 -0.41088867 q -0.27905273 -0.41088867 -0.27905273 -1.1711426 q 0 -0.7558594 0.27905273 -1.1689453 q 0.27905273 -0.41308594 0.7932129 -0.41308594 Z "/>
        </symbol>
        <symbol id="gA39DDCD4187DBD6B5EAE81FA2C92DAE0" overflow="visible">
            <path d="M 0 0m 3.8496094 0 v 3.5595703 q 0 0.48339844 -0.36035156 0.48339844 q -0.45703125 0 -0.45703125 -0.6328125 v -3.4101563 h -0.7910156 v 3.647461 q 0 0.3955078 -0.36914063 0.3955078 q -0.4482422 0 -0.4482422 -0.6328125 v -3.4101563 h -0.9316406 v 4.658203 h 0.8261719 l 0.061523438 -0.5800781 h 0.0703125 q 0.052734375 0.66796875 0.7998047 0.66796875 q 0.2944336 0 0.48999023 -0.16699219 q 0.19555664 -0.16699219 0.2614746 -0.50097656 h 0.07470703 q 0.021972656 0.27246094 0.2175293 0.47021484 q 0.19555664 0.1977539 0.56469727 0.1977539 q 0.48339844 0 0.703125 -0.25927734 q 0.21972656 -0.25927734 0.21972656 -0.83935547 v -3.647461 h -0.9316406 Z "/>
        </symbol>
        <symbol id="g633FB8EB4E92D6FD3B927F14FC393029" overflow="visible">
            <path d="M 0 0m 3.6035156 0 v 3.0322266 q 0 0.421875 -0.21972656 0.6503906 q -0.21972656 0.22851563 -0.6152344 0.22851563 q -1.0986328 0 -1.0986328 -1.2919922 v -2.6191406 h -0.9316406 v 4.658203 h 0.84375 l 0.07470703 -0.84375 h 0.10107422 q 0.07910156 0.9316406 1.2304688 0.9316406 q 0.73828125 0 1.1425781 -0.4482422 q 0.40429688 -0.4482422 0.40429688 -1.265625 v -3.0322266 h -0.9316406 Z "/>
        </symbol>
        <symbol id="gC979954D9EBF87A71FAD624AF61A34DA" overflow="visible">
            <path d="M 0 0m 3.4804688 -0.087890625 q -1.059082 0 -1.5314941 0.43945313 q -0.4724121 0.43945313 -0.4724121 1.40625 v 2.0830078 h -1.1689453 v 0.8173828 h 1.1689453 v 1.40625 h 0.9316406 v -1.40625 h 2.118164 v -0.8173828 h -2.118164 v -2.0390625 q 0 -0.55371094 0.27026367 -0.8041992 q 0.27026367 -0.25048828 0.8898926 -0.25048828 q 0.21972656 0 0.4658203 0.024169922 q 0.24609375 0.024169922 0.5625 0.0637207 l 0.10546875 -0.8173828 q -0.3076172 -0.052734375 -0.5998535 -0.07910156 q -0.29223633 -0.026367188 -0.6218262 -0.026367188 Z "/>
        </symbol>
        <symbol id="g12F617AD131ED2146973E2F538EF9587" overflow="visible">
            <path d="M 0 0m 2.8652344 4.517578 h -0.0087890625 q -0.017578125 -0.017578125 -0.052734375 -0.087890625 q -0.03515625 -0.0703125 -0.052734375 -0.10546875 q -0.03515625 -0.061523438 -0.2548828 -0.43945313 q 0.8261719 0.21972656 1.6259766 0.5888672 q 0.22851563 0.10546875 0.40429688 0.19335938 q 0.4482422 0.22851563 0.99316406 0.13183594 q 0.6328125 -0.11425781 1.2304688 -0.11425781 q 1.1425781 0 2.1269531 0.36035156 q 0.984375 0.36035156 1.6523438 0.94921875 q 0.66796875 0.59765625 1.0371094 1.3359375 q 0.3779297 0.73828125 0.3779297 1.5117188 q 0 0.7734375 -0.3779297 1.5117188 q -0.36914063 0.73828125 -1.0371094 1.3359375 q -0.66796875 0.5800781 -1.6523438 0.9404297 q -0.984375 0.36035156 -2.1269531 0.36035156 q -1.1425781 0 -2.1269531 -0.36035156 q -0.984375 -0.36035156 -1.6523438 -0.9404297 q -0.66796875 -0.5800781 -1.0371094 -1.3359375 q -0.3779297 -0.73828125 -0.3779297 -1.5117188 q 0 -1.3974609 1.0634766 -2.5136719 q 0.3515625 -0.36035156 0.421875 -0.8613281 q 0.0703125 -0.50097656 -0.17578125 -0.94921875 Z m -2.8652344 4.3242188 q 0 1.1601563 0.5361328 2.2148438 q 0.5361328 1.0546875 1.4326172 1.828125 q 0.8964844 0.7558594 2.1621094 1.2128906 q 1.2480469 0.45703125 2.6191406 0.4482422 q 1.3710938 0.0087890625 2.6191406 -0.4482422 q 1.2480469 -0.45703125 2.1621094 -1.2128906 q 0.8964844 -0.7558594 1.4326172 -1.828125 q 0.5361328 -1.0546875 0.5361328 -2.2148438 q 0 -1.546875 -0.90527344 -2.8652344 q -0.90527344 -1.3183594 -2.4521484 -2.0830078 q -1.546875 -0.76464844 -3.3925781 -0.76464844 q -0.8173828 0 -1.5292969 0.140625 q -0.052734375 -0.03515625 -0.2109375 -0.10546875 q -0.15820313 -0.0703125 -0.24609375 -0.11425781 q -2.100586 -0.9580078 -3.9814453 -0.9580078 q -0.23730469 0 -0.43066406 0.123046875 q -0.19335938 0.123046875 -0.29003906 0.34277344 q -0.07910156 0.2109375 -0.043945313 0.43945313 q 0.03515625 0.22851563 0.19335938 0.40429688 q 0.62402344 0.6855469 1.1865234 1.6875 q 0.0087890625 0.026367188 0.043945313 0.07910156 q 0.03515625 0.052734375 0.043945313 0.087890625 q -1.4853516 1.5732422 -1.4853516 3.5859375 Z m 14.018555 -9.870117 q -1.9599609 -0.0087890625 -3.5947266 0.8701172 q -1.6347656 0.87890625 -2.4697266 2.3291016 q 0.8261719 0.11425781 1.6259766 0.38671875 q 0.6855469 -0.9140625 1.8457031 -1.4677734 q 1.1601563 -0.55371094 2.5927734 -0.55371094 q 0.6503906 0 1.2216797 0.11425781 q 0.5361328 0.09667969 1.0019531 -0.140625 q 0.17578125 -0.087890625 0.40429688 -0.19335938 q 0.76464844 -0.3515625 1.6171875 -0.5800781 q -0.21972656 0.3779297 -0.2548828 0.43945313 q -0.017578125 0.03515625 -0.052734375 0.09667969 q -0.03515625 0.061523438 -0.052734375 0.09667969 q -0.23730469 0.43945313 -0.16699219 0.94921875 q 0.0703125 0.5097656 0.41308594 0.8613281 q 1.0634766 1.1074219 1.0634766 2.5048828 q 0 0.7294922 -0.33398438 1.4326172 q -0.33398438 0.703125 -0.9316406 1.2832031 q -0.59765625 0.5625 -1.4941406 0.94921875 q -0.8964844 0.38671875 -1.9160156 0.4658203 v 0.026367188 q 0 0.7910156 -0.20214844 1.546875 q 1.3095703 -0.052734375 2.5048828 -0.52734375 q 1.1953125 -0.47460938 2.0566406 -1.2304688 q 0.8613281 -0.7558594 1.3710938 -1.7841797 q 0.5097656 -1.0283203 0.50097656 -2.1621094 q 0 -2.0039063 -1.4941406 -3.5859375 q 0.0087890625 -0.026367188 0.043945313 -0.07910156 q 0.03515625 -0.052734375 0.052734375 -0.087890625 q 0.5361328 -0.9667969 1.1865234 -1.6875 q 0.16699219 -0.17578125 0.20214844 -0.40429688 q 0.03515625 -0.22851563 -0.052734375 -0.43945313 q -0.087890625 -0.2109375 -0.29003906 -0.33398438 q -0.20214844 -0.123046875 -0.43066406 -0.13183594 q -1.8544922 0 -3.9814453 0.9667969 q -0.087890625 0.043945313 -0.24609375 0.11425781 q -0.15820313 0.0703125 -0.2109375 0.10546875 q -0.76464844 -0.14941406 -1.5292969 -0.14941406 Z "/>
        </symbol>
        <symbol id="g9B8CCCE7453B23FFC32D1DF0D86C4AF2" overflow="visible">
            <path d="M 0 0m 0.78125 0 v 6.9335938 h 4.5898438 v -0.9277344 h -3.5742188 v -2.0703125 h 2.6953125 v -0.9277344 h -2.6953125 v -2.0800781 h 3.5742188 v -0.9277344 h -4.5898438 Z "/>
        </symbol>
        <symbol id="g422C6BA5ED3475D5D6F39DF42147DC9D" overflow="visible">
            <path d="M 0 0m 2.96875 -0.09765625 q -1.2060547 0 -1.7749023 0.60058594 q -0.56884766 0.60058594 -0.56884766 1.8701172 v 0.4296875 q 0 1.9873047 1.0083008 3.022461 q 1.0083008 1.0351563 3.0737305 1.1376953 l 0.09765625 -0.9277344 q -3.0908203 -0.13183594 -3.0957031 -2.7734375 h 0.087890625 q 0.14648438 0.5419922 0.5834961 0.83740234 q 0.43701172 0.29541016 1.0668945 0.29541016 q 0.9082031 0 1.4013672 -0.56152344 q 0.49316406 -0.56152344 0.49316406 -1.5869141 q 0 -1.1035156 -0.6274414 -1.7236328 q -0.6274414 -0.6201172 -1.7456055 -0.6201172 Z m 0.034179688 0.8984375 q 0.6201172 0 0.9667969 0.38330078 q 0.3466797 0.38330078 0.3466797 1.0620117 q 0 0.60058594 -0.31982422 0.92529297 q -0.31982422 0.32470703 -0.91552734 0.32470703 q -0.67871094 0 -1.0449219 -0.3515625 q -0.36621094 -0.3515625 -0.36621094 -0.99609375 q 0 -0.6347656 0.3515625 -0.99121094 q 0.3515625 -0.3564453 0.9814453 -0.3564453 Z "/>
        </symbol>
        <symbol id="gA3BA24417F12DDA6615E9E3FE7B0F904" overflow="visible">
            <path d="M 0 0m 2.0742188 10.916016 q -0.2109375 0 -0.36914063 -0.15820313 q -0.15820313 -0.15820313 -0.14941406 -0.36035156 v -0.7207031 l 5.598633 -4.5966797 q 0.5097656 -0.41308594 1.1601563 -0.41308594 q 0.6503906 0 1.1513672 0.41308594 l 5.5898438 4.5966797 v 0.7207031 q 0.0087890625 0.20214844 -0.14941406 0.36035156 q -0.15820313 0.15820313 -0.36914063 0.15820313 h -12.462891 Z m -0.5185547 -3.2519531 v -5.5722656 q -0.0087890625 -0.2109375 0.14941406 -0.36914063 q 0.15820313 -0.15820313 0.36914063 -0.15820313 h 12.462891 q 0.2109375 0 0.36914063 0.15820313 q 0.15820313 0.15820313 0.14941406 0.36914063 v 5.5722656 l -4.6054688 -3.788086 q -0.9404297 -0.76464844 -2.1445313 -0.76464844 q -1.2041016 0 -2.1357422 0.76464844 l -4.614258 3.788086 Z m -1.5556641 2.7333984 q 0 0.85253906 0.6064453 1.4677734 q 0.6064453 0.6152344 1.4677734 0.6064453 h 12.462891 q 0.8613281 0.0087890625 1.4677734 -0.6064453 q 0.6064453 -0.6152344 0.6064453 -1.4677734 v -8.305664 q 0 -0.8613281 -0.6152344 -1.4765625 q -0.6152344 -0.6152344 -1.4589844 -0.6064453 h -12.462891 q -0.84375 -0.0087890625 -1.4589844 0.6064453 q -0.6152344 0.6152344 -0.6152344 1.4765625 v 8.305664 Z "/>
        </symbol>
        <symbol id="g16670A415BDD64F982FA08D7572630E0" overflow="visible">
            <path d="M 0 0m 2.5097656 -0.09765625 q -0.5371094 0 -0.9838867 0.06347656 q -0.44677734 0.06347656 -0.79345703 0.17089844 l 0.12207031 0.9326172 q 0.29785156 -0.08300781 0.6713867 -0.17578125 q 0.37353516 -0.09277344 0.9448242 -0.09277344 q 0.76171875 0 1.1816406 0.30273438 q 0.41992188 0.30273438 0.41992188 0.8496094 q 0 0.5859375 -0.5371094 0.9033203 q -0.5371094 0.3173828 -1.5234375 0.3173828 h -0.15625 l -0.1171875 0.6347656 q 1.1523438 0.15625 1.6699219 0.52490234 q 0.5175781 0.36865234 0.5175781 0.9008789 q 0 0.4248047 -0.2758789 0.6616211 q -0.2758789 0.2368164 -0.7885742 0.2368164 q -0.37109375 0 -0.7885742 -0.18554688 q -0.41748047 -0.18554688 -0.7885742 -0.5566406 l -0.6738281 0.6689453 q 0.44921875 0.5078125 1.0400391 0.7397461 q 0.5908203 0.2319336 1.3183594 0.2319336 q 0.9472656 0 1.4648438 -0.40283203 q 0.5175781 -0.40283203 0.5175781 -1.1499023 q 0 -0.625 -0.40039063 -1.0864258 q -0.40039063 -0.46142578 -1.0449219 -0.6323242 v -0.10253906 q 0.71777344 -0.12695313 1.1547852 -0.5883789 q 0.43701172 -0.46142578 0.43701172 -1.2133789 q 0 -0.9277344 -0.67626953 -1.4404297 q -0.67626953 -0.5126953 -1.9116211 -0.5126953 Z "/>
        </symbol>
        <symbol id="g1D6EC232D600E11B8D94326AD8F00DFC" overflow="visible">
            <path d="M 0 0m 2.0170898 0 l -1.6655273 4.658203 h 0.99316406 l 1.2524414 -3.8671875 h 0.07910156 l 1.2524414 3.8671875 h 0.99316406 l -1.6655273 -4.658203 h -1.2392578 Z "/>
        </symbol>
        <symbol id="gA89B28849E570429A74B372C5A555659" overflow="visible">
            <path d="M 0 0m 3.3310547 -0.087890625 q -0.80859375 0 -1.1689453 0.43945313 q -0.36035156 0.43945313 -0.36035156 1.40625 v 4.0166016 h -1.3710938 v 0.8173828 h 2.3027344 v -4.790039 q 0 -0.36914063 0.0703125 -0.6020508 q 0.0703125 -0.23291016 0.2746582 -0.34277344 q 0.2043457 -0.10986328 0.60424805 -0.10986328 q 0.3647461 0 0.9316406 0.16699219 l 0.10546875 -0.8173828 q -0.35595703 -0.09667969 -0.6833496 -0.140625 q -0.32739258 -0.043945313 -0.70532227 -0.043945313 Z "/>
        </symbol>
        <symbol id="g351938A1069D2E5A8826F6B3F6137B12" overflow="visible">
            <path d="M 0 0m 0.73828125 -2.0214844 v 6.6796875 h 0.84375 l 0.07470703 -0.84375 h 0.057128906 q 0.061523438 0.43945313 0.39770508 0.6855469 q 0.33618164 0.24609375 0.8811035 0.24609375 q 0.91845703 0 1.3886719 -0.62402344 q 0.47021484 -0.62402344 0.47021484 -1.8369141 q 0 -1.1689453 -0.47021484 -1.7709961 q -0.47021484 -0.6020508 -1.3886719 -0.6020508 q -0.5361328 0 -0.8635254 0.24609375 q -0.32739258 0.24609375 -0.3713379 0.6855469 h -0.087890625 v -2.8652344 h -0.9316406 Z m 0.9316406 4.192383 q 0 -1.4677734 1.1162109 -1.4677734 q 1.1425781 0 1.1425781 1.5820313 q 0 1.6699219 -1.1425781 1.6699219 q -1.1162109 0 -1.1162109 -1.4677734 v -0.31640625 Z "/>
        </symbol>
        <symbol id="gE75D4E1338128C481B16FB02AD0036D8" overflow="visible">
            <path d="M 0 0m 13.5 7.8046875 q 0 -2.2148438 -1.3007813 -3.9902344 l 4.1132813 -4.095703 q 0.29882813 -0.31640625 0.29882813 -0.7470703 q 0 -0.43066406 -0.29882813 -0.73828125 q -0.29882813 -0.3076172 -0.73828125 -0.3076172 q -0.43945313 0 -0.73828125 0.31640625 l -4.104492 4.1132813 q -1.7753906 -1.3007813 -3.9814453 -1.3007813 q -1.8457031 0 -3.3925781 0.8964844 q -1.546875 0.9140625 -2.4521484 2.4609375 q -0.90527344 1.546875 -0.90527344 3.383789 q 0 1.8369141 0.90527344 3.383789 q 0.90527344 1.546875 2.4521484 2.4609375 q 1.546875 0.9140625 3.3925781 0.9140625 q 1.8457031 0 3.3925781 -0.9140625 q 1.546875 -0.9140625 2.4521484 -2.4609375 q 0.90527344 -1.546875 0.90527344 -3.375 Z m -6.75 -4.6757813 q 1.265625 0 2.3378906 0.62402344 q 1.0722656 0.62402344 1.7050781 1.6962891 q 0.6328125 1.0722656 0.6328125 2.3466797 q 0 1.2744141 -0.6328125 2.3466797 q -0.6328125 1.0722656 -1.7050781 1.7050781 q -1.0722656 0.6328125 -2.3378906 0.6328125 q -1.265625 0 -2.3378906 -0.6328125 q -1.0722656 -0.6328125 -1.7050781 -1.7050781 q -0.6328125 -1.0722656 -0.6328125 -2.3466797 q 0 -1.2744141 0.6328125 -2.3466797 q 0.6328125 -1.0722656 1.7050781 -1.6962891 q 1.0722656 -0.62402344 2.3378906 -0.62402344 Z "/>
        </symbol>
        <symbol id="g3F4290C42B35D82377D668B05AF71CF5" overflow="visible">
            <path d="M 0 0m 0.7421875 0 v 1.1132813 q 1.6064453 0.8886719 2.3999023 1.8481445 q 0.79345703 0.95947266 0.79345703 1.9799805 q 0 1.1914063 -1.1816406 1.1914063 q -0.3955078 0 -0.8251953 -0.22949219 q -0.4296875 -0.22949219 -0.7373047 -0.61035156 l -0.6738281 0.6689453 q 0.33691406 0.48339844 0.95703125 0.7763672 q 0.6201172 0.29296875 1.2988281 0.29296875 q 2.1875 0 2.1875 -2.0898438 q 0 -1.0498047 -0.6665039 -2.0141602 q -0.6665039 -0.96435547 -2.0288086 -1.8530273 v -0.14648438 h 2.9882813 v -0.9277344 h -4.5117188 Z "/>
        </symbol>
        <symbol id="gCC3398A96F9AF8005ADB726061509A1" overflow="visible">
            <path d="M 0 0m 3.5947266 -0.043945313 l -0.043945313 1.0283203 h -0.092285156 q -0.052734375 -0.5361328 -0.45483398 -0.8041992 q -0.4020996 -0.2680664 -1.0524902 -0.2680664 q -0.7294922 0 -1.1293945 0.3515625 q -0.39990234 0.3515625 -0.39990234 0.99316406 q 0 0.73828125 0.5515137 1.1337891 q 0.5515137 0.3955078 1.5578613 0.3955078 q 0.50097656 0 0.87890625 -0.07470703 v 0.21533203 q 0 0.4658203 -0.32739258 0.6833496 q -0.32739258 0.2175293 -0.9733887 0.23510742 l -1.1162109 0.030761719 l 0.087890625 0.8261719 l 0.9404297 -0.013183594 q 1.1557617 -0.017578125 1.7160645 -0.4987793 q 0.56030273 -0.48120117 0.56030273 -1.4040527 v -1.9423828 l 0.7910156 -0.09667969 v -0.7470703 l -1.4941406 -0.043945313 Z m -0.18457031 2.0390625 q -0.2241211 0.03515625 -0.44604492 0.03955078 q -0.22192383 0.0043945313 -0.45043945 0.0043945313 q -1.2128906 0 -1.2128906 -0.73828125 q 0 -0.3076172 0.20874023 -0.47460938 q 0.20874023 -0.16699219 0.59106445 -0.16699219 q 0.4350586 0 0.7272949 0.14941406 q 0.29223633 0.14941406 0.43725586 0.38232422 q 0.14501953 0.23291016 0.14501953 0.4790039 v 0.3251953 Z "/>
        </symbol>
        <symbol id="gBA14514AED833AD8570A169A632C4096" overflow="visible">
            <path d="M 0 0m 3.6035156 0 v 3.0322266 q 0 0.44384766 -0.21972656 0.6833496 q -0.21972656 0.23950195 -0.6152344 0.23950195 q -1.0986328 0 -1.0986328 -1.3359375 v -2.6191406 h -0.9316406 v 6.591797 h 0.9316406 v -2.7773438 h 0.087890625 q 0.07910156 0.9316406 1.2304688 0.9316406 q 0.73828125 0 1.1425781 -0.4482422 q 0.40429688 -0.4482422 0.40429688 -1.265625 v -3.0322266 h -0.9316406 Z "/>
        </symbol>
        <symbol id="gFDB63D991F00510A8088C76B99F8F25" overflow="visible">
            <path d="M 0 0m 7.2685547 14.545898 q 0.43066406 -0.0087890625 0.7294922 -0.3076172 q 0.29882813 -0.29882813 0.3076172 -0.7294922 v -0.62402344 q 1.8017578 -0.36914063 2.9794922 -1.7929688 q 1.1777344 -1.4238281 1.1777344 -3.2958984 v -0.6064453 q 0 -1.1425781 0.40429688 -2.2148438 q 0.40429688 -1.0722656 1.1689453 -1.9248047 l 0.23730469 -0.27246094 q 0.19335938 -0.22851563 0.24609375 -0.52734375 q 0.052734375 -0.29882813 -0.0703125 -0.5888672 q -0.123046875 -0.28125 -0.38671875 -0.4482422 q -0.26367188 -0.16699219 -0.5625 -0.16699219 h -12.462891 q -0.29882813 0 -0.5625 0.16699219 q -0.26367188 0.16699219 -0.38671875 0.4482422 q -0.123046875 0.29003906 -0.0703125 0.5888672 q 0.052734375 0.29882813 0.24609375 0.52734375 l 0.23730469 0.27246094 q 0.76464844 0.85253906 1.1689453 1.9248047 q 0.40429688 1.0722656 0.40429688 2.2148438 v 0.6064453 q 0 1.8720703 1.1777344 3.2958984 q 1.1777344 1.4238281 2.9794922 1.7929688 v 0.62402344 q 0.0087890625 0.43066406 0.3076172 0.7294922 q 0.29882813 0.29882813 0.7294922 0.3076172 Z m 1.4677734 -16.004883 q -0.6064453 -0.6064453 -1.4677734 -0.6064453 q -0.8613281 0 -1.4677734 0.6064453 q -0.6064453 0.6064453 -0.6064453 1.4677734 h 2.0742188 h 2.0742188 q 0 -0.8613281 -0.6064453 -1.4677734 Z "/>
        </symbol>
        <symbol id="g7109ECFC51F91CAEC05C3382AC67B7E" overflow="visible">
            <path d="M 0 0m 1.9643555 -0.087890625 q -0.31640625 0 -0.62402344 0.024169922 q -0.3076172 0.024169922 -0.62402344 0.0637207 v 6.591797 h 0.9316406 v -2.7773438 h 0.087890625 q 0.06591797 0.9316406 1.1425781 0.9316406 q 0.9316406 0 1.4414063 -0.5493164 q 0.5097656 -0.5493164 0.5097656 -1.5600586 q 0 -1.2963867 -0.7492676 -2.010498 q -0.7492676 -0.7141113 -2.1159668 -0.7141113 Z m -0.31640625 2.7070313 v -1.902832 q 0.123046875 -0.0087890625 0.25048828 -0.010986328 q 0.1274414 -0.0021972656 0.25048828 -0.0021972656 q 0.83935547 0 1.298584 0.5053711 q 0.45922852 0.5053711 0.45922852 1.4282227 q 0 0.6328125 -0.27905273 0.97558594 q -0.27905273 0.34277344 -0.7932129 0.34277344 q -1.1865234 0 -1.1865234 -1.3359375 Z "/>
        </symbol>
        <symbol id="g39BC031DAD2AEB65E8928522FCABD6C6" overflow="visible">
            <path d="M 0 0m 5.352539 13.754883 v -0.0087890625 l 1.3007813 -3.1113281 q 0.16699219 -0.38671875 0.061523438 -0.80859375 q -0.10546875 -0.421875 -0.43945313 -0.69433594 l -1.5996094 -1.3095703 q 0.80859375 -1.7138672 2.1533203 -3.0585938 q 1.3447266 -1.3447266 3.0585938 -2.1533203 l 1.3095703 1.5996094 q 0.26367188 0.3251953 0.6855469 0.43066406 q 0.421875 0.10546875 0.8173828 -0.061523438 l 3.1201172 -1.2919922 q 0.45703125 -0.18457031 0.66796875 -0.62402344 q 0.2109375 -0.43945313 0.07910156 -0.9140625 l -0.7734375 -2.8564453 q -0.123046875 -0.421875 -0.47460938 -0.6855469 q -0.3515625 -0.26367188 -0.78222656 -0.27246094 q -1.9863281 -0.0087890625 -3.8671875 0.5185547 q -1.8808594 0.52734375 -3.4716797 1.4589844 q -1.5908203 0.9316406 -2.9355469 2.2851563 q -1.3447266 1.3447266 -2.2763672 2.9355469 q -0.9316406 1.5996094 -1.4589844 3.4804688 q -0.52734375 1.8808594 -0.52734375 3.8583984 q 0 0.43066406 0.26367188 0.78222656 q 0.26367188 0.3515625 0.69433594 0.47460938 l 2.8564453 0.7734375 q 0.47460938 0.13183594 0.9140625 -0.07910156 q 0.43945313 -0.2109375 0.62402344 -0.66796875 Z "/>
        </symbol>
        <symbol id="g47296447A1A4F6F939EEDEFE3ED87D1A" overflow="visible">
            <path d="M 0 0m 2.4609375 2.4707031 q -0.9082031 0 -1.4013672 0.56152344 q -0.49316406 0.56152344 -0.49316406 1.5869141 q 0 1.1083984 0.6274414 1.7260742 q 0.6274414 0.6176758 1.7456055 0.6176758 q 1.2060547 0 1.7749023 -0.60058594 q 0.56884766 -0.60058594 0.56884766 -1.8701172 v -0.4296875 q 0 -1.9824219 -1.0083008 -3.0200195 q -1.0083008 -1.0375977 -3.0737305 -1.1401367 l -0.09765625 0.9277344 q 3.0908203 0.13183594 3.0957031 2.7734375 h -0.087890625 q -0.14648438 -0.5419922 -0.5834961 -0.83740234 q -0.43701172 -0.29541016 -1.0668945 -0.29541016 Z m 0.36621094 0.8984375 q 0.67871094 0 1.0449219 0.3515625 q 0.36621094 0.3515625 0.36621094 0.99609375 q 0 0.6347656 -0.3515625 0.99121094 q -0.3515625 0.3564453 -0.9814453 0.3564453 q -0.6201172 0 -0.9667969 -0.38085938 q -0.3466797 -0.38085938 -0.3466797 -1.0644531 q 0 -0.60058594 0.31982422 -0.92529297 q 0.31982422 -0.32470703 0.91552734 -0.32470703 Z "/>
        </symbol>
    </defs>
</svg>
