<svg class="typst-doc" viewBox="0 0 375.4921875 212.34765625" xmlns="http://www.w3.org/2000/svg" xmlns:xlink="http://www.w3.org/1999/xlink" xmlns:h5="http://www.w3.org/1999/xhtml">
    <path class="typst-shape" fill="#ffffff" fill-rule="nonzero" d="M 0 0v 212.34766 h 375.4922 v -212.34766 Z "/>
    <g>
        <g class="typst-group">
            <g>
                <g class="typst-group" transform="matrix(1 0 0 1 20 20)">
                    <g>
                        <g class="typst-group" transform="matrix(1 0 0 1 5.00390625 0)">
                            <g>
                                <path class="typst-shape" fill="#f6f8fa" fill-rule="nonzero" d="M 0 0m 0 5.6 c 0 -3.0927944 2.5072055 -5.6 5.6 -5.6 h 36.800003 c 3.0927925 0 5.5999985 2.5072055 5.5999985 5.6 v 28.800001 c 0 3.0927925 -2.507206 5.5999985 -5.5999985 5.5999985 h -36.800003 c -3.0927944 0 -5.6 -2.507206 -5.6 -5.5999985 Z "/>
                                <path class="typst-shape" fill="none" stroke="#dae0e7" stroke-width="0.8" stroke-linecap="butt" stroke-linejoin="miter" stroke-miterlimit="4" d="M 0 0m 5.6 0 h 36.800003 c 3.0927925 0 5.5999985 2.5072055 5.5999985 5.6 v 28.800001 c 0 3.0927925 -2.507206 5.5999985 -5.5999985 5.5999985 h -36.800003 c -3.0927944 0 -5.6 -2.507206 -5.6 -5.5999985 v -28.800001 c 0 -3.0927944 2.5072055 -5.6 5.6 -5.6 "/>
                                <g class="typst-text" transform="matrix(1 0 0 -1 18.73095703125 26.240234375)">
                                    <use xlink:href="#gBCB3EE6BE962F52B7D847D281F57FCDD" x="0" y="0" fill="#1f2328" fill-rule="nonzero"/>
                                </g>
                            </g>
                        </g>
                        <g class="typst-group" transform="matrix(1 0 0 1 0 54)">
                            <g>
                                <g class="typst-text" transform="matrix(1 0 0 -1 11.42578125 6.93359375)">
                                    <use xlink:href="#g209ED18C3BFB68A6D12B501470815F67" x="0" y="0" fill="#818b98" fill-rule="nonzero"/>
                                    <use xlink:href="#gD1357359A1C487E32DC23C9A82D51AD" x="5.859375" y="0" fill="#818b98" fill-rule="nonzero"/>
                                    <use xlink:href="#g9B8CCCE7453B23FFC32D1DF0D86C4AF2" x="11.71875" y="0" fill="#818b98" fill-rule="nonzero"/>
                                    <use xlink:href="#gF5DE65ADA377C7521DEE5E492E48E37B" x="17.578125" y="0" fill="#818b98" fill-rule="nonzero"/>
                                    <use xlink:href="#g69C4DC7F7A4415EDA24E242A73FD57D4" x="23.4375" y="0" fill="#818b98" fill-rule="nonzero"/>
                                    <use xlink:href="#gF5DE65ADA377C7521DEE5E492E48E37B" x="29.296875" y="0" fill="#818b98" fill-rule="nonzero"/>
                                </g>
                                <g class="typst-text" transform="matrix(1 0 0 -1 0 18.173828125)">
                                    <use xlink:href="#g9E80DE21BD69AE0F43672228C9C283DA" x="0" y="0" fill="#59636e" fill-rule="nonzero"/>
                                    <use xlink:href="#gC863C15A47F1EE40B91CD46D2F207AF0" x="5.2734375" y="0" fill="#59636e" fill-rule="nonzero"/>
                                    <use xlink:href="#g89539EE537737028186317CBFCF7AA64" x="10.546875" y="0" fill="#59636e" fill-rule="nonzero"/>
                                    <use xlink:href="#gBA14514AED833AD8570A169A632C4096" x="15.8203125" y="0" fill="#59636e" fill-rule="nonzero"/>
                                    <use xlink:href="#gC979954D9EBF87A71FAD624AF61A34DA" x="21.09375" y="0" fill="#59636e" fill-rule="nonzero"/>
                                    <use xlink:href="#g99BDDA39759112029642C3930FB2B2C" x="26.3671875" y="0" fill="#59636e" fill-rule="nonzero"/>
                                    <use xlink:href="#gD1B2E94B5C9985D20B63EC1E24E5C26A" x="31.640625" y="0" fill="#59636e" fill-rule="nonzero"/>
                                    <use xlink:href="#gE2E584E44E1451AAC32324807229E6E0" x="36.9140625" y="0" fill="#59636e" fill-rule="nonzero"/>
                                    <use xlink:href="#gA89B28849E570429A74B372C5A555659" x="42.1875" y="0" fill="#59636e" fill-rule="nonzero"/>
                                    <use xlink:href="#gC863C15A47F1EE40B91CD46D2F207AF0" x="47.4609375" y="0" fill="#59636e" fill-rule="nonzero"/>
                                    <use xlink:href="#gD46CF900D89C3C16A92D33623164D35C" x="52.734375" y="0" fill="#59636e" fill-rule="nonzero"/>
                                </g>
                            </g>
                        </g>
                    </g>
                </g>
                <g class="typst-group" transform="matrix(1 0 0 1 92.0078125 20)">
                    <g>
                        <g class="typst-group" transform="matrix(1 0 0 1 2.3671875 0)">
                            <g>
                                <path class="typst-shape" fill="#f6f8fa" fill-rule="nonzero" d="M 0 0m 0 5.6 c 0 -3.0927944 2.5072055 -5.6 5.6 -5.6 h 36.800003 c 3.0927925 0 5.5999985 2.5072055 5.5999985 5.6 v 28.800001 c 0 3.0927925 -2.507206 5.5999985 -5.5999985 5.5999985 h -36.800003 c -3.0927944 0 -5.6 -2.507206 -5.6 -5.5999985 Z "/>
                                <path class="typst-shape" fill="none" stroke="#dae0e7" stroke-width="0.8" stroke-linecap="butt" stroke-linejoin="miter" stroke-miterlimit="4" d="M 0 0m 5.6 0 h 36.800003 c 3.0927925 0 5.5999985 2.5072055 5.5999985 5.6 v 28.800001 c 0 3.0927925 -2.507206 5.5999985 -5.5999985 5.5999985 h -36.800003 c -3.0927944 0 -5.6 -2.507206 -5.6 -5.5999985 v -28.800001 c 0 -3.0927944 2.5072055 -5.6 5.6 -5.6 "/>
                                <g class="typst-text" transform="matrix(1 0 0 -1 18.73095703125 26.240234375)">
                                    <use xlink:href="#gFCFFDB19CD60F646C784FE3DA8AB3B43" x="0" y="0" fill="#1f2328" fill-rule="nonzero"/>
                                </g>
                            </g>
                        </g>
                        <g class="typst-group" transform="matrix(1 0 0 1 0 54)">
                            <g>
                                <g class="typst-text" transform="matrix(1 0 0 -1 8.7890625 6.93359375)">
                                    <use xlink:href="#g209ED18C3BFB68A6D12B501470815F67" x="0" y="0" fill="#818b98" fill-rule="nonzero"/>
                                    <use xlink:href="#gD1357359A1C487E32DC23C9A82D51AD" x="5.859375" y="0" fill="#818b98" fill-rule="nonzero"/>
                                    <use xlink:href="#g9B8CCCE7453B23FFC32D1DF0D86C4AF2" x="11.71875" y="0" fill="#818b98" fill-rule="nonzero"/>
                                    <use xlink:href="#gF5DE65ADA377C7521DEE5E492E48E37B" x="17.578125" y="0" fill="#818b98" fill-rule="nonzero"/>
                                    <use xlink:href="#g69C4DC7F7A4415EDA24E242A73FD57D4" x="23.4375" y="0" fill="#818b98" fill-rule="nonzero"/>
                                    <use xlink:href="#g1AD09EA4C75BF40681D1D0C3768664BE" x="29.296875" y="0" fill="#818b98" fill-rule="nonzero"/>
                                </g>
                                <g class="typst-text" transform="matrix(1 0 0 -1 0 18.173828125)">
                                    <use xlink:href="#g9E80DE21BD69AE0F43672228C9C283DA" x="0" y="0" fill="#59636e" fill-rule="nonzero"/>
                                    <use xlink:href="#gC863C15A47F1EE40B91CD46D2F207AF0" x="5.2734375" y="0" fill="#59636e" fill-rule="nonzero"/>
                                    <use xlink:href="#g89539EE537737028186317CBFCF7AA64" x="10.546875" y="0" fill="#59636e" fill-rule="nonzero"/>
                                    <use xlink:href="#gBA14514AED833AD8570A169A632C4096" x="15.8203125" y="0" fill="#59636e" fill-rule="nonzero"/>
                                    <use xlink:href="#gC979954D9EBF87A71FAD624AF61A34DA" x="21.09375" y="0" fill="#59636e" fill-rule="nonzero"/>
                                    <use xlink:href="#g99BDDA39759112029642C3930FB2B2C" x="26.3671875" y="0" fill="#59636e" fill-rule="nonzero"/>
                                    <use xlink:href="#gA89B28849E570429A74B372C5A555659" x="31.640625" y="0" fill="#59636e" fill-rule="nonzero"/>
                                    <use xlink:href="#gC863C15A47F1EE40B91CD46D2F207AF0" x="36.9140625" y="0" fill="#59636e" fill-rule="nonzero"/>
                                    <use xlink:href="#g633FB8EB4E92D6FD3B927F14FC393029" x="42.1875" y="0" fill="#59636e" fill-rule="nonzero"/>
                                    <use xlink:href="#gEFAEEDD6907DC1C45C92FF41D2845054" x="47.4609375" y="0" fill="#59636e" fill-rule="nonzero"/>
                                </g>
                            </g>
                        </g>
                    </g>
                </g>
                <g class="typst-group" transform="matrix(1 0 0 1 158.7421875 20)">
                    <g>
                        <g class="typst-group" transform="matrix(1 0 0 1 2.3671875 0)">
                            <g>
                                <path class="typst-shape" fill="#f6f8fa" fill-rule="nonzero" d="M 0 0m 0 5.6 c 0 -3.0927944 2.5072055 -5.6 5.6 -5.6 h 36.800003 c 3.0927925 0 5.5999985 2.5072055 5.5999985 5.6 v 28.800001 c 0 3.0927925 -2.507206 5.5999985 -5.5999985 5.5999985 h -36.800003 c -3.0927944 0 -5.6 -2.507206 -5.6 -5.5999985 Z "/>
                                <path class="typst-shape" fill="none" stroke="#dae0e7" stroke-width="0.8" stroke-linecap="butt" stroke-linejoin="miter" stroke-miterlimit="4" d="M 0 0m 5.6 0 h 36.800003 c 3.0927925 0 5.5999985 2.5072055 5.5999985 5.6 v 28.800001 c 0 3.0927925 -2.507206 5.5999985 -5.5999985 5.5999985 h -36.800003 c -3.0927944 0 -5.6 -2.507206 -5.6 -5.5999985 v -28.800001 c 0 -3.0927944 2.5072055 -5.6 5.6 -5.6 "/>
                                <g class="typst-text" transform="matrix(1 0 0 -1 18.73095703125 26.240234375)">
                                    <use xlink:href="#g435DC34ADADB2EF2CF66B4453C9E9CF9" x="0" y="0" fill="#1f2328" fill-rule="nonzero"/>
                                </g>
                            </g>
                        </g>
                        <g class="typst-group" transform="matrix(1 0 0 1 0 54)">
                            <g>
                                <g class="typst-text" transform="matrix(1 0 0 -1 8.7890625 6.93359375)">
                                    <use xlink:href="#g209ED18C3BFB68A6D12B501470815F67" x="0" y="0" fill="#818b98" fill-rule="nonzero"/>
                                    <use xlink:href="#gD1357359A1C487E32DC23C9A82D51AD" x="5.859375" y="0" fill="#818b98" fill-rule="nonzero"/>
                                    <use xlink:href="#g9B8CCCE7453B23FFC32D1DF0D86C4AF2" x="11.71875" y="0" fill="#818b98" fill-rule="nonzero"/>
                                    <use xlink:href="#gF5DE65ADA377C7521DEE5E492E48E37B" x="17.578125" y="0" fill="#818b98" fill-rule="nonzero"/>
                                    <use xlink:href="#g69C4DC7F7A4415EDA24E242A73FD57D4" x="23.4375" y="0" fill="#818b98" fill-rule="nonzero"/>
                                    <use xlink:href="#g3F4290C42B35D82377D668B05AF71CF5" x="29.296875" y="0" fill="#818b98" fill-rule="nonzero"/>
                                </g>
                                <g class="typst-text" transform="matrix(1 0 0 -1 0 18.173828125)">
                                    <use xlink:href="#gA89B28849E570429A74B372C5A555659" x="0" y="0" fill="#59636e" fill-rule="nonzero"/>
                                    <use xlink:href="#gEFAEEDD6907DC1C45C92FF41D2845054" x="5.2734375" y="0" fill="#59636e" fill-rule="nonzero"/>
                                    <use xlink:href="#gDD8C3EB95CCF01C5EB3828AC0916201E" x="10.546875" y="0" fill="#59636e" fill-rule="nonzero"/>
                                    <use xlink:href="#gC979954D9EBF87A71FAD624AF61A34DA" x="15.8203125" y="0" fill="#59636e" fill-rule="nonzero"/>
                                    <use xlink:href="#g99BDDA39759112029642C3930FB2B2C" x="21.09375" y="0" fill="#59636e" fill-rule="nonzero"/>
                                    <use xlink:href="#gD1B2E94B5C9985D20B63EC1E24E5C26A" x="26.3671875" y="0" fill="#59636e" fill-rule="nonzero"/>
                                    <use xlink:href="#gE2E584E44E1451AAC32324807229E6E0" x="31.640625" y="0" fill="#59636e" fill-rule="nonzero"/>
                                    <use xlink:href="#gA89B28849E570429A74B372C5A555659" x="36.9140625" y="0" fill="#59636e" fill-rule="nonzero"/>
                                    <use xlink:href="#gC863C15A47F1EE40B91CD46D2F207AF0" x="42.1875" y="0" fill="#59636e" fill-rule="nonzero"/>
                                    <use xlink:href="#gD46CF900D89C3C16A92D33623164D35C" x="47.4609375" y="0" fill="#59636e" fill-rule="nonzero"/>
                                </g>
                            </g>
                        </g>
                    </g>
                </g>
                <g class="typst-group" transform="matrix(1 0 0 1 225.4765625 20)">
                    <g>
                        <g class="typst-group" transform="matrix(1 0 0 1 5.00390625 0)">
                            <g>
                                <path class="typst-shape" fill="#f6f8fa" fill-rule="nonzero" d="M 0 0m 0 5.6 c 0 -3.0927944 2.5072055 -5.6 5.6 -5.6 h 36.800003 c 3.0927925 0 5.5999985 2.5072055 5.5999985 5.6 v 28.800001 c 0 3.0927925 -2.507206 5.5999985 -5.5999985 5.5999985 h -36.800003 c -3.0927944 0 -5.6 -2.507206 -5.6 -5.5999985 Z "/>
                                <path class="typst-shape" fill="none" stroke="#dae0e7" stroke-width="0.8" stroke-linecap="butt" stroke-linejoin="miter" stroke-miterlimit="4" d="M 0 0m 5.6 0 h 36.800003 c 3.0927925 0 5.5999985 2.5072055 5.5999985 5.6 v 28.800001 c 0 3.0927925 -2.507206 5.5999985 -5.5999985 5.5999985 h -36.800003 c -3.0927944 0 -5.6 -2.507206 -5.6 -5.5999985 v -28.800001 c 0 -3.0927944 2.5072055 -5.6 5.6 -5.6 "/>
                                <g class="typst-text" transform="matrix(1 0 0 -1 18.73095703125 26.240234375)">
                                    <use xlink:href="#g6C18D033884C50A8BC68989901E20A12" x="0" y="0" fill="#1f2328" fill-rule="nonzero"/>
                                </g>
                            </g>
                        </g>
                        <g class="typst-group" transform="matrix(1 0 0 1 0 54)">
                            <g>
                                <g class="typst-text" transform="matrix(1 0 0 -1 11.42578125 6.93359375)">
                                    <use xlink:href="#g209ED18C3BFB68A6D12B501470815F67" x="0" y="0" fill="#818b98" fill-rule="nonzero"/>
                                    <use xlink:href="#gD1357359A1C487E32DC23C9A82D51AD" x="5.859375" y="0" fill="#818b98" fill-rule="nonzero"/>
                                    <use xlink:href="#g9B8CCCE7453B23FFC32D1DF0D86C4AF2" x="11.71875" y="0" fill="#818b98" fill-rule="nonzero"/>
                                    <use xlink:href="#gF5DE65ADA377C7521DEE5E492E48E37B" x="17.578125" y="0" fill="#818b98" fill-rule="nonzero"/>
                                    <use xlink:href="#g69C4DC7F7A4415EDA24E242A73FD57D4" x="23.4375" y="0" fill="#818b98" fill-rule="nonzero"/>
                                    <use xlink:href="#g16670A415BDD64F982FA08D7572630E0" x="29.296875" y="0" fill="#818b98" fill-rule="nonzero"/>
                                </g>
                                <g class="typst-text" transform="matrix(1 0 0 -1 5.2734375 18.173828125)">
                                    <use xlink:href="#gA89B28849E570429A74B372C5A555659" x="0" y="0" fill="#59636e" fill-rule="nonzero"/>
                                    <use xlink:href="#gEFAEEDD6907DC1C45C92FF41D2845054" x="5.2734375" y="0" fill="#59636e" fill-rule="nonzero"/>
                                    <use xlink:href="#gDD8C3EB95CCF01C5EB3828AC0916201E" x="10.546875" y="0" fill="#59636e" fill-rule="nonzero"/>
                                    <use xlink:href="#gC979954D9EBF87A71FAD624AF61A34DA" x="15.8203125" y="0" fill="#59636e" fill-rule="nonzero"/>
                                    <use xlink:href="#g99BDDA39759112029642C3930FB2B2C" x="21.09375" y="0" fill="#59636e" fill-rule="nonzero"/>
                                    <use xlink:href="#gA89B28849E570429A74B372C5A555659" x="26.3671875" y="0" fill="#59636e" fill-rule="nonzero"/>
                                    <use xlink:href="#gC863C15A47F1EE40B91CD46D2F207AF0" x="31.640625" y="0" fill="#59636e" fill-rule="nonzero"/>
                                    <use xlink:href="#g633FB8EB4E92D6FD3B927F14FC393029" x="36.9140625" y="0" fill="#59636e" fill-rule="nonzero"/>
                                    <use xlink:href="#gEFAEEDD6907DC1C45C92FF41D2845054" x="42.1875" y="0" fill="#59636e" fill-rule="nonzero"/>
                                </g>
                            </g>
                        </g>
                    </g>
                </g>
                <g class="typst-group" transform="matrix(1 0 0 1 297.484375 20)">
                    <g>
                        <g class="typst-group" transform="matrix(1 0 0 1 5.00390625 0)">
                            <g>
                                <path class="typst-shape" fill="#f6f8fa" fill-rule="nonzero" d="M 0 0m 0 5.6 c 0 -3.0927944 2.5072055 -5.6 5.6 -5.6 h 36.800003 c 3.0927925 0 5.5999985 2.5072055 5.5999985 5.6 v 28.800001 c 0 3.0927925 -2.507206 5.5999985 -5.5999985 5.5999985 h -36.800003 c -3.0927944 0 -5.6 -2.507206 -5.6 -5.5999985 Z "/>
                                <path class="typst-shape" fill="none" stroke="#dae0e7" stroke-width="0.8" stroke-linecap="butt" stroke-linejoin="miter" stroke-miterlimit="4" d="M 0 0m 5.6 0 h 36.800003 c 3.0927925 0 5.5999985 2.5072055 5.5999985 5.6 v 28.800001 c 0 3.0927925 -2.507206 5.5999985 -5.5999985 5.5999985 h -36.800003 c -3.0927944 0 -5.6 -2.507206 -5.6 -5.5999985 v -28.800001 c 0 -3.0927944 2.5072055 -5.6 5.6 -5.6 "/>
                                <g class="typst-text" transform="matrix(1 0 0 -1 19.8603515625 26.240234375)">
                                    <use xlink:href="#g552994DF83EDF3F22FD6AEF8BA3C0ED8" x="0" y="0" fill="#1f2328" fill-rule="nonzero"/>
                                </g>
                            </g>
                        </g>
                        <g class="typst-group" transform="matrix(1 0 0 1 0 54)">
                            <g>
                                <g class="typst-text" transform="matrix(1 0 0 -1 11.42578125 6.93359375)">
                                    <use xlink:href="#g209ED18C3BFB68A6D12B501470815F67" x="0" y="0" fill="#818b98" fill-rule="nonzero"/>
                                    <use xlink:href="#gD1357359A1C487E32DC23C9A82D51AD" x="5.859375" y="0" fill="#818b98" fill-rule="nonzero"/>
                                    <use xlink:href="#g9B8CCCE7453B23FFC32D1DF0D86C4AF2" x="11.71875" y="0" fill="#818b98" fill-rule="nonzero"/>
                                    <use xlink:href="#gF5DE65ADA377C7521DEE5E492E48E37B" x="17.578125" y="0" fill="#818b98" fill-rule="nonzero"/>
                                    <use xlink:href="#g648D12E96EC46A0D10AC291024C52032" x="23.4375" y="0" fill="#818b98" fill-rule="nonzero"/>
                                    <use xlink:href="#gF5DE65ADA377C7521DEE5E492E48E37B" x="29.296875" y="0" fill="#818b98" fill-rule="nonzero"/>
                                </g>
                                <g class="typst-text" transform="matrix(1 0 0 -1 13.18359375 18.173828125)">
                                    <use xlink:href="#g7109ECFC51F91CAEC05C3382AC67B7E" x="0" y="0" fill="#59636e" fill-rule="nonzero"/>
                                    <use xlink:href="#g9E80DE21BD69AE0F43672228C9C283DA" x="5.2734375" y="0" fill="#59636e" fill-rule="nonzero"/>
                                    <use xlink:href="#gCC3398A96F9AF8005ADB726061509A1" x="10.546875" y="0" fill="#59636e" fill-rule="nonzero"/>
                                    <use xlink:href="#g633FB8EB4E92D6FD3B927F14FC393029" x="15.8203125" y="0" fill="#59636e" fill-rule="nonzero"/>
                                    <use xlink:href="#g496D52F1239A202D2084B655D124B477" x="21.09375" y="0" fill="#59636e" fill-rule="nonzero"/>
                                    <use xlink:href="#gBA14514AED833AD8570A169A632C4096" x="26.3671875" y="0" fill="#59636e" fill-rule="nonzero"/>
                                </g>
                            </g>
                        </g>
                    </g>
                </g>
                <g class="typst-group">
                    <g>
                        <g class="typst-group" transform="matrix(1 0 0 1 20 120.173828125)">
                            <g>
                                <g class="typst-group" transform="matrix(1 0 0 1 5.00390625 0)">
                                    <g>
                                        <path class="typst-shape" fill="#f6f8fa" fill-rule="nonzero" d="M 0 0m 0 5.6 c 0 -3.0927944 2.5072055 -5.6 5.6 -5.6 h 36.800003 c 3.0927925 0 5.5999985 2.5072055 5.5999985 5.6 v 28.800001 c 0 3.0927925 -2.507206 5.5999985 -5.5999985 5.5999985 h -36.800003 c -3.0927944 0 -5.6 -2.507206 -5.6 -5.5999985 Z "/>
                                        <path class="typst-shape" fill="none" stroke="#dae0e7" stroke-width="0.8" stroke-linecap="butt" stroke-linejoin="miter" stroke-miterlimit="4" d="M 0 0m 5.6 0 h 36.800003 c 3.0927925 0 5.5999985 2.5072055 5.5999985 5.6 v 28.800001 c 0 3.0927925 -2.507206 5.5999985 -5.5999985 5.5999985 h -36.800003 c -3.0927944 0 -5.6 -2.507206 -5.6 -5.5999985 v -28.800001 c 0 -3.0927944 2.5072055 -5.6 5.6 -5.6 "/>
                                        <g class="typst-text" transform="matrix(1 0 0 -1 20.43603515625 26.240234375)">
                                            <use xlink:href="#g1C16D22C02FBFA2C83A582DA1423A833" x="0" y="0" fill="#1f2328" fill-rule="nonzero"/>
                                        </g>
                                    </g>
                                </g>
                                <g class="typst-group" transform="matrix(1 0 0 1 0 54)">
                                    <g>
                                        <g class="typst-text" transform="matrix(1 0 0 -1 11.42578125 6.93359375)">
                                            <use xlink:href="#g209ED18C3BFB68A6D12B501470815F67" x="0" y="0" fill="#818b98" fill-rule="nonzero"/>
                                            <use xlink:href="#gD1357359A1C487E32DC23C9A82D51AD" x="5.859375" y="0" fill="#818b98" fill-rule="nonzero"/>
                                            <use xlink:href="#g9B8CCCE7453B23FFC32D1DF0D86C4AF2" x="11.71875" y="0" fill="#818b98" fill-rule="nonzero"/>
                                            <use xlink:href="#gF5DE65ADA377C7521DEE5E492E48E37B" x="17.578125" y="0" fill="#818b98" fill-rule="nonzero"/>
                                            <use xlink:href="#g648D12E96EC46A0D10AC291024C52032" x="23.4375" y="0" fill="#818b98" fill-rule="nonzero"/>
                                            <use xlink:href="#g3F4290C42B35D82377D668B05AF71CF5" x="29.296875" y="0" fill="#818b98" fill-rule="nonzero"/>
                                        </g>
                                        <g class="typst-text" transform="matrix(1 0 0 -1 18.45703125 18.173828125)">
                                            <use xlink:href="#gA89B28849E570429A74B372C5A555659" x="0" y="0" fill="#59636e" fill-rule="nonzero"/>
                                            <use xlink:href="#gE2E584E44E1451AAC32324807229E6E0" x="5.2734375" y="0" fill="#59636e" fill-rule="nonzero"/>
                                            <use xlink:href="#g496D52F1239A202D2084B655D124B477" x="10.546875" y="0" fill="#59636e" fill-rule="nonzero"/>
                                            <use xlink:href="#gAA5BC326949E845CD7F7350B0C8C8758" x="15.8203125" y="0" fill="#59636e" fill-rule="nonzero"/>
                                        </g>
                                    </g>
                                </g>
                            </g>
                        </g>
                        <g class="typst-group" transform="matrix(1 0 0 1 92.0078125 120.173828125)">
                            <g>
                                <g class="typst-group" transform="matrix(1 0 0 1 2.3671875 0)">
                                    <g>
                                        <path class="typst-shape" fill="#f6f8fa" fill-rule="nonzero" d="M 0 0m 0 5.6 c 0 -3.0927944 2.5072055 -5.6 5.6 -5.6 h 36.800003 c 3.0927925 0 5.5999985 2.5072055 5.5999985 5.6 v 28.800001 c 0 3.0927925 -2.507206 5.5999985 -5.5999985 5.5999985 h -36.800003 c -3.0927944 0 -5.6 -2.507206 -5.6 -5.5999985 Z "/>
                                        <path class="typst-shape" fill="none" stroke="#dae0e7" stroke-width="0.8" stroke-linecap="butt" stroke-linejoin="miter" stroke-miterlimit="4" d="M 0 0m 5.6 0 h 36.800003 c 3.0927925 0 5.5999985 2.5072055 5.5999985 5.6 v 28.800001 c 0 3.0927925 -2.507206 5.5999985 -5.5999985 5.5999985 h -36.800003 c -3.0927944 0 -5.6 -2.507206 -5.6 -5.5999985 v -28.800001 c 0 -3.0927944 2.5072055 -5.6 5.6 -5.6 "/>
                                        <g class="typst-text" transform="matrix(1 0 0 -1 18.7265625 26.240234375)">
                                            <use xlink:href="#g165CBD9DA0DA5D33506210DF2D0C5F76" x="0" y="0" fill="#1f2328" fill-rule="nonzero"/>
                                        </g>
                                    </g>
                                </g>
                                <g class="typst-group" transform="matrix(1 0 0 1 0 54)">
                                    <g>
                                        <g class="typst-text" transform="matrix(1 0 0 -1 8.7890625 6.93359375)">
                                            <use xlink:href="#g209ED18C3BFB68A6D12B501470815F67" x="0" y="0" fill="#818b98" fill-rule="nonzero"/>
                                            <use xlink:href="#gD1357359A1C487E32DC23C9A82D51AD" x="5.859375" y="0" fill="#818b98" fill-rule="nonzero"/>
                                            <use xlink:href="#g9B8CCCE7453B23FFC32D1DF0D86C4AF2" x="11.71875" y="0" fill="#818b98" fill-rule="nonzero"/>
                                            <use xlink:href="#gF5DE65ADA377C7521DEE5E492E48E37B" x="17.578125" y="0" fill="#818b98" fill-rule="nonzero"/>
                                            <use xlink:href="#g69C4DC7F7A4415EDA24E242A73FD57D4" x="23.4375" y="0" fill="#818b98" fill-rule="nonzero"/>
                                            <use xlink:href="#g9FE3E2E4D4ED23900188C057E2935EFF" x="29.296875" y="0" fill="#818b98" fill-rule="nonzero"/>
                                        </g>
                                        <g class="typst-text" transform="matrix(1 0 0 -1 0 18.173828125)">
                                            <use xlink:href="#g9E80DE21BD69AE0F43672228C9C283DA" x="0" y="0" fill="#59636e" fill-rule="nonzero"/>
                                            <use xlink:href="#gC863C15A47F1EE40B91CD46D2F207AF0" x="5.2734375" y="0" fill="#59636e" fill-rule="nonzero"/>
                                            <use xlink:href="#g89539EE537737028186317CBFCF7AA64" x="10.546875" y="0" fill="#59636e" fill-rule="nonzero"/>
                                            <use xlink:href="#gBA14514AED833AD8570A169A632C4096" x="15.8203125" y="0" fill="#59636e" fill-rule="nonzero"/>
                                            <use xlink:href="#gC979954D9EBF87A71FAD624AF61A34DA" x="21.09375" y="0" fill="#59636e" fill-rule="nonzero"/>
                                            <use xlink:href="#g99BDDA39759112029642C3930FB2B2C" x="26.3671875" y="0" fill="#59636e" fill-rule="nonzero"/>
                                            <use xlink:href="#gBA14514AED833AD8570A169A632C4096" x="31.640625" y="0" fill="#59636e" fill-rule="nonzero"/>
                                            <use xlink:href="#gCC3398A96F9AF8005ADB726061509A1" x="36.9140625" y="0" fill="#59636e" fill-rule="nonzero"/>
                                            <use xlink:href="#gA89B28849E570429A74B372C5A555659" x="42.1875" y="0" fill="#59636e" fill-rule="nonzero"/>
                                            <use xlink:href="#gDD8C3EB95CCF01C5EB3828AC0916201E" x="47.4609375" y="0" fill="#59636e" fill-rule="nonzero"/>
                                        </g>
                                    </g>
                                </g>
                            </g>
                        </g>
                        <g class="typst-group" transform="matrix(1 0 0 1 158.7421875 120.173828125)">
                            <g>
                                <g class="typst-group" transform="matrix(1 0 0 1 2.3671875 0)">
                                    <g>
                                        <path class="typst-shape" fill="#f6f8fa" fill-rule="nonzero" d="M 0 0m 0 5.6 c 0 -3.0927944 2.5072055 -5.6 5.6 -5.6 h 36.800003 c 3.0927925 0 5.5999985 2.5072055 5.5999985 5.6 v 28.800001 c 0 3.0927925 -2.507206 5.5999985 -5.5999985 5.5999985 h -36.800003 c -3.0927944 0 -5.6 -2.507206 -5.6 -5.5999985 Z "/>
                                        <path class="typst-shape" fill="none" stroke="#dae0e7" stroke-width="0.8" stroke-linecap="butt" stroke-linejoin="miter" stroke-miterlimit="4" d="M 0 0m 5.6 0 h 36.800003 c 3.0927925 0 5.5999985 2.5072055 5.5999985 5.6 v 28.800001 c 0 3.0927925 -2.507206 5.5999985 -5.5999985 5.5999985 h -36.800003 c -3.0927944 0 -5.6 -2.507206 -5.6 -5.5999985 v -28.800001 c 0 -3.0927944 2.5072055 -5.6 5.6 -5.6 "/>
                                        <g class="typst-text" transform="matrix(1 0 0 -1 18.7265625 26.240234375)">
                                            <use xlink:href="#g1FEB20877EEE09B4B33CF1BB4AD9044F" x="0" y="0" fill="#1f2328" fill-rule="nonzero"/>
                                        </g>
                                    </g>
                                </g>
                                <g class="typst-group" transform="matrix(1 0 0 1 0 54)">
                                    <g>
                                        <g class="typst-text" transform="matrix(1 0 0 -1 8.7890625 6.93359375)">
                                            <use xlink:href="#g209ED18C3BFB68A6D12B501470815F67" x="0" y="0" fill="#818b98" fill-rule="nonzero"/>
                                            <use xlink:href="#gD1357359A1C487E32DC23C9A82D51AD" x="5.859375" y="0" fill="#818b98" fill-rule="nonzero"/>
                                            <use xlink:href="#g9B8CCCE7453B23FFC32D1DF0D86C4AF2" x="11.71875" y="0" fill="#818b98" fill-rule="nonzero"/>
                                            <use xlink:href="#gF5DE65ADA377C7521DEE5E492E48E37B" x="17.578125" y="0" fill="#818b98" fill-rule="nonzero"/>
                                            <use xlink:href="#g69C4DC7F7A4415EDA24E242A73FD57D4" x="23.4375" y="0" fill="#818b98" fill-rule="nonzero"/>
                                            <use xlink:href="#g422C6BA5ED3475D5D6F39DF42147DC9D" x="29.296875" y="0" fill="#818b98" fill-rule="nonzero"/>
                                        </g>
                                        <g class="typst-text" transform="matrix(1 0 0 -1 2.63671875 18.173828125)">
                                            <use xlink:href="#gA89B28849E570429A74B372C5A555659" x="0" y="0" fill="#59636e" fill-rule="nonzero"/>
                                            <use xlink:href="#gEFAEEDD6907DC1C45C92FF41D2845054" x="5.2734375" y="0" fill="#59636e" fill-rule="nonzero"/>
                                            <use xlink:href="#gDD8C3EB95CCF01C5EB3828AC0916201E" x="10.546875" y="0" fill="#59636e" fill-rule="nonzero"/>
                                            <use xlink:href="#gC979954D9EBF87A71FAD624AF61A34DA" x="15.8203125" y="0" fill="#59636e" fill-rule="nonzero"/>
                                            <use xlink:href="#g99BDDA39759112029642C3930FB2B2C" x="21.09375" y="0" fill="#59636e" fill-rule="nonzero"/>
                                            <use xlink:href="#gBA14514AED833AD8570A169A632C4096" x="26.3671875" y="0" fill="#59636e" fill-rule="nonzero"/>
                                            <use xlink:href="#gCC3398A96F9AF8005ADB726061509A1" x="31.640625" y="0" fill="#59636e" fill-rule="nonzero"/>
                                            <use xlink:href="#gA89B28849E570429A74B372C5A555659" x="36.9140625" y="0" fill="#59636e" fill-rule="nonzero"/>
                                            <use xlink:href="#gDD8C3EB95CCF01C5EB3828AC0916201E" x="42.1875" y="0" fill="#59636e" fill-rule="nonzero"/>
                                        </g>
                                    </g>
                                </g>
                            </g>
                        </g>
                        <g class="typst-group" transform="matrix(1 0 0 1 225.4765625 120.173828125)">
                            <g>
                                <g class="typst-group" transform="matrix(1 0 0 1 5.00390625 0)">
                                    <g>
                                        <path class="typst-shape" fill="#f6f8fa" fill-rule="nonzero" d="M 0 0m 0 5.6 c 0 -3.0927944 2.5072055 -5.6 5.6 -5.6 h 36.800003 c 3.0927925 0 5.5999985 2.5072055 5.5999985 5.6 v 28.800001 c 0 3.0927925 -2.507206 5.5999985 -5.5999985 5.5999985 h -36.800003 c -3.0927944 0 -5.6 -2.507206 -5.6 -5.5999985 Z "/>
                                        <path class="typst-shape" fill="none" stroke="#dae0e7" stroke-width="0.8" stroke-linecap="butt" stroke-linejoin="miter" stroke-miterlimit="4" d="M 0 0m 5.6 0 h 36.800003 c 3.0927925 0 5.5999985 2.5072055 5.5999985 5.6 v 28.800001 c 0 3.0927925 -2.507206 5.5999985 -5.5999985 5.5999985 h -36.800003 c -3.0927944 0 -5.6 -2.507206 -5.6 -5.5999985 v -28.800001 c 0 -3.0927944 2.5072055 -5.6 5.6 -5.6 "/>
                                        <g class="typst-text" transform="matrix(1 0 0 -1 18.73095703125 26.240234375)">
                                            <use xlink:href="#gC0DDF7F452AA660BD2F17F9891A4656E" x="0" y="0" fill="#1f2328" fill-rule="nonzero"/>
                                        </g>
                                    </g>
                                </g>
                                <g class="typst-group" transform="matrix(1 0 0 1 0 54)">
                                    <g>
                                        <g class="typst-text" transform="matrix(1 0 0 -1 11.42578125 6.93359375)">
                                            <use xlink:href="#g209ED18C3BFB68A6D12B501470815F67" x="0" y="0" fill="#818b98" fill-rule="nonzero"/>
                                            <use xlink:href="#gD1357359A1C487E32DC23C9A82D51AD" x="5.859375" y="0" fill="#818b98" fill-rule="nonzero"/>
                                            <use xlink:href="#g9B8CCCE7453B23FFC32D1DF0D86C4AF2" x="11.71875" y="0" fill="#818b98" fill-rule="nonzero"/>
                                            <use xlink:href="#gF5DE65ADA377C7521DEE5E492E48E37B" x="17.578125" y="0" fill="#818b98" fill-rule="nonzero"/>
                                            <use xlink:href="#g69C4DC7F7A4415EDA24E242A73FD57D4" x="23.4375" y="0" fill="#818b98" fill-rule="nonzero"/>
                                            <use xlink:href="#g1FBD1A571A1111CB63B8A5FA2D3BD50A" x="29.296875" y="0" fill="#818b98" fill-rule="nonzero"/>
                                        </g>
                                        <g class="typst-text" transform="matrix(1 0 0 -1 0 18.173828125)">
                                            <use xlink:href="#g4C06857F2585BA43717A6A4E596626B6" x="0" y="0" fill="#59636e" fill-rule="nonzero"/>
                                            <use xlink:href="#g351938A1069D2E5A8826F6B3F6137B12" x="5.2734375" y="0" fill="#59636e" fill-rule="nonzero"/>
                                            <use xlink:href="#g351938A1069D2E5A8826F6B3F6137B12" x="10.546875" y="0" fill="#59636e" fill-rule="nonzero"/>
                                            <use xlink:href="#gEFAEEDD6907DC1C45C92FF41D2845054" x="15.8203125" y="0" fill="#59636e" fill-rule="nonzero"/>
                                            <use xlink:href="#g9E80DE21BD69AE0F43672228C9C283DA" x="21.09375" y="0" fill="#59636e" fill-rule="nonzero"/>
                                            <use xlink:href="#g99BDDA39759112029642C3930FB2B2C" x="26.3671875" y="0" fill="#59636e" fill-rule="nonzero"/>
                                            <use xlink:href="#g9E80DE21BD69AE0F43672228C9C283DA" x="31.640625" y="0" fill="#59636e" fill-rule="nonzero"/>
                                            <use xlink:href="#gC863C15A47F1EE40B91CD46D2F207AF0" x="36.9140625" y="0" fill="#59636e" fill-rule="nonzero"/>
                                            <use xlink:href="#g89539EE537737028186317CBFCF7AA64" x="42.1875" y="0" fill="#59636e" fill-rule="nonzero"/>
                                            <use xlink:href="#gBA14514AED833AD8570A169A632C4096" x="47.4609375" y="0" fill="#59636e" fill-rule="nonzero"/>
                                            <use xlink:href="#gC979954D9EBF87A71FAD624AF61A34DA" x="52.734375" y="0" fill="#59636e" fill-rule="nonzero"/>
                                        </g>
                                    </g>
                                </g>
                            </g>
                        </g>
                        <g class="typst-group" transform="matrix(1 0 0 1 297.484375 120.173828125)">
                            <g>
                                <g class="typst-group" transform="matrix(1 0 0 1 5.00390625 0)">
                                    <g>
                                        <path class="typst-shape" fill="#f6f8fa" fill-rule="nonzero" d="M 0 0m 0 5.6 c 0 -3.0927944 2.5072055 -5.6 5.6 -5.6 h 36.800003 c 3.0927925 0 5.5999985 2.5072055 5.5999985 5.6 v 28.800001 c 0 3.0927925 -2.507206 5.5999985 -5.5999985 5.5999985 h -36.800003 c -3.0927944 0 -5.6 -2.507206 -5.6 -5.5999985 Z "/>
                                        <path class="typst-shape" fill="none" stroke="#dae0e7" stroke-width="0.8" stroke-linecap="butt" stroke-linejoin="miter" stroke-miterlimit="4" d="M 0 0m 5.6 0 h 36.800003 c 3.0927925 0 5.5999985 2.5072055 5.5999985 5.6 v 28.800001 c 0 3.0927925 -2.507206 5.5999985 -5.5999985 5.5999985 h -36.800003 c -3.0927944 0 -5.6 -2.507206 -5.6 -5.5999985 v -28.800001 c 0 -3.0927944 2.5072055 -5.6 5.6 -5.6 "/>
                                        <g class="typst-text" transform="matrix(1 0 0 -1 18.73095703125 26.240234375)">
                                            <use xlink:href="#g50A8B49DCAF94C54523F2254205D722C" x="0" y="0" fill="#1f2328" fill-rule="nonzero"/>
                                        </g>
                                    </g>
                                </g>
                                <g class="typst-group" transform="matrix(1 0 0 1 0 54)">
                                    <g>
                                        <g class="typst-text" transform="matrix(1 0 0 -1 11.42578125 6.93359375)">
                                            <use xlink:href="#g209ED18C3BFB68A6D12B501470815F67" x="0" y="0" fill="#818b98" fill-rule="nonzero"/>
                                            <use xlink:href="#gD1357359A1C487E32DC23C9A82D51AD" x="5.859375" y="0" fill="#818b98" fill-rule="nonzero"/>
                                            <use xlink:href="#g9B8CCCE7453B23FFC32D1DF0D86C4AF2" x="11.71875" y="0" fill="#818b98" fill-rule="nonzero"/>
                                            <use xlink:href="#gF5DE65ADA377C7521DEE5E492E48E37B" x="17.578125" y="0" fill="#818b98" fill-rule="nonzero"/>
                                            <use xlink:href="#g69C4DC7F7A4415EDA24E242A73FD57D4" x="23.4375" y="0" fill="#818b98" fill-rule="nonzero"/>
                                            <use xlink:href="#g9B8CCCE7453B23FFC32D1DF0D86C4AF2" x="29.296875" y="0" fill="#818b98" fill-rule="nonzero"/>
                                        </g>
                                        <g class="typst-text" transform="matrix(1 0 0 -1 0 18.173828125)">
                                            <use xlink:href="#gA89B28849E570429A74B372C5A555659" x="0" y="0" fill="#59636e" fill-rule="nonzero"/>
                                            <use xlink:href="#gE2E584E44E1451AAC32324807229E6E0" x="5.2734375" y="0" fill="#59636e" fill-rule="nonzero"/>
                                            <use xlink:href="#gD4FF2DEB1D00D46E1AF7525A67D987FC" x="10.546875" y="0" fill="#59636e" fill-rule="nonzero"/>
                                            <use xlink:href="#gEFAEEDD6907DC1C45C92FF41D2845054" x="15.8203125" y="0" fill="#59636e" fill-rule="nonzero"/>
                                            <use xlink:href="#g9E80DE21BD69AE0F43672228C9C283DA" x="21.09375" y="0" fill="#59636e" fill-rule="nonzero"/>
                                            <use xlink:href="#g99BDDA39759112029642C3930FB2B2C" x="26.3671875" y="0" fill="#59636e" fill-rule="nonzero"/>
                                            <use xlink:href="#g9E80DE21BD69AE0F43672228C9C283DA" x="31.640625" y="0" fill="#59636e" fill-rule="nonzero"/>
                                            <use xlink:href="#gC863C15A47F1EE40B91CD46D2F207AF0" x="36.9140625" y="0" fill="#59636e" fill-rule="nonzero"/>
                                            <use xlink:href="#g89539EE537737028186317CBFCF7AA64" x="42.1875" y="0" fill="#59636e" fill-rule="nonzero"/>
                                            <use xlink:href="#gBA14514AED833AD8570A169A632C4096" x="47.4609375" y="0" fill="#59636e" fill-rule="nonzero"/>
                                            <use xlink:href="#gC979954D9EBF87A71FAD624AF61A34DA" x="52.734375" y="0" fill="#59636e" fill-rule="nonzero"/>
                                        </g>
                                    </g>
                                </g>
                            </g>
                        </g>
                    </g>
                </g>
            </g>
        </g>
    </g>
    <defs id="glyph">
        <symbol id="gBCB3EE6BE962F52B7D847D281F57FCDD" overflow="visible">
            <path d="M 0 0m -0.6328125 16.804688 h 0.7470703 l 10.423828 -10.555664 l -10.423828 -10.573242 h -0.7470703 v 21.128906 Z "/>
        </symbol>
        <symbol id="g209ED18C3BFB68A6D12B501470815F67" overflow="visible">
            <path d="M 0 0m 2.9101563 -0.09765625 q -2.2265625 0 -2.2265625 2.3242188 v 4.7070313 h 1.015625 v -4.7070313 q 0 -0.6933594 0.29785156 -1.0449219 q 0.29785156 -0.3515625 0.9326172 -0.3515625 q 1.2304688 0 1.2304688 1.3964844 v 4.7070313 h 1.015625 v -4.7070313 q 0 -1.1621094 -0.5761719 -1.7431641 q -0.5761719 -0.5810547 -1.6894531 -0.5810547 Z "/>
        </symbol>
        <symbol id="gD1357359A1C487E32DC23C9A82D51AD" overflow="visible">
            <path d="M 0 0m 2.4121094 0.9277344 v 2.084961 h -1.9238281 v 0.9082031 h 1.9238281 v 2.0751953 h 1.0351563 v -2.0751953 h 1.9238281 v -0.9082031 h -1.9238281 v -2.084961 h -1.0351563 Z "/>
        </symbol>
        <symbol id="g9B8CCCE7453B23FFC32D1DF0D86C4AF2" overflow="visible">
            <path d="M 0 0m 0.78125 0 v 6.9335938 h 4.5898438 v -0.9277344 h -3.5742188 v -2.0703125 h 2.6953125 v -0.9277344 h -2.6953125 v -2.0800781 h 3.5742188 v -0.9277344 h -4.5898438 Z "/>
        </symbol>
        <symbol id="gF5DE65ADA377C7521DEE5E492E48E37B" overflow="visible">
            <path d="M 0 0m 2.9296875 -0.09765625 q -2.3632813 0 -2.3632813 3.515625 q 0 3.6132813 2.3632813 3.6132813 q 2.3632813 0 2.3632813 -3.6132813 q 0 -3.515625 -2.3632813 -3.515625 Z m 0 0.8984375 q 1.3183594 0 1.3183594 2.6171875 q 0 2.7148438 -1.3183594 2.7148438 q -1.3183594 0 -1.3183594 -2.7148438 q 0 -2.6171875 1.3183594 -2.6171875 Z m 0 1.8847656 q -0.32714844 0 -0.52978516 0.20263672 q -0.20263672 0.20263672 -0.20263672 0.52978516 q 0 0.33203125 0.20263672 0.53222656 q 0.20263672 0.20019531 0.52978516 0.20019531 q 0.33203125 0 0.53222656 -0.20019531 q 0.20019531 -0.20019531 0.20019531 -0.53222656 q 0 -0.32714844 -0.20019531 -0.52978516 q -0.20019531 -0.20263672 -0.53222656 -0.20263672 Z "/>
        </symbol>
        <symbol id="g69C4DC7F7A4415EDA24E242A73FD57D4" overflow="visible">
            <path d="M 0 0m 0.78125 0 v 6.9335938 h 2.0605469 q 1.0546875 0 1.6308594 -0.45654297 q 0.5761719 -0.45654297 0.5761719 -1.3012695 q 0 -0.6347656 -0.4321289 -1.0131836 q -0.4321289 -0.37841797 -1.2280273 -0.46142578 v -0.05859375 q 1.0253906 -0.0146484375 1.5869141 -0.46875 q 0.56152344 -0.45410156 0.56152344 -1.2695313 q 0 -0.9082031 -0.546875 -1.40625 q -0.546875 -0.49804688 -1.5527344 -0.49804688 h -2.65625 Z m 1.015625 0.9277344 h 1.3574219 q 0.64453125 0 1.0009766 0.29541016 q 0.3564453 0.29541016 0.3564453 0.8276367 q 0 0.546875 -0.37109375 0.84716797 q -0.37109375 0.30029297 -1.0546875 0.30029297 h -1.2890625 v -2.2705078 Z m 0 3.1982422 h 1.0644531 q 0.5517578 0 0.8569336 0.24658203 q 0.30517578 0.24658203 0.30517578 0.7055664 q 0 0.44921875 -0.31982422 0.68847656 q -0.31982422 0.23925781 -0.91064453 0.23925781 h -0.99609375 v -1.8798828 Z "/>
        </symbol>
        <symbol id="g9E80DE21BD69AE0F43672228C9C283DA" overflow="visible">
            <path d="M 0 0m 2.3203125 2.0039063 v -1.1865234 h 1.1425781 v -0.8173828 h -3.1113281 v 0.8173828 h 1.0371094 v 3.0234375 h -0.8613281 v 0.8173828 h 1.6171875 l 0.15820313 -1.1953125 h 0.10546875 q 0.07910156 1.2832031 1.2832031 1.2832031 q 0.7207031 0 1.0458984 -0.41308594 q 0.3251953 -0.41308594 0.3251953 -1.3359375 h -0.92285156 q 0 0.5097656 -0.15161133 0.7338867 q -0.15161133 0.2241211 -0.48999023 0.2241211 q -0.5932617 0 -0.88549805 -0.50756836 q -0.29223633 -0.50756836 -0.29223633 -1.4436035 Z "/>
        </symbol>
        <symbol id="gC863C15A47F1EE40B91CD46D2F207AF0" overflow="visible">
            <path d="M 0 0m 0.703125 0 v 0.8173828 h 1.7753906 v 3.0234375 h -1.5117188 v 0.8173828 h 2.4433594 v -3.8408203 h 1.4326172 v -0.8173828 h -4.1396484 Z m 2.2104492 5.3964844 q -0.2680664 0 -0.45922852 0.19116211 q -0.19116211 0.19116211 -0.19116211 0.45922852 q 0 0.27246094 0.19116211 0.46142578 q 0.19116211 0.18896484 0.45922852 0.18896484 q 0.27246094 0 0.46142578 -0.18896484 q 0.18896484 -0.18896484 0.18896484 -0.46142578 q 0 -0.2680664 -0.18896484 -0.45922852 q -0.18896484 -0.19116211 -0.46142578 -0.19116211 Z "/>
        </symbol>
        <symbol id="g89539EE537737028186317CBFCF7AA64" overflow="visible">
            <path d="M 0 0m 0.7998047 -2.100586 l -0.043945313 0.85253906 l 1.4941406 0.043945313 q 0.70751953 0.021972656 1.0283203 0.39111328 q 0.32080078 0.36914063 0.3251953 1.0854492 v 0.57128906 h -0.087890625 q -0.043945313 -0.43945313 -0.3713379 -0.6855469 q -0.32739258 -0.24609375 -0.8635254 -0.24609375 q -0.9140625 0 -1.3864746 0.6020508 q -0.4724121 0.6020508 -0.4724121 1.7709961 q 0 1.2128906 0.4724121 1.8369141 q 0.4724121 0.62402344 1.3864746 0.62402344 q 0.5449219 0 0.8833008 -0.24609375 q 0.3383789 -0.24609375 0.3955078 -0.6855469 h 0.057128906 l 0.07470703 0.84375 h 0.84375 v -4.245117 q 0 -1.2436523 -0.56689453 -1.8369141 q -0.56689453 -0.5932617 -1.8061523 -0.6328125 l -1.3623047 -0.043945313 Z m 2.803711 4.5878906 q 0 1.4677734 -1.1162109 1.4677734 q -1.1425781 0 -1.1425781 -1.6699219 q 0 -1.5820313 1.1425781 -1.5820313 q 1.1162109 0 1.1162109 1.4677734 v 0.31640625 Z "/>
        </symbol>
        <symbol id="gBA14514AED833AD8570A169A632C4096" overflow="visible">
            <path d="M 0 0m 3.6035156 0 v 3.0322266 q 0 0.44384766 -0.21972656 0.6833496 q -0.21972656 0.23950195 -0.6152344 0.23950195 q -1.0986328 0 -1.0986328 -1.3359375 v -2.6191406 h -0.9316406 v 6.591797 h 0.9316406 v -2.7773438 h 0.087890625 q 0.07910156 0.9316406 1.2304688 0.9316406 q 0.73828125 0 1.1425781 -0.4482422 q 0.40429688 -0.4482422 0.40429688 -1.265625 v -3.0322266 h -0.9316406 Z "/>
        </symbol>
        <symbol id="gC979954D9EBF87A71FAD624AF61A34DA" overflow="visible">
            <path d="M 0 0m 3.4804688 -0.087890625 q -1.059082 0 -1.5314941 0.43945313 q -0.4724121 0.43945313 -0.4724121 1.40625 v 2.0830078 h -1.1689453 v 0.8173828 h 1.1689453 v 1.40625 h 0.9316406 v -1.40625 h 2.118164 v -0.8173828 h -2.118164 v -2.0390625 q 0 -0.55371094 0.27026367 -0.8041992 q 0.27026367 -0.25048828 0.8898926 -0.25048828 q 0.21972656 0 0.4658203 0.024169922 q 0.24609375 0.024169922 0.5625 0.0637207 l 0.10546875 -0.8173828 q -0.3076172 -0.052734375 -0.5998535 -0.07910156 q -0.29223633 -0.026367188 -0.6218262 -0.026367188 Z "/>
        </symbol>
        <symbol id="g99BDDA39759112029642C3930FB2B2C" overflow="visible">
            <path d="M 0 0m 0.43945313 2.7070313 v 0.8173828 h 4.3945313 v -0.8173828 h -4.3945313 Z "/>
        </symbol>
        <symbol id="gD1B2E94B5C9985D20B63EC1E24E5C26A" overflow="visible">
            <path d="M 0 0m 2.2763672 -0.087890625 q -0.52734375 0 -0.9030762 0.030761719 q -0.37573242 0.030761719 -0.68774414 0.10107422 l 0.10546875 0.84375 q 0.46142578 -0.0703125 0.81518555 -0.10546875 q 0.35375977 -0.03515625 0.670166 -0.03515625 q 0.70751953 0 1.026123 0.13842773 q 0.31860352 0.13842773 0.31860352 0.4416504 q 0 0.2109375 -0.11206055 0.31420898 q -0.11206055 0.103271484 -0.3449707 0.16040039 l -1.0722656 0.27246094 q -0.6899414 0.17578125 -1.0129395 0.4350586 q -0.32299805 0.25927734 -0.32299805 0.7866211 q 0 0.76464844 0.5866699 1.1074219 q 0.5866699 0.34277344 1.8918457 0.34277344 q 0.64160156 0 1.2304688 -0.087890625 l -0.09667969 -0.80859375 q -0.35595703 0.03515625 -0.62841797 0.048339844 q -0.27246094 0.013183594 -0.5317383 0.013183594 q -0.78222656 0 -1.1337891 -0.1340332 q -0.3515625 -0.1340332 -0.3515625 -0.43725586 q 0 -0.20214844 0.14501953 -0.29223633 q 0.14501953 -0.09008789 0.44384766 -0.16479492 l 0.8613281 -0.2109375 q 0.7338867 -0.17578125 1.0744629 -0.47021484 q 0.34057617 -0.2944336 0.34057617 -0.8569336 q 0 -0.75146484 -0.5493164 -1.092041 q -0.5493164 -0.34057617 -1.762207 -0.34057617 Z "/>
        </symbol>
        <symbol id="gE2E584E44E1451AAC32324807229E6E0" overflow="visible">
            <path d="M 0 0m 2.6367188 -0.087890625 q -0.9667969 0 -1.5029297 0.6328125 q -0.5361328 0.6328125 -0.5361328 1.7841797 q 0 1.1557617 0.5361328 1.786377 q 0.5361328 0.63061523 1.5029297 0.63061523 q 0.9711914 0 1.505127 -0.63061523 q 0.53393555 -0.63061523 0.53393555 -1.786377 q 0 -1.1513672 -0.53393555 -1.7841797 q -0.53393555 -0.6328125 -1.505127 -0.6328125 Z m 0 0.83496094 q 0.51416016 0 0.7932129 0.41308594 q 0.27905273 0.41308594 0.27905273 1.1689453 q 0 0.7602539 -0.27905273 1.1711426 q -0.27905273 0.41088867 -0.7932129 0.41088867 q -0.51416016 0 -0.7932129 -0.41088867 q -0.27905273 -0.41088867 -0.27905273 -1.1711426 q 0 -0.7558594 0.27905273 -1.1689453 q 0.27905273 -0.41308594 0.7932129 -0.41308594 Z "/>
        </symbol>
        <symbol id="gA89B28849E570429A74B372C5A555659" overflow="visible">
            <path d="M 0 0m 3.3310547 -0.087890625 q -0.80859375 0 -1.1689453 0.43945313 q -0.36035156 0.43945313 -0.36035156 1.40625 v 4.0166016 h -1.3710938 v 0.8173828 h 2.3027344 v -4.790039 q 0 -0.36914063 0.0703125 -0.6020508 q 0.0703125 -0.23291016 0.2746582 -0.34277344 q 0.2043457 -0.10986328 0.60424805 -0.10986328 q 0.3647461 0 0.9316406 0.16699219 l 0.10546875 -0.8173828 q -0.35595703 -0.09667969 -0.6833496 -0.140625 q -0.32739258 -0.043945313 -0.70532227 -0.043945313 Z "/>
        </symbol>
        <symbol id="gD46CF900D89C3C16A92D33623164D35C" overflow="visible">
            <path d="M 0 0m 2.2807617 -0.087890625 q -0.9140625 0 -1.3864746 0.6020508 q -0.4724121 0.6020508 -0.4724121 1.7709961 q 0 1.2128906 0.4724121 1.8369141 q 0.4724121 0.62402344 1.3864746 0.62402344 q 0.5229492 0 0.8503418 -0.24609375 q 0.32739258 -0.24609375 0.38452148 -0.6855469 h 0.087890625 v 2.7773438 h 0.9316406 v -6.591797 l -0.83496094 -0.043945313 l -0.092285156 0.8876953 h -0.092285156 q -0.043945313 -0.43945313 -0.3713379 -0.6855469 q -0.32739258 -0.24609375 -0.8635254 -0.24609375 Z m 1.3227539 2.258789 v 0.31640625 q 0 1.4677734 -1.1162109 1.4677734 q -1.1425781 0 -1.1425781 -1.6699219 q 0 -1.5820313 1.1425781 -1.5820313 q 1.1162109 0 1.1162109 1.4677734 Z "/>
        </symbol>
        <symbol id="gFCFFDB19CD60F646C784FE3DA8AB3B43" overflow="visible">
            <path d="M 0 0m 0 15.811523 l 0.90527344 0.8876953 l 9.6328125 -10.450195 l -9.6328125 -10.467773 l -0.90527344 0.8964844 l 8.780273 9.571289 l -8.780273 9.5625 Z "/>
        </symbol>
        <symbol id="g1AD09EA4C75BF40681D1D0C3768664BE" overflow="visible">
            <path d="M 0 0m 0.8300781 0 v 0.9277344 h 1.7382813 v 5 l -1.640625 -0.56640625 v 0.9863281 l 1.640625 0.5859375 h 1.015625 v -6.0058594 h 1.5527344 v -0.9277344 h -4.3066406 Z "/>
        </symbol>
        <symbol id="g633FB8EB4E92D6FD3B927F14FC393029" overflow="visible">
            <path d="M 0 0m 3.6035156 0 v 3.0322266 q 0 0.421875 -0.21972656 0.6503906 q -0.21972656 0.22851563 -0.6152344 0.22851563 q -1.0986328 0 -1.0986328 -1.2919922 v -2.6191406 h -0.9316406 v 4.658203 h 0.84375 l 0.07470703 -0.84375 h 0.10107422 q 0.07910156 0.9316406 1.2304688 0.9316406 q 0.73828125 0 1.1425781 -0.4482422 q 0.40429688 -0.4482422 0.40429688 -1.265625 v -3.0322266 h -0.9316406 Z "/>
        </symbol>
        <symbol id="gEFAEEDD6907DC1C45C92FF41D2845054" overflow="visible">
            <path d="M 0 0m 3.0410156 -0.087890625 q -1.190918 0 -1.8391113 0.6262207 q -0.64819336 0.6262207 -0.64819336 1.7995605 q 0 1.1425781 0.5493164 1.7753906 q 0.5493164 0.6328125 1.5512695 0.6328125 q 0.9448242 0 1.4611816 -0.57128906 q 0.5163574 -0.57128906 0.5163574 -1.6611328 q 0 -0.32080078 -0.026367188 -0.59765625 h -3.1464844 q 0.123046875 -0.58447266 0.55371094 -0.88549805 q 0.43066406 -0.3010254 1.1337891 -0.3010254 q 0.29003906 0 0.57128906 0.032958984 q 0.28125 0.032958984 0.57128906 0.09008789 l 0.11425781 -0.8173828 q -0.41308594 -0.07910156 -0.7558594 -0.10107422 q -0.34277344 -0.021972656 -0.6064453 -0.021972656 Z m -1.6171875 2.7158203 h 2.3642578 q 0 0.62841797 -0.29882813 0.9645996 q -0.29882813 0.33618164 -0.8261719 0.33618164 q -0.54052734 0 -0.8613281 -0.3383789 q -0.32080078 -0.3383789 -0.3779297 -0.96240234 Z "/>
        </symbol>
        <symbol id="g435DC34ADADB2EF2CF66B4453C9E9CF9" overflow="visible">
            <path d="M 0 0m 10.423828 -4.3242188 l -10.423828 10.573242 l 10.423828 10.555664 h 0.7470703 v -21.128906 h -0.7470703 Z "/>
        </symbol>
        <symbol id="g3F4290C42B35D82377D668B05AF71CF5" overflow="visible">
            <path d="M 0 0m 0.7421875 0 v 1.1132813 q 1.6064453 0.8886719 2.3999023 1.8481445 q 0.79345703 0.95947266 0.79345703 1.9799805 q 0 1.1914063 -1.1816406 1.1914063 q -0.3955078 0 -0.8251953 -0.22949219 q -0.4296875 -0.22949219 -0.7373047 -0.61035156 l -0.6738281 0.6689453 q 0.33691406 0.48339844 0.95703125 0.7763672 q 0.6201172 0.29296875 1.2988281 0.29296875 q 2.1875 0 2.1875 -2.0898438 q 0 -1.0498047 -0.6665039 -2.0141602 q -0.6665039 -0.96435547 -2.0288086 -1.8530273 v -0.14648438 h 2.9882813 v -0.9277344 h -4.5117188 Z "/>
        </symbol>
        <symbol id="gDD8C3EB95CCF01C5EB3828AC0916201E" overflow="visible">
            <path d="M 0 0m 1.7666016 0 v 2.8125 h -1.4677734 v 0.8173828 h 1.4677734 v 0.6328125 q 0 2.4169922 2.2060547 2.4169922 q 0.50097656 0 0.9667969 -0.087890625 l -0.09667969 -0.80859375 q -0.27685547 0.03515625 -0.48779297 0.048339844 q -0.2109375 0.013183594 -0.4086914 0.013183594 q -1.2480469 0 -1.2480469 -1.5380859 v -0.6767578 h 1.9072266 v -0.8173828 h -1.9072266 v -2.8125 h -0.9316406 Z "/>
        </symbol>
        <symbol id="g6C18D033884C50A8BC68989901E20A12" overflow="visible">
            <path d="M 0 0m 1.7402344 6.2490234 l 8.797852 -9.571289 l -0.8876953 -0.8964844 l -9.650391 10.467773 l 9.650391 10.450195 l 0.8876953 -0.8876953 l -8.797852 -9.5625 Z "/>
        </symbol>
        <symbol id="g16670A415BDD64F982FA08D7572630E0" overflow="visible">
            <path d="M 0 0m 2.5097656 -0.09765625 q -0.5371094 0 -0.9838867 0.06347656 q -0.44677734 0.06347656 -0.79345703 0.17089844 l 0.12207031 0.9326172 q 0.29785156 -0.08300781 0.6713867 -0.17578125 q 0.37353516 -0.09277344 0.9448242 -0.09277344 q 0.76171875 0 1.1816406 0.30273438 q 0.41992188 0.30273438 0.41992188 0.8496094 q 0 0.5859375 -0.5371094 0.9033203 q -0.5371094 0.3173828 -1.5234375 0.3173828 h -0.15625 l -0.1171875 0.6347656 q 1.1523438 0.15625 1.6699219 0.52490234 q 0.5175781 0.36865234 0.5175781 0.9008789 q 0 0.4248047 -0.2758789 0.6616211 q -0.2758789 0.2368164 -0.7885742 0.2368164 q -0.37109375 0 -0.7885742 -0.18554688 q -0.41748047 -0.18554688 -0.7885742 -0.5566406 l -0.6738281 0.6689453 q 0.44921875 0.5078125 1.0400391 0.7397461 q 0.5908203 0.2319336 1.3183594 0.2319336 q 0.9472656 0 1.4648438 -0.40283203 q 0.5175781 -0.40283203 0.5175781 -1.1499023 q 0 -0.625 -0.40039063 -1.0864258 q -0.40039063 -0.46142578 -1.0449219 -0.6323242 v -0.10253906 q 0.71777344 -0.12695313 1.1547852 -0.5883789 q 0.43701172 -0.46142578 0.43701172 -1.2133789 q 0 -0.9277344 -0.67626953 -1.4404297 q -0.67626953 -0.5126953 -1.9116211 -0.5126953 Z "/>
        </symbol>
        <symbol id="g552994DF83EDF3F22FD6AEF8BA3C0ED8" overflow="visible">
            <path d="M 0 0m 2.4257813 -3.9375 h -2.4257813 v 4.236328 q 0 1.5820313 0.69433594 2.5839844 q 0.50097656 0.703125 1.4765625 1.3359375 l 1.3535156 0.87890625 q 0.7470703 0.4921875 1.1162109 1.2128906 q 0.34277344 0.6855469 0.34277344 1.8457031 v 2.8828125 h -1.8369141 l 2.5751953 3.0058594 l 2.5576172 -3.0058594 h -1.8369141 v -3.375 q 0 -1.6699219 -0.47460938 -2.6015625 q -0.4658203 -0.8964844 -1.3974609 -1.5117188 l -0.66796875 -0.43945313 q -0.84375 -0.5625 -1.1162109 -1.0898438 q -0.36035156 -0.6152344 -0.36035156 -1.7226563 v -4.236328 Z m 0 10.40625 l -2.4257813 -1.5644531 v 11.513672 h 2.4257813 v -9.949219 Z "/>
        </symbol>
        <symbol id="g648D12E96EC46A0D10AC291024C52032" overflow="visible">
            <path d="M 0 0m 0.21972656 0 l 2.0019531 6.9335938 h 1.4160156 l 2.0019531 -6.9335938 h -1.0253906 l -0.45410156 1.6894531 h -2.4609375 l -0.45410156 -1.6894531 h -1.0253906 Z m 1.7285156 2.6171875 h 1.9628906 l -0.9375 3.4765625 h -0.087890625 l -0.9375 -3.4765625 Z "/>
        </symbol>
        <symbol id="g7109ECFC51F91CAEC05C3382AC67B7E" overflow="visible">
            <path d="M 0 0m 1.9643555 -0.087890625 q -0.31640625 0 -0.62402344 0.024169922 q -0.3076172 0.024169922 -0.62402344 0.0637207 v 6.591797 h 0.9316406 v -2.7773438 h 0.087890625 q 0.06591797 0.9316406 1.1425781 0.9316406 q 0.9316406 0 1.4414063 -0.5493164 q 0.5097656 -0.5493164 0.5097656 -1.5600586 q 0 -1.2963867 -0.7492676 -2.010498 q -0.7492676 -0.7141113 -2.1159668 -0.7141113 Z m -0.31640625 2.7070313 v -1.902832 q 0.123046875 -0.0087890625 0.25048828 -0.010986328 q 0.1274414 -0.0021972656 0.25048828 -0.0021972656 q 0.83935547 0 1.298584 0.5053711 q 0.45922852 0.5053711 0.45922852 1.4282227 q 0 0.6328125 -0.27905273 0.97558594 q -0.27905273 0.34277344 -0.7932129 0.34277344 q -1.1865234 0 -1.1865234 -1.3359375 Z "/>
        </symbol>
        <symbol id="gCC3398A96F9AF8005ADB726061509A1" overflow="visible">
            <path d="M 0 0m 3.5947266 -0.043945313 l -0.043945313 1.0283203 h -0.092285156 q -0.052734375 -0.5361328 -0.45483398 -0.8041992 q -0.4020996 -0.2680664 -1.0524902 -0.2680664 q -0.7294922 0 -1.1293945 0.3515625 q -0.39990234 0.3515625 -0.39990234 0.99316406 q 0 0.73828125 0.5515137 1.1337891 q 0.5515137 0.3955078 1.5578613 0.3955078 q 0.50097656 0 0.87890625 -0.07470703 v 0.21533203 q 0 0.4658203 -0.32739258 0.6833496 q -0.32739258 0.2175293 -0.9733887 0.23510742 l -1.1162109 0.030761719 l 0.087890625 0.8261719 l 0.9404297 -0.013183594 q 1.1557617 -0.017578125 1.7160645 -0.4987793 q 0.56030273 -0.48120117 0.56030273 -1.4040527 v -1.9423828 l 0.7910156 -0.09667969 v -0.7470703 l -1.4941406 -0.043945313 Z m -0.18457031 2.0390625 q -0.2241211 0.03515625 -0.44604492 0.03955078 q -0.22192383 0.0043945313 -0.45043945 0.0043945313 q -1.2128906 0 -1.2128906 -0.73828125 q 0 -0.3076172 0.20874023 -0.47460938 q 0.20874023 -0.16699219 0.59106445 -0.16699219 q 0.4350586 0 0.7272949 0.14941406 q 0.29223633 0.14941406 0.43725586 0.38232422 q 0.14501953 0.23291016 0.14501953 0.4790039 v 0.3251953 Z "/>
        </symbol>
        <symbol id="g496D52F1239A202D2084B655D124B477" overflow="visible">
            <path d="M 0 0m 3.084961 -0.087890625 q -1.190918 0 -1.8391113 0.6262207 q -0.64819336 0.6262207 -0.64819336 1.7995605 q 0 1.1425781 0.6130371 1.7753906 q 0.6130371 0.6328125 1.7512207 0.6328125 q 0.68115234 0 1.166748 -0.25268555 q 0.4855957 -0.25268555 0.6921387 -0.7141113 l -0.7163086 -0.54052734 q -0.1977539 0.32080078 -0.5053711 0.49658203 q -0.3076172 0.17578125 -0.6723633 0.17578125 q -0.6591797 0 -1.0239258 -0.39770508 q -0.3647461 -0.39770508 -0.3647461 -1.1315918 q 0 -0.79541016 0.4284668 -1.2150879 q 0.4284668 -0.41967773 1.223877 -0.41967773 q 0.3251953 0 0.6503906 0.030761719 q 0.3251953 0.030761719 0.6328125 0.083496094 l 0.10546875 -0.8173828 q -0.36035156 -0.07910156 -0.74487305 -0.10546875 q -0.38452148 -0.026367188 -0.7492676 -0.026367188 Z "/>
        </symbol>
        <symbol id="g1C16D22C02FBFA2C83A582DA1423A833" overflow="visible">
            <path d="M 0 0m 1.2216797 -0.7998047 q -1.2216797 0 -1.2216797 1.2392578 v 6.046875 q 0 1.3359375 1.0634766 1.3359375 v 2.680664 q 0 1.2041016 0.73828125 2.0214844 q 0.703125 0.7558594 1.7578125 0.7558594 q 1.0634766 0 1.7666016 -0.7558594 q 0.73828125 -0.8173828 0.73828125 -2.0214844 v -2.680664 q 1.0634766 0 1.0634766 -1.3359375 v -6.046875 q 0 -1.2392578 -1.2392578 -1.2392578 h -4.666992 Z m 2.3378906 12.946289 q -0.57128906 0 -0.94921875 -0.45703125 q -0.34277344 -0.421875 -0.34277344 -1.1865234 v -2.680664 h 2.5927734 v 2.680664 q 0 0.7470703 -0.36035156 1.1865234 q -0.3779297 0.45703125 -0.9404297 0.45703125 Z m 0.4921875 -10.87207 v 2.8388672 q 0.5888672 0.29882813 0.5888672 0.97558594 q 0 0.4658203 -0.3076172 0.7734375 q -0.3251953 0.3251953 -0.7734375 0.3251953 q -0.4482422 0 -0.7734375 -0.3251953 q -0.31640625 -0.31640625 -0.31640625 -0.7734375 q 0 -0.6767578 0.5888672 -0.97558594 v -2.8388672 h 0.99316406 Z "/>
        </symbol>
        <symbol id="gAA5BC326949E845CD7F7350B0C8C8758" overflow="visible">
            <path d="M 0 0m 0.703125 0 v 6.591797 h 0.9316406 v -3.9902344 h 0.2548828 q 0.5800781 0 0.9536133 0.19995117 q 0.37353516 0.19995117 0.5866699 0.6525879 q 0.21313477 0.45263672 0.31420898 1.2041016 h 0.9667969 q -0.21533203 -1.7138672 -1.0722656 -2.4038086 l 1.3710938 -2.2543945 h -1.1513672 l -1.0766602 1.8413086 q -0.31201172 -0.07470703 -0.6723633 -0.07470703 h -0.47460938 v -1.7666016 h -0.9316406 Z "/>
        </symbol>
        <symbol id="g165CBD9DA0DA5D33506210DF2D0C5F76" overflow="visible">
            <path d="M 0 0m -0.6328125 16.795898 v -21.120117 h 0.7294922 q 2.5664063 0 5.211914 1.5380859 q 5.2382813 2.9794922 5.2382813 9.026367 q 0 6.038086 -5.2382813 9.052734 q -2.6367188 1.5117188 -5.211914 1.5117188 l -0.7294922 -0.0087890625 Z "/>
        </symbol>
        <symbol id="g9FE3E2E4D4ED23900188C057E2935EFF" overflow="visible">
            <path d="M 0 0m 0.36132813 1.5527344 l 0.9765625 4.9902344 h 1.0546875 l -0.80566406 -4.0820313 h 2.211914 v 4.4726563 h 1.015625 v -4.4726563 h 0.6542969 v -0.9082031 h -0.6542969 v -1.5527344 h -1.015625 v 1.5527344 h -3.4375 Z "/>
        </symbol>
        <symbol id="g1FEB20877EEE09B4B33CF1BB4AD9044F" overflow="visible">
            <path d="M 0 0m 10.450195 16.804688 q -2.5664063 0 -5.211914 -1.5029297 q -5.2382813 -3.0146484 -5.2382813 -9.052734 q 0 -6.038086 5.2382813 -9.026367 q 2.6367188 -1.546875 5.211914 -1.5380859 h 0.7294922 v 21.120117 h -0.7294922 Z "/>
        </symbol>
        <symbol id="g422C6BA5ED3475D5D6F39DF42147DC9D" overflow="visible">
            <path d="M 0 0m 2.96875 -0.09765625 q -1.2060547 0 -1.7749023 0.60058594 q -0.56884766 0.60058594 -0.56884766 1.8701172 v 0.4296875 q 0 1.9873047 1.0083008 3.022461 q 1.0083008 1.0351563 3.0737305 1.1376953 l 0.09765625 -0.9277344 q -3.0908203 -0.13183594 -3.0957031 -2.7734375 h 0.087890625 q 0.14648438 0.5419922 0.5834961 0.83740234 q 0.43701172 0.29541016 1.0668945 0.29541016 q 0.9082031 0 1.4013672 -0.56152344 q 0.49316406 -0.56152344 0.49316406 -1.5869141 q 0 -1.1035156 -0.6274414 -1.7236328 q -0.6274414 -0.6201172 -1.7456055 -0.6201172 Z m 0.034179688 0.8984375 q 0.6201172 0 0.9667969 0.38330078 q 0.3466797 0.38330078 0.3466797 1.0620117 q 0 0.60058594 -0.31982422 0.92529297 q -0.31982422 0.32470703 -0.91552734 0.32470703 q -0.67871094 0 -1.0449219 -0.3515625 q -0.36621094 -0.3515625 -0.36621094 -0.99609375 q 0 -0.6347656 0.3515625 -0.99121094 q 0.3515625 -0.3564453 0.9814453 -0.3564453 Z "/>
        </symbol>
        <symbol id="gC0DDF7F452AA660BD2F17F9891A4656E" overflow="visible">
            <path d="M 0 0m 0.17578125 16.804688 h -0.703125 v -21.128906 h 0.703125 l 10.362305 21.128906 h -10.362305 Z "/>
        </symbol>
        <symbol id="g1FBD1A571A1111CB63B8A5FA2D3BD50A" overflow="visible">
            <path d="M 0 0m 3.6523438 -0.09765625 q -3.2324219 0 -3.2324219 3.5742188 q 0 1.6943359 0.8154297 2.6245117 q 0.8154297 0.9301758 2.2998047 0.9301758 q 0.71777344 0 1.25 -0.22705078 q 0.53222656 -0.22705078 0.7763672 -0.64697266 l -0.72265625 -0.71777344 q -0.21972656 0.33203125 -0.55908203 0.5126953 q -0.33935547 0.18066406 -0.7348633 0.18066406 q -0.9423828 0 -1.5112305 -0.67871094 q -0.56884766 -0.67871094 -0.56884766 -1.9287109 q 0 -2.7246094 2.3535156 -2.7246094 q 0.7080078 0 1.3964844 0.29296875 l 0.22460938 -0.859375 q -0.8496094 -0.33203125 -1.7871094 -0.33203125 Z "/>
        </symbol>
        <symbol id="g4C06857F2585BA43717A6A4E596626B6" overflow="visible">
            <path d="M 0 0m 2.1796875 -0.087890625 q -0.7338867 0 -1.1359863 0.43725586 q -0.4020996 0.43725586 -0.4020996 1.232666 v 3.0761719 h 0.9316406 v -3.0761719 q 0 -0.39990234 0.22851563 -0.61743164 q 0.22851563 -0.2175293 0.64160156 -0.2175293 q 0.5097656 0 0.76904297 0.32299805 q 0.25927734 0.32299805 0.25927734 1.083252 v 2.5048828 h 0.9316406 v -3.8144531 l 0.64160156 -0.09667969 v -0.7470703 l -1.4941406 -0.043945313 l -0.06591797 0.9404297 h -0.083496094 q -0.10986328 -0.47460938 -0.43066406 -0.7294922 q -0.32080078 -0.2548828 -0.7910156 -0.2548828 Z "/>
        </symbol>
        <symbol id="g351938A1069D2E5A8826F6B3F6137B12" overflow="visible">
            <path d="M 0 0m 0.73828125 -2.0214844 v 6.6796875 h 0.84375 l 0.07470703 -0.84375 h 0.057128906 q 0.061523438 0.43945313 0.39770508 0.6855469 q 0.33618164 0.24609375 0.8811035 0.24609375 q 0.91845703 0 1.3886719 -0.62402344 q 0.47021484 -0.62402344 0.47021484 -1.8369141 q 0 -1.1689453 -0.47021484 -1.7709961 q -0.47021484 -0.6020508 -1.3886719 -0.6020508 q -0.5361328 0 -0.8635254 0.24609375 q -0.32739258 0.24609375 -0.3713379 0.6855469 h -0.087890625 v -2.8652344 h -0.9316406 Z m 0.9316406 4.192383 q 0 -1.4677734 1.1162109 -1.4677734 q 1.1425781 0 1.1425781 1.5820313 q 0 1.6699219 -1.1425781 1.6699219 q -1.1162109 0 -1.1162109 -1.4677734 v -0.31640625 Z "/>
        </symbol>
        <symbol id="g50A8B49DCAF94C54523F2254205D722C" overflow="visible">
            <path d="M 0 0m 10.362305 16.804688 h 0.703125 v -21.128906 h -0.703125 l -10.362305 21.128906 h 10.362305 Z "/>
        </symbol>
        <symbol id="gD4FF2DEB1D00D46E1AF7525A67D987FC" overflow="visible">
            <path d="M 0 0m 3.1640625 0 l -0.5449219 3.7001953 h -0.052734375 l -0.5449219 -3.7001953 h -1.1865234 l -0.52734375 4.658203 h 0.87890625 l 0.3515625 -3.9550781 h 0.07910156 l 0.5493164 3.9550781 h 0.85253906 l 0.5493164 -3.9550781 h 0.07910156 l 0.3955078 3.9550781 h 0.92285156 l -0.6591797 -4.658203 h -1.1425781 Z "/>
        </symbol>
    </defs>
</svg>
